/* XPM */
static char *result[] = {
/* columns rows colors chars-per-pixel */
"48 48 234 2 ",
"   c #020202",
".  c #060907",
"X  c #03020A",
"o  c #0B0B0B",
"O  c #120A09",
"+  c #06160B",
"@  c #0A120B",
"#  c #020211",
"$  c #07051A",
"%  c #081711",
"&  c #161211",
"*  c #141514",
"=  c #1A1715",
"-  c #131D14",
";  c #151C1A",
":  c #1D1D1C",
">  c #280303",
",  c #340309",
"<  c #30100D",
"1  c #381709",
"2  c #271C1B",
"3  c #1F270B",
"4  c #042418",
"5  c #132416",
"6  c #19261C",
"7  c #24231C",
"8  c #2F311A",
"9  c #05042D",
"0  c #180625",
"q  c #16033D",
"w  c #321F2B",
"e  c #240A37",
"r  c #321032",
"t  c #0B2421",
"y  c #1B2721",
"u  c #173121",
"i  c #1C3523",
"p  c #1C3B23",
"a  c #242423",
"s  c #272A24",
"d  c #282927",
"f  c #292629",
"g  c #2C2C2C",
"h  c #342A2B",
"j  c #302D2D",
"k  c #2C302E",
"l  c #26392A",
"z  c #393620",
"x  c #31312D",
"c  c #2F2F35",
"v  c #322E31",
"b  c #382C37",
"n  c #2C3E32",
"m  c #333333",
"M  c #363837",
"N  c #3B3C3C",
"B  c #440E0E",
"V  c #440311",
"C  c #6B0516",
"Z  c #6E0A10",
"A  c #4A0228",
"S  c #4F1633",
"D  c #670229",
"F  c #7A0421",
"G  c #690F34",
"H  c #562E2B",
"J  c #5E292A",
"K  c #48393A",
"L  c #6A2D2D",
"P  c #146E12",
"I  c #1D412B",
"U  c #2A4633",
"Y  c #334338",
"T  c #35493B",
"R  c #2B5438",
"E  c #2F5A3C",
"W  c #34573E",
"Q  c #3F6A3E",
"!  c #484739",
"~  c #4E583D",
"^  c #6B5C29",
"/  c #110549",
"(  c #2E0E4F",
")  c #390357",
"_  c #373442",
"`  c #141372",
"'  c #340D6B",
"]  c #3C3673",
"[  c #4F0E4D",
"{  c #6C114A",
"}  c #522D4E",
"|  c #662552",
" . c #530861",
".. c #4D0C72",
"X. c #490579",
"o. c #6D1879",
"O. c #5F2263",
"+. c #4C2777",
"@. c #6B2868",
"#. c #742766",
"$. c #743172",
"%. c #3D4540",
"&. c #3C5543",
"*. c #346442",
"=. c #3A6746",
"-. c #376A47",
";. c #3B6D4A",
":. c #3C744D",
">. c #3F7751",
",. c #434344",
"<. c #434B45",
"1. c #49454A",
"2. c #474C49",
"3. c #4C4B4D",
"4. c #48544A",
"5. c #58524A",
"6. c #545554",
"7. c #585758",
"8. c #5B5C5B",
"9. c #6D5354",
"0. c #44674A",
"q. c #45764B",
"w. c #53724E",
"e. c #4B6A53",
"r. c #546B50",
"t. c #5D615C",
"y. c #467755",
"u. c #417D53",
"i. c #587759",
"p. c #6D7254",
"a. c #555160",
"s. c #655C63",
"d. c #705B71",
"f. c #5C6561",
"g. c #636363",
"h. c #69666B",
"j. c #766E73",
"k. c #756875",
"l. c #91090B",
"z. c #840219",
"x. c #850123",
"c. c #96052B",
"v. c #AC0830",
"b. c #B80234",
"n. c #942839",
"m. c #BC253F",
"M. c #C7043C",
"N. c #827F36",
"B. c #8B0C5B",
"V. c #863F53",
"C. c #AF395A",
"Z. c #80317B",
"A. c #BF3B60",
"S. c #D80342",
"D. c #D10F46",
"F. c #EA0149",
"G. c #F4014D",
"H. c #D52752",
"J. c #D22D62",
"K. c #FD2E66",
"L. c #EB3E6D",
"P. c #B5475F",
"I. c #8E7653",
"U. c #A64965",
"Y. c #84686A",
"T. c #826B78",
"R. c #DB4E78",
"E. c #F54C7A",
"W. c #7CA613",
"Q. c #4E804A",
"!. c #448257",
"~. c #4B8854",
"^. c #458559",
"/. c #4A865B",
"(. c #47895C",
"). c #498D5E",
"_. c #57955B",
"`. c #569A5F",
"'. c #5B9C5E",
"]. c #718244",
"[. c #629851",
"{. c #64A35B",
"}. c #6BA758",
"|. c #6DA958",
" X c #72A955",
".X c #4B8F60",
"XX c #479162",
"oX c #4C9362",
"OX c #519661",
"+X c #539860",
"@X c #9A8818",
"#X c #A8BF29",
"$X c #D5B636",
"%X c #8B8558",
"&X c #968E55",
"*X c #AFAC45",
"=X c #8F946C",
"-X c #A3907A",
";X c #8EB368",
":X c #B1A166",
">X c #A6B568",
",X c #CEBF50",
"<X c #D3C550",
"1X c #370081",
"2X c #580E83",
"3X c #6B1388",
"4X c #883386",
"5X c #897886",
"6X c #947B91",
"7X c #FE5182",
"8X c #96858D",
"9X c #9B8C99",
"0X c #A89292",
"qX c #A2B99C",
"wX c #9C98A3",
"eX c #AE96AA",
"rX c #AEACAE",
"tX c #B2AFB7",
"yX c #BAA7B8",
"uX c #C39DBD",
"iX c #B5CD95",
"pX c #CCD796",
"aX c #D1E796",
"sX c #CAD6B6",
"dX c #D7EAA2",
"fX c #CEA6C8",
"gX c #D2B7D1",
"hX c #E4BEDF",
"jX c #EBBEE4",
"kX c #CDD3C9",
"lX c #DEE2C7",
"zX c #EAF0D6",
"xX c #EDCCE9",
"cX c #F6FAE2",
/* pixels */
"oXoXoXoXoXoXoXoXoXoXoXOXoXoXoXoXoXoXoXoXoXoXoXoXoXoXoXoXoXoXoXoXoXoXoXoXoXoXoXoXoXOXoXoXoXoXoXoX",
"oXoXoXoXoXoXoXoXoXoXoXoXoXoXoXoXoXoXOXXX).oXoXoXoXoXoXoXoXoXoXoXoXoXoXoXoXoXoXoXoXoXoXoXoX).XXoX",
"oXoXoXoXoXoXoXoXoXoXoXoXoXoXoXoXoXoXXX^.^.XXoXoXoXoXoXoXoXoXoXoXoXoXoXoXoXoXoXoXoXoXoXoX.X^.^.oX",
"oXoXoXoXoXoXOXoXoXoXoXoXoXoXoXoXoXoXXX^.^.oXoXoXoXoXoXOXoXoXoXoXoXoXoXoXoXoXoXoXoXoXoXoXXX^.(.oX",
"oXoXoXoXOX'.{.oXoXoXoXoXoXoXoXoXoXoXoXoXoXoXoXoXoXoXoXoXoXoXOX+X{.oXoXoXoXoXoXoXoXoXoXoXoXoXoXoX",
"oXoXoXoX|.'.{.oXoXoXoXoXoXoXoXoXoXoXoXoXoXoXoXoXoXoXoXoXoXOX|.{.{.oXoXoXoXoXoXoXoXoXoXoXoXoXoXoX",
"oXoXOXOX|.+X+XoXoXoXoXoXoXoXoXoXoXoXoXoXoXoXoXoXoXoXoXoXoXOX|.+X'..XoXoXoXoXoXoXoXoXoXoXoXoXoXoX",
"oXoXoXOX+XoXoXoXoXoXoXoXoXoXoXoXXXoXoXoXoXoXoXoXoXoXXXoXoXoX+XoXXXoXoXoXoXoXoXXXoXoXoXoXoXoXoXoX",
"oXoXoXoXoXoXoXoX.X)./.^.(.)..XoXoXoXoXoXXX`.{.oXoXoXoXXXoXoXoXoXoX.X).(.!.^.XX.XoXoXoXoXoXoXoXOX",
"oXoXoXoXoXoXoXoX).0.T T *.>.y.oXoXoXoXoXoX{.{.'.oXoXXXXXoXoXoXoXoXu.:.W n W y..XoXoXoXoXoXoXoX{.",
"oXoXoXoXoXoXoXoXu.U M %.W p i &.>..XoX/.;.E Q =.=.&.*.:.(.oX(.:.R i i &.2.! &.^.oXoXoXoXoXoXoXoX",
"oXoXoX)..XoXoX.X:.- g.5XT.a.f f U -.u.0.W T Y Y Y Y U &.q.>.*.l f b s.5X5Xh.n u.oXoXoXoXoXoXoXoX",
"oXoX^.!.!.oXoXXXy.6 9XfXfXeX5X3.d @ - Y 4.8.g.g.g.g.f.6.%.d % g s.8XyXfXfX5X5 !.oXoXoXoXoXoXoXoX",
"XXoXoX!.XXoXoXXXy.: 5XgXxXhX9X1.+ : a v ,.3.8.g.f.h.h.g.f.7.2.M h.yXhXjXuXk.5 >.oXoXoXOXoXoXoXoX",
";XoXoXoXoXoXoXoXq.6 1.eXxXhX6Xb . m m g a g M ! 2.7.f.g.h.h.h.4.h.eXhXhX6X_ i ^.oXoXoXoXoXoXoXoX",
";XXXoXoXoXoXoXoX^.E y k.yX6X2 j g v g g g g d g x m N ,.6.f.g.h.8.1.wXyX5X0.-.XXoXoXoXoXoXoXoXoX",
"{.oXoXoXoXoXXXoX).-.y v k.1.. g v g g g g g f f f d f g M <.6.g.t.<.g.j.6.&.>.).oXoXoXoXoXoXoXOX",
"|.oX}.+XoXoXoXoX).:.i     * M k g g g g g g g k g g g f a d M ,.7.h.!   @ U u.).oXXX{.`.oXoXoXoX",
"[.[. X_.oXoXoX.X.X).E 5 7 m M g x x g j m k g f f k m m j h j g M 6.f.t.n *.XXoXXXoX}.`.+XoXoXoX",
"!.[.~..XoXoXoXoX.X(.R ; g :     X 0 #     a v v k g :     # 0     o 6.g.<.;.oXoXoXoX}.'.|.oXoXoX",
")./..X.XoXoXoXoX).:.i * a c %.t.T 5 &.6.1.y y j c : f a.6.&.4 4.t.T 3.8.6.0.!.oXoXoX`.`.}.oXoXoX",
"*XOXoXXXoXoX.XoX).-.l = % k.tXkX;XP iXsXrX}   5 % o 8.tXsX;XP qXkXwXd.2.t.0.:.).oX.XoXoX_.oXoXoX",
"+XoXoXoXoXoXoXoX(.-.n ; o k.gXcXiXW.dXzXtX3.# Y m o f.kXzXaXW.sXzXtXh.8 t.r.q.XXoX.XoXoXoXoXoXoX",
"OXoXoXoXoXoXoXoX(.;.l * o g.rXzXpX#XaXlXtX%.} j.h.} a.tXlXdX#XpXlXwXa.3 6.r.w..XoXoXoXoXoXoXoXoX",
"oXoXoXoXoXoXoXoX(.E i : g v ,.g.=X>X=Xt._ * 5XyXyXk.. ,.j.=X>X=X7.N c } r.r.q.).oXoXoXoXoXoXoXoX",
"oXoXoXoXoXoX.XoX).>.p * g 6   . ~ p.x X   O h.6X5X7.    . ! p.!     d T ,.0.^.oXoXoXoXoXoXoXoXoX",
"oXoXoXoXoXoXoXoXoX).R * : g M d o X $ f M v @     % M m y X   $ g M m k n ;.oXoXoXoXoXoXoXoXoXoX",
"oXoXoXoXoXoXoXoX.XXX-.i * : f g g k g g g g g j v g g j j g g g g m k g U :.oXoXoXoXoXXXOXoXXXXX",
"oXoXoXoXoXoXoXoXXXoX/.E o * a j m x x g g g j M m k f g g v k m k x d y Q ).oXoXoXoXoXoX).!.!.).",
"oXoXoXoXoXoXoXoXoXoXXXu.5 o ; f g g g g g g g f g g g g g j g g k x 7 p (.oXoXoXoXoXoXoXoX!.!.OX",
"oXoXoXoX+X+X{.oXoXoXXX(.=.y & 2 2 2 f g g g g g g g g g v b h f h h U :.XXXXoXoXoXoXoXoXoXoXXXOX",
"oXoXoXOX|.'.{.XXoXoXoX.X(.*.u + . % ; 7 s f g x j g f g a t 4 + + I ;.).XXoXoXoXoXoXoXoXXXOXXXOX",
"oXoXoXOX X+X'.oXoXoXoXXXoX~.~ B , & X + * : 6 7 7 6 : 2 & < S S H i..XOXoXoXoXoXoXoXoXoXoXoXoXoX",
"oXoXoXoX+XoXoXoXoXoXoXoX).0.J v.x.V     . + . .     +   > F v.P.U.9.i.oXoXoXXXoXoXoXoXoXOXoXoXoX",
"oXoXoXoXoXoXoXoXoXoXoX(.&.8 x.M.S.M.b.c.C O ^ @X&X~ > F b.D.L.E.R.U.9.-..XXXoXoXoXoXoXoXoXoXoXOX",
"oXoXoXoXoXoXoXoXoXoXoX:.5 X F S.G.G.F.D.c.< @X<XpX%X< c.S.K.7X7XL.C.H u ^.oXoXoXoXoXoXoXoXoXoX{.",
"oXoXoXoXoXoXoXoXoXoX(.E - @ < x.M.S.b.l.Z O @X$X,XN.O l.l.m.E.K.M.C % l ^.oXoXoXOXoXoXoXoXoXoXoX",
"oXoXoX^.oXoXoXoXoXXX;.l : t y , F c.D D A q 9.%XI.5.q A S B.J.D.l.& % l u.oXoXoXoXoXoXoXoXoXoXoX",
"oXoXXX^.!.oXoXXXoX).R - a g c 2 O $ 9 / / ( ' ` ` ' ( / ' o.B.G # 4 ; s !.oXoXoXoXoXoXoXoXoXoXoX",
"oXoXXX^.).oXoX.XXX).R % ; f N 1.M q [ | @.O.Y.-X-Xd.[ @.Z.4XZ.| S X + m ^.oXoXoXoXoXoXoXoXoXoXoX",
";XoXoXoXoXoXoXoX.X.X;.l @ ; g T c w S | | S I.:X0XY.[ @.$.@.$.#.G B 6 *.oXXXoXoXoXoXoXoXoXoXoXoX",
";XoXoXoXoXoXoXoXoXoX).E 5 o * a a w S } [ r 9.&X-Xd. .O.} O.@.o.{ Z H e..X.XoXoXoXoXoXoXoXoXoXoX",
"'.oXoXoXoXoXoXoXoX.XoX!.W 2 ,   9 e ( X.X...+.] ] +.2XX.2X3X4X3X{ z.n.V.K ;.oXoXoXoXoXoXoXoXoXoX",
" X.X}.+XoXoXoXoXoX.XoXXXq.J C , 0 q / ) X.X.' 1X' X.2X2X3X2X3X..[ v.H.A.5.>.oXoXoXoX{.+XoXoXoXoX",
"[.[. X_.oXoXoXoXoX.XoX(.0.L x.D r 0 $ e ) ) ..+.2X....o.o.O.[ r D M.H.P.i..XoXoXoXoX|.`.+XoXoXoX",
"~.[.~.).oXoXoXoXoXoXoX(.=.J x.z.Z > O X 0 e ( c ( e e } r : 1 Z z.x.F ~ .XoXoXoXoXoX|.'.|.oXoXoX",
"XX(.XXoXoXoXoXoXoXoXoX).u.! J L H z 8 i p U E Q U 5 + 3 5 8 ! 5.L K E >.oXoXoXOXoXoX'.+X|.oXoXoX",
"*XoXoXoXoXoXoXoXoXoXoXoX^.Q.].-.-.:.q.q.;.!.oXoX:.U - @ h ,.t.i.q.!.XXoXoXoXoX{.>XXXoXoX+XoXoXoX"
};
