/* XPM */
static char *result[] = {
/* columns rows colors chars-per-pixel */
"48 48 231 2 ",
"   c #010101",
".  c #020B05",
"X  c #04080B",
"o  c #170404",
"O  c #041707",
"+  c #03100B",
"@  c #0B130D",
"#  c #030218",
"$  c #170D14",
"%  c #091912",
"&  c #141514",
"*  c #131C14",
"=  c #1B1B1A",
"-  c #280504",
";  c #350408",
":  c #2E0917",
">  c #251B1C",
",  c #002208",
"<  c #07291B",
"1  c #15261A",
"2  c #1B2E1F",
"3  c #173014",
"4  c #222C10",
"5  c #22221D",
"6  c #2F2C1C",
"7  c #0E0422",
"8  c #07013B",
"9  c #19003A",
"0  c #230D28",
"q  c #3B0222",
"w  c #2B1233",
"e  c #062428",
"r  c #1B3522",
"t  c #1C3B26",
"y  c #093430",
"u  c #232423",
"i  c #282828",
"p  c #2C2C2C",
"a  c #312524",
"s  c #302D2D",
"d  c #29352C",
"f  c #31312D",
"g  c #2E2D33",
"h  c #322D30",
"j  c #3A2D30",
"k  c #2E3731",
"l  c #2B3D32",
"z  c #333332",
"x  c #383938",
"c  c #4A080E",
"v  c #530A19",
"b  c #710104",
"n  c #6C0417",
"m  c #6C021D",
"M  c #75021C",
"N  c #5C241E",
"B  c #550125",
"V  c #4B1B26",
"C  c #4F1E3C",
"Z  c #521030",
"A  c #790421",
"S  c #710930",
"D  c #593228",
"F  c #492037",
"G  c #55243A",
"H  c #41343E",
"J  c #6D2F31",
"K  c #026403",
"L  c #1E4226",
"P  c #27412E",
"I  c #284431",
"U  c #344338",
"Y  c #37453B",
"T  c #2D563A",
"R  c #315E3F",
"E  c #3F693E",
"W  c #646302",
"Q  c #4B533A",
"!  c #726139",
"~  c #050243",
"^  c #160A49",
"/  c #270251",
"(  c #35015D",
")  c #341151",
"_  c #322644",
"`  c #3A3943",
"'  c #121373",
"]  c #331569",
"[  c #36007D",
"{  c #3E3774",
"}  c #4C0F4F",
"|  c #490051",
" . c #433E45",
".. c #5D235C",
"X. c #62294A",
"o. c #470265",
"O. c #4E1467",
"+. c #57176A",
"@. c #460278",
"#. c #52087A",
"$. c #74166C",
"%. c #522474",
"&. c #682764",
"*. c #742975",
"=. c #3E4841",
"-. c #375741",
";. c #3A5241",
":. c #336342",
">. c #366A46",
",. c #376948",
"<. c #3A6E4A",
"1. c #3B734D",
"2. c #3B6B52",
"3. c #3F7A52",
"4. c #434444",
"5. c #434C46",
"6. c #4C4B4D",
"7. c #504D4D",
"8. c #47574A",
"9. c #554E52",
"0. c #535454",
"q. c #585958",
"w. c #5C5C5B",
"e. c #6B4C4D",
"r. c #46664A",
"t. c #45734B",
"y. c #4F6A51",
"u. c #576758",
"i. c #467756",
"p. c #427D54",
"a. c #6D7052",
"s. c #5C576B",
"d. c #635A62",
"f. c #695E6A",
"g. c #5F6160",
"h. c #5B7562",
"j. c #636363",
"k. c #6B6A67",
"l. c #6A6A6A",
"z. c #6D6777",
"x. c #7A6976",
"c. c #90080A",
"v. c #8C0127",
"b. c #98062A",
"n. c #9B0032",
"m. c #A4042E",
"M. c #B60435",
"N. c #8E2D3B",
"B. c #B42037",
"V. c #C6013A",
"C. c #D5013E",
"Z. c #97024A",
"A. c #962F43",
"S. c #D70641",
"D. c #D30F47",
"F. c #E60446",
"G. c #F5014D",
"H. c #CB3462",
"J. c #F63268",
"K. c #8C7252",
"L. c #A54D67",
"P. c #836366",
"I. c #84747C",
"U. c #CB5B7D",
"Y. c #F74B7B",
"T. c #729E02",
"R. c #438256",
"E. c #458559",
"W. c #4A8658",
"Q. c #498D5E",
"!. c #57955B",
"~. c #569A5F",
"^. c #5B9C5E",
"/. c #629853",
"(. c #64A35B",
"). c #6BA758",
"_. c #6DA958",
"`. c #72A955",
"'. c #4B8F60",
"]. c #479162",
"[. c #4C9362",
"{. c #519661",
"}. c #549763",
"|. c #91880F",
" X c #A2B91D",
".X c #938E39",
"XX c #9FBA39",
"oX c #D5B533",
"OX c #908F51",
"+X c #B5A446",
"@X c #939162",
"#X c #91966D",
"$X c #A39078",
"%X c #8CB162",
"&X c #B1A162",
"*X c #A8B769",
"=X c #D4C54E",
"-X c #340081",
";X c #661587",
":X c #671886",
">X c #883189",
",X c #856C80",
"<X c #857382",
"1X c #877C85",
"2X c #F65181",
"3X c #EB648C",
"4X c #90818F",
"5X c #9D879A",
"6X c #A28A95",
"7X c #9AB493",
"8X c #B1A389",
"9X c #B094AC",
"0X c #A5A3A9",
"qX c #B9A8B9",
"wX c #B8B5BC",
"eX c #C2ACBE",
"rX c #A6C48B",
"tX c #CED28B",
"yX c #D3ED95",
"uX c #C9D6AD",
"iX c #DAE8B2",
"pX c #CCA7C7",
"aX c #D3ACCD",
"sX c #E2BEDE",
"dX c #CECAD5",
"fX c #E5C1DF",
"gX c #D9E3CB",
"hX c #E9EED4",
"jX c #EBC4E6",
"kX c #F2D3F0",
"lX c #FAFFE6",
/* pixels */
"[.[.[.[.[.[.[.[.[.[.[.[.[.[.[.[.[.[.[.[.[.[.[.[.[.[.[.[.[.[.{.[.[.[.[.[.[.[.[.[.[.[.[.[.[.[.[.[.",
"[.[.[.[.[.[.[.[.[.[.[.[.[.{.[.[.[.[.[.].Q.[.[.[.[.[.[.[.[.[.[.[.[.[.[.[.[.[.[.[.[.[.[.[.].].'.[.",
"[.[.[.[.[.[.[.[.[.[.[.[.[.[.[.[.[.[.].R.R.[.[.[.[.[.[.[.[.[.[.[.[.[.[.[.[.[.[.[.[.[.[.[.'.R.E.[.",
"[.[.[.[.[.[.{.[.[.[.[.[.[.[.[.[.[.[.[.R.E.[.[.[.[.[.[.[.[.[.[.[.{.[.[.[.[.[.[.[.[.[.[.[.].E.R.[.",
"[.[.[.[.{.}.(.[.[.[.[.[.[.[.[.[.[.[.[.[.[.[.[.[.[.[.[.[.[.[.{.}.(.[.[.[.[.[.[.[.[.[.[.[.[.[.[.[.",
"[.[.[.[._.^.(.[.[.[.[.[.[.[.[.[.[.[.[.[.[.[.[.[.[.[.[.[.[.{._.(.(.[.[.[.[.[.[.[.[.[.[.[.[.[.[.}.",
"[.[.[.{._.{.}.{.[.[.[.[.[.[.[.[.[.[.[.[.[.[.[.[.[.[.[.[.[.[._.{.~.[.[.[.[.[.[.[.[.[.[.[.[.[.[.[.",
"[.[.[.[.^.{.[.[.[.[.[.[.[.[.[.[.[.[.[.[.[.[.[.[.[.[.].[.[.[.^.[.].[.[.[.[.[.[.[.[.[.[.[.[.[.[.[.",
"[.[.[.[.[.[.[.[.[.'.E.E.E.].].[.[.[.[.[.].}.(.{.[.[.[.].[.[.].[.[.[.'.].p.E.'.'.[.[.[.[.[.[.[.}.",
"[.[.[.[.[.[.[.[.Q.t.;.U R 1.i.[.[.[.[.[.[.(.(./.[.[.[.[.[.[.[.[.[.i.1.:.l Y 2.].[.[.[.[.[.[.[.(.",
"[.[.[.[.[.[.[.[.E.I z =.-.L r T 1.'.[.Q.1.:.>.:.:.:.:.1.Q.].Q.1.T r r ;.8.Q =.E.[.[.[.[.[.[.[.[.",
"[.[.[.Q.].[.[.[.p.@ d.<XI.d.w i P :.p.1.;.U x U U U U U t.p.:.P p h d.<X1Xz.d 3.[.[.[.[.[.[.[.[.",
"[.[.E.E.R.[.[.[.W.& 5XaXaX9X,Xq.p @ * x 6.w.j.k.j.g.g.q.5.d @ i q.4X9XpXaX1X% 3.[.[.[.[.[.[.[.[.",
"].[.[.E.].[.[.[.W.@ <XpXkXsX9X9.O = 5 g 4.6.q.u.g.l.l.l.w.q.6.k g.qXfXjXaXI.% 3.[.[.[.[.[.[.[.[.",
"%X[.[.[.[.[.[.[.W.1 =.5XkXjX5Xx   z z p u p z =.5.0.w.w.l.l.l.5.g.9XjXjX1XX.2 R.[.[.[.[.[.[.[.[.",
"%X].[.[.[.[.[.[.W.-.1 f.eX5X0 p p g p p p g i p g z x =.0.g.l.l.g.=.5XeX1Xu.:.].[.[.[.[.[.[.[.[.",
"(.].[.[.[.[.[.[.'.<.2 i x.9.  p z p p p p p i i i i i p x 4.0.j.j.=.j.x.0.;.1.Q.[.[.[.[.[.[.[.[.",
"`.Q.).^.[.[.[.[.'.p.t     @ x s p p p p p p p p p p p i u u z 4.q.l.6.  + P p.Q.[.].(.!.[.[.[.[.",
"/./.`.!.[.[.[.[.'.].-.1 u h x p f f p p z g p p p p z z f i f p z 0.j.w.k :.[.'.].[.).~.}.{.[.[.",
"R./.W.Q.[.[.[.[.[.[.T * g 5       0 #     5 g p g p u     # 0       0.l.5.:.[.[.[.[.).^.).[.[.[.",
"Q.E.Q.{.[.[.[.[.Q.p.t & u h 4.u.Y , 6.q.6.u 5 g g 5 u 6.q.8., =.w.x 6.q.0.r.3.!.[.[.~.~.).[.[.[.",
"+X[.[.[.[.[.Q.[.Q.<.d = X f.0XgX7XK rXuXwX6.  = 1   6.wXuXrXK 7XgX0Xz.Q u.y.<.Q.[.[.[.[.!.[.[.[.",
"~.[.[.[.[.[.].[.Q.>.P =   z.wXlXuXT.yXhXdX0.  z z   q.dXhXiXT.uXlXwXl.4 g.u.t.Q.[.Q.[.[.[.[.[.[.",
"[.[.[.[.[.[.[.[.].1.l = X s.0XhXyX XyXgXwX`  .x.x.H =.wXgXiXXXtXhX0Xd.* q.y.t.Q.[.[.[.[.[.[.[.[.",
"[.[.[.[.[.[.[.[.Q.:.2 = f g ` d.#X&X@Xk. .  <XqXqX<X   .k.#X*X#Xw.` g H u.u.t.Q.[.[.[.[.[.[.[.[.",
"[.[.[.[.[.[.[.[.[.p.d @ d 5     7./.x       f.4X4Xf.      x /.Q     u Y 4.r.R.].[.[.[.[.[.[.[.[.",
"[.[.[.[.[.[.[.[.[.[.R @ = g z f X   # i z x @     @ x z u # o # p z z z k r.[.[.[.[.[.[.[.[.[.[.",
"[.[.[.[.[.[.[.[.[.[.<.t @ = p p f g p p g p p h h p p p p p p g p z p i P <.[.].[.[.[.[.[.[.].[.",
"[.[.[.[.[.[.[.[.Q.[.Q.:.. $ u p z z f p p i h z z g p p p s f f s z i 1 R Q.[.[.[.[.[.[.Q.R.R.[.",
"[.[.[.[.[.[.[.[.[.[.[.E.1 X = i p i p p p p p p p p p p p p p s s z u 2 W.[.[.[.[.[.[.[.[.R.R.[.",
"[.[.[.[.{.^.(.[.[.[.[.Q.1.2 $ > > u a p p s p p p p p p s j s a s a l >.].[.[.[.[.[.[.[.[.[.[.[.",
"[.[.[.[.).^.(.[.[.[.[.[.Q.>.r + X + * 5 u i p f f p i a i e < % O t <.[.[.[.[.[.[.[.[.[.[.[.[.[.",
"[.[.[.{._.~.^.[.[.[.].[.[.Q.E c ; $   + = = 5 5 5 5 = > & - V V V y.'.'.].].[.[.[.[.[.[.[.[.[.[.",
"[.[.[.[.^.[.].[.[.[.[.[.[.r.N m.b.c       O X       % . o b B.H.L.e.y.[.[.[.[.[.[.[.[.[.[.[.[.[.",
"[.[.[.[.[.[.[.[.[.[.[.].:.r A S.C.V.M.b.A o W .X@Xa.o n M.F.Y.Y.U.U.P.,.Q.[.[.[.[.[.[.[.[.[.{.{.",
"[.[.[.[.[.[.[.[.[.[.[.R.1   m S.G.G.G.C.b.- |.=X*X@X- b.C.J.Y.2XY.3XL.r R.[.[.[.[.[.[.[.[.[.[.(.",
"[.[.[.[.[.[.[.[.[.[.].p.* . ; A V.S.M.m.c.X |.oX=X+X  c.c.B.2XJ.F.N.x I <.'.[.[.[.[.[.[.[.[.[.[.",
"[.[.].E.[.[.[.[.[.[.[.3.@ + + o A n.S B B ~ e.K.OXw.9 B Z $.H.D.c.@ y 7.;.1.[.[.[.[.[.[.[.[.[.[.",
"[.{.Q.E.R.[.[.[.[.[.[.3.& X % o X # 8 ~ ~ ] ] ' ' ] ) ~ ( ;XZ.M . % 6.w.U R [.[.[.[.{.[.[.[.[.[.",
"].[.].R.Q.[.[.[.[.[.[.R.2   X v V V } ..&.o.P.$X6XP.| &.*.>X%._ , a 7.q.x :.[.[.[.[.[.[.[.[.[.[.",
"%X[.[.[.[.[.[.[.[.[.!.].R 6 c m G G G X.X.Z K.&X8XI.| &.*.*.^ e < 1 Y 6.;.1.[.[.[.[.[.[.[.[.[.[.",
"%X[.[.[.[.[.[.[.[.[.W.p.>.D M m Z C F G } w ! OX$XP.o.....} w u d i p U 1.W.[.[.[.[.[.[.[.[.[.[.",
"(.[.[.[.[.[.[.[.'.[.:.6 v n M q 8 / ( ( #.#.%.{ { %.@.@.#.;X;XO.q n D >.Q.].[.[.[.[.[.[.[.[.[.[.",
"`.].).}.[.[.[.[.[.[.1.H n v.v.q 8 8 ^ ( @.@.[ [ -X-X;X;X;X;X*.+.S V.N.1.[.[.[.[.[.[.(.{.[.[.[.[.",
"/./.`.!.[.[.[.[.[.[.Q.r.S v.v.n : : # w ( ( O.%.%.#.#.:X:X+.} } n.F.A.t.].[.].[.[.]._.~.}.[.[.[.",
"W./.W.Q.[.[.[.[.[.[.'.E.P N M v.n - X # 0 _ _ _ ` w w } w $ 7 m m.S.N.t.].[.[.[.[.]._.^._.[.[.[.",
"[.E.Q.[.[.[.[.[.[.[.[.'.1.Y D J N - = @ = H 8.t.>.T L t r r 3 D J N.e.p.[.[.].{.{.[.~.~._.[.[.[.",
"+X[.[.[.[.[.[.[.[.[.[.[.[./.%X3.I 1 u = u 8.h.}.~.Q.R.>.>.i.2.<.>.:.i.W.[.[.[.(.*X].[.[.~.[.[.[."
};
