/* XPM */
static char *_f355978d3aa4dcfc6461673f9138fe5jAlbA4PXmfZgJqDH[] = {
/* columns rows colors chars-per-pixel */
"48 48 228 2 ",
"   c None",
".  c #3A001D",
"X  c #751F14",
"o  c #780A00",
"O  c #7D2D16",
"+  c #762D1E",
"@  c #792D1C",
"#  c #73261A",
"$  c #792A16",
"%  c #4B1133",
"&  c #691C24",
"*  c #4A2132",
"=  c #4C2A3B",
"-  c #472539",
";  c #5E2E34",
":  c #572434",
">  c #5D323C",
",  c #56333D",
"<  c #53212E",
"1  c #652C2E",
"2  c #6B2E2C",
"3  c #662527",
"4  c #732D24",
"5  c #712E28",
"6  c #792F23",
"7  c #6C312E",
"8  c #7C3023",
"9  c #76312A",
"0  c #622E32",
"q  c #662E37",
"w  c #653134",
"e  c #643239",
"r  c #6B3538",
"t  c #733132",
"y  c #7A3C35",
"u  c #4D3C47",
"i  c #4F3E49",
"p  c #493341",
"a  c #553444",
"s  c #5A3543",
"d  c #523E49",
"f  c #4E2C40",
"g  c #643949",
"h  c #743E44",
"j  c #602942",
"k  c #52424B",
"l  c #5B434B",
"z  c #6C444E",
"x  c #68474A",
"c  c #764848",
"v  c #6D4753",
"b  c #734C54",
"n  c #784C56",
"m  c #6D5659",
"M  c #755A5E",
"N  c #7A5B5D",
"B  c #7B545A",
"V  c #7A504B",
"C  c #635F66",
"Z  c #7A5D61",
"A  c #775861",
"S  c #6C646A",
"D  c #696066",
"F  c #7B6162",
"G  c #73656B",
"H  c #746A6E",
"J  c #7B6864",
"K  c #756C71",
"L  c #796F74",
"P  c #7E7579",
"I  c #7D7475",
"U  c #7F716C",
"Y  c #990000",
"T  c #852A02",
"R  c #9A2700",
"E  c #973508",
"W  c #852D12",
"Q  c #8A2E13",
"!  c #8C3312",
"~  c #8E3914",
"^  c #893218",
"/  c #923513",
"(  c #943B14",
")  c #9B3C14",
"_  c #943A19",
"`  c #983816",
"'  c #8F3500",
"]  c #A43E0D",
"[  c #A33E14",
"{  c #A43F19",
"}  c #823323",
"|  c #873827",
" . c #9C4316",
".. c #984017",
"X. c #A94606",
"o. c #B24808",
"O. c #A54416",
"+. c #AA4415",
"@. c #A74817",
"#. c #AD4A17",
"$. c #A64618",
"%. c #A64918",
"&. c #AC4B19",
"*. c #A94718",
"=. c #B24C19",
"-. c #B44917",
";. c #BB541C",
":. c #B55118",
">. c #97482B",
",. c #894734",
"<. c #A0492B",
"1. c #A45124",
"2. c #B75221",
"3. c #C85F1A",
"4. c #814A46",
"5. c #845455",
"6. c #8D5B54",
"7. c #82575A",
"8. c #83575B",
"9. c #83595B",
"0. c #8D5D5C",
"q. c #8B5655",
"w. c #935D55",
"e. c #985F54",
"r. c #935E5F",
"t. c #8B5344",
"y. c #96634C",
"u. c #8D645B",
"i. c #9A6255",
"p. c #94645C",
"a. c #9B675A",
"s. c #9E6A5C",
"d. c #976556",
"f. c #9B735E",
"g. c #A56C54",
"h. c #A56C57",
"j. c #AB755D",
"k. c #A8745C",
"l. c #B57F5D",
"z. c #B37D5D",
"x. c #B17A55",
"c. c #A9654B",
"v. c #875F60",
"b. c #856563",
"n. c #87686D",
"m. c #8A6A6D",
"M. c #86676C",
"N. c #966963",
"B. c #83736C",
"V. c #88766E",
"C. c #9A766A",
"Z. c #8D7571",
"A. c #847A7D",
"S. c #877B79",
"D. c #957A72",
"F. c #9A7D73",
"G. c #947473",
"H. c #8E6D71",
"J. c #A37364",
"K. c #AA7664",
"L. c #A37A69",
"P. c #A77A66",
"I. c #B37D62",
"U. c #A26F65",
"Y. c #B6805F",
"T. c #8D817D",
"R. c #9C8579",
"E. c #A7826F",
"W. c #B78062",
"Q. c #BC8462",
"!. c #B68A6E",
"~. c #A48372",
"^. c #A48B7C",
"/. c #AC8B76",
"(. c #B18E76",
"). c #AA927E",
"_. c #B4937B",
"`. c #B8967A",
"'. c #BC997D",
"]. c #B39077",
"[. c #C28962",
"{. c #C88E65",
"}. c #D89A65",
"|. c #C99670",
" X c #897E81",
".X c #8E8284",
"XX c #958583",
"oX c #998A86",
"OX c #9E8D8B",
"+X c #92858A",
"@X c #A59282",
"#X c #AA9583",
"$X c #AC9A86",
"%X c #A7958D",
"&X c #BC9E83",
"*X c #B29C87",
"=X c #A69592",
"-X c #A89593",
";X c #BEA184",
":X c #B4A28D",
">X c #B8A68E",
",X c #BAA88F",
"<X c #BDAD94",
"1X c #B5A593",
"2X c #BFB197",
"3X c #C4A484",
"4X c #C6A98B",
"5X c #CCAD8C",
"6X c #C2A688",
"7X c #CFB18E",
"8X c #C1AF96",
"9X c #C3B396",
"0X c #C4B59A",
"qX c #CBBA9D",
"wX c #C8B79B",
"eX c #D1B28F",
"rX c #CDBDA1",
"tX c #D4C09F",
"yX c #D3C3A5",
"uX c #D4C6A9",
"iX c #DBCDAD",
"pX c #D8C9A9",
"aX c #DFD0AF",
"sX c #DED1B0",
"dX c #CFC1A4",
"fX c #E0D1AF",
"gX c #E1D2B1",
"hX c #E7D8B6",
/* pixels */
"                                              [.r.                                              ",
"                                          X {.[.v.=                                             ",
"                                        / ) z.I.8.q 1 ;                                         ",
"                                    / ` / ^ z.[.8.= 5 t 0 0                                     ",
"                                ! +./ ) +.Q z.[.B 1 O 2 q 9 4                                   ",
"                              W O.*.[ /  .` z.I.7.1 2 w 5 @ 8 0 2                               ",
"                          X -.+./ ( &.Q ! ^ l.[.7.= 2 2 2 2 w 2 ! 0                             ",
"                        ) O.( *.&. ./ / #.W l.Q.B 1 W 2 0 1 6 @ 2 0 } 2                         ",
"                      / #.#.[ ! ) #.+./  ._ z.z.8.1 7 0 5 @ 5 1 1 + @ t w                       ",
"                  / O./ ~ O.+.[ ! ..*.Q ! ^ Y.Q.7.= 2 2 2 2 ; 5 @ 4 w 1 8 4                     ",
"              / [ / ) +.) Q / @.#.( Q ) +.Q Y.[.7.1 O 2 0 2 + @ 1 w 5 @ 5 1 t @                 ",
"            W #.*.[ ( ( O.O./ !  .*.O./ ) ` z.Q.7.3 2 0 5 @ 5 0 1 @ @ 2 0 5 @ 8 0 5             ",
"        Q -.O.! ( $./ / ~ O.O.[ / ..O.W ! ^ z.I.8.= 2 2 2 2 0 5 @ 5 0 1 6 @ 1 ; 2 Q 0 2         ",
"    #.:.! [ #.=.O.! ( #.( / ( &.:. ./ ( #.W Y.[.8.1 O 2 ; 1 + @ 2 0 5 @ 5 2 5 6 @ 6 q 8 @       ",
"  ( ;./ #.[ ( *.#.O.! ( *.#.[ ! ) #.+.(  ./ Y.Q.B 2 2 0 5 @ 5 0 1 @ @ 2 ; 2 T 4 2 2 O 2 @ t     ",
"  / $.W @.&.+./ ( *.` / ~ O.*.[ / ..+.Q ! ! Y.{.7.= 5 1 2 2 0 5 @ 5 0 0 @ + 2 0 5 O 5 1 2 r     ",
"   .;.+.! ( #.$./ Q ) +.` ! / $.#.( W ) *.Q z.[.9.1 O 2 0 2 6 @ 2 0 2 @ 5 0 1 + @ 2 ; 6 O 9     ",
"  _ ;.[ O./ W  .@.[ ( ( +.O./ ~  .*.O./ ) _ z.I.B 3 2 ; 5 @ 4 0 1 @ @ 2 0 5 @ 4 0 1 + 6 O >     ",
"  _ &.! %.O.) / ( @.( ! ! O.*.[ ( ( @./ / _ z.Q.8.0 9 5 5 2 ; 5 @ 5 0 2 + + 2 ; 2 @ 5 1 2 t     ",
"  ! #.X.O O.#.=.O.! ( *.) / / *.&.) ^ X.2.,.x.J.B < + + w 1 + @ 2 0 2 @ 5 2 5 6 @ + 0 2 @ r     ",
"  ( =./ =. .) +.#.O.! ( O.#.[ ~ ) &.o.<.h v z b z n z r # @ 9 0 1 @ @ 2 ; 2 T 6 2 2 O 5 @ >     ",
"  _ *.W *.*.O./ ( *.` / ~ $.+.{ E ) t.F H.^.$X).$X@XD.Z.7.& 1 5 O 5 0 0 + + 2 ; 5 @ 5 0 2 7     ",
"   .;.O.! ( *.O./ Q ) #.) Q / X.>.n Z.).<X:XE.P.C.).,X:X$XD.r o 2 0 5 @ 5 0 2 6 @ 2 ; @ O 9     ",
"  ..;.O.O./ W  .$.O./ ( +.] T V Z.:X0XiXwXK.t.x.t.h.R.dXaXwX>XB.: $ 6 2 0 5 @ 5 1 1 @ 5 O >     ",
"  _ *.! @.O.) / ( $._ ! ' >.8.R.8X8XyXpXwXd.y.z.d.V R.yXaX0XqX>XG.t 3 1 4 4 1 q 5 @ 5 1 2 t     ",
"  ! =.*.W O.*.&. .^ ) &.h Z.*X0XpXqXrX8XiX9X~.N.b.R.qXaXuXqXuX2X0X:XA 4 4 5 5 5 @ @ 0 2 O e     ",
"  ( &./ %.( &.:.o.W 2 8.N.C.~.&X5X6XeX3XeX7X3X_.'.5X'.3X5X4X4X4X&X).N.v.> 3 T T 6 2 6 2 6 >     ",
"  / -.( ( ( o.| c g x g 5.L.~.L.P.C.N.E.6.y w.L.f.4.d.P.P.C.L.L.C.L.b.j s x x 2 X ; 0 0 5 8     ",
"  / ;.-.] # b D.$X>XrX*X0.!.rXsXiXiX0XsXrX~.J.!.N.Z.<XdXiXaXiXaXsXwXi.F.rX8X*XR.b.a 1 O O q     ",
"  ( #.} < b.@X2XuXaXaXgXqXL.j.5XiXsXiXiXiXwXK.0.n @XiXsXaXaXaXpX|.s.*XsXgXsXsXrX>XD.a ; 6 s     ",
"  , a a s B R.).;X&X&X;X6X&XL.h.(.;X;X;X].k.J./.J.N._.;X'.;X'.P.a._.6X3X&X*X&X&X~.b.g b n 8.    ",
"  0.N.r.b s 9.p.e.q.e.i.e.a.h.N.i.e.i.i.i.a.s.s.s.h.i.i.d.i.i.a.h.a.e.e.e.w.w.i.0.z a N.N.N.    ",
"  N.Q.K.z , n b Z M F F M F F F F F F F F M M M M M F F F F F F F F F F F N F m n c = N.[.K.    ",
"  k.{.W.z d.P.^.:X2X>X<XwXwXqXwXqXqXqXqXwXdXtXdXdXqXqXqXwXqXqXqXqX,X>XdXwX0X,X$XF.k.x p.}.I.    ",
"  z.}.Q.z m.#X9XdXyXyXfXgXgXfXfXgXfXfXfXfXyXwXqXwXtXaXfXgXsXgXfXfXqXiXfXfXgXpXqX>X^.b p.{.K.    ",
"  Y.}.W.z R.,XrXaXpXyXdX9XqXpXaXaXfXfX0Xf.>.R 3 R V u.).pXfXaXaXaXaXfXaXfXfXfXiXqX<XM p.[.U.    ",
"  Y.{.W.g ^.0XqXgXgXyXqXiXiXpXpXfXyXqXc.Y X.3.E 3.6 R o #XpXaXfXfXfXfXaXfXfXfXiXwX<Xm a.[.J.    ",
"  j.Q.I.z ^.<X<XyXyXpXiXgXyX<XpXyX9X0Xc.E >.1.| 1.y } 3 D.8XqXpXiXiXiXpXrXyXyX0X<X*Xm p.[.U.    ",
"  K.N.K.b J F././.].`._.`.(.].*X_._._.m = s * = - s x - L.`.`.`.`.'.'.'.`.].(.^.F.D.b N.K.J.    ",
"  h.0.a.g = c e.i.g.g.g.g.g.g.g.g.g.g.r x B x 5.x V B * d.d.i.i.h.w.w.i.i.g.i.6.5.n * 0.w.r.    ",
"  H.H.m.b.N m.m.m.m.n.m.n.n.A n.n.n.H.a V {.B N.6.0.u.* Z m.n.m.A m.n.m.m.n.H.m.m.8.M.n.m.G.    ",
"  OX-XOXoX.X-XXX-XT.oX=XOXoX X-XXX-XXXk c K.s.J.d.0.d.= XX=XOXoX X-XXX=XXXoX=XOXOXA.-XXX-XOX    ",
"  K C K P A.A.K H P K C G P A.A.K S A.= % j w r w > j . D S G P A.A.K G P K C G P A.A.L S A.    ",
"  K L G  X.X.XL G  XP K G  XXX.XI H K J V.n.U U B.B.V.V.G S G A.+X XP S  XI K G A.XX XP G +X    ",
"  k d * k i u d * p k d * k i u d , V.qXhXsXgXsXsXgXhXpXI D * k d i i * p k k * d i u d * p     ",
"                                    aXdXrX2XrX2X<XqX9X<X@XR.                                    ",
"                                    rXuX1XrXrX1X0X<X2X1X<XT.                                    ",
"                                    A..XS.S.T.S.P S.P K S D                                     "
};
