/* XPM */
static char *U3RhcnQ_[] = {
/* columns rows colors chars-per-pixel */
"48 48 185 2 ",
"   c #000008",
".  c #000012",
"X  c #000019",
"o  c #00001A",
"O  c #00002E",
"+  c #00002F",
"@  c #110426",
"#  c #180E2C",
"$  c #181428",
"%  c #000033",
"&  c #000034",
"*  c #000931",
"=  c #000B32",
"-  c #262336",
";  c #5E2F1B",
":  c #45312F",
">  c #5D392B",
",  c #433E39",
"<  c #612D29",
"1  c #703C28",
"2  c #6D482F",
"3  c #764329",
"4  c #73512B",
"5  c #7E5028",
"6  c #797335",
"7  c #312F41",
"8  c #312B48",
"9  c #303346",
"0  c #313548",
"q  c #323549",
"w  c #36394B",
"e  c #383848",
"r  c #3E3E51",
"t  c #3F435E",
"y  c #414351",
"u  c #4B4B53",
"i  c #4E4F5F",
"p  c #706B4B",
"a  c #424561",
"s  c #454862",
"d  c #4F5269",
"f  c #5A5B65",
"g  c #5B606A",
"h  c #626577",
"j  c #696E76",
"k  c #696F77",
"l  c #AA5819",
"z  c #B27B19",
"x  c #904220",
"c  c #9F5223",
"v  c #9D5326",
"b  c #85642B",
"n  c #86642B",
"m  c #896D2C",
"M  c #886F2D",
"N  c #996025",
"B  c #9D6328",
"V  c #946828",
"C  c #8A742E",
"Z  c #8D742D",
"A  c #8F772E",
"S  c #817432",
"D  c #8B7D31",
"F  c #8D7E30",
"G  c #8E7E30",
"H  c #B37928",
"J  c #A47230",
"K  c #C77B11",
"L  c #817D59",
"P  c #8E8032",
"I  c #8F8232",
"U  c #8F8332",
"Y  c #9C8F33",
"T  c #AE822C",
"R  c #AE832C",
"E  c #BB8A23",
"W  c #B68129",
"Q  c #B18D2F",
"!  c #A09439",
"~  c #B29030",
"^  c #B39632",
"/  c #B59530",
"(  c #B49731",
")  c #B9A536",
"_  c #B9A636",
"`  c #BBAA37",
"'  c #BBAB37",
"]  c #D38208",
"[  c #CF9300",
"{  c #CD8815",
"}  c #DF9D1A",
"|  c #DAAF00",
" . c #DCB512",
".. c #E6BC00",
"X. c #C28121",
"o. c #C08422",
"O. c #C08229",
"+. c #C58428",
"@. c #C3892C",
"#. c #C29226",
"$. c #CE9D2B",
"%. c #D09823",
"&. c #DDAB2B",
"*. c #DDAE29",
"=. c #D9B42F",
"-. c #D5AF34",
";. c #DCBE31",
":. c #E2B525",
">. c #E0B526",
",. c #DFC713",
"<. c #E0C200",
"1. c #E4CB06",
"2. c #DFC82B",
"3. c #E4CD24",
"4. c #E4CA31",
"5. c #E6CF33",
"6. c #E0CA3E",
"7. c #E6CC3E",
"8. c #EAD434",
"9. c #898456",
"0. c #898458",
"q. c #8A8659",
"w. c #8A855C",
"e. c #8B875C",
"r. c #ACA66A",
"t. c #C0B973",
"y. c #F0DC54",
"u. c #F3DF54",
"i. c #F1DD5A",
"p. c #CCC270",
"a. c #CCC274",
"s. c #D0C676",
"d. c #D1C776",
"f. c #EEDC62",
"g. c #EDDF67",
"h. c #F1DF66",
"j. c #F4E46D",
"k. c #F5E56F",
"l. c #FAE96F",
"z. c #FFEE6E",
"x. c #F6E772",
"c. c #F9EC7D",
"v. c #747882",
"b. c #767A85",
"n. c #787B86",
"m. c #7A7D87",
"M. c #7A7D88",
"N. c #7A7E88",
"B. c #848386",
"V. c #81868F",
"C. c #908F92",
"Z. c #949294",
"A. c #959395",
"S. c #92979F",
"D. c #9598A1",
"F. c #A3AEB6",
"G. c #A5AEB5",
"H. c #ABB6BF",
"J. c #DED581",
"K. c #FCF085",
"L. c #B6BDC1",
"P. c #B7BEC2",
"I. c #BBC6CD",
"U. c #BFC8CC",
"Y. c #BCC8CF",
"T. c #BDC8CF",
"R. c #C0C9CD",
"E. c #C5CDD1",
"W. c #C6CED2",
"Q. c #C8D0D4",
"!. c #D5E1E5",
"~. c #DEE2E4",
"^. c #DEE2E5",
"/. c #DFE2E5",
"(. c #DAE5E7",
"). c #DCE7EA",
"_. c #E3EEF1",
"`. c #E5EEF0",
"'. c #E7F0F3",
"]. c #E8F1F3",
"[. c #F7FCFD",
"{. c #FAFEFF",
"}. c #FCFFFF",
"|. c white",
" X c None",
/* pixels */
" X X X X X X X X X X X X X X X X X X X X X X X X X X X X X X X X X X X X X X X X X X X X X X X X",
" X X X X X X X X X X X X X X X X X X X X X X X X X X X X X X X X X X X X X X X X X X X X X X X X",
" X X X X X X X X X X X X X X X X X X X X X X X X X X X X X X X X X X X X X X X X X X X X X X X X",
" X X X X X X X X X X X X X X X X X X X X X X X X X X X X X X X X X X X X X X X X X X X X X X X X",
" X X X X X X X X X X X X X X X X X X X X X X X X X X X X X X X X X X X X X X X X X X X X X X X X",
" X X X X X X X X X X X X X X X X X X X X X X X X X X X X X X X X X X X X X X X X X X X X X X X X",
" X X X X X X X X X X X X X X X X X X X X X X X X X X X X X X X X X X X X X X X X X X X X X X X X",
" X X X X X X X X X X X X X X X X X X X X X X X X X X X X X X X X X X X X X X X X X X X X X X X X",
" X X X X X X X X X X X X X X X X X X X X X X X X X X X X X X X X X X X X X X X X X X X X X X X X",
" X X X X X X X X X X X X X X X X X X X X X X X X X X X X X X X X X X X X X X X X X X X X X X X X",
" X X X X X X X X X X X X X X X X X X X X X X X X X X X X X X X X X X X X X X X X X X X X X X X X",
" X X X X X X X X X X X X X X X X X X X X X X X X X X X X X X X X X X X X X X X X X X X X X X X X",
" X X X X X X X X X X X X X X X X X X X X X X X X X X X X X X X X X X X X X X X X X X X X X X X X",
" X X X X X X X X X X X X X X X X X X X X X X X X X X X X X X X X X X X X X X X X X X X X X X X X",
" X X X X X X X X X X X X X X X X X X X X X X X X X X X X X X X X X X X X X X X X X X X X X X X X",
" X X X X X X X X X X X X X X X X X X X X X X X X X X X X X X X X X X X X X X X X X X X X X X X X",
" X X X X X X X X X X X X X X X X X X X X X X X X X X X X X X X X X X X X X X X X X X X X X X X X",
" X X X X X X X X X X X X X X X X X X X X X X X X X X X X X X X X X X X X X X X X X X X X X X X X",
" X X X X X X X X X X X X X X X X X X X X X X X X X X X X X X X X X X X X X X X X X X X X X X X X",
" X X X X X X X X X X X X X X X X X X X X X X X X X X X X X X X X X X X X X X X X X X X X X X X X",
" X X X X X X X X X X X X X X X X X X X X X X X X X X X X X X X X X X X X X X X X X X X X X X X X",
" X X X X X X X X X X X X Xp  X X X X X X X X X X X X X X X X X X X X X X X X X X X X X X X X X X",
" X X X X X X X X X X X X Xa.J. X X X X X X X X X X X X X X X X X X X X X X X X X X X X X X X X X",
" X X X X X X X X X X X X Xt.z.t. X X X X X X X X X X X X X X X X X X X X X X X X X X X X X X X X",
" X X X X X6 q.e.e.0.9.L r.f.6.i.d. X X X X X X X X X X X X X X X X X X X X X X X X X X X X X X X",
" X X X XO -.l.x.j.c.K.j.j.,.g.2.y.d. X X X X X X X X X X X X X X X X X X X X X X X X X X X X X X",
" X X X X& X...| 1.4.7.<.3.=.[ 2. .u.,  X X X X X X X X X X X X X X X X X X X X X X X X X X X X X",
" X X X X Xv +.O.@.o.z H $.*.%.5.&.;  X X X X X X X X X X X X X X X X X X X X X X X X X X X X X X",
" X X X X X X%  X X& 2 : O #.8.*.<  X X X X X X X X X X X X X X X X X X X X X X X X X X X X X X X",
" X X X X X X X X X XW V  XN } >  X X X X X X X X X X X X X X X X X X X X X X X X X X X X X X X X",
" X X X X X X X X X X^ A  XJ 5  X X X X X X X X X X X X X X X X X X X X X X X X X X X X X X X X X",
" X X X X X X X X X XQ m  X*  X X X X X X X X X X X X X X X X X X X X X X X X X X X X X X X X X X",
" X X X X X X X X X X` P  X X X X X X X X X X X X X X X X X X X X X X X X X X X X X X X X X X X X",
" X X X X X X X X X X_ G  X X X X X X X X X X X X X X X X X X X X X X X X X X X X X X X X X X X X",
" X X X X X X X X X X_ P  X X X X X X X X X X X X X X X X X X X X X X X X X X X X X X X X X X X X",
" X X X X X X X X X X_ P  X X X X X X X X X X X X X X X X X X X X X X X X X X X X X X X X X X X X",
" X X X X X X X X X X_ I  X X X X X X X X X X X X X X X X X X X X X X X X X X X X X X X X X X X X",
" X X X X X X X X X X_ G  X X X X X X X X X X X X X X X X X X X X X X X X X X X X X X X X X X X X",
" X X X X X X X X X X' I  X X X X X X X X X X X X X X X X X X X X X X X X X X X X X X X X X X X X",
" X X X X X X X X X X^ A  X X X X X X X X X X X X X X X X X X X X X X X X X X X X X X X X X X X X",
" X X X X X X X X X XQ C  X X X X X X X X X X X X X X X X X X X X X X X X X X X X X X X X X X X X",
" X X X X X X X X X XT b  X X X X X X X X X X X X X X X X X X X X X X X X X X X X X X X X X X X X",
" X X X X X X X X X XT b  X X X X X X X X7 y 9 B.A.A.f w q B.Z.A.f w q B.A.A.f w q B.A.C.u  X X X",
" X X X X X X X X X X/ A  X X X X X X X$ r h t ~.{.}.D.d s ~.{.}.D.d s ~.{.}.D.d s ~.[.}.C. X X X",
" X X X X X X X X X XB 1  X X X X X X X X. 8   R.(.).v.O o R.(.).v.O o U.).).v.O X R.!.{.A. X X X",
" X X X X X X X X X3 4 S D  X X X X X X Xg V.b.P.E.E.S.N.n.L.E.E.S.N.n.L.E.E.S.m.n.P.T.~.B. X X X",
" X X X X X X X X* v ] :.!  X X X X X X XH.`.].N.O o Q.`.].m.O o Q.`.'.m.O o Q.`.].m.. a q  X X X",
" X X X X X X X Xx l { K E Y  X X X X X XF.Y.I.k - # G.I.T.k - # G.I.I.k - # G.I.I.k @ i e  X X X"
};
