/* XPM */
static char *dHJlZQ__[] = {
/* columns rows colors chars-per-pixel */
"48 48 164 2 ",
"   c #00001F",
".  c #2B0D1A",
"X  c #350C1E",
"o  c #2E121D",
"O  c #33151F",
"+  c #0F251F",
"@  c #000520",
"#  c #000B21",
"$  c #001120",
"%  c #001B22",
"&  c #361921",
"*  c #3B1C24",
"=  c #032523",
"-  c #042B23",
";  c #0A2D23",
":  c #1E2621",
">  c #1E2822",
",  c #023427",
"<  c #0D3325",
"1  c #063827",
"2  c #043F29",
"3  c #0B3D28",
"4  c #103725",
"5  c #123B27",
"6  c #133E28",
"7  c #2F3523",
"8  c #223A26",
"9  c #363E28",
"0  c #401E27",
"q  c #441F29",
"w  c #412027",
"e  c #432129",
"r  c #552C34",
"t  c #592F37",
"y  c #5A3036",
"u  c #5B3238",
"i  c #5B3B38",
"p  c #603237",
"a  c #60363B",
"s  c #663B3E",
"d  c #0D432A",
"f  c #1F4426",
"g  c #164229",
"h  c #184529",
"j  c #154A2B",
"k  c #1A4B2B",
"l  c #14512E",
"z  c #1D522D",
"x  c #1E5A30",
"c  c #22542D",
"v  c #235A2F",
"b  c #2E5D2D",
"n  c #255E30",
"m  c #32632F",
"M  c #3A6A2F",
"N  c #266433",
"B  c #296432",
"V  c #276834",
"C  c #2D6D35",
"Z  c #386737",
"A  c #326D33",
"S  c #3B6E31",
"D  c #376F38",
"F  c #2F7036",
"G  c #327236",
"H  c #3A7535",
"J  c #3B7937",
"K  c #307339",
"L  c #33793B",
"P  c #3E7D38",
"I  c #5E4C3F",
"U  c #426339",
"Y  c #496D3C",
"T  c #417532",
"R  c #457B34",
"E  c #497F34",
"W  c #43733C",
"Q  c #407F38",
"!  c #6A3B40",
"~  c #6E4242",
"^  c #784B48",
"/  c #844C4C",
"(  c #894F4F",
")  c #8A4F50",
"_  c #8D5252",
"`  c #935555",
"'  c #975957",
"]  c #A67262",
"[  c #AA7564",
"{  c #AE7866",
"}  c #B07A67",
"|  c #B37B69",
" . c #3F8039",
".. c #478036",
"X. c #4A8336",
"o. c #4F8A37",
"O. c #428139",
"+. c #43843A",
"@. c #458439",
"#. c #45863A",
"$. c #45863A",
"%. c #46863A",
"&. c #4B8739",
"*. c #48893A",
"=. c #4F8B39",
"-. c #4B8B3A",
";. c #508C38",
":. c #518E39",
">. c #508D39",
",. c #4F913C",
"<. c #55933A",
"1. c #56943B",
"2. c #55943B",
"3. c #55973D",
"4. c #52943C",
"5. c #579A3E",
"6. c #579B3E",
"7. c #56993E",
"8. c #569A3E",
"9. c #59993B",
"0. c #58983C",
"q. c #599D3E",
"w. c #589C3E",
"e. c #5B9F3F",
"r. c #5B9E3F",
"t. c #599E3F",
"y. c #5C9F3E",
"u. c #5CA03F",
"i. c #5DA13F",
"p. c #5DA13F",
"a. c #5DA23F",
"s. c #5FA23F",
"d. c #5EA13F",
"f. c #5BA040",
"g. c #5CA140",
"h. c #5EA340",
"j. c #5FA440",
"k. c #60A540",
"l. c #61A640",
"z. c #62A740",
"x. c #62A941",
"c. c #63A941",
"v. c #63A841",
"b. c #63AA41",
"n. c #61A841",
"m. c #64AA41",
"M. c #64AB41",
"N. c #65AB41",
"B. c #64AB42",
"V. c #64A940",
"C. c #65AC42",
"Z. c #65AD43",
"A. c #66AD42",
"S. c #66AE42",
"D. c #67AE42",
"F. c #67AE43",
"G. c #67AF43",
"H. c #65AC42",
"J. c #68B043",
"K. c #68B144",
"L. c #6BB746",
"P. c #68B043",
"I. c None",
"U. c black",
/* pixels */
"I.I.I.I.I.I.I.I.I.I.I.I.I.I.I.I.I.I.I.I.I.C ; C I.I.I.I.I.I.I.I.I.I.I.I.I.I.I.I.I.I.I.I.I.I.I.I.",
"I.I.I.I.I.I.I.I.I.I.I.I.I.I.I.I.I.I.I.I.g c.l.l.c.I.I.I.I.I.I.I.I.I.I.I.I.I.I.I.I.I.I.I.I.I.I.I.",
"I.I.I.I.I.I.I.I.I.I.I.I.I.I.I.I.c.B.c.C C h c.c.c.5 I.I.I.I.I.c.c.c.I.I.I.I.I.I.I.I.I.I.I.I.I.I.",
"I.I.I.I.I.I.I.I.I.I.I.I.I.I.I.c.B.C B.C C c.c.c.B.l.C C I.I.c.c.C c.D.c.I.I.I.I.I.I.I.I.I.I.I.I.",
"I.I.I.I.I.I.I.I.I.I.I.I.I.I.Z.c.A c.H C C G c.c.H B.k C C c.c.D.j.c.F c.G I.I.I.c.c.c.I.I.I.I.I.",
"I.I.I.I.I.I.I.I.I.I.I.I.I.I.f B.c.c C C A C H c C c g C C B.B.k Z.Z.j.c.3 C C D.c.c.b.c.I.I.I.I.",
"I.I.I.I.I.I.I.I.I.I.I.I.I.I.5 H c C k C k k k g C g C C C c.l.k.H H B.c.h.k C G c.D.A c.I.I.I.I.",
"I.I.I.I.I.I.I.I.I.I.I.I.I.F C C N 3 , 3 g , , , 3 g k C j.c.c.H F C H c.c., N j.c.G h.Z.C I.I.I.",
"I.I.I.I.I.I.I.I.I.I.I.I.A k C V j.a.u.q.N u.u.u.q.N , h b l.D.N 3 k A c.D.u.c.c.c.u.c.G C C I.I.",
"I.I.I.I.I.I.I.I.I.I.I.I.k V N l.c.H c.D.u.D.H c.c.y.q.N N D.c h.s.6 k J.b c.c c.c.D.c.g.V N c.I.",
"I.I.I.I.I.I.I.I.I.N N N V C u.H c.u.J.m c.J h.c.c.D.c.j.C b u.D.P C 5 m g J.u.b.D.J D.c.h.h.B.I.",
"I.I.I.I.I.I.I.I.N g.g.g.N C D.q.c.c.J 5 D.C P D.c.H D. .A B m P 4 5 V N 5 m  .P  .C J D.D.J D.I.",
"I.I.I.I.I.I.I.N g.c.D.c.h.C J D.c.D.C V P C C P D.q. .k z N x N x x N K V 6 C A j C C P J q.Q I.",
"I.I.I.I.I.I.I.h.b.c.J c.P C u.P b. .C C C G C C J J.k h @ q.q.t.u.q.q.- A 6 z z B G C C 0.B.K I.",
"I.I.I.I.D.N F O.c.c.8.D.8.F O.C +.C C G G k F z q.+.g # 9.B.K.B.O.B.D.0.d x = h c z F C B.L.I.I.",
"I.I.I.c.O.t.z C G.c.D.+.D.d C C 5 C G z k V c g #.k h <.O.c.m c.C D.P P <.h.B ; g g z G D.I.I.I.",
"I.I.c.D.3.c.N C S D.#.k #.0.C F B , k   x 1 < h z N 4 D.4.c.<.D.F *.6.3.J.O.k N g h < c H K.I.I.",
"I.c.D.D.B.c.G C B H k N C T C h k 1.  1.3.<.= < < c   D.D.c.*.#.c k O.M.M 6.  j h < 5 g < T I.I.",
"C L.c. .c.c.j A v < 5 C c n C =   M :.*.b.R 4.= ; < -.S c.D.V k 5 B 6.V.o.*.o.<., < , % h , I.I.",
"G M c.<.D.D.-.c ; g N n 5 n j <.o.X.J.3.J.l -.-.; ; P.<.c.@.C N B z T J.J.,.J.b.-.v :.X.% h I.I.",
"C ..D.B.-.-.D.n n B z < g 5 =.-.P.P.*.-.R 8.N G.6 ; T R c.3.N v z + $ H T B.%.B.P.4.D.J.X., ; I.",
"C D.#.D.V V -.C F z = 5 4 x B.4.*.-.V C z ..4.-.< @   $ D.-.8.g ; ; 5 = = D.3.D.R D.c.*.b.=.5 g ",
"K D.-.-.C C V F c ; ; 5 < ,.Z.-.,.V F v F z ,.j k X.z < R C -.h ; ; h h h ..X...z D.D.,.c.b.h j ",
"I.%.P.,.F C G c     # ; N D.,.C 4.F v g v G d = ,.P.C n j k C 5 5 5 , 1 , , , , n X.....c.D.h h ",
"I.% ..X.c C c @ ..E E ; n ,.z C z v 6 4 g j ..&.J.,.<.v F z C 5 5 1 %.....1 g h g , , X.Z.:.h g ",
"I.I.@ # ; n @ R 4.Z.K.= g N c n g 5 g ; = E 3.4.,.z 4.v n F v 5 = ..3.P.P...g g 5 h h :.%.x g g ",
"I.I.< ; ; % T 3.%.C.4.X.5 A N g h v v 5 R 8.V V V v V G v C 5 $ ..8.V 4.4.P.v h ; 5 h = , 6 h k ",
"I.I.; I.I.I.F.V D.4.V :.z n 6 5 6 N B h 6.V A C F N v n v A = R 8.x C N V 4.B 5 5 ; 5 ; 6 h h h ",
"I.I.c I.I.I.B.A 3.N N , B g 5 ; ; 4 5 h x N n N b 6 6 4 = v z :.C z C C C N g ; g ; ; < ; g g U.",
"I.I.K I.I.I.w.n x N 6 g g 5 ; < ; ; ; 5 < g g 5 5 6 5 ; ; < V % n B C A A n 5 ; I.I.; ; ; I.U.U.",
"I.I.I.I.I.I.N x < 5 h h 5 - - I.I.< I.; ; h 5 3 - ; : : > h 5 g 5 6 B B N k ; ; I.I.I.I.; I.I.I.",
"I.I.I.I.I.I.I.C ; ; g g : + I.I.I.; I.I.; 8 : : : : O O O I.I.; ; 6 < 4 6 B < ; I.I.I.I.k I.I.I.",
"I.I.I.I.I.I.I.I.; ; ; I.O p & I.; I.I.I.I.X & O q O O O O I.I.I.; ; ; ; g = ; I.I.I.I.I.G I.I.I.",
"I.I.I.I.I.I.I.I.I.I.I.I.I.` y O I.I.I.I.e & * & r 0 O 0 & & I.I.I.; ; ; ; ; I.I.I.I.I.L I.I.I.I.",
"I.I.I.I.I.I.I.I.I.I.I.I.I.I.` t 9 I 0 0 r * t w * u 0 r O O I.I.I.I.I.h I.I.I.I.I.I.I.C I.I.I.I.",
"I.I.I.I.I.I.I.I.I.I.I.I.I.I.I.` F | ^ ^ r r & u u u u * O O I.I.I.I.I.G I.I.I.I.I.I.I.I.I.I.I.I.",
"I.I.I.I.I.I.I.I.I.I.I.I.I.I.I.I.C [ } } ` . ! u u u u u O * & I.I.I.I.I.I.I.I.I.I.I.I.I.I.I.I.I.",
"I.I.I.I.I.I.I.I.I.I.I.I.I.I.I.I.I.I.I.I.I.7 _ u u u ~ u * y & I.I.I.I.I.I.I.I.I.I.I.I.I.I.I.I.I.",
"I.I.I.I.I.I.I.I.I.I.I.I.I.I.I.I.I.I.I.I.Z.Y ( r u u { u a o O I.I.I.I.I.I.I.I.I.I.I.I.I.I.I.I.I.",
"I.I.I.I.I.I.I.I.I.I.I.I.I.I.I.I.I.I.I.I.U ` o & u u [ ! t O O I.I.I.I.I.I.I.I.I.I.I.I.I.I.I.I.I.",
"I.I.I.I.I.I.I.I.I.I.I.I.I.I.I.I.I.I.I.I.` ) u u t t [ ] o O O I.I.I.I.I.I.I.I.I.I.I.I.I.I.I.I.I.",
"I.I.I.I.I.I.I.I.I.I.I.I.I.I.B.I.I.I.I.' ( r u s u s ] r O & I.I.I.I.I.I.I.I.I.I.I.I.I.I.I.I.I.I.",
"I.I.I.I.I.I.I.I.I.I.I.I.I.Z.I.I.I.! ' ( . ! a { u [ r r & O I.K.B.I.I.I.I.I.I.I.I.I.I.I.I.I.I.I.",
"I.I.I.I.I.I.I.I.` ' ' ` W Z I.` _ _ ) . a { [ [ t r t O i O K c.I.I.I.I.K I.I.I.I.I.I.I.I.I.I.I.",
"I.I.I.c.B.I.` ' _ [ [ u { ` ` ) o o o * { [ r r u u & & o & C I.I.I.G F C I.I.I.I.I.I.I.I.I.I.I.",
"I.I.I.I.I.H _ [ t [ t [ [ [ { u u u u a ] r u i u t t O & I.I.I.F C ; g I.I.I.I.I.I.I.I.I.I.I.I.",
"I.I.I.I._ _ [ [ i t u t t t [ [ i t [ [ u u u j.C o O O & I.C.F C ; g h h I.C I.I.I.I.I.I.I.I.I.",
"I.I.I._ c.g y t l.; u ; u y y t c.C - y t u C C h ; & O C F - h ; C C ; h h ; C I.I.I.I.I.I.I.I."
};
