/* XPM */
static char *result[] = {
/* columns rows colors chars-per-pixel */
"48 48 225 2 ",
"   c #000101",
".  c #0C0B0B",
"X  c #040906",
"o  c #1A070B",
"O  c #001102",
"+  c #02120D",
"@  c #091A0B",
"#  c #030112",
"$  c #02021D",
"%  c #190712",
"&  c #011D15",
"*  c #071A15",
"=  c #131314",
"-  c #141C1A",
";  c #1B1B1B",
":  c #181616",
">  c #280106",
",  c #340203",
"<  c #38031B",
"1  c #251416",
"2  c #230F10",
"3  c #042305",
"4  c #182408",
"5  c #002D16",
"6  c #18221C",
"7  c #23251B",
"8  c #302F12",
"9  c #000028",
"0  c #191B22",
"q  c #000239",
"w  c #1C022E",
"e  c #280428",
"r  c #3A0528",
"t  c #27172A",
"y  c #23023C",
"u  c #281A35",
"i  c #1D2922",
"p  c #163123",
"a  c #0E2D27",
"s  c #232323",
"d  c #2D2C2C",
"f  c #282727",
"g  c #322E2E",
"h  c #302F23",
"j  c #2D322C",
"k  c #243427",
"l  c #33332E",
"z  c #2D2B31",
"x  c #312C31",
"c  c #2F3030",
"v  c #323232",
"b  c #363935",
"n  c #3C3B3B",
"m  c #3A3538",
"M  c #440312",
"N  c #400910",
"B  c #560216",
"V  c #44000A",
"C  c #69021B",
"Z  c #620000",
"A  c #470126",
"S  c #540F31",
"D  c #680723",
"F  c #770424",
"G  c #671432",
"H  c #4D242A",
"J  c #58292F",
"K  c #672B2C",
"L  c #612537",
"P  c #653333",
"I  c #306301",
"U  c #304634",
"Y  c #424438",
"T  c #51553E",
"R  c #7A7C38",
"E  c #52570A",
"W  c #0A044E",
"Q  c #270446",
"!  c #2F1B42",
"~  c #260454",
"^  c #380558",
"/  c #371344",
"(  c #00006C",
")  c #370069",
"_  c #380075",
"`  c #360E6E",
"'  c #4D0E53",
"]  c #75144B",
"[  c #4E2443",
"{  c #453B45",
"}  c #562D4B",
"|  c #6A3659",
" . c #743657",
".. c #4B0567",
"X. c #500065",
"o. c #4C1867",
"O. c #551D69",
"+. c #480477",
"@. c #56177F",
"#. c #4B1474",
"$. c #631377",
"%. c #5B2465",
"&. c #6B267B",
"*. c #3C4842",
"=. c #2B4745",
"-. c #434343",
";. c #4B4B4B",
":. c #454947",
">. c #545646",
",. c #574B55",
"<. c #545454",
"1. c #5C5C5C",
"2. c #5A535A",
"3. c #4E504F",
"4. c #61585D",
"5. c #6B5353",
"6. c #5C665C",
"7. c #5A7158",
"8. c #666850",
"9. c #5D5A68",
"0. c #625C62",
"q. c #6D4A75",
"w. c #646464",
"e. c #6B6B6B",
"r. c #6B6867",
"t. c #776A74",
"y. c #71716B",
"u. c #870126",
"i. c #93002C",
"p. c #93142A",
"a. c #8D0D38",
"s. c #A70434",
"d. c #BB003B",
"f. c #AB0D2F",
"g. c #8D0417",
"h. c #C3013E",
"j. c #CB073C",
"k. c #C81139",
"l. c #D10034",
"z. c #917D32",
"x. c #87344D",
"c. c #9D305A",
"v. c #AF2D52",
"b. c #A21168",
"n. c #883070",
"m. c #9A1D58",
"M. c #D80A45",
"N. c #E60047",
"B. c #F10A4E",
"V. c #C1254B",
"C. c #F22356",
"Z. c #F13664",
"A. c #FF3F72",
"S. c #8F4352",
"D. c #8D5061",
"F. c #A94262",
"G. c #B74D6D",
"H. c #856B7D",
"J. c #CB5072",
"K. c #F64774",
"L. c #6D9A00",
"P. c #7A8676",
"I. c #8D8010",
"U. c #9C872C",
"Y. c #CFBA3F",
"T. c #949055",
"R. c #A1BB50",
"E. c #958976",
"W. c #929F67",
"Q. c #9AA36D",
"!. c #ADB86A",
"~. c #C1B459",
"^. c #E3C546",
"/. c #D9CD6D",
"(. c #591A82",
"). c #540783",
"_. c #6B1B91",
"`. c #772888",
"'. c #6F228A",
"]. c #553084",
"[. c #7D7888",
"{. c #883290",
"}. c #897586",
"|. c #91778D",
" X c #876E87",
".X c #F75784",
"XX c #FF4B80",
"oX c #DD6083",
"OX c #E46289",
"+X c #93818F",
"@X c #988494",
"#X c #92928A",
"$X c #A18F9F",
"%X c #A2919F",
"&X c #97AD8A",
"*X c #A0BB8B",
"=X c #9D99A2",
"-X c #AB8FA6",
";X c #A991A5",
":X c #BB98B6",
">X c #AEAAB6",
",X c #BFA8BB",
"<X c #A6A1A9",
"1X c #C2B88C",
"2X c #BCCA93",
"3X c #B7C2AE",
"4X c #CBDF8D",
"5X c #D9F29C",
"6X c #C2D0AA",
"7X c #C9D3BC",
"8X c #CBD5A3",
"9X c #DFF2AD",
"0X c #CBA7C5",
"qX c #DEBBD9",
"wX c #CCB2C8",
"eX c #F0BEE7",
"rX c #D3D4C6",
"tX c #C7C3CD",
"yX c #F4FDDE",
"uX c #DDD9E4",
"iX c #EDC3E6",
"pX c #F6D0F1",
"aX c #FAFDE8",
"sX c #FCFCF2",
"dX c None",
/* pixels */
"dXdXdXdXdXdXdXdXdXdXdXdXdXdXdXdXdXdXdXdXdXdXdXdXdXdXdXdXdXdXdXdXdXdXdXdXdXdXdXdXdXdXdXdXdXdXdXdX",
"dXdXdXdXdXdXdXdXdXdXdXdXdXdXdXdXdXdXdXdXdXdXdXdXdXdXdXdXdXdXdXdXdXdXdXdXdXdXdXdXdXdXdXdXdXdXdXdX",
"dXdXdXdXdXdXdXdXdXdXdXdXdXdXdXdXdXdXdXdXdXdXdXdXdXdXdXdXdXdXdXdXdXdXdXdXdXdXdXdXdXdXdXdXdXdXdXdX",
"dXdXdXdXdXdXdXdXdXdXdXdXdXdXdXdXdXdXdXdXdXdXdXdXdXdXdXdXdXdXdXdXdXdXdXdXdXdXdXdXdXdXdXdXdXdXdXdX",
"dXdXdXdXdXdXdXdXdXdXdXdXdXdXdXdXdXdXdXdXdXdXdXdXdXdXdXdXdXdXdXdXdXdXdXdXdXdXdXdXdXdXdXdXdXdXdXdX",
"dXdXdXdXdXdXdXdXdXdXdXdXdXdXdXdXdXdXdXdXdXdXdXdXdXdXdXdXdXdXdXdXdXdXdXdXdXdXdXdXdXdXdXdXdXdXdXdX",
"dXdXdXdXdXdXdXdXdXdXdXdXdXdXdXdXdXdXdXdXdXdXdXdXdXdXdXdXdXdXdXdXdXdXdXdXdXdXdXdXdXdXdXdXdXdXdXdX",
"dXdXdXdXdXdXdXdXdXdXdXdXdXdXdXdXdXdXdXdXdXdXdXdXdXdXdXdXdXdXdXdXdXdXdXdXdXdXdXdXdXdXdXdXdXdXdXdX",
"dXdXdXdXdXdXdXdXdXdXd d dXdXdXdXdXdXdXdXdXdXdXdXdXdXdXdXdXdXdXdXdXdXdXdXd d dXdXdXdXdXdXdXdXdXdX",
"dXdXdXdXdXdXdXdXdXm U U @     dXdXdXdXdXdXdXdXdXdXdXdXdXdXdXdXdXdX    3 U *.n dXdXdXdXdXdXdXdXdX",
"dXdXdXdXdXdXdXdXdX  r.|. X0.i *.m dXdXdX-.;.;.;.;.;.:.n dXdXdXx n k 4.}.@Xt.4 dXdXdXdXdXdXdXdXdX",
"dXdXdXdXdXdXdXdXdX  |.0X0X-Xe.<.x     x ;.1.6.1.1.1.1.<.-.f ; x 2.t.-X0X0X|.X dXdXdXdXdXdXdXdXdX",
"dXdXdXdXdXdXdXdXdX  }.wXpXeX:X,.  f g v n :.<.4.1.r.e.w.w.w.<.k 0.wXiXeX0X X  dXdXdXdXdXdXdXdXdX",
"dXdXdXdXdXdXdXdXdX  ,.;XpXqX+XH O v v v v n -.:.;.<.w.1.w.e.w.<.0.$XqXiX-X2.  dXdXdXdXdXdXdXdXdX",
"dXdXdXdXdXdXdXdXdXdX  ,.wX%X  * d n v v z f s ; d b n :.<.w.r.w.1.k ;XwXt.p dXdXdXdXdXdXdXdXdXdX",
"dXdXdXdXdXdXdXdXdXdX; m ,.{ @ v v z c d j c c v z d d z b -.<.w.w.6.0.0.2.-.dXdXdXdXdXdXdXdXdXdX",
"dXdXdXdXdXdXdXdXdXdXt =     v n b j b b v v c v d d f v v b n ;.6.w.3.k b z dXdXdXdXdXdXdXdXdXdX",
"dXdXdXdXdXdXdXdXdXdXdX  ; z n b v l v v v g c v c v v v v v s j H <.1.1.s dXdXdXdXdXdXdXdXdXdXdX",
"dXdXdXdXdXdXdXdXdXdXdX= d s     $ u       v v d d b z       u #   @ <.w.-.dXdXdXdXdXdXdXdXdXdXdX",
"dXdXdXdXdXdXdXdXdXdX. : s z 3.P.6.a 7.y.0.v f n n f v 0.y.7.p 6.P.;.;.w.<.:.dXdXdXdXdXdXdXdXdXdX",
"dXdXdXdXdXdXdXdXdXdX; 6   ,.#X7X&XI *X>X<XY   n H   -.<X3X*XI &X7X#X2.;.w.<.dXdXdXdXdXdXdXdXdXdX",
"dXdXdXdXdXdXdXdXdXdXs s   [.wXsX6XL.5XaXuXr.    X   w.uXaX9XL.3XaXtX[.@ 1.<.dXdXdXdXdXdXdXdXdXdX",
"dXdXdXdXdXdXdXdXdXdX; s   9.=XrX6XR.4X7X>X-.2.+X@X2.U >XrX9XR.2XrX=X9.8 1.;.dXdXdXdXdXdXdXdXdXdX",
"dXdXdXdXdXdXdXdXdXdX. ; b     e.Q.!.W.8.w   }.,X,X}.  9 w.Q.!.W.w.    -.<.;.dXdXdXdXdXdXdXdXdXdX",
"dXdXdXdXdXdXdXdXdXdX. : f v l d T 8.U f t 6 2.t.t.<.6 s d Y 8.T f h v n ;.-.dXdXdXdXdXdXdXdXdXdX",
"dXdXdXdXdXdXdXdXdXdXdX= s v b : ; u 9 : k c v v v v c f = # z 0 ; v b v v dXdXdXdXdXdXdXdXdXdXdX",
"dXdXdXdXdXdXdXdXdXdXdX  = 6 x n v s b b v v f @ * f v b n b t v U m c d   dXdXdXdXdXdXdXdXdXdXdX",
"dXdXdXdXdXdXdXdXdXdXdXdX. : s v v v j v v v d d j z c c z v c c v v d 1 dXdXdXdXdXdXdXdXdXdXdXdX",
"dXdXdXdXdXdXdXdXdXdXdXdXX = ; d g j l d x v v v v v v c c v v m x m s . dXdXdXdXdXdXdXdXdXdXdXdX",
"dXdXdXdXdXdXdXdXdXdXdXdXdX. ; 6 7 t d l x x v v v v c z v c d d g d s dXdXdXdXdXdXdXdXdXdXdXdXdX",
"dXdXdXdXdXdXdXdXdXdXdXdXdXdX+ + + - 1 d f x l l b l z d x d & O   * dXdXdXdXdXdXdXdXdXdXdXdXdXdX",
"dXdXdXdXdXdXdXdXdXdXdXdXdXdXdX, % + + + 5 i ; $ # - i 6 & & H L H dXdXdXdXdXdXdXdXdXdXdXdXdXdXdX",
"dXdXdXdXdXdXdXdXdXdXdXdXdXdXB i.u.D M < 1 @ 4 8 h 6 6 1 , F v.c.F.S.dXdXdXdXdXdXdXdXdXdXdXdXdXdX",
"dXdXdXdXdXdXdXdXdXdXdXdXdX> u.N.M.M.d.s.F , E U.y.>.> D d.B.Z.K..XOXG.dXdXdXdXdXdXdXdXdXdXdXdXdX",
"dXdXdXdXdXdXdXdXdXdXdXdXX . D h.N.B.N.k.p.2 I.~./.T.o p.M.Z.XXXXK.OXD.5 dXdXdXdXdXdXdXdXdXdXdXdX",
"dXdXdXdXdXdXdXdXdXdXdXdX= + 2 D d.N.M.f.p.9 U.^./.T.  p.f.V..XK.N.S.<.=.dXdXdXdXdXdXdXdXdXdXdXdX",
"dXdXdXdXdXdXdXdXdXdXdXX : * 1 M F i.D , , 9 } 5.8.J q , e ] V.M.g.H *.<.v dXdXdXdXdXdXdXdXdXdXdX",
"dXdXdXdXdXdXdXdXdXdXdXX 1 6 & % < r W W ~ ^ ) ) ) ` ^ ~ ` &.b.a.< X =.1.v dXdXdXdXdXdXdXdXdXdXdX",
"dXdXdXdXdXdXdXdXdXdXdX. ; 6 : r t u ' O.%.X.q.H. Xq.X.$.n.{.].%.L < *.1.v dXdXdXdXdXdXdXdXdXdXdX",
"dXdXdXdXdXdXdXdXdXdXdXo & 1 N D K P P P P A z.!.*XE.S  . . .| c.V.a.P =.v dXdXdXdXdXdXdXdXdXdXdX",
"dXdXdXdXdXdXdXdXdXdXdXdXO M F D S } [ } } ^ 8.T.E.t.X.%.%.%.&.n.F.G.x.5 dXdXdXdXdXdXdXdXdXdXdXdX",
"dXdXdXdXdXdXdXdXdXdXdXdXdXu.i.r q W ~ ) +.#._ ( ( _ @.+.+.)._.(.n.J.J.dXdXdXdXdXdXdXdXdXdXdXdXdX",
"dXdXdXdXdXdXdXdXdXdXdXdXh.h.s.< q Q Q ' ..+.@.(.(.@._._.'.'.`.#.] Z.K.J.dXdXdXdXdXdXdXdXdXdXdXdX",
"dXdXdXdXdXdXdXdXdXdXdXC s.d.i.F B e w y ^ ^ ..O.o.o...$.$.' O.' i.B.Z.F.} dXdXdXdXdXdXdXdXdXdXdX",
"dXdXdXdXdXdXdXdXdXdXdXB u.F F u.C , X X = u ! ! y y Q ' / 5   Z s.l.V.x.H dXdXdXdXdXdXdXdXdXdXdX",
"dXdXdXdXdXdXdXdXdXdXdXdXdXdXM B M o   : v <.2.dXdX# 6 j :.3.d M C C dXdXdXdXdXdXdXdXdXdXdXdXdXdX",
"dXdXdXdXdXdXdXdXdXdXdXdXdXdXdXdXo .   s -.1.r.dXdX  6 U <.2.v > dXdXdXdXdXdXdXdXdXdXdXdXdXdXdXdX",
"dXdXdXdXdXdXdXdXdXdXdXdXdXdXdXdXdXX   f :.1.r.dXdX  f -.1.1.v dXdXdXdXdXdXdXdXdXdXdXdXdXdXdXdXdX"
};
