/* XPM */
static char *result[] = {
/* columns rows colors chars-per-pixel */
"48 48 199 2 ",
"   c #010101",
".  c #000A02",
"X  c #0C0C0C",
"o  c #09030A",
"O  c #150408",
"+  c #011200",
"@  c #021D00",
"#  c #05170D",
"$  c #11130F",
"%  c #07021E",
"&  c #140913",
"*  c #001311",
"=  c #0B1917",
"-  c #141414",
";  c #191615",
":  c #161916",
">  c #1B151A",
",  c #1B1B1B",
"<  c #28050D",
"1  c #37010C",
"2  c #3B020E",
"3  c #3F0312",
"4  c #201A1D",
"5  c #002100",
"6  c #122A00",
"7  c #0A211F",
"8  c #1C231C",
"9  c #142418",
"0  c #25291C",
"q  c #3A2810",
"w  c #000021",
"e  c #140026",
"r  c #160E22",
"t  c #1E1B26",
"y  c #00003B",
"u  c #231E21",
"i  c #221D2A",
"p  c #24023C",
"a  c #220032",
"s  c #271E31",
"d  c #032924",
"f  c #1F2525",
"g  c #0D2233",
"h  c #15322D",
"j  c #222323",
"k  c #252B23",
"l  c #2C2C2C",
"z  c #292A25",
"x  c #3A2B25",
"c  c #342D2E",
"v  c #3E2623",
"b  c #2A352F",
"n  c #323A2A",
"m  c #2A2633",
"M  c #312D31",
"N  c #2F3030",
"B  c #2D363C",
"V  c #323232",
"C  c #3B3335",
"Z  c #3A3739",
"A  c #3B3B3B",
"S  c #363B35",
"D  c #41000F",
"F  c #440212",
"G  c #490113",
"H  c #4B0817",
"J  c #530017",
"K  c #5D001B",
"L  c #66011C",
"P  c #49250F",
"I  c #6E0020",
"U  c #730022",
"Y  c #7D0026",
"T  c #57253D",
"R  c #3C463E",
"E  c #584C00",
"W  c #41423F",
"Q  c #45523B",
"!  c #000045",
"~  c #000058",
"^  c #290043",
"/  c #31014C",
"(  c #2D1340",
")  c #351647",
"_  c #3A0557",
"`  c #330051",
"'  c #3C3741",
"]  c #382853",
"[  c #571E5F",
"{  c #60155F",
"}  c #503F4D",
"|  c #46244E",
" . c #622857",
".. c #6C335C",
"X. c #480D6B",
"o. c #450967",
"O. c #590F60",
"+. c #551665",
"@. c #4A0376",
"#. c #4B0B73",
"$. c #4A047E",
"%. c #530E7B",
"&. c #50037D",
"*. c #4D1576",
"=. c #641F6B",
"-. c #703266",
";. c #434443",
":. c #4B4B4C",
">. c #484746",
",. c #4D534E",
"<. c #47425E",
"1. c #554C57",
"2. c #4F5450",
"3. c #545454",
"4. c #5B5B5B",
"5. c #565856",
"6. c #6C515B",
"7. c #5A624D",
"8. c #6D7454",
"9. c #574E65",
"0. c #625B61",
"q. c #775972",
"w. c #636363",
"e. c #6B6A6A",
"r. c #666A65",
"t. c #756577",
"y. c #787878",
"u. c #737764",
"i. c #850029",
"p. c #8C002C",
"a. c #800027",
"s. c #93012E",
"d. c #9D0C2C",
"f. c #9B0032",
"g. c #9E1639",
"h. c #A0002A",
"j. c #A40032",
"k. c #AF0038",
"l. c #B60739",
"z. c #97324F",
"x. c #933B6F",
"c. c #CA0241",
"v. c #DA0042",
"b. c #E40043",
"n. c #E71F52",
"m. c #FA1751",
"M. c #C22843",
"N. c #D20A67",
"B. c #81536C",
"V. c #834E7C",
"C. c #93577F",
"Z. c #986569",
"A. c #8C7966",
"S. c #DC4D7D",
"D. c #C64D76",
"F. c #F34D71",
"G. c #77805A",
"H. c #87A705",
"J. c #9E9C68",
"K. c #A48D76",
"L. c #B1B06B",
"P. c #B3A070",
"I. c #DBA379",
"U. c #E2AC7B",
"Y. c #B6CD40",
"T. c #D7C66A",
"R. c #530C81",
"E. c #60008C",
"W. c #600093",
"Q. c #6E1E92",
"!. c #7E1E9C",
"~. c #70358B",
"^. c #663884",
"/. c #FB3888",
"(. c #8C7388",
"). c #887D86",
"_. c #987993",
"`. c #8C6B87",
"'. c #EF5B92",
"]. c #9E909C",
"[. c #8C868E",
"{. c #95B08D",
"}. c #A893A5",
"|. c #B899B3",
" X c #A6A1AD",
".X c #DFF09D",
"XX c #D4EBA5",
"oX c #CCB2C8",
"OX c #D0B9CC",
"+X c #D7AAD0",
"@X c #DCB7D6",
"#X c #E5BCDE",
"$X c #C7C4C8",
"%X c #DEE6C4",
"&X c #E4F1D7",
"*X c #FFD2F9",
"=X c #FCFFE6",
"-X c #EFEEEF",
";X c None",
/* pixels */
";X;X;X;X;X;X;X;X;X;X;X;X;X;X;X;X;X;X;X;X;X;X;X;X;X;X;X;X;X;X;X;X;X;X;X;X;X;X;X;X;X;X;X;X;X;X;X;X",
";X;X;X;X;X;X;X;X;X;X;X;X;X;X;X;X;X;X;X;X;X;X;X;X;X;X;X;X;X;X;X;X;X;X;X;X;X;X;X;X;X;X;X;X;X;X;X;X",
";X;X;X;X;X;X;X;X;X;X;X;X;X;X;X;X;X;X;X;X;X;X;X;X;X;X;X;X;X;X;X;X;X;X;X;X;X;X;X;X;X;X;X;X;X;X;X;X",
";X;X;X;X;X;X;X;X;X;X;X;X;X;X;X;X;X;X;X;X;X;X;X;X;X;X;X;X;X;X;X;X;X;X;X;X;X;X;X;X;X;X;X;X;X;X;X;X",
";X;X;X;X;X;X;X;X;X;X;X;X;X;X;X;X;X;X;X;X;X;X;X;X;X;X;X;X;X;X;X;X;X;X;X;X;X;X;X;X;X;X;X;X;X;X;X;X",
";X;X;X;X;X;X;X;X;X;X;X;X;X;X;X;X;X;X;X;X;X;X;X;X;X;X;X;X;X;X;X;X;X;X;X;X;X;X;X;X;X;X;X;X;X;X;X;X",
";X;X;X;X;X;X;X;X;X;X;X;X;X;X;X;X;X;X;X;X;X;X;X;X;X;X;X;X;X;X;X;X;X;X;X;X;X;X;X;X;X;X;X;X;X;X;X;X",
";X;X;X;X;X;X;X;X;X;X;X;X;X;X;X;X;X;X;X;X;X;X;X;X;X;X;X;X;X;X;X;X;X;X;X;X;X;X;X;X;X;X;X;X;X;X;X;X",
";X;X;X;X;X;X;X;X;X;X;X;X;X;X;X;X;X;X;X;X;X;X;XN ;X;X;X;X;X;X;X;X;X;X;X;X;X;X;X;X;X;X;X;X;X;X;X;X",
";X;X;X;X;X;X;X;X;X;X;X;X;X;X;X;X;X;X;X;X;X;X:.:.M ;X;X;X;X;X;X;X;X;X;X;X;X;X;X;X;X;X;X;X;X;X;X;X",
";X;X;X;X;X;X;X;X;X;X;X;X;X;X;X;X;X;X;X;X;X;X;.2.b 9 ;X;X;X;X;X;X;X;X;X;X;X;X;X;X;X;X;X;X;X;X;X;X",
";X;X;X;X;X;X;X;X;X;X;X;X;X;X;X;X;X;X;X;X;X  1.t.5.S o l ;X;X;X;X;X;X;X;X;X;X;X;X;X;X;X;X;X;X;X;X",
";X;X;X;X;X;X;X;X;X;X;X;X;X;X;X;X;X;XX ; &   `.|.(.>.. 4.,.; ;X;X;X;X;X;X;X;X;X;X;X;X;X;X;X;X;X;X",
";X;X;X;X;X;X;X;X;X;X;X;X;X;X;X;X;XX - u >   _.+X@X}.5.2.4.3.;.;X;X;X;X;X;X;X;X;X;X;X;X;X;X;X;X;X",
";X;X;X;X;X;X;X;X;X;X;X;X;X;X;X;XX ; ; t u   `.+X*X@X).S 3.y.4.A ;X;X;X;X;X;X;X;X;X;X;X;X;X;X;X;X",
";X;X;X;X;X;X;X;X;X;X;X;X;X;X;XX ; , - > >   q.|.#XoX).M W e.e.5.Z ;X;X;X;X;X;X;X;X;X;X;X;X;X;X;X",
";X;X;X;X;X;X;X;X;X;X;X;X;X;XX - , , - , t : :.t._.(.0.M Z 4.e.e.3.} ;X;X;X;X;X;X;X;X;X;X;X;X;X;X",
";X;X;X;X;X;X;X;X;X;X;X;X;XX - , , , - , z Z 8         l V ' 4.e.e.5.A ;X;X;X;X;X;X;X;X;X;X;X;X;X",
";X;X;X;X;X;X;X;X;X;X;X;X;X- , , , , - f l V V N C C N z - , A 4.e.w.:.;X;X;X;X;X;X;X;X;X;X;X;X;X",
";X;X;X;X;X;X;X;X;X;X;X;Xo - , , , , > j l N V C Z C V Z -     m 5.r.3.m ;X;X;X;X;X;X;X;X;X;X;X;X",
";X;X;X;X;X;X;X;X;X;X;X;XX - , , : , t z V V V V V k z >.e.).r.R b w.4.S ;X;X;X;X;X;X;X;X;X;X;X;X",
";X;X;X;X;X;X;X;X;X;X;X;XX - , , ; , u z V N l N Z : f 5.$X=X&X{.5 9.1.6 ;X;X;X;X;X;X;X;X;X;X;X;X",
";X;X;X;X;X;X;X;X;X;X;X;XX - , , ; : t l V N N V V l l S  X-X=XXXH.e.9.>.;X;X;X;X;X;X;X;X;X;X;X;X",
";X;X;X;X;X;X;X;X;X;X;X;XX ; , , , : f z V V V N l Z V   ] [.%XXXY.u.t.[.).;X;X;X;X;X;X;X;X;X;X;X",
";X;X;X;X;X;X;X;X;X;X;X;XX , , , , : t z V V V l N N V V m A r.G.8.Q ].OXoX;X;X;X;X;X;X;X;X;X;X;X",
";X;X;X;X;X;X;X;X;X;X;X;X  - , , , , > j l l V V V l N Z z     % ' 2.[.].|.;X;X;X;X;X;X;X;X;X;X;X",
";X;X;X;X;X;X;X;X;X;X;X;X;X- , , , , - 0 l N V V N N V l V C l % m w.,.  ;X;X;X;X;X;X;X;X;X;X;X;X",
";X;X;X;X;X;X;X;X;X;X;X;X;XX - , , : : t z V V l V N N l V S N V ;.w.3.l ;X;X;X;X;X;X;X;X;X;X;X;X",
";X;X;X;X;X;X;X;X;X;X;X;X;X;XX ; , , , , 0 l M V N M l c N l , R 4.w.2.;X;X;X;X;X;X;X;X;X;X;X;X;X",
";X;X;X;X;X;X;X;X;X;X;X;X;X;X;XX ; , , : , j l M N V V S N l j :.w.5.>.;X;X;X;X;X;X;X;X;X;X;X;X;X",
";X;X;X;X;X;X;X;X;X;X;X;X;X;X;X;XX ; t 4 4 j l N C C C Z Z R 3.0.4.A ;X;X;X;X;X;X;X;X;X;X;X;X;X;X",
";X;X;X;X;X;X;X;X;X;X;X;X;X;X;X;X;XX - = = = , j f h d * u } 3.,.:.;X;X;X;X;X;X;X;X;X;X;X;X;X;X;X",
";X;X;X;X;X;X;X;X;X;X;X;X;X;X;X;X;X;X  X ; = * * d 0 v P c V ;.S ;X;X;X;X;X;X;X;X;X;X;X;X;X;X;X;X",
";X;X;X;X;X;X;X;X;X;X;X;X;X;X;X;X;X;X;X3 H < . . < I z.Z.A.;X;X;X;X;X;X;X;X;X;X;X;X;X;X;X;X;X;X;X",
";X;X;X;X;X;X;X;X;X;X;X;X;X;X;X;X;X;XI Y i.s.j.l.M.N.S.I.T.;X;X;X;X;X;X;X;X;X;X;X;X;X;X;X;X;X;X;X",
";X;X;X;X;X;X;X;X;X;X;X;X;X;X;X;X;XG a.j.l.c.b.m.F./.'.U.T.;X;X;X;X;X;X;X;X;X;X;X;X;X;X;X;X;X;X;X",
";X;X;X;X;X;X;X;X;X;X;X;X;X;X;X;X;XJ p.k.c.v.b.n.F.D.x.q.6.E ;X;X;X;X;X;X;X;X;X;X;X;X;X;X;X;X;X;X",
";X;X;X;X;X;X;X;X;X;X;X;X;X;X;X;XL i.s.s.s.d.h.g.z.-.*.W.R.y k ;X;X;X;X;X;X;X;X;X;X;X;X;X;X;X;X;X",
";X;X;X;X;X;X;X;X;X;X;X;X;X;X;XJ i.j.i.H @ # 5 + w ~ R.!.~.<.R n ;X;X;X;X;X;X;X;X;X;X;X;X;X;X;X;X",
";X;X;X;X;X;X;X;X;X;X;X;X;X;XG p.s.a.H - f N P P ..O.=.C.K.J.5.B M ;X;X;X;X;X;X;X;X;X;X;X;X;X;X;X",
";X;X;X;X;X;X;X;X;X;X;X;X;X;XG f.s.L * d c 0 P | ..{ [ Z.P.L.7.g u ;X;X;X;X;X;X;X;X;X;X;X;X;X;X;X",
";X;X;X;X;X;X;X;X;X;X;X;X;X;XG f.i.3 - j c 9 ) +.-.O.+.B.K.J.Q o O ;X;X;X;X;X;X;X;X;X;X;X;X;X;X;X",
";X;X;X;X;X;X;X;X;X;X;X;X;X;X3 s.a.F - @ 0 ) X.R.%.@.%.Q.^.<.t   ;X;X;X;X;X;X;X;X;X;X;X;X;X;X;X;X",
";X;X;X;X;X;X;X;X;X;X;X;X;X;XL p.Y < & r ( o.#.$.%.$.R.R.@.! ;X;X;X;X;X;X;X;X;X;X;X;X;X;X;X;X;X;X",
";X;X;X;X;X;X;X;X;X;X;X;X;XK U a.U ;XO a ` X.o._ #.%.%.X.| x ;X;X;X;X;X;X;X;X;X;X;X;X;X;X;X;X;X;X",
";X;X;X;X;X;X;X;X;X;X;X;X;X1 D D 1 ;X  e p ^ ^ ^ _ X.X.p 8 n 3.;X;X;X;X;X;X;X;X;X;X;X;X;X;X;X;X;X",
";X;X;X;X;X;X;X;X;X;X;X;X;X;X;X;X;XX $ t i t r e p / ) 8 0 V >.;X;X;X;X;X;X;X;X;X;X;X;X;X;X;X;X;X",
";X;X;X;X;X;X;X;X;X;X;X;X;X;X;X;X;Xo , k j 0 ;X;X;X;X+ V Z V ;X;X;X;X;X;X;X;X;X;X;X;X;X;X;X;X;X;X"
};
