/* XPM */
static char *result[] = {
/* columns rows colors chars-per-pixel */
"48 48 206 2 ",
"   c #000100",
".  c #00030E",
"X  c #0A0B0B",
"o  c #000B09",
"O  c #120906",
"+  c #00130E",
"@  c #001400",
"#  c #08001C",
"$  c #18061B",
"%  c #001D1D",
"&  c #091614",
"*  c #151515",
"=  c #1D161D",
"-  c #151818",
";  c #1A1A1A",
":  c #191714",
">  c #3F000F",
",  c #3D0912",
"<  c #231E1F",
"1  c #23050B",
"2  c #09200F",
"3  c #002416",
"4  c #19251C",
"5  c #0E2F07",
"6  c #20231E",
"7  c #293D00",
"8  c #070029",
"9  c #1D0225",
"0  c #00192E",
"q  c #1B1523",
"w  c #00043C",
"e  c #1C0037",
"r  c #001F36",
"t  c #141433",
"y  c #221C21",
"u  c #28003E",
"i  c #201E33",
"p  c #380B20",
"a  c #0D2E24",
"s  c #232323",
"d  c #2C2C2C",
"f  c #282925",
"g  c #302E2F",
"h  c #2F312D",
"j  c #2E382B",
"k  c #37382B",
"l  c #2F2F31",
"z  c #312E31",
"x  c #2E3131",
"c  c #203331",
"v  c #313131",
"b  c #353B34",
"n  c #3C3C3C",
"m  c #383A3A",
"M  c #490507",
"N  c #450113",
"B  c #4A0015",
"V  c #590415",
"C  c #6D0000",
"Z  c #62001C",
"A  c #7D001A",
"S  c #4A003F",
"D  c #6A0224",
"F  c #720123",
"G  c #7B0128",
"H  c #711637",
"J  c #463A3B",
"K  c #3C473B",
"L  c #6A6100",
"P  c #43423C",
"I  c #000058",
"U  c #250044",
"Y  c #2B0244",
"T  c #2D004B",
"R  c #371844",
"E  c #36025A",
"W  c #26134B",
"Q  c #3D2B55",
"!  c #3A096C",
"~  c #370078",
"^  c #481352",
"/  c #450252",
"(  c #483A43",
")  c #50295B",
"_  c #6A2948",
"`  c #7B3753",
"'  c #712949",
"]  c #46086B",
"[  c #571C64",
"{  c #4E0A77",
"}  c #4E1770",
"|  c #5B167D",
" . c #681C7A",
".. c #592960",
"X. c #68277E",
"o. c #3E4B41",
"O. c #454444",
"+. c #4B4A4B",
"@. c #484A46",
"#. c #504E4F",
"$. c #4F504F",
"%. c #515D41",
"&. c #4F5050",
"*. c #525353",
"=. c #5A545B",
"-. c #5D5C5C",
";. c #595856",
":. c #6B5A4E",
">. c #5E605E",
",. c #69705B",
"<. c #5E5A69",
"1. c #635A64",
"2. c #695966",
"3. c #785472",
"4. c #5F6060",
"5. c #656565",
"6. c gray42",
"7. c #676866",
"8. c #72706E",
"9. c #746A73",
"0. c #7A7479",
"q. c #AF001B",
"w. c #85022B",
"e. c #93012C",
"r. c #980131",
"t. c #A8032B",
"y. c #BC0225",
"u. c #A90234",
"i. c #B40039",
"p. c #C4023C",
"a. c #CC0037",
"s. c #8B3B5A",
"d. c #923F72",
"f. c #8F3B69",
"g. c #DE0043",
"h. c #E20247",
"j. c #FC0B4E",
"k. c #F70047",
"l. c #E81F52",
"z. c #FB1856",
"x. c #FF205C",
"c. c #E72457",
"v. c #DC0065",
"b. c #FF3B6C",
"n. c #FA3766",
"m. c #FE3B71",
"M. c #835056",
"N. c #9A6E57",
"B. c #845274",
"V. c #A84761",
"C. c #81717E",
"Z. c #98737F",
"A. c #D7446C",
"S. c #DC4973",
"D. c #D0547B",
"F. c #EF4E7B",
"G. c #F74876",
"H. c #EF466D",
"J. c #93B200",
"K. c #A2BA33",
"L. c #8C9857",
"P. c #8E8D65",
"I. c #A18E77",
"U. c #B2A96C",
"Y. c #D49F7D",
"T. c #C8B970",
"R. c #D5D67C",
"E. c #4C0083",
"W. c #5B1480",
"Q. c #681A88",
"!. c #630094",
"~. c #7C1A9B",
"^. c #752888",
"/. c #7F289A",
"(. c #822998",
"). c #F03D82",
"_. c #8C4B88",
"`. c #8C6D88",
"'. c #887988",
"]. c #94738F",
"[. c #D55686",
"{. c #E85785",
"}. c #F25487",
"|. c #FF608C",
" X c #8F8E90",
".X c #9A8C98",
"XX c #8A8A88",
"oX c #96A585",
"OX c #9B97A4",
"+X c #A399A2",
"@X c #B69AB1",
"#X c #A88DA3",
"$X c #AAA9AA",
"%X c #F5B788",
"&X c #C097B9",
"*X c #CBD895",
"=X c #E9CE86",
"-X c #DBE9A6",
";X c #C6B8C4",
":X c #D9B6D3",
">X c #D4AFCF",
",X c #D4D9C7",
"<X c #F0D0EC",
"1X c #FEFDED",
"2X c #EDEBED",
"3X c None",
/* pixels */
"3X3X3X3X3X3X3X3X3X3X3X3X3X3X3X3X3X3X3X3X3X3X3X3X3X3X3X3X3X3X3X3X3X3X3X3X3X3X3X3X3X3X3X3X3X3X3X3X",
"3X3X3X3X3X3X3X3X3X3X3X3X3X3X3X3X3X3X3X3X3X3X3X3X3X3X3X3X3X3X3X3X3X3X3X3X3X3X3X3X3X3X3X3X3X3X3X3X",
"3X3X3X3X3X3X3X3X3X3X3X3X3X3X3X3X3X3X3X3X3X3X3X3X3X3X3X3X3X3X3X3X3X3X3X3X3X3X3X3X3X3X3X3X3X3X3X3X",
"3X3X3X3X3X3X3X3X3X3X3X3X3X3X3X3X3X3X3X3X3X3X3X3X3X3X3X3X3X3X3X3X3X3X3X3X3X3X3X3X3X3X3X3X3X3X3X3X",
"3X3X3X3X3X3X3X3X3X3X3X3X3X3X3X3X3X3X3X3X3X3X3X3X3X3X3X3X3X3X3X3X3X3X3X3X3X3X3X3X3X3X3X3X3X3X3X3X",
"3X3X3X3X3X3X3X3X3X3X3X3X3X3X3X3X3X3X3X3X3X3X3X3X3X3X3X3X3X3X3X3X3X3X3X3X3X3X3X3X3X3X3X3X3X3X3X3X",
"3X3X3X3X3X3X3X3X3X3X3X3X3X3X3X3X3X3X3X3X3X3X3X3X3X3X3X3X3X3X3X3X3X3X3X3X3X3X3X3X3X3X3X3X3X3X3X3X",
"3X3X3X3X3X3X3X3X3X3X3X3X3X3X3X3X3X3X3X3X3X3X3XJ 3X3X3X3X3X3X3X3X3X3X3X3X3X3X3X3X3X3X3X3X3X3X3X3X",
"3X3X3X3X3X3X3X3X3X3X3X3X3X3X3X3X3X3X3X3X3X3XO.( l 3X3X3X3X3X3X3X3X3X3X3X3X3X3X3X3X3X3X3X3X3X3X3X",
"3X3X3X3X3X3X3X3X3X3X3X3X3X3X3X3X3X3X3X3X3X3Xj K b 3X3X3X3X3X3X3X3X3X3X3X3X3X3X3X3X3X3X3X3X3X3X3X",
"3X3X3X3X3X3X3X3X3X3X3X3X3X3X3X3X3X3X3X3X3X  2.C.&.4 @ o.3X3X3X3X3X3X3X3X3X3X3X3X3X3X3X3X3X3X3X3X",
"3X3X3X3X3X3X3X3X3X3X3X3X3X3X3X3X3X3XX * $   `.@X'.=.f *.@.f 3X3X3X3X3X3X3X3X3X3X3X3X3X3X3X3X3X3X",
"3X3X3X3X3X3X3X3X3X3X3X3X3X3X3X3X3XX * = <   ].>X:X#Xo.&.-.4.m 3X3X3X3X3X3X3X3X3X3X3X3X3X3X3X3X3X",
"3X3X3X3X3X3X3X3X3X3X3X3X3X3X3X3X* * - y q   `.>X<X:X'.( ;.8.=.O.3X3X3X3X3X3X3X3X3X3X3X3X3X3X3X3X",
"3X3X3X3X3X3X3X3X3X3X3X3X3X3X3XX - ; * ; y   3.&X<X:X.Xz o.8.6.;.m 3X3X3X3X3X3X3X3X3X3X3X3X3X3X3X",
"3X3X3X3X3X3X3X3X3X3X3X3X3X3XX - ; = * : y s ( 2.9.2.+.d m =.7.7.4.m 3X3X3X3X3X3X3X3X3X3X3X3X3X3X",
"3X3X3X3X3X3X3X3X3X3X3X3X3XX * ; ; ; - ; d v d 2     ; x n +.-.6.6.&.K 3X3X3X3X3X3X3X3X3X3X3X3X3X",
"3X3X3X3X3X3X3X3X3X3X3X3X3X* ; ; ; ; : s d v h f f f l z l v @.>.6.7.+.3X3X3X3X3X3X3X3X3X3X3X3X3X",
"3X3X3X3X3X3X3X3X3X3X3X3XX * ; ; ; ; - s d v v v d b v *       z =.7.*.d 3X3X3X3X3X3X3X3X3X3X3X3X",
"3X3X3X3X3X3X3X3X3X3X3X3XX * ; ; - ; ; d v v v v b s l &. X$XXX;.e 1.-.n 3X3X3X3X3X3X3X3X3X3X3X3X",
"3X3X3X3X3X3X3X3X3X3X3X3XX * = ; : ; s d v v d v n = s >.;X2X,XoX7 <.=.b 3X3X3X3X3X3X3X3X3X3X3X3X",
"3X3X3X3X3X3X3X3X3X3X3X3XX * ; ; ; - ; d v v g v v v d   OX2X1X-XJ.8.Q   3X3X3X3X3X3X3X3X3X3X3X3X",
"3X3X3X3X3X3X3X3X3X3X3X3XX : ; ; ; ; y d v v v l v v x   <.OX,X*XK.,.`.+X@X3X3X3X3X3X3X3X3X3X3X3X",
"3X3X3X3X3X3X3X3X3X3X3X3XX - ; ; : ; ; d v v v v v v v j     ,.L.L.%..X:X;X3X3X3X3X3X3X3X3X3X3X3X",
"3X3X3X3X3X3X3X3X3X3X3X3XX * ; ; ; = - s d v v v v v v h h v j j P *.0.XX'.3X3X3X3X3X3X3X3X3X3X3X",
"3X3X3X3X3X3X3X3X3X3X3X3X3X* ; ; ; - * s d v v g x v g z v v ; . i -.>.+.3X3X3X3X3X3X3X3X3X3X3X3X",
"3X3X3X3X3X3X3X3X3X3X3X3X3XX * - ; ; : y d v v g g v h x g v b b @.7.+.  3X3X3X3X3X3X3X3X3X3X3X3X",
"3X3X3X3X3X3X3X3X3X3X3X3X3X3XX ; 6 ; - - 6 d z v v g v v v g ; J ;.7.*.3X3X3X3X3X3X3X3X3X3X3X3X3X",
"3X3X3X3X3X3X3X3X3X3X3X3X3X3X3XX : ; ; ; < s d v z z l l v g g *.5.*.O.3X3X3X3X3X3X3X3X3X3X3X3X3X",
"3X3X3X3X3X3X3X3X3X3X3X3X3X3X3X3XX - ; ; - ; d z v l l l v n @.-.5.n 3X3X3X3X3X3X3X3X3X3X3X3X3X3X",
"3X3X3X3X3X3X3X3X3X3X3X3X3X3X3X3X3XO : - & 4 < f z x c a v +.4.*.J 3X3X3X3X3X3X3X3X3X3X3X3X3X3X3X",
"3X3X3X3X3X3X3X3X3X3X3X3X3X3X3X3X3X3Xo + * + + + % 3 3 8 t m #.@.3X3X3X3X3X3X3X3X3X3X3X3X3X3X3X3X",
"3X3X3X3X3X3X3X3X3X3X3X3X3X3X3X3X3X3X3X> N , N M M D ' M.:.3X3X3X3X3X3X3X3X3X3X3X3X3X3X3X3X3X3X3X",
"3X3X3X3X3X3X3X3X3X3X3X3X3X3X3X3X3X3XD D G G e.t.y.v.}.R.=X3X3X3X3X3X3X3X3X3X3X3X3X3X3X3X3X3X3X3X",
"3X3X3X3X3X3X3X3X3X3X3X3X3X3X3X3X3X> F w.i.a.g.c.G.).}.Y.U.3X3X3X3X3X3X3X3X3X3X3X3X3X3X3X3X3X3X3X",
"3X3X3X3X3X3X3X3X3X3X3X3X3X3X3X3X3XZ u.g.h.z.z.m.|.[.f.3.:.L 3X3X3X3X3X3X3X3X3X3X3X3X3X3X3X3X3X3X",
"3X3X3X3X3X3X3X3X3X3X3X3X3X3X3X3XN e.h.k.j.n.F.D.D.f.! ~.Q.W 3X3X3X3X3X3X3X3X3X3X3X3X3X3X3X3X3X3X",
"3X3X3X3X3X3X3X3X3X3X3X3X3X3X3XB w.a.k.x.n.A.V.3.` ^ ~ (.^.) 3X3X3X3X3X3X3X3X3X3X3X3X3X3X3X3X3X3X",
"3X3X3X3X3X3X3X3X3X3X3X3X3X3XN F i.h.j.H.H.` a 5 0 E  ._.`.P.3X3X3X3X3X3X3X3X3X3X3X3X3X3X3X3X3X3X",
"3X3X3X3X3X3X3X3X3X3X3X3X3X3XN w.a.j.G.A.` p P ;.J / ' N.T.R.3X3X3X3X3X3X3X3X3X3X3X3X3X3X3X3X3X3X",
"3X3X3X3X3X3X3X3X3X3X3X3X3X3XB t.l.n.A.s.3   P ;.( / ..B.I.U.3X3X3X3X3X3X3X3X3X3X3X3X3X3X3X3X3X3X",
"3X3X3X3X3X3X3X3X3X3X3X3X3X3XV a.H.F.s.r   1 k @.Q ] E.!.E.I 3X3X3X3X3X3X3X3X3X3X3X3X3X3X3X3X3X3X",
"3X3X3X3X3X3X3X3X3X3X3X3X3X3XV q.H.F._ w Y 9 = R } { { Q.Q...3X3X3X3X3X3X3X3X3X3X3X3X3X3X3X3X3X3X",
"3X3X3X3X3X3X3X3X3X3X3X3X3XX Z a.n.H._ I T Y u U ] { | /.^...3X3X3X3X3X3X3X3X3X3X3X3X3X3X3X3X3X3X",
"3X3X3X3X3X3X3X3X3X3X3X3X3X  F h.x.c.H w U Y Y Y E ] | (. .^ 3X3X3X3X3X3X3X3X3X3X3X3X3X3X3X3X3X3X",
"3X3X3X3X3X3X3X3X3X3X3X3X3X3XV u.p.t.3X. 9 9 q q $ 8 Y ^ ^ 9 3X3X3X3X3X3X3X3X3X3X3X3X3X3X3X3X3X3X",
"3X3X3X3X3X3X3X3X3X3X3X3X3X3X3Xw.w.C 3X3XO : 6 f k 6 5 3X3X3X3X3X3X3X3X3X3X3X3X3X3X3X3X3X3X3X3X3X",
"3X3X3X3X3X3X3X3X3X3X3X3X3X3X3X3X3X3X3X3X+ 6 d v @.O.J 3X3X3X3X3X3X3X3X3X3X3X3X3X3X3X3X3X3X3X3X3X"
};
