/* XPM */
static char *cm93LTQtY29sdW1uLTM_[] = {
/* columns rows colors chars-per-pixel */
"48 48 174 2 ",
"   c #030202",
".  c #000D0B",
"X  c #0C0C0C",
"o  c #000B04",
"O  c #100001",
"+  c #160708",
"@  c #001101",
"#  c #001F00",
"$  c #00140E",
"%  c #19110F",
"&  c #001410",
"*  c #001A17",
"=  c #041E1D",
"-  c #121212",
";  c #151C1B",
":  c #1B1B1B",
">  c #191716",
",  c #290000",
"<  c #2A0409",
"1  c #2D0C11",
"2  c #3C0712",
"3  c #380E18",
"4  c #251214",
"5  c #211C1D",
"6  c #2A1C1D",
"7  c #331A1C",
"8  c #3C1212",
"9  c #00211C",
"0  c #002622",
"q  c #002F28",
"w  c #052723",
"e  c #1C2321",
"r  c #1B2A29",
"t  c #242323",
"y  c #2B2222",
"u  c #2C2C2C",
"i  c #252C2B",
"p  c #372220",
"a  c #312D2E",
"s  c #2D3A39",
"d  c #313131",
"f  c #3C3C3C",
"g  c #4A0000",
"h  c #4C0313",
"j  c #490815",
"k  c #410714",
"l  c #530216",
"z  c #5C051C",
"x  c #41121A",
"c  c #6D0000",
"v  c #63031C",
"b  c #6B001F",
"n  c #60091A",
"m  c #6D0221",
"M  c #640A20",
"N  c #750123",
"B  c #7B0125",
"V  c #641827",
"C  c #621122",
"Z  c #7D1A2E",
"A  c #502023",
"S  c #562930",
"D  c #5B3B3B",
"F  c #693338",
"G  c #6F3046",
"H  c #7A334B",
"J  c #004F46",
"K  c #00514C",
"L  c #005953",
"P  c #3A4847",
"I  c #33504E",
"U  c #444444",
"Y  c #4C4C4C",
"T  c #545454",
"R  c #5C5C5C",
"E  c #636363",
"W  c #6A6A6A",
"Q  c #8F0000",
"!  c #900000",
"~  c #9A0000",
"^  c #910008",
"/  c #830017",
"(  c #86001E",
")  c #A60011",
"_  c #820027",
"`  c #880026",
"'  c #84002A",
"]  c #89002A",
"[  c #8A012A",
"{  c #8A022D",
"}  c #8E002D",
"|  c #8A032B",
" . c #8B0B2A",
".. c #910025",
"X. c #94012D",
"o. c #99002C",
"O. c #960030",
"+. c #940331",
"@. c #9A0132",
"#. c #9D0133",
"$. c #980630",
"%. c #960B30",
"&. c #9B193D",
"*. c #A4002D",
"=. c #A40134",
"-. c #AC0035",
";. c #B40037",
":. c #B40139",
">. c #BD013C",
",. c #BE083C",
"<. c #AE1437",
"1. c #C3013D",
"2. c #C8013F",
"3. c #D00033",
"4. c #DE0032",
"5. c #D0003F",
"6. c #A81B41",
"7. c #9A2644",
"8. c #943740",
"9. c #9D3041",
"0. c #993B48",
"q. c #8F3853",
"w. c #AE3D5C",
"e. c #B43E5C",
"r. c #CA0040",
"t. c #D30042",
"y. c #DB0044",
"u. c #DF0048",
"i. c #D6164C",
"p. c #E30047",
"a. c #E6024A",
"s. c #EB014C",
"d. c #EE0D48",
"f. c #F3014E",
"g. c #FC004E",
"h. c #FB0042",
"j. c #FB1B4F",
"k. c #FE0152",
"l. c #FF0E54",
"z. c #FF0059",
"x. c #E31E54",
"c. c #FE1E5C",
"v. c #F01B56",
"b. c #CA244D",
"n. c #DC2A59",
"m. c #D5385F",
"M. c #E02C5D",
"N. c #FF225B",
"B. c #E3305F",
"V. c #DB3961",
"C. c #FF356A",
"Z. c #F43966",
"A. c #FA3F71",
"S. c #AA4362",
"D. c #BA4E71",
"F. c #A85777",
"G. c #D44165",
"H. c #DB436E",
"J. c #C84D72",
"K. c #CA5177",
"L. c #CC5178",
"P. c #E74C78",
"I. c #FD4374",
"U. c #FD4B7C",
"Y. c #E0557F",
"T. c #DE5D87",
"R. c #E15680",
"E. c #E55A86",
"W. c #F25583",
"Q. c #FF5688",
"!. c #FF5B8B",
"~. c #F15F8B",
"^. c None",
"/. c black",
/* pixels */
"^.^.^.^.^.^.^.^.^.^.^.^.^.^.^.^.^.^.^.^.^.^.^.^.^.^.^.^.^.^.^.^.^.^.^.^.^.^.^.^.^.^.^.^.^.^.^.^.",
"^.^.^.^.^.^.^.^.^.^.^.^.^.^.^.^.^.^.^.^.^.^.^.^.^.^.^.^.^.^.^.^.^.^.^.^.^.^.^.^.^.^.^.^.^.^.^.^.",
"^.^.^.^.^.^.^.^.^.^.^.^.^.^.^.^.^.^.^.^.^.^.^.^.^.^.^.^.^.^.^.^.^.^.^.^.^.^.^.^.^.^.^.^.^.^.^.^.",
"^.^.^.^.^.^.^.^.^.^.^.^.^.^.^.^.^.^.^.^.^.^.^.^.^.^.^.^.^.^.^.^.^.^.^.^.^.^.^.^.^.^.^.^.^.^.^.^.",
"^.^.^.^.^.^.^.^.^.^.^.^.^.^.^.^.^.^.^.^.^.^.^.^.^.^.^.^.^.^.^.^.^.^.^.^.^.^.^.^.^.^.^.^.^.^.^.^.",
"^.^.^.^.^.^.^.^.^.^.^.^.^.^.^.^.^.^.^.^.^.^.^.^.^.^.^.^.^.^.^.^.^.^.^.^.^.^.^.^.^.^.^.^.^.^.^.^.",
"^.^.^.^.^.^.^.^.^.^.^.^.^.^.^.^.^.^.^.^.^.^.^.^.^.^.^.^.^.^.^.^.^.^.^.^.^.^.^.^.^.^.^.^.^.^.^.^.",
"^.^.^.^.^.^.^.^.^.^.^.^.^.^.^.^.^.^.^.^.^.^.^.^.^.^.^.^.^.^.^.^.^.^.^.^.^.^.^.^.^.^.^.^.^.^.^.^.",
"^.^.^.^.^.^.^.^.^.^.^.^.^.^.^.^.^.^.^.^.^.^.^.^.^.^.^.^.^.^.^.^.^.^.^.^.^.^.^.^.^.^.^.^.^.^.^.^.",
"^.^.^.^.^.^.^.^.^.^.f d ^.^.^.^.^.^.^.^.^.^.^.^.^.^.^.^.^.^.^.^.^.^.^.^.d d ^.^.^.^.^.^.^.^.^.^.",
"^.^.^.^.^.^.^.^.^.t U T T f t ^.^.^.^.^.^.^.^.^.^.^.^.^.^.^.^.^.^.t f T R Y a ^.^.^.^.^.^.^.^.^.",
"^.^.^.^.^.^.^.^.^.: Y E R T f t - ^.^.^.d d d u d d u u ^.^.^.- r D Y E W R f ^.^.^.^.^.^.^.^.^.",
"^.^.^.^.^.^.^.^.^.X i f Y T T U t     d Y R E W E E E T U i : t f R T U T T U ^.^.^.^.^.^.^.^.^.",
"^.^.^.^.^.^.^.^.^.  - t d U U f u t t d U Y R R R W W W E T Y U U U f d f f d ^.^.^.^.^.^.^.^.^.",
"^.^.^.^.^.^.^.^.^.  X : u : X : u d d d i a d U Y T E R W W W R Y u : t d i > ^.^.^.^.^.^.^.^.^.",
"^.^.^.^.^.^.^.^.^.^.- : t t t d d d d d d d d u a f f U T R W W E T U t i t ^.^.^.^.^.^.^.^.^.^.",
"^.^.^.^.^.^.^.^.^.^.  - : t d d d d d d d d u u u i u d f Y T R E W T t : X ^.^.^.^.^.^.^.^.^.^.",
"^.^.^.^.^.^.^.^.^.^.    - u s a d d d d d d d d d d u u i t f U T E R f -   ^.^.^.^.^.^.^.^.^.^.",
"^.^.^.^.^.^.^.^.^.^.^.  : u s a d d u d d d d d u d d d d d u u f Y R E t ^.^.^.^.^.^.^.^.^.^.^.",
"^.^.^.^.^.^.^.^.^.^.^.- t u d a u d d d u d d d d d d d d a a i t f R E D ^.^.^.^.^.^.^.^.^.^.^.",
"^.^.^.^.^.^.^.^.^.^.X > i a a d d d u d d d d d d d d d a d d d a i Y R T U ^.^.^.^.^.^.^.^.^.^.",
"^.^.^.^.^.^.^.^.^.^.X : d d d d d d d d d d u d d u d d d d d d d : U E E Y ^.^.^.^.^.^.^.^.^.^.",
"^.^.^.^.^.^.^.^.^.^.X : d d d a d u d d d d d d d d d d d d d d d t f T R Y ^.^.^.^.^.^.^.^.^.^.",
"^.^.^.^.^.^.^.^.^.^.X : d d d d d d d d d u d d u d d u d d d d a i f Y T Y ^.^.^.^.^.^.^.^.^.^.",
"^.^.^.^.^.^.^.^.^.^.X e u d d d d d d u d d d d d d u d d d d d u u d U R Y ^.^.^.^.^.^.^.^.^.^.",
"^.^.^.^.^.^.^.^.^.^.X > u d d d d d d d d d d d d d d d d d d u d u d f Y U ^.^.^.^.^.^.^.^.^.^.",
"^.^.^.^.^.^.^.^.^.^.^.X t u d a u d d d d u d d d u d d d d d d d d f d u ^.^.^.^.^.^.^.^.^.^.^.",
"^.^.^.^.^.^.^.^.^.^.^.X - t u a d d d d d d d a d d d d d d d u a d a i : ^.^.^.^.^.^.^.^.^.^.^.",
"^.^.^.^.^.^.^.^././././.  > t a d d d d a d d d d d d d d u d d a f u : ^.^.^.^.^.^.^.^.^.^.^.^.",
"^.^.^.^.^.^.^.^././././.  - 5 u i a d d a a d d d d d d d d d d d d t X ^.^.^.^.^.^.^.^.^.^.^.^.",
"^.^.^.^.^.^.^.^./././././.- > t e t u d d d d d d d d d d d u a a u t ^.^.^.^.^.^.^.^.^.^.^.^.^.",
"^.^.^.^.^.^.^.^././././././.. & & * ; t u a a a u a a a u r w 9 = ; ^.^.^.^.^.^.^.^.^.^.^.^.^.^.",
"^.^.^.^.^.^.^.^.^.^.^.^.^.^.^.< 1 4 % > : t y t t t 6 e ; ; 4 < , ^.^.^.^.^.^.^.^.^.^.^.^.^.^.^.",
"^.^.^.^.^.^.^.^.^.^.^.^.^.^.l m m v j 1 & & & & & $ $ & 1 h v m m l ^.^.^.^.^.^.^.^.^.^.^.^.^.^.",
"^.^.^.^.^.^.^.^.^.^.^.^.^.2 v [ } { ' N z k 2 2 2 2 l z N _ [ } } M x ^.^.^.^.^.^.^.^.^.^.^.^.^.",
"^.^.^.^.^.^.^.^.^.^.^.^.o 3 C  .%.@.@.+.[ B B B B B _ [ O.#.@.@.| V 7 * ^.^.^.^.^.^.^.^.^.^.^.^.",
"^.^.^.^.^.^.^.^.^.^.^.^.O = i S Z X.X.+.@.-.:.:.>.:.#.] { O.+.N j y e 5 ^.^.^.^.^.^.^.^.^.^.^.^.",
"^.^.^.^.^.^.^.^.^.^.^.^.  e s P F ( | { -.u.s.a.a.r.=.-.@.{ =.X.n e 0 6 ^.^.^.^.^.^.^.^.^.^.^.^.",
"^.^.^.^.^.^.^.^.^.^.^.^.  y D I D / =.+.=.f.k.z.k.y.:.r.=.' >.:. .p 9 7 ^.^.^.^.^.^.^.^.^.^.^.^.",
"^.^.^.^.^.^.^.^.^.^.^.^.  : e q A o.y.>.+.y.g.k.k.f.s.1.} { r.r.%.8 @ /.^.^.^.^.^.^.^.^.^.^.^.^.",
"^.^.^.^.^.^.^.^.^.^.^.^.+ o $ @ h =.f.a.2.y.f.k.k.k.a.-.N ` 1.y.3.g ^.^.^.^.^.^.^.^.^.^.^.^.^.^.",
"^.^.^.^.^.^.^.^.^.^.^.^.^.h v B ] :.f.z.f.a.f.k.k.d.,.X.B  .;.d.j.7.^.^.^.^.^.^.^.^.^.^.^.^.^.^.",
"^.^.^.^.^.^.^.^.^.^.^.^.^.o.5.f.y.>.s.k.k.g.g.h.4.) c { &.<.*.n.U.E.D.^.^.^.^.^.^.^.^.^.^.^.^.^.",
"^.^.^.^.^.^.^.^.^.^.^.^.h 1.f.z.s.2.s.k.g.g.N.Z.G.S.w.J.H.V.n.P.E.L.S.^.^.^.^.^.^.^.^.^.^.^.^.^.",
"^.^.^.^.^.^.^.^.^.^.^.^.N y.k.z.a.t.f.g.l.c.I.W.T.Y.P.~.U.C.I.R.F.H ^.^.^.^.^.^.^.^.^.^.^.^.^.^.",
"^.^.^.^.^.^.^.^.^.^.^.^.` 5.g.f.p.p.k.k.c.U.!.!.!.I.v.M.p.x.W.K.G ^.^.^.^.^.^.^.^.^.^.^.^.^.^.^.",
"^.^.^.^.^.^.^.^.^.^.^.^.^.>.5.2.-.;.t.t.i.m.G.G.V.b.<.9.8.0.S.q.3 ^.^.^.^.^.^.^.^.^.^.^.^.^.^.^.",
"^.^.^.^.^.^.^.^.^.^.^.^.^.^.^.^.^.  ` o...^ ! ! ~ c 9 J L K # ^.^.^.^.^.^.^.^.^.^.^.^.^.^.^.^.^."
};
