/* XPM */
static char *result[] = {
/* columns rows colors chars-per-pixel */
"48 48 219 2 ",
"   c #030302",
".  c #070908",
"X  c #0D0D0D",
"o  c #130A0F",
"O  c #0E100F",
"+  c #091D0D",
"@  c #150A19",
"#  c #031717",
"$  c #0C1311",
"%  c #0E1912",
"&  c #131413",
"*  c #151A16",
"=  c #191319",
"-  c #181619",
";  c #1B1B1B",
":  c #2A101A",
">  c #0D2C10",
",  c #15251A",
"<  c #1D231E",
"1  c #182D1F",
"2  c #282D1E",
"3  c #150429",
"4  c #14112E",
"5  c #02023B",
"6  c #071436",
"7  c #25023E",
"8  c #192F25",
"9  c #122B2F",
"0  c #1C3423",
"q  c #1E3B26",
"w  c #242524",
"e  c #282A25",
"r  c #242B2A",
"t  c #2C2C2C",
"y  c #27382A",
"u  c #31312C",
"i  c #2A2F31",
"p  c #322B33",
"a  c #323232",
"s  c #383C34",
"d  c #3B3D3B",
"f  c #49020D",
"g  c #540105",
"h  c #4E0C17",
"j  c #461C1C",
"k  c #69081D",
"l  c #73061E",
"z  c #4F221D",
"x  c #48013F",
"c  c #740525",
"v  c #4E2827",
"b  c #562E28",
"n  c #463428",
"m  c #443939",
"M  c #69262F",
"N  c #334B01",
"B  c #2A482A",
"V  c #254730",
"C  c #38483A",
"Z  c #2D573B",
"A  c #36503D",
"S  c #315C3E",
"D  c #4F4730",
"F  c #5B6522",
"G  c #1A0E4D",
"H  c #260142",
"J  c #2B0149",
"K  c #33124F",
"L  c #2C2648",
"P  c #3E2D49",
"I  c #390469",
"U  c #3A0379",
"Y  c #470A5A",
"T  c #6E1D40",
"R  c #4A2B4F",
"E  c #473859",
"W  c #6D2C4D",
"Q  c #49096D",
"!  c #4C0477",
"~  c #551074",
"^  c #6A1B79",
"/  c #573760",
"(  c #3D4E43",
")  c #3B5744",
"_  c #346442",
"`  c #396A46",
"'  c #3A6D4A",
"]  c #3B724C",
"[  c #3F7A51",
"{  c #444344",
"}  c #464C47",
"|  c #4B514C",
" . c #445C4B",
".. c #525748",
"X. c #544D59",
"o. c #4D5951",
"O. c #525453",
"+. c #5A5656",
"@. c #5B5C5B",
"#. c #6F4A52",
"$. c #456749",
"%. c #497946",
"&. c #496753",
"*. c #5C625E",
"=. c #427D54",
"-. c #437859",
";. c #507D59",
":. c #646D55",
">. c #6E7155",
",. c #655B65",
"<. c #754E72",
"1. c #4D7F60",
"2. c #646565",
"3. c #676867",
"4. c #6A6A6A",
"5. c #737171",
"6. c #B10318",
"7. c #86042A",
"8. c #9B012B",
"9. c #99102C",
"0. c #A8062A",
"q. c #B60524",
"w. c #A70633",
"e. c #BA0335",
"r. c #CC0633",
"t. c #CC0238",
"y. c #872A46",
"u. c #823656",
"i. c #88366D",
"p. c #E30346",
"a. c #F7064A",
"s. c #FC0A51",
"d. c #EA1C54",
"f. c #F71556",
"g. c #DB2152",
"h. c #DD0968",
"j. c #FD1F60",
"k. c #CA3D67",
"l. c #F63465",
"z. c #FA396B",
"x. c #F93B73",
"c. c #95435A",
"v. c #946759",
"b. c #CE4972",
"n. c #ED4069",
"m. c #EB4776",
"M. c #F54876",
"N. c #518145",
"B. c #438356",
"V. c #458559",
"C. c #4A8758",
"Z. c #498D5E",
"A. c #528359",
"S. c #5C9554",
"D. c #53955E",
"F. c #569A5F",
"G. c #5A9C5E",
"H. c #6E994F",
"J. c #629952",
"K. c #639A54",
"L. c #64A35B",
"P. c #6BA758",
"I. c #6DA958",
"U. c #72A955",
"Y. c #4B8F61",
"T. c #479162",
"R. c #4C9362",
"E. c #529561",
"W. c #539860",
"Q. c #5E9C67",
"!. c #6D9173",
"~. c #68A164",
"^. c #7FAA62",
"/. c #96B507",
"(. c #A1B736",
"). c #828E57",
"_. c #B5A446",
"`. c #909568",
"'. c #8CB162",
"]. c #AEB678",
"[. c #CB967D",
"{. c #C4B471",
"}. c #BBC677",
"|. c #4D0382",
" X c #5A0D80",
".X c #6A158A",
"XX c #6E0A97",
"oX c #75248D",
"OX c #7A298C",
"+X c #EB3E82",
"@X c #8E4D83",
"#X c #8B6D86",
"$X c #857885",
"%X c #93738D",
"&X c #D25384",
"*X c #EE5585",
"=X c #F95E8B",
"-X c #7DA083",
";X c #8A8189",
":X c #8F8C91",
">X c #978999",
",X c #959B95",
"<X c #9FAF8A",
"1X c #A996A6",
"2X c #B893B2",
"3X c #B6ACB1",
"4X c #B8B5B9",
"5X c #F1B488",
"6X c #C5D190",
"7X c #C7C9B6",
"8X c #DAE8A6",
"9X c #D5AACE",
"0X c #CAB2C7",
"qX c #DCB8D6",
"wX c #E2BADC",
"eX c #DBD7DF",
"rX c #DBE3D2",
"tX c #FBCEF3",
"yX c #F3F1EB",
/* pixels */
"R.R.R.R.R.R.R.R.R.R.R.R.R.R.R.R.R.R.R.R.R.R.R.R.R.R.R.R.R.R.R.R.R.R.R.R.R.R.R.R.R.R.R.R.R.R.R.R.",
"R.R.R.R.R.R.R.R.R.R.R.R.R.R.R.R.R.R.R.T.Z.R.R.R.R.R.R.R.R.R.R.R.R.R.R.R.R.R.R.R.R.E.R.R.R.Z.T.R.",
"R.R.R.R.R.R.R.R.R.R.R.R.R.E.R.R.R.R.T.B.V.R.R.R.R.R.R.R.R.R.R.R.R.R.R.R.R.R.R.R.R.R.R.R.Z.V.V.T.",
"R.R.R.R.R.R.R.R.R.R.R.R.R.R.R.R.R.R.R.B.V.R.R.R.R.R.R.R.R.R.R.R.R.R.R.R.R.R.R.R.R.R.R.R.T.V.V.R.",
"R.R.R.R.W.Q.L.R.R.R.R.R.R.R.R.R.R.R.R.R.Z.R.R.R.R.R.R.R.R.R.W.G.~.T.R.R.R.R.R.R.R.R.R.R.R.R.R.R.",
"R.R.R.R.I.G.L.R.R.R.R.R.R.R.R.R.R.R.R.R.R.R.R.R.Y.Z.R.R.R.R.I.G.P.R.R.R.R.R.R.R.R.R.R.R.R.R.R.R.",
"R.R.R.W.I.F.F.R.R.R.R.R.R.R.R.R.R.R.R.R.R.R.R.R.V.C.R.R.R.R.I.W.G.T.R.R.R.R.R.R.R.R.R.R.R.R.R.R.",
"R.R.R.R.F.R.R.R.R.R.R.R.R.R.R.R.R.R.R.R.R.R.B.'  .-.Z.R.R.R.G.R.R.R.R.R.R.R.R.R.R.R.R.R.R.R.R.R.",
"R.R.R.R.T.R.R.R.R.R.R.R.R.R.R.R.R.R.Y.Y.Z.D.%.A {  .B.R.R.Y.R.R.R.R.R.R.R.R.R.R.R.R.R.R.R.R.R.W.",
"R.R.R.R.R.R.R.R.R.R.R.R.R.R.R.R.R.R.Z.Z.=.%.$.( A A Z C.Z.Z.R.R.Z.R.R.R.R.R.R.R.R.R.R.R.R.R.R.L.",
"R.R.R.R.R.R.R.R.R.R.R.R.R.R.R.R.Y.Y.' $.$.q V +.$X,.< Z _ _ Z.R.T.R.R.R.R.R.R.R.R.R.R.R.R.R.R.R.",
"R.R.R.V.R.R.R.R.R.R.R.R.R.R.R.R.C.-.A } O.1 ,.%X2X#X  * 8 1 _ Z.R.R.R.R.R.R.R.R.R.R.R.R.R.R.R.R.",
"R.R.V.V.V.R.R.R.R.R.R.R.R.R.R.Z._ } 2.@.| | 1XqX9X%X  = = & * _ Z.R.T.Y.W.R.R.R.R.R.R.R.R.R.R.R.",
"T.R.T.V.Z.R.R.R.R.R.R.R.R.R.Z._  .@.5.O.D ;XqXtX9X#X  = = X X 0 _ T.R.R.T.R.R.R.R.R.R.R.R.R.R.R.",
"'.R.R.R.R.R.R.R.R.R.R.R.R.Z.=.( @.4.4.C u ;X9XwX2X<.  = & O - O , ` T.R.W.T.R.R.R.R.R.R.R.R.R.R.",
"'.R.R.R.R.R.R.R.R.R.R.R.R.` } *.2.2.O.d e R +.,.X.d < ; O X - & * , _ T.R.R.R.R.R.R.R.R.R.R.R.R.",
"L.R.R.R.R.R.R.R.R.Y.R.Y.=.$.o.4.4.*.D a t -     + w t w - X & - & X y B.Z.R.R.R.R.R.R.R.R.R.R.R.",
"U.R.P.W.R.R.E.R.R.R.R.Z.) o.2.3.+.P i r e t w 8 w t t t ; X & - * & , Z V.R.R.R.R.R.L.D.R.R.R.R.",
"K.K.U.D.R.R.R.R.R.R.T.V.C o.3.X.p $ $ & & t u t t t t t < O & & & & O , B.R.R.R.R.R.P.F.W.R.R.R.",
"C.S.C.T.R.R.R.R.R.R.T.-.( +.,.3 *.,X3X,XX.r < a t t t t w - & O & & X % [ R.R.R.R.R.P.G.I.R.R.R.",
"Y.V.Z.R.R.R.R.R.R.R.R.=.C X.,.N <XrXyX4Xo.8 - a t t t a e ; & o & & X % [ R.R.R.R.R.W.F.I.R.R.R.",
"_.R.R.R.R.R.R.R.R.R.R.&.8 P 4./.8XyXeX>X  r u t t t t u e = & & & - X % [ R.R.R.R.R.R.R.W.R.R.R.",
"F.R.R.R.R.R.R.R.T.R.!.,X1X$X:.(.6X7X:XX.  t p t t t t t w - & X & & X + [ D.R.R.R.R.R.R.R.R.R.R.",
"R.R.R.R.R.R.R.R.E.T.-X4X0X>X..).).:.. . t t t t t t t t w - & & & - X % C.L.L.R.R.R.R.R.R.R.R.R.",
"R.R.R.R.R.R.R.R.R.R.Q.!.#X5.O.s 2 2 t t t t t t t t t t ; & & & & & O 0 C.L.L.R.R.R.R.R.R.R.R.R.",
"R.R.R.R.R.R.R.R.R.R.Y.;.} ,.,.w . - u u t t t t t t p r - X & - - $ , S V.D.R.R.R.R.R.R.R.R.R.R.",
"R.R.R.R.R.R.R.R.R.R.R.V.8 | 2.} s u t t t t t t t u t w - X O - * O V B.R.R.Z.R.R.R.R.R.R.R.R.R.",
"R.R.R.R.R.R.R.R.R.R.R.Z.S &.2.@.C - t t t t t t t t w - & & * & & q ' R.R.R.R.R.R.R.R.R.R.Z.Z.R.",
"R.R.R.R.R.R.R.R.R.Y.R.Y.V.&.O.2.X.t t t i t t t t r ; & & & & * q ' Z.R.R.R.R.R.R.R.R.R.Z.B.B.Z.",
"R.R.R.R.R.R.R.R.R.R.R.R.R.' ( *.@.} d u r i t t t w * $ & & & 0 ' R.R.T.R.R.R.R.E.R.R.R.R.B.V.R.",
"R.R.R.R.R.G.L.R.R.R.R.R.R.R.V.) O.,.| i # 9 r e ; : & $ # # y ` L.T.R.R.R.R.R.R.R.R.R.R.R.R.R.R.",
"R.R.R.R.I.G.L.R.R.R.R.R.Y.R.T.' &.o.( 9 3 > % + . . X . % V F S.L.R.R.R.R.R.R.R.R.R.R.R.R.R.R.Z.",
"R.R.R.W.I.G.G.R.R.R.R.R.R.R.R.R.V.' =.>.v.y.c g f f f f j D K.D.F.R.R.R.R.R.R.R.R.R.R.R.R.R.R.R.",
"R.R.R.R.G.R.T.R.R.R.R.R.R.R.R.R.Y.W.~.].5X*Xh.r.q.8.7.c c M %.Z.R.Z.R.R.R.R.R.R.R.R.R.R.R.R.R.R.",
"R.R.R.R.T.R.R.R.R.R.R.R.R.R.R.R.R.W.H.`.[.&X+XM.d.p.t.e.8.c n ] R.R.R.R.R.R.R.R.R.R.R.R.R.R.R.W.",
"E.R.R.R.R.R.R.R.R.R.R.R.R.R.R.R.E.A.F ,.<.i.&X=Xx.j.s.p.t.w.k A Z.R.R.R.R.R.R.R.R.R.R.R.R.R.R.L.",
"R.R.R.R.R.R.R.R.R.R.R.R.R.R.R.R.Y.1.L .XoXI i.b.b.m.z.a.a.p.8.v ) C.R.Z.R.R.R.R.E.R.E.R.R.R.R.R.",
"R.R.R.V.R.R.R.R.R.R.R.R.R.R.R.R.E.1.E OXoXU Y W #.c.k.z.f.a.t.7.v $.V.R.R.R.R.R.T.R.T.R.R.R.R.R.",
"R.R.Z.V.B.R.R.R.R.R.R.R.R.R.R.R.R.E.`.%X@X.XJ 4 > 8 W b.z.s.p.e.l n ] R.R.R.R.R.R.R.E.T.E.R.R.R.",
"T.R.T.B.Z.R.R.R.R.R.R.R.R.R.R.R.R.Q.}.{.v.W x m @.C : W b.z.s.r.7.j _ Z.R.R.R.R.T.E.R.R.T.R.T.E.",
"^.R.R.R.R.R.R.R.R.R.R.R.R.R.R.R.R.E.`.;X@X~ Y R ..m   # u.b.l.d.0.z _ R.Z.R.R.R.T.E.R.R.R.R.R.R.",
"'.R.R.R.R.R.R.R.R.R.R.R.R.R.R.R.Y.-.G |.XX|.Q K R u o   6 u.m.l.q.b _ R.R.R.R.R.E.T.R.R.R.R.R.R.",
"L.R.R.R.R.R.R.R.R.R.R.R.R.R.R.R.R.Y./ oX.X! ! Q p @ 3 H 5 W *Xn.6.h Z R.R.R.R.R.R.R.R.R.R.R.R.R.",
"U.R.P.G.R.R.R.R.R.R.R.R.R.R.R.R.L.A.R oXoX X! ! H 7 H J 5 T m.l.r.l q B.Z.R.T.R.R.R.~.W.R.R.R.R.",
"L.J.U.D.R.R.R.R.R.R.R.R.R.R.R.R.I.A.R ^ OX~ I J 7 H H G 6 M g.f.t.c B [ Z.T.R.R.R.R.I.F.W.R.R.R.",
"V.J.C.Z.R.R.R.R.R.R.R.R.R.R.R.R.U.C.s P E p 4 o @ @ @ o V D 9.t.w.b ` Y.W.R.R.R.R.T.P.G.I.R.R.R.",
"T.B.Z.W.R.R.R.R.R.R.R.R.R.T.W.R.F.D.N.' _ V y u w , O O Z C.D M #.%.C.R.R.R.R.T.R.R.F.F.I.R.R.R.",
"_.W.R.R.R.R.R.R.R.R.R.R.T.G.}.T.R.R.D.R.T.$.} { u w w 1 ] D.] _ ` R.R.R.R.R.T.G.}.R.R.R.W.R.R.R."
};
