/* XPM */
static char *result[] = {
/* columns rows colors chars-per-pixel */
"48 48 220 2 ",
"   c #030403",
".  c #030B0B",
"X  c #0D0D0D",
"o  c #160A0B",
"O  c #071508",
"+  c #0D110E",
"@  c #121208",
"#  c #080717",
"$  c #140B15",
"%  c #041512",
"&  c #0E1411",
"*  c #0D1A14",
"=  c #131414",
"-  c #181316",
";  c #131B15",
":  c #1B1719",
">  c #161A18",
",  c #1B1B1B",
"<  c #3D0209",
"1  c #2E151D",
"2  c #17360D",
"3  c #122316",
"4  c #172519",
"5  c #17291C",
"6  c #192B1F",
"7  c #2D211F",
"8  c #1D1725",
"9  c #080B35",
"0  c #241B26",
"q  c #38112A",
"w  c #2C0B36",
"e  c #27163C",
"r  c #072B21",
"t  c #182925",
"y  c #1D3524",
"u  c #252424",
"i  c #272727",
"p  c #2C2C2C",
"a  c #312D2D",
"s  c #273827",
"d  c #373828",
"f  c #262939",
"g  c #352D30",
"h  c #2A3534",
"j  c #333233",
"k  c #3B3532",
"l  c #353839",
"z  c #47040F",
"x  c #550516",
"c  c #4B1C1D",
"v  c #6E0119",
"b  c #6A0A1D",
"n  c #541C31",
"m  c #6C0C25",
"M  c #7A0225",
"N  c #661529",
"B  c #492825",
"V  c #512F2E",
"C  c #5D2B2E",
"Z  c #264036",
"A  c #34463A",
"S  c #3A453B",
"D  c #2C5539",
"F  c #37553A",
"G  c #325B3E",
"H  c #4F581F",
"J  c #46513A",
"K  c #180B4C",
"L  c #2B0745",
"P  c #340B48",
"I  c #360E49",
"U  c #3B055C",
"Y  c #34284D",
"T  c #303749",
"R  c #240669",
"E  c #420B55",
"W  c #462E48",
"Q  c #7C314E",
"!  c #783A56",
"~  c #450369",
"^  c #4B1263",
"/  c #4A0473",
"(  c #3E4B42",
")  c #3C5644",
"_  c #336242",
"`  c #396645",
"'  c #376946",
"]  c #3B6D4A",
"[  c #3E734E",
"{  c #3F7951",
"}  c #474747",
"|  c #434D43",
" . c #445549",
".. c #4D514E",
"X. c #455A4B",
"o. c #50574E",
"O. c #524954",
"+. c #4E5655",
"@. c #545554",
"#. c #595957",
"$. c #5B5C5B",
"%. c #624454",
"&. c #45684A",
"*. c #46784A",
"=. c #466851",
"-. c #516151",
";. c #427554",
":. c #427E54",
">. c #537E59",
",. c #6B7546",
"<. c #6D7459",
"1. c #534D64",
"2. c #704F68",
"3. c #636364",
"4. c #686967",
"5. c #6A6A69",
"6. c #7D6C7A",
"7. c #757774",
"8. c #A2011E",
"9. c #860226",
"0. c #960229",
"q. c #8E0430",
"w. c #A70528",
"e. c #B50321",
"r. c #A50535",
"t. c #B20236",
"y. c #C9003A",
"u. c #D3043C",
"i. c #C11E39",
"p. c #E5003D",
"a. c #8E2A4B",
"s. c #863C5D",
"d. c #AE3558",
"f. c #DB0243",
"g. c #E40344",
"h. c #F8094C",
"j. c #F80751",
"k. c #FE125C",
"l. c #F62150",
"z. c #D40868",
"x. c #FC2C66",
"c. c #F3386C",
"v. c #FE3D72",
"b. c #954866",
"n. c #905A72",
"m. c #807A7E",
"M. c #A7706B",
"N. c #C8486D",
"B. c #CE4870",
"V. c #D84873",
"C. c #CA557F",
"Z. c #F9497B",
"A. c #548448",
"S. c #438357",
"D. c #498655",
"F. c #4C8756",
"G. c #458559",
"H. c #47895C",
"J. c #498D5E",
"K. c #558B59",
"L. c #5F9653",
"P. c #53945E",
"I. c #569A5F",
"U. c #5A9C5E",
"Y. c #658F58",
"T. c #629952",
"R. c #619A54",
"E. c #64A35B",
"W. c #6BA758",
"Q. c #6DA958",
"!. c #7AA651",
"~. c #72A955",
"^. c #4B8A61",
"/. c #479162",
"(. c #4C9362",
"). c #529661",
"_. c #549860",
"`. c #5B9863",
"'. c #659571",
"]. c #6AA263",
"[. c #7FAA62",
"{. c #8DAD09",
"}. c #B5A446",
"|. c #928E6E",
" X c #91AF65",
".X c #AFAC6D",
"XX c #A6BA64",
"oX c #DAA37B",
"OX c #AFC540",
"+X c #560485",
"@X c #680C93",
"#X c #662F88",
"$X c #7E4190",
"%X c #786B82",
"&X c #831F9C",
"*X c #F43986",
"=X c #877885",
"-X c #91738D",
";X c #DE4E80",
":X c #E75789",
">X c #F9618D",
",X c #7DA284",
"<X c #8A868B",
"1X c #879487",
"2X c #978B93",
"3X c #AF9480",
"4X c #9DB990",
"5X c #9992A3",
"6X c #B796B1",
"7X c #B8AFB4",
"8X c #D4E396",
"9X c #D0D8B9",
"0X c #D7EDA6",
"qX c #CEADC9",
"wX c #DCB8D6",
"eX c #E0B7DA",
"rX c #CFCDD1",
"tX c #E8F3DA",
"yX c #FBD0F5",
"uX c #F7F9ED",
/* pixels */
"(.(.(.(.(.(.(.(.(.(.(.(.).(.(.(.(.(.(.(.(.(.(.(.(.(.(.(.(.(.(.(.(.(.(.(.(.(.(.(.(.(.(.(.(.(.(.(.",
"(.(.(.(.(.(.(.(.(.(.(.(.(.(.(.(.(.(.(./.J.(.(.(.(.(.(.(.(.(.(.(.(.(.(.(.(.(.(.(.(.(.(.(.(./.J.(.",
"(.(.(.(.(.(.(.(.(.(.(.(.(.(.(.(.(.(./.S.S.J.(.(.(.(.(.(.(.(.(.(.(.(.(.(.(.(.(.(.(.).(.(./.S.G.(.",
"(.(.(.(.(.(.(.(.(.(.(.(.(.(.(.(.(.(.(.G.G.(.(.(.(.(.(.(.(.(.(.).(.(.(.(.(.(.(.(.(.(.(.(./.G.G.(.",
"(.(.(.(._.`.E.(.(.(.(.(.(.(.(.(.(.(.(.(.(.(.(.(.(.(.(.(.(.(._.`.E.(.(.(.(.(.(.(.(.(.(.(.(.(.(.(.",
"(.(.(.).Q.U.E.(.(.(.(.(.(.(.(.(.(.(.(.(.(.(.(.(.(.(.(.(.(.(.Q.U.E./.(.(.).(.(.(.(.(.(.(.(.(.(.(.",
"(.(.(.).Q.I.U.(.(.(.(.(.(.(.(.(.(.(.(.(.(.(.(.(./.(.(.(.(.(.Q.I.U.(.(.(.(.(.(.(.(.(.(.(.(.(.(.(.",
"(.(.(.(.I.(.(.(.(.(.(.(.(.(.(.(.(.(.(.(.(.(.(.H.;.S.(.(.(.(.U.(.(.(.(.(.(.(.(.(.(.(.(.(.(.(.(.(.",
"(.(.(.(.(.(.(.(.(.(.(.(.(.(.(.(.(.(.(.(.(.`.R.;.) ;./.(.(.(.(.(.(.(.(.(.(.(.(.(.(.(.(.(.(.(.(._.",
"(.(.(.(.(.(.(.(.(.(.(.(.(.(.(.(.(.(.(.(.(.R.*.F ..=.:.(.(.(.(.(.(.(.(.(.(.(.(.(.(.(.(.(.(.(.(.E.",
"(.(.(.(.(.(.(.(.(.(.(.(.(.(.(.(.(.(.(.G.] _ F A o.} D J.(./.(.(.(.(.(.(.(.(.(.(.(.(.(.(.(.(.(.(.",
"(.(./.H.(.(.(.(.(.(.(.(.(.(.(.(.(.G.G.=.F 3 S $.6.#.5 _ ;.' G.^.(.(.(.(.(.(.(.(.(.(.(.(.(.(.(.(.",
"(.(.H.S.S./.(.(.(.(.(.(.(.(.(.(.J.] s +.$.+ @.-X6X=X  = > 3 G J.(.(.(.(.(.(.(.(.(.(.(.(.(.(.(.(.",
"/.(./.G./.(.(.(.(.(.(.(.(.(.(.J.&. .#.@...$.6XwXwX-X  $ - X 5 _ J./.(.J.(.(.(.(.(.(.(.(.(.(.(.(.",
" X(.(.(.(.(.(.(.(.(.(.(.(.(.H.] X.$.7...k =XwXyXqX-X  $ : + + 5 ' H.(.(.(.(.(.(.(.(.(.(.(.(.(.(.",
" X/.(.(.(.(.(.(.(.(.(.(.(.J.[ F #.5.5.T 0 m.qXeX6X2.  $ - X - X 3 ] /.(.(.(.(.(.(.(.(.(.(.(.(.(.",
"E.(.(.(.(.(.(.(.(.(.(././.&. .#.5.4.#.j i @.6.-X2.W ; , = X = = + 6 _ (.(.(.(.(.(.(.(.(.(.(.(.(.",
"~.(.E.U.(.(.(.).(.(.(./.:. .#.4.5.#.j p i     X   3 j u = X = > = X y :.J.(.(.(.(.(.W.).(.(.(.(.",
"T.T.~.P.(.(.(.(.(.(.(.H.G X.3.4.@.j = X i p j j p p p i , X = = = = 5 D J.(./.(.(.(.W._._.(.(.(.",
"D.L.F.^.(.(.(.(.(.(.(.S.A #.3.@.0 X X , l a g k j a p p u = = = = = + 5 :.(.(.(.(.(.W.U.Q.(.(.(.",
"J.G.^.(.(.(.(.(.(.(.(.:.Z $.3.t  .7.<X7.} u 4 a p p p p u : = = = > @ + { (.(.(.(.(._.`.Q.(.(.(.",
"}.(.(.(.(.(.(.(.(.(.(.G.y O.$.2 4XtXuXrXo., = l p p p p i > X & = = X ; :.(.(.(.(.(.(.(.P.(.(.(.",
"_.(.(.(.(.(.(.(.(.(.^.>.o.1.5.{.0XuXrX5Xp i i a p p p j i > = X = = + ; { P.(.(.(.(.(.(.(.(.(.(.",
"(.(.(.(.(.(.(.(.(.(.'.1X2X%X<.OX8X9X<XY   j l p p p p g i : = = & = X * S.E.E.(.(.(.(.(.(.(.(.(.",
"(.(.(.(.(.(.(.(.).(.,X7XqX5XJ ,.<.$.j u j p p p p p p p t = = = = > + + :.E.E.(.(.(.(.(.(.(.).(.",
"(.(.(.(.(.(.(.).(.(.'.1X2X7.@.j #     u j p i p p p p p , - - = = = & y S.P.(.(.(.(.(.(.(.(.(.(.",
"(.(.(.(.(.(.(.(.(.(.J.' ; ..3.f # u j j p p p p p p p i > X = = = & 5 _ H.(.(.(.(.(.(.(.(.(.(.(.",
"(.(.(.(.(.(.(.(.(.(.(.S.A +.3.} j i j p p p p p p p p i > X = > = & s H.J.(.(.(.(.(.(.(.(./.J.(.",
"(.(.(.(.(.(.(.(.(.J.(.J.` -.3.#.( - u p p p p p p a i > - = = = + y ' (./.(.(.).(.(.(.(.J.S.S.J.",
"(.(.(.(.(.(.).(.(.(.(.(.G.=.o.3.} u p a a a p p p i , - = = = + t [ (.(.(.(.(.(.(.(.(.(.(.S.D.(.",
"(.(.(.(.).I.E.(.(.(.(.(./.]  .$.$.O.( j a j a a p u : - - ; = y A.H.(./.(.(.(.(.(.(.(.(.(.J.(.(.",
"(.(.(.).W.U.]./.(.(.(.(.(.H.;.X.o.o.T 0 . r t t , = % O O + s *.W./.(.(.(.(.(.(.(.(.(.(.(.(.(.(.",
"(.(.(.(.Q.I.U.(.(.(.(.(.(.(./.' ) | S g B g 7 ;   . X o @ 4 A.I.U.J.(.(.(.(.(.(.(.(.(.(.(.(.(.(.",
"(.(.(.(.U.(.(.(.(.(.(.(.(.(.(.J.J.J.P.|.M.a.v z o o z x c F L.J.(.(.(.(.(.(.(.(.(.(.(.(.(.(.(.(.",
"(.(.(.(.(.(.(.(.(.(.(.(.(.(.(.(.(.(.].XXoXV.z.i.e.8.0.M m C ` G.(.(.(.(.(.(.(.(.(.(.(.(.(.(.).).",
"(.(.(.(.(.(.(.(.(.(.(.(.(.(.(.(.(.P.!..XoX:X*XZ.l.f.f.t.r.M B ] (.(.J.(.(.(.(.(.(.(.(.(.(.(.(.E.",
"(.(.(.(.(.(.(.(.(.(.(.(.(.(.(.(./.^.H $.$Xs.C.>XZ.x.j.g.u.r.b ) J.(.(.(.(.(.(.(.(.(.(.(.(.(.(.(.",
"(.(.(.G./.(.(.(.(.(.(.(.(.(.(.(./.;.K +X@XR s.C.N.V.c.j.h.f.0.C ` J.(.(.(.(.(.(.(.(.(.(.(.(.(.(.",
"(.(.H.G.S.(.(.(.(.(.(.(.(.(.(.(.(.^.$.#X&XR L V %.b.B.x.k.j.y.9.c &.(.(.(.(.(.(.(.(.(.(.(.(.(.(.",
"(.(.(.G.J.(.(.(.(.(.(.(.(.(.(.(./.`..X3Xn.^ T J h t a.:Xv.j.g.t.m B &.(.(.(.(.(.(.(.(.(.(.(.(.(.",
"[./.(.(.(.(.(.(.(.(.(.(.(.(.(.(.(.`..XoXn.I f ( r   q ;XZ.x.h.u.0.c _ (.(.(.(.(.(.(.(.(.(.(.(.(.",
" X(.(.(.(.(.(.(.(.(.(.(.(.(.(.(.(.). X|.2.: > g 7 . q b.V.Z.h.p.r.c _ (.(.(.(.(.(.(.(.(.(.(.(.(.",
"E._.(.(.(.(./.(.(.(.(.(.(.(.(.(.(.H.1.#X@XL   @ 1 9 w ! V.v.l.p.r.V ` (.J.(.(.(.(.(.(.(.(.(.(.(.",
"Q.(.].U.(.(.(.(.(.(.(.(.(.(.(.(.E.S.K / +X~ U L E K e Q V.v.p.y.q.N J J.J.(.(.(.(.(.E.I.(.(.(.(.",
"R.R.~.I.(.(.(.(.(.(.(.(.(.(.(.(.W.>.d W ^ / ~ ~ ~ K P s.V.c.u.w.M b V S./.(.(.(.(.(.E.I.I.(.(.(.",
"D.R.D./.(.(.(.(.(.(.(.(.(.).(.(.Y.o.S i 8 L U U P 9 w Q d.d.w.0.M z s S./.(.(.(.(.(.Q.U.Q.(.(.(.",
"(.S.J.).(.(.(.(.(.(.(.(.(.(.(.(.K.&.d 4 O $ e T T Z a n n N b v x d _ J.(.(.(.(.(.(.I.I.Q.(.(.(.",
"}.).(.(.(.(.(.(.(.(.(.(.(.].XX(.H._ , , u O 3 D ] [ F .     z < O ' (.(.(.(.(.].XX/.(.(._.(.(.(."
};
