/* XPM */
static char *result[] = {
/* columns rows colors chars-per-pixel */
"48 48 214 2 ",
"   c #040404",
".  c #040C0A",
"X  c #0D0D0D",
"o  c #190B0C",
"O  c #0E130F",
"+  c #08160D",
"@  c #13160F",
"#  c #0C021F",
"$  c #130F12",
"%  c #15011D",
"&  c #091A14",
"*  c #131413",
"=  c #161916",
"-  c #19161B",
";  c #1C1C1B",
":  c #3A0309",
">  c #2E1918",
",  c #092A10",
"<  c #152319",
"1  c #1C221D",
"2  c #172A1D",
"3  c #192A1D",
"4  c #2A3A10",
"5  c #160C21",
"6  c #08102B",
"7  c #05043B",
"8  c #1C0238",
"9  c #141334",
"0  c #2B0B31",
"q  c #0C2420",
"w  c #1D2824",
"e  c #1C3725",
"r  c #1A2733",
"t  c #242423",
"y  c #282624",
"u  c #262A24",
"i  c #2C2C2C",
"p  c #243828",
"a  c #35382C",
"s  c #2D2A35",
"d  c #2A3436",
"f  c #323232",
"g  c #363535",
"h  c #393B3A",
"j  c #4F1012",
"k  c #6C0A1E",
"l  c #551322",
"z  c #770524",
"x  c #63162D",
"c  c #4D2C29",
"v  c #4B372B",
"b  c #642426",
"n  c #752C35",
"m  c #27492C",
"M  c #2A4F34",
"N  c #354D3C",
"B  c #394B39",
"V  c #2F5A3C",
"C  c #37553C",
"Z  c #325D3E",
"A  c #43453D",
"S  c #654C35",
"D  c #436A3C",
"F  c #607629",
"G  c #280147",
"H  c #381452",
"J  c #1F305B",
"K  c #36284C",
"L  c #30314A",
"P  c #3C0466",
"I  c #3D027C",
"U  c #500C47",
"Y  c #452945",
"T  c #513255",
"R  c #7A324E",
"E  c #6F2D55",
"W  c #7D355A",
"Q  c #47066E",
"!  c #490676",
"~  c #4E0F73",
"^  c #681B7D",
"/  c #4F3D60",
"(  c #632172",
")  c #3D4943",
"_  c #3D5444",
"`  c #355943",
"'  c #346443",
"]  c #396141",
"[  c #3C6748",
"{  c #3A6E4A",
"}  c #3C714B",
"|  c #3E7750",
" . c #444544",
".. c #444A45",
"X. c #48484B",
"o. c #4C4C4C",
"O. c #515647",
"+. c #4D5851",
"@. c #515452",
"#. c #575857",
"$. c #5B5C5B",
"%. c #72514E",
"&. c #44654E",
"*. c #49664A",
"=. c #5A634D",
"-. c #497647",
";. c #576853",
":. c #5E605E",
">. c #4E7651",
",. c #457C57",
"<. c #6C634C",
"1. c #625C63",
"2. c #78596F",
"3. c #636463",
"4. c #696967",
"5. c #6A6B6A",
"6. c #73736F",
"7. c #746872",
"8. c #A4001E",
"9. c #880526",
"0. c #97022D",
"q. c #9F1532",
"w. c #B80724",
"e. c #A60530",
"r. c #B40235",
"t. c #C70338",
"y. c #D4023A",
"u. c #8A3652",
"i. c #8C356C",
"p. c #DD0344",
"a. c #F5064B",
"s. c #E5124C",
"d. c #FA0B50",
"f. c #FB1B5A",
"g. c #D62656",
"h. c #D20B62",
"j. c #F63769",
"k. c #FC366A",
"l. c #F53D6E",
"z. c #8D445B",
"x. c #9F735E",
"c. c #AC4663",
"v. c #876E7E",
"b. c #D5436D",
"n. c #DC527D",
"m. c #ED426D",
"M. c #E74776",
"N. c #52844A",
"B. c #448357",
"V. c #498655",
"C. c #4E8A54",
"Z. c #45855A",
"A. c #4A855C",
"S. c #498D5E",
"D. c #5E9450",
"F. c #53955E",
"G. c #569A5F",
"H. c #5A9C5E",
"J. c #658A4A",
"K. c #629952",
"L. c #669A55",
"P. c #64A25B",
"I. c #6BA758",
"U. c #6DA958",
"Y. c #72A955",
"T. c #4B8260",
"R. c #4A8F60",
"E. c #479162",
"W. c #4C9362",
"Q. c #529661",
"!. c #539860",
"~. c #5C9A65",
"^. c #728F6D",
"/. c #69A062",
"(. c #7FAA62",
"). c #86A00D",
"_. c #9BB131",
"`. c #9CB15C",
"'. c #B5A446",
"]. c #A49676",
"[. c #8EAF6B",
"{. c #99A66A",
"}. c #AABD6A",
"|. c #CAAD77",
" X c #570983",
".X c #5F1580",
"XX c #66108D",
"oX c #7B1698",
"OX c #76258C",
"+X c #7D6E85",
"@X c #EB3980",
"#X c #8D498A",
"$X c #836E80",
"%X c #887585",
"&X c #997894",
"*X c #D05184",
"=X c #E25D83",
"-X c #F95C89",
";X c #7D8D80",
":X c #8A868A",
">X c #8F8E90",
",X c #A791A5",
"<X c #ACA8AF",
"1X c #B0ACAF",
"2X c #E2AF82",
"3X c #CADA8E",
"4X c #C99FC2",
"5X c #CBABC6",
"6X c #D5AFCF",
"7X c #C4BAC4",
"8X c #D7D8C1",
"9X c #F2C7EB",
"0X c #E6E4E6",
"qX c #F6F7E2",
/* pixels */
"W.W.W.W.W.W.W.W.W.W.W.W.W.W.W.W.W.W.W.W.W.W.W.W.W.W.W.W.W.W.W.W.W.W.W.W.W.W.W.W.W.W.W.W.W.W.W.W.",
"W.W.W.W.W.W.W.W.W.W.W.W.W.W.W.W.W.W.W.E.S.W.W.W.W.Q.W.W.W.W.W.W.W.W.W.W.W.W.W.W.W.W.W.W.W.S.W.W.",
"W.W.W.W.W.W.W.W.W.W.W.W.W.W.W.W.W.W.E.B.B.E.W.W.W.W.W.W.W.W.W.W.W.W.W.W.W.W.W.W.W.W.W.!.E.B.Z.E.",
"W.W.W.W.W.W.W.W.W.W.W.W.W.W.W.W.W.W.E.V.B.W.W.W.W.W.W.W.W.W.W.Q.W.W.W.W.W.W.W.W.W.W.W.W.E.Z.Z.W.",
"W.W.W.W.!.~.P.W.W.W.W.W.W.W.W.W.W.W.W.W.E.W.W.W.W.W.W.W.W.W.Q.H./.E.W.W.W.W.W.W.W.W.W.W.W.W.W.W.",
"W.W.W.Q.U.H.P.W.W.W.W.W.W.W.W.W.W.W.W.W.W.W.E.W.W.W.W.W.W.W.U.H.I.W.W.W.W.W.W.W.W.W.W.W.W.W.W.W.",
"W.W.W.Q.U.G.H.W.W.W.W.W.W.W.W.W.W.W.W.W.R.W.S.Z.W.W.W.W.W.W.U.G.H.W.W.W.W.W.W.W.W.W.W.W.W.W.W.W.",
"W.W.W.W.G.W.W.W.W.W.W.!.W.W.W.W.W.W.W.W.W.R.,.*.| S.W.W.W.W.H.W.W.W.W.W.W.W.W.W.W.W.W.W.W.W.W.W.",
"W.W.W.W.W.W.W.W.W.W.W.W.W.W.W.W.W.W.E.W.R.V.O. .C | E.E.R.R.W.W.W.W.W.W.W.W.W.W.W.W.W.W.W.W.E.!.",
"W.W.W.W.W.W.W.W.W.W.W.W.W.W.W.R.W.W.R.E.S.D C B N [ ,.B.R.W.W.W.W.W.W.W.W.W.W.W.W.W.W.W.W.W.W.P.",
"W.W.W.W.W.W.W.W.W.W.W.W.W.W.R.W.W.S.} { C p 1.7...e m &.&.| W.W.W.E.W.W.W.W.W.W.W.W.W.W.W.W.!.W.",
"W.W.W.Z.W.W.W.W.W.W.W.W.W.W.W.W.S.} e w = $ &X,X%Xo.e +...N B.R.W.W.E.W.W.W.W.W.W.W.W.W.W.W.W.W.",
"W.W.V.B.B.E.W.W.W.W.W.W.W.W.W.R.' 3 = ; $ $ &X6X5X:XA @.:.;.) } W.W.W.E.W.W.W.W.W.W.W.W.W.W.W.W.",
"E.W.E.B.E.W.W.W.W.W.W.W.W.W.S.' e O X - $ $ &X6X9X5X6.X.#.5.@.[ } W.W.W.W.W.W.W.W.W.W.W.W.W.W.W.",
"[.E.!.E.W.W.W.W.W.W.W.W.W.E.{ 2 * * X - $ X v.4X9X6X:Xf ) 6.4.@.` Z.W.W.W.W.W.W.W.W.W.W.W.W.W.W.",
"[.E.E.!.W.W.W.W.W.W.W.W.E.' 2 @ * = X $ = 1 T 2.$X7.o.i L $.4.3.:._ | W.W.W.W.W.W.W.W.W.W.W.W.W.",
"P.W.Q.W.W.Q.W.W.W.W.W.R.B.p X = = * X * t i u & X X ; i h o.$.5.3.+.[ Z.W.W.W.W.W.W.W.W.W.W.W.W.",
"Y.W.P.G.W.W.W.W.W.R.W.Z.V < * = = * X t i i i w < ; i i f g o.3.5.3.+.' E.W.E.W.W.W.P.!.W.W.W.W.",
"K.D.Y.F.W.W.W.W.W.W.E.} 2 O * * * * * t y i i i i f i X   . X g $.3.@.` Z.W.W.W.W.W.U.!.!.W.W.W.",
"V.K.C.S.W.W.W.W.W.W.E.} @ X * * $ * * t i i i f i t i o.%X>X^.X.0 1.#...T.E.W.W.W.W.U.H.U.W.W.W.",
"W.Z.S.E.W.W.W.W.W.W.R.} + O * * O * ; i i i i i f * i 4.8X0X7X^.4 1.#.B Z.W.W.W.W.W.~.G.I.W.W.W.",
"'.W.W.W.W.W.W.W.W.W.E.} = X = * $ * ; y i i i i i i t - <X0XqX3X).4.K = } E.W.W.W.W.W.W.F.W.W.W.",
"G.W.W.W.W.W.W.W.W.W.E.-.O O * * O * ; y f i i i i f t X 7.1X8X3X_.4.+X:X>X/.W.W.W.W.W.W.W.W.W.W.",
"W.W.W.W.W.W.W.W.R.E.F.-.@ X = * $ * ; y i i i i i i s t . - ^.{.L.;.,X8X1X;X/.W.W.W.W.W.W.W.W.W.",
"W.W.W.W.W.W.W.W.W.W.F.N.3 O * * * * X t i i i i i i i s t y a a A #.v.>X;X/./.W.W.W.W.W.W.W.W.W.",
"W.W.W.W.W.W.W.W.W.W.W.V.M < * * * * X t i i i i i i i f f i $ . s $.:.*.>.Q.W.W.W.W.W.W.W.W.W.W.",
"W.W.W.W.W.W.W.W.W.E.W.S.} e O = = O X ; i i i i i i i i i f a a ..3.o.e T.W.W.W.W.W.W.W.W.W.W.W.",
"W.W.W.W.W.W.W.W.W.W.W.W.S.Z 2 * = * X * t y i i i i i i i y - B $.3.&.` R.W.W.W.W.W.W.W.W.W.E.W.",
"W.W.W.W.W.W.W.W.W.W.W.W.W.B.Z w * = * $ * t i i i i i i i i i @.:.+.*.B.W.W.W.W.W.W.W.W.S.B.B.S.",
"W.W.W.W.W.Q.W.W.W.W.W.W.E.W.Z.V 3 * * * O = t i i i i u i h X.$.:...} W.W.W.W.W.W.W.W.W.E.E.Z.E.",
"W.W.W.W.W.G.P.E.W.W.W.W.W.W.R.V.V 2 $ O & = ; t i d r q f o.$.@.O.B.E.W.W.W.W.W.W.W.W.W.W.W.W.W.",
"W.W.W.W.U.P.P.W.W.W.W.W.W.W.E.E.B.C 2 + . . . . & & & 6 r ..;.*.-.E.W.W.W.W.W.W.W.W.W.W.W.W.W.W.",
"W.W.W.!.U.G.H.E.W.W.W.W.W.W.W.W.W.B.B > : : : : j k n %.=.>.-.C.G.W.R.W.W.W.W.W.W.W.W.W.W.W.W.W.",
"W.W.W.W.H.W.W.W.W.W.W.W.W.W.W.W.V.*.b k z z 0.8.8.h.=X2X{.~.H.Q.W.W.W.W.W.W.W.W.W.W.W.W.W.W.W.W.",
"W.W.W.W.W.W.W.W.W.W.W.W.W.W.W.W.-.v z 0.r.t.y.s.l.@X=X|.{.I.Q.W.W.W.W.W.W.W.W.W.W.W.W.W.W.W.W.Q.",
"W.W.W.W.W.W.W.W.W.W.W.W.W.W.W.S.B l e.t.y.d.f.k.-X*Xi.2.<.F R.W.W.W.W.W.W.W.W.W.W.W.W.W.W.W.W./.",
"W.W.W.W.W.W.W.W.W.W.W.W.W.E.S.' c 0.p.a.d.k.M.*X*Xi.I oX( L A.W.W.W.W.W.W.W.W.W.W.W.W.W.W.W.W.W.",
"W.W.W.Z.W.W.W.W.W.W.W.R.W.V.*.c 9.t.a.f.k.b.c.z.W ~ I oXOXL ,.W.W.W.W.W.W.W.W.W.W.W.W.W.W.W.W.W.",
"W.W.E.B.B.W.W.W.W.W.W.W.S.{ v z r.p.d.k.b.R e , 9 P ( #X%X6.C.F.W.W.W.W.W.W.W.W.W.W.W.W.W.W.W.W.",
"E.W.W.B.S.E.W.W.W.W.W.W.S.Z l 9.y.d.k.b.u.0 v O.c U E x.|.}.~.R.W.W.W.W.W.W.Q.W.W.W.W.W.W.W.W.W.",
"(.W.W.W.W.W.W.W.W.W.R.W.S.Z b 8.s.j.b.u.& X A #.Y U ( v.].{.~.W.!.W.W.W.W.W.W.W.W.W.W.W.W.W.W.W.",
"[.W.W.W.W.W.W.W.W.W.W.W.S.] b t.j.M.W 9   o a X.H P ! XX XJ T.W.W.W.W.W.W.W.W.W.W.W.W.W.W.W.W.W.",
"P.W.Q.W.W.W.W.W.W.W.W.W.R.Z l w.m.n.T 7 8 % - H ~ !  XXX.X/ T.W.W.W.W.W.W.W.W.W.W.W.W.W.W.W.W.W.",
"Y.W.P.~.W.W.W.W.W.W.W.S.-.4 k y.l.M.x 7 G 8 8 G ! ! .XOXOX/ ,.W.W.W.W.W.W.W.W.W.W.W.I.!.W.W.W.W.",
"K.K.Y.F.W.W.W.W.W.W.W.V.{ u 9.y.d.g.b 7 G G G G P Q ^ OX^ T ,.W.W.W.W.W.W.W.W.W.W.E.U.G.!.W.W.W.",
"C.K.C.E.W.W.W.W.W.W.W.R.S.Z b r.t.q.S r % % - 5 # 9 H T Y d A.W.W.W.W.W.W.W.W.W.W.W.U.H.I.W.W.W.",
"W.B.S.W.W.W.W.W.W.W.W.W.E.V.=.n n S J.M O @ ; t y p m V ' { S.W.W.W.W.W.W.W.E.E.!.W.G.G./.W.W.W.",
"'.W.W.W.W.W.W.W.W.W.W.W.W./.`.} ] &.F.' 3 1 t f A B &.S.R.R.W.W.W.W.W.W.W.W.W./.}.W.E.!.G.W.W.W."
};
