/* XPM */
static char *result[] = {
/* columns rows colors chars-per-pixel */
"48 48 219 2 ",
"   c #030B09",
".  c #0C0F0D",
"X  c #140D0D",
"o  c #1B0809",
"O  c #0A120E",
"+  c #13110E",
"@  c #0E1311",
"#  c #0A1811",
"$  c #141514",
"%  c #1B1513",
"&  c #131B16",
"*  c #141D1B",
"=  c #1C1C1C",
"-  c #280104",
";  c #240609",
":  c #3A030D",
">  c #3F0711",
",  c #221B1C",
"<  c #35191E",
"1  c #17251B",
"2  c #1B241C",
"3  c #2D221C",
"4  c #1D2221",
"5  c #182821",
"6  c #1D3323",
"7  c #1E3928",
"8  c #143C38",
"9  c #232424",
"0  c #242B26",
"q  c #272A2A",
"w  c #2C2C2C",
"e  c #26332B",
"r  c #2D322E",
"t  c #243A2B",
"y  c #2A3932",
"u  c #333433",
"i  c #363A37",
"p  c #373B38",
"a  c #3B3C3B",
"s  c #420302",
"d  c #520A0E",
"f  c #4C0211",
"g  c #460A12",
"h  c #540213",
"j  c #5C0015",
"k  c #550818",
"l  c #4A1A1B",
"z  c #630017",
"x  c #6D011B",
"c  c #73011E",
"v  c #7B001D",
"b  c #4B1924",
"n  c #5B1D25",
"m  c #7E0021",
"M  c #6B1526",
"N  c #5B292A",
"B  c #4C3E3B",
"V  c #573337",
"C  c #632E3E",
"Z  c #733138",
"A  c #24442F",
"S  c #2C412C",
"D  c #37442F",
"F  c #254932",
"G  c #294D33",
"H  c #364539",
"J  c #3C443E",
"K  c #2A5036",
"L  c #2D543A",
"P  c #33543D",
"I  c #335A3F",
"U  c #4D403B",
"Y  c #53403F",
"T  c #4B523B",
"R  c #674038",
"E  c #2B4240",
"W  c #3F4441",
"Q  c #364A44",
"!  c #3B5444",
"~  c #385C43",
"^  c #336342",
"/  c #386447",
"(  c #396946",
")  c #3A6D49",
"_  c #3C754E",
"`  c #3E784F",
"'  c #3E7750",
"]  c #3E7951",
"[  c #434443",
"{  c #434C46",
"}  c #4B4C4B",
"|  c #5B4541",
" . c #465647",
".. c #4B534E",
"X. c #5C5041",
"o. c #545C4D",
"O. c #4F5651",
"+. c #535353",
"@. c #535C56",
"#. c #545F58",
"$. c #5C5C5C",
"%. c #6C484A",
"&. c #6D544D",
"*. c #41664C",
"=. c #426B4E",
"-. c #4C6F4B",
";. c #51644D",
":. c #59604F",
">. c #497946",
",. c #476751",
"<. c #4C6352",
"1. c #436F50",
"2. c #5A605C",
"3. c #407750",
"4. c #427C54",
"5. c #537A58",
"6. c #696257",
"7. c #646564",
"8. c #850025",
"9. c #8B0227",
"0. c #880A24",
"q. c #8B0029",
"w. c #960325",
"e. c #93012A",
"r. c #9B002D",
"t. c #941332",
"y. c #A1002F",
"u. c #BF002D",
"i. c #A30030",
"p. c #AC0033",
"a. c #B40134",
"s. c #B70039",
"d. c #BC0038",
"f. c #AB153D",
"g. c #B41837",
"h. c #C2022F",
"j. c #C2003A",
"k. c #C70439",
"l. c #CB003E",
"z. c #D10436",
"x. c #D4003F",
"c. c #C2123B",
"v. c #E50A3B",
"b. c #BD1543",
"n. c #983553",
"m. c #B33156",
"M. c #D40141",
"N. c #DC0144",
"B. c #C31843",
"V. c #DA1D4F",
"C. c #E40145",
"Z. c #E70545",
"A. c #EB0049",
"S. c #F30547",
"D. c #F3004C",
"F. c #FC014E",
"G. c #F6114F",
"H. c #FD0051",
"J. c #FB0552",
"K. c #F71655",
"L. c #C6244D",
"P. c #C5284E",
"I. c #E8245C",
"U. c #FD2865",
"Y. c #EE3268",
"T. c #F9346B",
"R. c #F33E71",
"E. c #95465C",
"W. c #865E61",
"Q. c #9F5A6C",
"!. c #B24764",
"~. c #A65069",
"^. c #B45C77",
"/. c #B25E78",
"(. c #C24269",
"). c #D94B75",
"_. c #CA5677",
"`. c #D05177",
"'. c #EA4C79",
"]. c #F64376",
"[. c #F3497B",
"{. c #FB4A7C",
"}. c #4E814A",
"|. c #578C4F",
" X c #438256",
".X c #4A8757",
"XX c #458559",
"oX c #47895B",
"OX c #498D5E",
"+X c #538656",
"@X c #4E935F",
"#X c #5E9450",
"$X c #54955E",
"%X c #569A5F",
"&X c #5A9C5E",
"*X c #629952",
"=X c #649958",
"-X c #64A35B",
";X c #6BA758",
":X c #6DA958",
">X c #72A955",
",X c #4B8E60",
"<X c #518D61",
"1X c #479162",
"2X c #4C9362",
"3X c #519661",
"4X c #539860",
"5X c #73A562",
"6X c #8FA456",
"7X c #B5A446",
"8X c #8BB162",
"9X c #8FB262",
"0X c #A7BE61",
"qX c #EB5A87",
"wX c #FB5887",
"eX c #EA638F",
"rX c #F2618F",
"tX c #E96690",
"yX c #FA6695",
/* pixels */
"2X2X2X2X2X2X2X2X2X2X2X2X2X2X2X2X2X2X2X2X2X2X2X2X2X2X2X2X2X2X2X2X2X2X2X2X2X2X2X2X2X2X2X2X2X2X2X2X",
"2X2X2X2X2X2X2X2X2X2X2X2X2X2X2X2X2X2X3X1XOX2X2X2X2X2X2X2X2X2X2X2X2X2X2X2X2X2X2X2X2X2X2X2X1X1X,X2X",
"2X2X2X2X2X2X2X2X2X2X2X2X2X2X2X2X2X2X,X X XOX2X2X2X2X2X2X2X2X2X2X2X2X2X2X2X2X2X2X2X2X2X2X1X XXX2X",
"2X2X2X2X2X2X3X2X2X2X2X2X2X2X2X2X2X1XOXoXoX2X2X2X2X2X2X2X2X2X2X3X3X2X2X2X2X2X2X2X2X2X3X2X2XoXXX2X",
"2X2X2X2X3X&X-X2X2X2X2X2X2X2X2X2X2X2X2X2X2X2X2X2X2X2X2X2X2X2X3X4X-X2X2X2X2X2X2X2X2X2X2X2X2X2X2X2X",
"2X2X2X3X:X&X-X2X2X2X2X2X2X2X2X2X2X2X2X2X2X2X2X2X2X2X2X2X2X3X:X-X-X1X2X2X2X2X2X2X2X2X2X2X2X2X2X2X",
"2X2X2X3X:X4X4X2X2X2X@X2X2X2X2X2X2X2X2X2X2X2X@X2X2X2X2X2X2X2X:X4X4X2X2X2X2X2X2X2X2X2X2X2X2X2X2X2X",
"2X2X3X3X4X2X2X2X2X1X X X2X2X2X1X2X2X2X2X2X2X1X2X2X1X2X2X2X2X4X2X2X2X2X2X4. X,X2X2X2X2X2X2X2X2X2X",
"2X2X2X2X2X2X2X2X2X4./ ! oXOXoXOX2X2X@X1X2X4X=X2X2X@X1X1X@XOX2X2XOXOXOX.X~ ~ 4.2X2X2X2X2X2X2X2X3X",
"2X2X2X2X2X2X2X2XoX~ { ..,.~ L _ oX2X1XOXoX|.|.+X X4.4.oX1X2X2XoX_ L I *...{ ~ oX2X2X2X2X2X2X2X;X",
"2X2X2X2X2X2X2X2X4.e } 2.+.a e Q ) 4. X4.1.=.-.) =.) *.1.4.4.' ( Q y i +.7.+.H XX2X2X2X2X2X2X2X2X",
"2X2X2X1X2X2X2X2X4.1 u } +.+...[ y t G !  .+.#.#.@.@.@...! P A y W } +.+.$.O.W oX2X2X2X2X2X2X2X2X",
"2X2XoX X X1X2X2X` O = w U { } i 9 & 0 u a +.$.$.$.7.7.$.+.{ H u a } [ a { [ H XX2X2X2X2X2X2X2X2X",
"1X2X1XXX,X2X2X2X` 1 + 2 q w w 9 9 0 r r u B } +.+.$.7.7.7.7.$...W u q 9 i i H  X2X2X2X2X2X2X2X2X",
"8X2X2X2X2X2X2X2X XA & $ 4 = = q w w r w w w r u a [ } +.7.7.7.7.$.[ w 9 q q Q oX2X2X2X2X3X2X2X2X",
"8X2X2X2X2X2X1X2XOX^ 1 O = 9 9 w w r w w w q 9 , q r u a [ +.$.7.7.$.[ = = 6 / 2X2X2X2X2X2X2X2X2X",
"-X2X2X2X2X2X@X2XOX` t   X 9 r w w w w w w w w w w w 9 w w u [ +.$.7.@.w % t ' ,X2X2X2X2X2X2X2X2X",
">X1X;X%X2X2X2X2X@XoXG   $ 9 u w w w w w w w r w w w w w w w w u [ $.$.} 4 K ,X2X2X1X;X4X2X2X2X2X",
"*X*X>X$X1X2X2X2X@X2XI & = q r w w w w w w w w w w w w w w w w 9 r [ $.$.p ^ 2X2X2X2X;X4X4X2X2X2X",
".X#X+XOX2X2X1X2X@XOXK $ 9 w r w w w w w w w w w w w w w w w w w q w +.7.} ) oX2X2X1X:X&X:X2X2X2X",
"@XXX1X1X2X2X2X2XOX_ 7 & w w w w w w w w w w w w w w w w w w w w w = } $.$.<.` OX2X2X&X4X;X2X2X2X",
"7X2X2X2X2X2X@X2XOX( 6 $ w r w w w w w w w w w w w w w w w w w w w = [ $.7.<.) OX2X2X2X2X3X2X2X2X",
"%X2X2X2X2X2X1X2XOX) 6 $ w w w w w w w w w w w w w w w w w w w w w , a +.@.<._ OX2XOX2X2X2X2X2X2X",
"2X2X2X2X2X2X2X1XOX) 6 $ w r w w w w w w w w w w w w w w w w w w w 9 u [ @.;.>.OX2X2X2X2X2X2X2X2X",
"2X2X2X2X2X2X2X2XOX` e + w r w w w w w w w w w w w w w w w w w w w q w a } ;.}.OX2X2X2X2X2X2X2X2X",
"2X2X2X2X2X2X2X2X1XoXA O 9 w w w w w w w w w w w w w w w w w w w w w r i U *.oX,X2X2X2X2X2X2X2X2X",
"2X2X2X2X2X2X2X2X1X1X^ 1 $ 9 w w w w w w w w w w w w w w w w w w w w w w t ) ,X1X2X2X2X2X2X2X1X1X",
"2X2X2X2X2X2X2X2X2X2X] G O $ 9 w w w w w w w w w w w w w w w w w w r w 9 K  X2X2X1X2X2X2X2X2X@X2X",
"2X2X2X2X2X2X2X2X2X2X2X' * . * q w w w w w w w w w w w w w w w w w u q 5 ' 2X2X2X2X2X2X2XOX X X,X",
"2X2X2X2X2X2X3X2X2X2X2XXXF * $ 9 9 9 w w w w w w w w w w u w w w w w e F oX2X2X2X2X2X2X2X@X XoX,X",
"2X2X2X2X4X4X-X2X2X2X2X,X' G 5 $ @ $ , 9 w w w w w w q w w q 4 = 2 t P 4.OX2X3X2X2X2X2X2X2X2X2X2X",
"2X2X2X4X:X4X-X2X2X2X2X2X,X' y X X @ . $ * 9 4 4 9 9 4 4 5 * $ X % F ' 2X2X2X2X2X2X2X2X2X2X2X2X2X",
"2X2X2X3X:X%X&X1X2X2X2X2X2X3.D g f > o X @ @ @ @ @ @ @ @ X o > f g H  X@X2X2X2X2X2X2X2X2X2X2X2X2X",
"2X2X2X2X&X2X2X2X2X2X2X,X4.T N c m c z f : ; ; ; ; o ; : f z c v c N *.XX2X2X2X2X2X2X2X2X2X3X2X2X",
"2X2X2X2X2X2X2X2X2X2X2XoXG l x 9.e.e.e.8.x j h j j j j x 8.e.q.e.9.Z B / oX2X2X2X2X2X2X2X2X2X2X3X",
"2X3X2X2X2X2X2X2X2X2X2X3.1 o : x 9.r.r.e.e.e.e.e.e.e.e.q.e.r.e.e.0.V [ ! XX2X2X2X2X2X2X2X2X2X2X-X",
"2X2X2X2X2X2X2X2X2X@X XK +   O h 8.r.q.q.i.l.M.l.M.d.y.i.e.e.r.r.9.l W } ) 4.2X2X2X2X2X3X2X2X2X2X",
"2X2X1XoX2X2X2X2X@X@X^ 1 % # . : m r.e.q.p.A.J.J.D.x.p.s.y.q.p.p.r.: E @.Q / 2X2X2X2X2X2X2X2X2X2X",
"2X2X1X X X2X2X1X1X2X^ & , O o - m p.d.i.y.A.H.H.F.A.M.d.r.8.d.M.a.s G $.H ^ 1X2X2X2X2X2X2X2X2X2X",
"2X2X1X XOX2X2X2X1X2X( 2 X < b k 8.p.C.l.a.N.F.H.J.D.A.s.q.q.j.N.j.s 8 +.J ( 1X2X2X2X2X2X2X2X2X2X",
"5X2X2X2X2X2X2X2X2X2X4.D & C n.f.r.p.D.D.M.N.S.H.F.S.x.w.v 9.s.N.M.M y ! / 4.2X2X2X2X2X2X2X2X2X2X",
"9X3X2X2X2X2X2X2X2X@XOX` S E.).I.k.a.D.H.D.D.F.F.S.z.w.0.0.e.a.C.K.m.%.Q 4.OX2X2X2X2X2X2X2X2X2X2X",
"-X3X2X2X2X2X2X2X2X2X@X5.Z _.wXT.N.u.D.H.H.F.J.G.V.g.t.m.m.L.u.Z.T.qX^.&.5.2X2X2X2X2X2X2X2X2X2X2X",
":X2X;X4X2X2X2X2X2X2X4.X.b.'.wXwXI.z.D.H.J.K.U.R.).(.(.`.'.T.v.K.wXyXtX~.:.4.2X2X2X2X-X4X2X2X2X2X",
"=X*X>X$X2X2X2X2X2X2X) N t.`.tXeX'.Z.S.F.K.T.{.rXeXeXrXrX{.K.G.{.yXeXqXE.| ( 1X1X2X2X:X%X4X2X2X2X",
".X*X.X@X2X3X2X2X2X2X3.T %.W.Q./.!.b.A.S.K.Y.].].].[.[.R.K.C.B.!.^.Q.6.@.O.' 2X1X2X2X:X&X5X2X2X2X",
"2XXXOX@X2X2X2X2X2X2X1XOX<X5.;.o.U M d.h.c.L.P.P.P.c.g.c.c.g.N U @.@.5.<X2X1X2X2X2X2X%X4X:X2X2X2X",
"7X2X2X@X2X2X2X2X2X2X2X2X2X=X6X' P 3 g h l V Y &.R n d k V B 6 L 4.4.,X<X2X2X2X-X0X1X2X2X4X2X2X2X"
};
