/* XPM */
static char *result[] = {
/* columns rows colors chars-per-pixel */
"48 48 212 2 ",
"   c #000100",
".  c #000B05",
"X  c #0B0B0B",
"o  c #070507",
"O  c #150A09",
"+  c #021302",
"@  c #00120E",
"#  c #071B07",
"$  c #14180A",
"%  c #000012",
"&  c #00011C",
"*  c #050D1A",
"=  c #001915",
"-  c #131514",
";  c #1C1D1D",
":  c #1B1717",
">  c #260006",
",  c #350408",
"<  c #3D0712",
"1  c #241A19",
"2  c #2F1415",
"3  c #012416",
"4  c #1C231B",
"5  c #1C2300",
"6  c #322914",
"7  c #050425",
"8  c #180126",
"9  c #15003E",
"0  c #0E1330",
"q  c #210D27",
"w  c #241E21",
"e  c #291A29",
"r  c #26093A",
"t  c #35073C",
"y  c #2D183A",
"u  c #002624",
"i  c #192826",
"p  c #252423",
"a  c #2C262B",
"s  c #2C2C2C",
"d  c #292724",
"f  c #322E2D",
"g  c #322629",
"h  c #2E302F",
"j  c #293425",
"k  c #31312E",
"l  c #2F2F30",
"z  c #322E31",
"x  c #2F3030",
"c  c #323232",
"v  c #3A3434",
"b  c #3B3B3A",
"n  c #353A38",
"m  c #5C041C",
"M  c #4A0414",
"N  c #690808",
"B  c #6D011D",
"V  c #630018",
"C  c #770816",
"Z  c #49062B",
"A  c #58062A",
"S  c #4D1B2B",
"D  c #4D1637",
"F  c #6A0424",
"G  c #760323",
"H  c #6A1526",
"J  c #710038",
"K  c #761026",
"L  c #56253B",
"P  c #42353F",
"I  c #48222B",
"U  c #6A2F36",
"Y  c #006305",
"T  c #39443B",
"R  c #636209",
"E  c #52563D",
"W  c #48463B",
"Q  c #71603B",
"!  c #080B47",
"~  c #1B0547",
"^  c #37025A",
"/  c #351151",
"(  c #373C41",
")  c #181973",
"_  c #351A69",
"`  c #37007A",
"'  c #3E3772",
"]  c #4B1A49",
"[  c #4C0052",
"{  c #5B1655",
"}  c #4B0053",
"|  c #741A4E",
" . c #413E43",
".. c #582559",
"X. c #522541",
"o. c #632D4B",
"O. c #743247",
"+. c #490466",
"@. c #551968",
"#. c #480678",
"$. c #4E1476",
"%. c #511174",
"&. c #691D7B",
"*. c #512A73",
"=. c #682B65",
"-. c #7D357C",
";. c #712D6D",
":. c #3F4C41",
">. c #434444",
",. c #4C4C4C",
"<. c #444746",
"1. c #495649",
"2. c #545454",
"3. c #5C5B5B",
"4. c #585658",
"5. c #594C57",
"6. c #645458",
"7. c #5E655D",
"8. c #6D7053",
"9. c #5D5968",
"0. c #665C66",
"q. c #5F6060",
"w. c #636363",
"e. c #6B6A6A",
"r. c #6E6B69",
"t. c #6D6676",
"y. c #796A75",
"u. c #7F6B73",
"i. c #8A0B0D",
"p. c #860127",
"a. c #9C1327",
"s. c #9D0532",
"d. c #990C2E",
"f. c #B60135",
"g. c #AB0732",
"h. c #962536",
"j. c #B3253A",
"k. c #C4003D",
"l. c #DF0C3E",
"z. c #937A1D",
"x. c #96065D",
"c. c #943A57",
"v. c #AF3E5C",
"b. c #CE0141",
"n. c #D90844",
"m. c #D61647",
"M. c #E7024A",
"N. c #F5004E",
"B. c #D72851",
"V. c #C72E56",
"C. c #D43563",
"Z. c #C33960",
"A. c #F73668",
"S. c #8B7252",
"D. c #AF4767",
"F. c #83737B",
"G. c #F54A77",
"H. c #E44F7A",
"J. c #719C01",
"K. c #938E3B",
"L. c #9EB93B",
"P. c #A1B821",
"I. c #908716",
"U. c #D5B435",
"Y. c #948952",
"T. c #8C9764",
"R. c #929163",
"E. c #949473",
"W. c #A28F77",
"Q. c #A8B46E",
"!. c #B0A062",
"~. c #D4C44F",
"^. c #3A0081",
"/. c #581582",
"(. c #651686",
"). c #741B8B",
"_. c #722489",
"`. c #852F92",
"'. c #857583",
"]. c #866D81",
"[. c #FF5382",
"{. c #91808F",
"}. c #9C8599",
"|. c #8F828D",
" X c #A1879D",
".X c #A2928D",
"XX c #99B292",
"oX c #B1A388",
"OX c #B498AF",
"+X c #AF94AA",
"@X c #A5A2A7",
"#X c #BEA8BB",
"$X c #B7B4BD",
"%X c #C1ACBE",
"&X c #A5C38B",
"*X c #CDD18A",
"=X c #D3EC94",
"-X c #C6D1BB",
";X c #C9D8A4",
":X c #DCECAC",
">X c #D6E1BD",
",X c #CAA7C5",
"<X c #D3ABCD",
"1X c #E4BEDE",
"2X c #CEC9D5",
"3X c #E5C0DF",
"4X c #D8E2CA",
"5X c #E9EFD4",
"6X c #EAC5E5",
"7X c #F3CCEF",
"8X c #FBFFE6",
"9X c None",
/* pixels */
"9X9X9X9X9X9X9X9X9X9X9X9X9X9X9X9X9X9X9X9X9X9X9X9X9X9X9X9X9X9X9X9X9X9X9X9X9X9X9X9X9X9X9X9X9X9X9X9X",
"9X9X9X9X9X9X9X9X9X9X9X9X9X9X9X9X9X9X9X9X9X9X9X9X9X9X9X9X9X9X9X9X9X9X9X9X9X9X9X9X9X9X9X9X9X9X9X9X",
"9X9X9X9X9X9X9X9X9X9X9X9X9X9X9X9X9X9X9X9X9X9X9X9X9X9X9X9X9X9X9X9X9X9X9X9X9X9X9X9X9X9X9X9X9X9X9X9X",
"9X9X9X9X9X9X9X9X9X9X9X9X9X9X9X9X9X9X9X9X9X9X9X9X9X9X9X9X9X9X9X9X9X9X9X9X9X9X9X9X9X9X9X9X9X9X9X9X",
"9X9X9X9X9X9X9X9X9X9X9X9X9X9X9X9X9X9X9X9X9X9X9X9X9X9X9X9X9X9X9X9X9X9X9X9X9X9X9X9X9X9X9X9X9X9X9X9X",
"9X9X9X9X9X9X9X9X9X9X9X9X9X9X9X9X9X9X9X9X9X9X9X9X9X9X9X9X9X9X9X9X9X9X9X9X9X9X9X9X9X9X9X9X9X9X9X9X",
"9X9X9X9X9X9X9X9X9X9X9X9X9X9X9X9X9X9X9X9X9X9X9X9X9X9X9X9X9X9X9X9X9X9X9X9X9X9X9X9X9X9X9X9X9X9X9X9X",
"9X9X9X9X9X9X9X9X9X9X9X9X9X9X9X9X9X9X9X9X9X9X9X9X9X9X9X9X9X9X9X9X9X9X9X9X9X9X9X9X9X9X9X9X9X9X9X9X",
"9X9X9X9X9X9X9X9X9X9X9X9X9X9X9X9X9X9X9X9X9X9X9X9X9X9X9X9X9X9X9X9X9X9X9X9X9X9X9X9X9X9X9X9X9X9X9X9X",
"9X9X9X9X9X9X9X9X9X9Xn c 9X9X9X9X9X9X9X9X9X9X9X9X9X9X9X9X9X9X9X9X9X9X9X9Xs h 9X9X9X9X9X9X9X9X9X9X",
"9X9X9X9X9X9X9X9X9Xa n >.T #   9X9X9X9X9X9X9X9X9X9X9X9X9X9X9X9X9X9X  + n 1.>.n 9X9X9X9X9X9X9X9X9X",
"9X9X9X9X9X9X9X9X9X+ 3.F.].0.g p - 9X9X9Xc c c x s c h a 9X9X9X- a z 3.F.'.r.a 9X9X9X9X9X9X9X9X9X",
"9X9X9X9X9X9X9X9X9X  }.<X<X+X'.3.s     c ,.3.w.w.w.w.w.4.<.d . d 3.|.OX<X1X'.  9X9X9X9X9X9X9X9X9X",
"9X9X9X9X9X9X9X9X9X  '.,X7X1X X5.- p d c >.,.3.7.7.e.e.w.w.4.,.n w.OX6X6X,X].  9X9X9X9X9X9X9X9X9X",
"9X9X9X9X9X9X9X9X9X   .}.7X6X}.P   b n l a s n >.<.4.9.7.e.e.e.,.3.+X3X6X'.5.  9X9X9X9X9X9X9X9X9X",
"9X9X9X9X9X9X9X9X9X9X  0.,X Xa x s c x z z z s s c v b :.2.q.e.w.w.>. X,X'.,.9X9X9X9X9X9X9X9X9X9X",
"9X9X9X9X9X9X9X9X9X9X  f y.5.  h n l s c l l s s s a s z b <.2.q.w.T w.y.4.n 9X9X9X9X9X9X9X9X9X9X",
"9X9X9X9X9X9X9X9X9X9XX     - b c f l x c z l c c x x f s d a n <.4.e.,.  - ; 9X9X9X9X9X9X9X9X9X9X",
"9X9X9X9X9X9X9X9X9X9X9XX p c b f k v f c n c x l h c n n c k v h n 2.w.3.p 9X9X9X9X9X9X9X9X9X9X9X",
"9X9X9X9X9X9X9X9X9X9X9X- c d     % e &     d c c c c p     & q       2.e.W 9X9X9X9X9X9X9X9X9X9X9X",
"9X9X9X9X9X9X9X9X9X9XX - a c >.7.W 3 1.7.,.d d z z p a ,.4.1.3 T 7.n ,.7.2.>.9X9X9X9X9X9X9X9X9X9X",
"9X9X9X9X9X9X9X9X9X9X; w % 0.@X4XXXY &X-X$X,.  ; i   ,.$X-X&XY XX4X@Xt.>.w.2.9X9X9X9X9X9X9X9X9X9X",
"9X9X9X9X9X9X9X9X9X9Xp 4   t.$X8X;XJ.=X5X2X4.  b n   2.2X5X:XJ.;X8X$Xt.6 3.2.9X9X9X9X9X9X9X9X9X9X",
"9X9X9X9X9X9X9X9X9X9X; ;   9.@X5X;XP.=X>X$X<. .y.y.P :.$X4X:XL.=X5X@X9.5 4.,.9X9X9X9X9X9X9X9X9X9X",
"9X9X9X9X9X9X9X9X9X9X- ; x z  .0.E.Q.T.8.<.  '.#X%X'.  >.r.E.Q.T.3.( c P 3.,.9X9X9X9X9X9X9X9X9X9X",
"9X9X9X9X9X9X9X9X9X9X  : c d     1.8.(       0.{.'.0.      b 8.E     d >.<.>.9X9X9X9X9X9X9X9X9X9X",
"9X9X9X9X9X9X9X9X9X9X9XX i z b k * % 7 a b b -   o - b b s % * 7 c b n c h 9X9X9X9X9X9X9X9X9X9X9X",
"9X9X9X9X9X9X9X9X9X9X9Xo - w s k k v c l l l c c v c x c x h k k f c c a ; 9X9X9X9X9X9X9X9X9X9X9X",
"9X9X9X9X9X9X9X9X9X9X9X9XX - p c v v k c l s c v n c s s c c v c c n s ; 9X9X9X9X9X9X9X9X9X9X9X9X",
"9X9X9X9X9X9X9X9X9X9X9X9Xo - 1 g k s k k f c c x s c c c k z c k z v p X 9X9X9X9X9X9X9X9X9X9X9X9X",
"9X9X9X9X9X9X9X9X9X9X9X9X9XX 1 w p p s f f c c c c c k k v v f f f f w 9X9X9X9X9X9X9X9X9X9X9X9X9X",
"9X9X9X9X9X9X9X9X9X9X9X9X9X9X@ @ @ = ; d s s k k k s s s s i u = + = 9X9X9X9X9X9X9X9X9X9X9X9X9X9X",
"9X9X9X9X9X9X9X9X9X9X9X9X9X9X9XM < : @ = ; w p d d p p w 4 1 I S S 9X9X9X9X9X9X9X9X9X9X9X9X9X9X9X",
"9X9X9X9X9X9X9X9X9X9X9X9X9X9XB s.s.M     @ 3 %       3 @ > N j.Z.D.c.9X9X9X9X9X9X9X9X9X9X9X9X9X9X",
"9X9X9X9X9X9X9X9X9X9X9X9X9Xo G b.n.k.f.d.K > R K.Y.8.> H f.m.A.G.H.v.O.9X9X9X9X9X9X9X9X9X9X9X9X9X",
"9X9X9X9X9X9X9X9X9X9X9X9X. . G b.N.N.M.l.a.> I.~.*XR.> a.n.A.[.G.G.v.L . 9X9X9X9X9X9X9X9X9X9X9X9X",
"9X9X9X9X9X9X9X9X9X9X9X9X: = 2 G k.M.f.a.i.% z.U.~.K.  i.i.j.G.G.l.H = i 9X9X9X9X9X9X9X9X9X9X9X9X",
"9X9X9X9X9X9X9X9X9X9X9XX 1 i i , G s.J A Z ~ 6.S.Y.6.9 A ] O.C.B.i.2 = e 9X9X9X9X9X9X9X9X9X9X9X9X",
"9X9X9X9X9X9X9X9X9X9X9XX w z n a : & ! ! ~ _ _ ) ) _ / ! _ (.x.J * 3 w 1 9X9X9X9X9X9X9X9X9X9X9X9X",
"9X9X9X9X9X9X9X9X9X9X9Xo ; s b ,.( q ] ..=.{ r.W..Xu.} =.c.`._.=.D : . 2 9X9X9X9X9X9X9X9X9X9X9X9X",
"9X9X9X9X9X9X9X9X9X9X9Xo - ; h >.b a L o.o.} S.!.Q.F.[ =.;.;.;.=.| M o 9X9X9X9X9X9X9X9X9X9X9X9X9X",
"9X9X9X9X9X9X9X9X9X9X9X9XX - - p d f D X.L t Q Y.W.u.+.=...{ ;.;.| B N 9X9X9X9X9X9X9X9X9X9X9X9X9X",
"9X9X9X9X9X9X9X9X9X9X9X9X9X, < . 7 ~ ^ +.#.$.*.' *.*./.` $.(.`._.{ i.h.c.S 9X9X9X9X9X9X9X9X9X9X9X",
"9X9X9X9X9X9X9X9X9X9X9X9X9XV B < 8 9 ~ ^ +.$.^.^.` /./.(.(.(._.$.] g.B.Z.U 9X9X9X9X9X9X9X9X9X9X9X",
"9X9X9X9X9X9X9X9X9X9X9X9X9XG p.F Z 8 8 r / ^ $.&.$.$.$._.;.@.{ y A f.B.C.9X9X9X9X9X9X9X9X9X9X9X9X",
"9X9X9X9X9X9X9X9X9X9X9X9X9Xm p.p.B , O X q r r r 9 e y ] / ; 6 C p.p.K H 9X9X9X9X9X9X9X9X9X9X9X9X",
"9X9X9X9X9X9X9X9X9X9X9X9X9X9XV G V , O # $ - 9X9X9X+ $ 4 4 j W U C m 9X9X9X9X9X9X9X9X9X9X9X9X9X9X",
"9X9X9X9X9X9X9X9X9X9X9X9X9X9X9X9X9X9X9X9X9X9X9X9X9X; 4 $ s <.w.9X9X9X9X9X9X9X9X9X9X9X9X9X9X9X9X9X"
};
