/* XPM */
static char *result[] = {
/* columns rows colors chars-per-pixel */
"48 48 198 2 ",
"   c #010101",
".  c #000A02",
"X  c #0C0C0C",
"o  c #09030A",
"O  c #100E0D",
"+  c #180007",
"@  c #011200",
"#  c #021D00",
"$  c #05170D",
"%  c #11130F",
"&  c #07021F",
"*  c #140912",
"=  c #001311",
"-  c #0B1917",
";  c #141414",
":  c #191615",
">  c #161916",
",  c #1A141A",
"<  c #1B1B1B",
"1  c #29050D",
"2  c #37010C",
"3  c #3B020E",
"4  c #3F0312",
"5  c #201A1D",
"6  c #002100",
"7  c #122A00",
"8  c #0A211F",
"9  c #1C221C",
"0  c #142417",
"q  c #25291C",
"w  c #3A2811",
"e  c #000021",
"r  c #140026",
"t  c #160E22",
"y  c #1E1B27",
"u  c #00003B",
"i  c #231E21",
"p  c #221D2A",
"a  c #25023D",
"s  c #220032",
"d  c #271E31",
"f  c #032924",
"g  c #1F2525",
"h  c #112A30",
"j  c #222323",
"k  c #252B23",
"l  c #2C2C2C",
"z  c #292A25",
"x  c #3A2C25",
"c  c #342D2E",
"v  c #3E2623",
"b  c #2A352F",
"n  c #323A29",
"m  c #2A2633",
"M  c #322D31",
"N  c #2F3030",
"B  c #2D353B",
"V  c #323232",
"C  c #3B3335",
"Z  c #3A3739",
"A  c #3B3B3B",
"S  c #353931",
"D  c #41000F",
"F  c #450313",
"G  c #490113",
"H  c #4E0917",
"J  c #520017",
"K  c #5D001B",
"L  c #66011D",
"P  c #48250F",
"I  c #6F0021",
"U  c #730022",
"Y  c #7D0026",
"T  c #57253D",
"R  c #3C463E",
"E  c #584C00",
"W  c #40413F",
"Q  c #46523A",
"!  c #000045",
"~  c #000058",
"^  c #2B0045",
"/  c #31014C",
"(  c #2D1340",
")  c #351647",
"_  c #3A0557",
"`  c #330051",
"'  c #3C3741",
"]  c #392853",
"[  c #571E5F",
"{  c #61155F",
"}  c #503F4D",
"|  c #46244E",
" . c #622857",
".. c #6C335C",
"X. c #480D6B",
"o. c #450967",
"O. c #5A0F61",
"+. c #551665",
"@. c #4B0B73",
"#. c #4A037B",
"$. c #530E7B",
"%. c #50037D",
"&. c #4D1576",
"*. c #641E6B",
"=. c #703266",
"-. c #434443",
";. c #4B4B4C",
":. c #484746",
">. c #4D534E",
",. c #47425E",
"<. c #554C57",
"1. c #4F5450",
"2. c #545454",
"3. c #5B5B5B",
"4. c #565856",
"5. c #6C505B",
"6. c #5A624D",
"7. c #6D7454",
"8. c #584E65",
"9. c #625B61",
"0. c #775A72",
"q. c #636363",
"w. c #6B6A6A",
"e. c #666A65",
"r. c #756577",
"t. c #787878",
"y. c #737764",
"u. c #850029",
"i. c #8C002C",
"p. c #800027",
"a. c #93012E",
"s. c #9D0C2C",
"d. c #9B0032",
"f. c #9E1639",
"g. c #A0002A",
"h. c #A40032",
"j. c #AF0038",
"k. c #B60639",
"l. c #97324F",
"z. c #933B6F",
"x. c #C90241",
"c. c #DA0042",
"v. c #E50043",
"b. c #E71F52",
"n. c #FA1751",
"m. c #C22843",
"M. c #D20B67",
"N. c #81536C",
"B. c #834E7C",
"V. c #93577F",
"C. c #986569",
"Z. c #8C7966",
"A. c #DC4D7D",
"S. c #C64D76",
"D. c #F34D71",
"F. c #77805A",
"G. c #87A707",
"H. c #9E9C68",
"J. c #A48D76",
"K. c #B1B06B",
"L. c #B3A070",
"P. c #DBA379",
"I. c #E2AC7B",
"U. c #B6CD40",
"Y. c #D7C56A",
"T. c #530C81",
"R. c #60008C",
"E. c #600093",
"W. c #6E1E92",
"Q. c #7E1E9C",
"!. c #70358B",
"~. c #663884",
"^. c #FB3988",
"/. c #8C7388",
"(. c #887D86",
"). c #987993",
"_. c #8C6B87",
"`. c #EF5B92",
"'. c #9E909C",
"]. c #8C868E",
"[. c #95B08D",
"{. c #A893A4",
"}. c #B899B3",
"|. c #A6A1AD",
" X c #DFF09D",
".X c #D4EBA5",
"XX c #CBB1C7",
"oX c #D0B9CC",
"OX c #D7AAD0",
"+X c #DCB7D6",
"@X c #E5BCDE",
"#X c #C7C4C8",
"$X c #DEE6C4",
"%X c #E4F1D7",
"&X c #FFD2F9",
"*X c #FCFFE6",
"=X c #EFEEEF",
"-X c None",
/* pixels */
"-X-X-X-X-X-X-X-X-X-X-X-X-X-X-X-X-X-X-X-X-X-X-X-X-X-X-X-X-X-X-X-X-X-X-X-X-X-X-X-X-X-X-X-X-X-X-X-X",
"-X-X-X-X-X-X-X-X-X-X-X-X-X-X-X-X-X-X-X-X-X-X-X-X-X-X-X-X-X-X-X-X-X-X-X-X-X-X-X-X-X-X-X-X-X-X-X-X",
"-X-X-X-X-X-X-X-X-X-X-X-X-X-X-X-X-X-X-X-X-X-X-X-X-X-X-X-X-X-X-X-X-X-X-X-X-X-X-X-X-X-X-X-X-X-X-X-X",
"-X-X-X-X-X-X-X-X-X-X-X-X-X-X-X-X-X-X-X-X-X-X-X-X-X-X-X-X-X-X-X-X-X-X-X-X-X-X-X-X-X-X-X-X-X-X-X-X",
"-X-X-X-X-X-X-X-X-X-X-X-X-X-X-X-X-X-X-X-X-X-X-X-X-X-X-X-X-X-X-X-X-X-X-X-X-X-X-X-X-X-X-X-X-X-X-X-X",
"-X-X-X-X-X-X-X-X-X-X-X-X-X-X-X-X-X-X-X-X-X-X-X-X-X-X-X-X-X-X-X-X-X-X-X-X-X-X-X-X-X-X-X-X-X-X-X-X",
"-X-X-X-X-X-X-X-X-X-X-X-X-X-X-X-X-X-X-X-X-X-X-X-X-X-X-X-X-X-X-X-X-X-X-X-X-X-X-X-X-X-X-X-X-X-X-X-X",
"-X-X-X-X-X-X-X-X-X-X-X-X-X-X-X-X-X-X-X-X-X-X-X-X-X-X-X-X-X-X-X-X-X-X-X-X-X-X-X-X-X-X-X-X-X-X-X-X",
"-X-X-X-X-X-X-X-X-X-X-X-X-X-X-X-X-X-X-X-X-X-X-X-Xl -X-X-X-X-X-X-X-X-X-X-X-X-X-X-X-X-X-X-X-X-X-X-X",
"-X-X-X-X-X-X-X-X-X-X-X-X-X-X-X-X-X-X-X-X-X-X-XV ;.;.-X-X-X-X-X-X-X-X-X-X-X-X-X-X-X-X-X-X-X-X-X-X",
"-X-X-X-X-X-X-X-X-X-X-X-X-X-X-X-X-X-X-X-X-X-X< b 1.-.-X-X-X-X-X-X-X-X-X-X-X-X-X-X-X-X-X-X-X-X-X-X",
"-X-X-X-X-X-X-X-X-X-X-X-X-X-X-X-X-X-X-X-Xl X C 2.r.2.  -X-X-X-X-X-X-X-X-X-X-X-X-X-X-X-X-X-X-X-X-X",
"-X-X-X-X-X-X-X-X-X-X-X-X-X-X-X-X-X-X> ;.3.. :./.}._.  * ; X -X-X-X-X-X-X-X-X-X-X-X-X-X-X-X-X-X-X",
"-X-X-X-X-X-X-X-X-X-X-X-X-X-X-X-X-X-.2.3.2.4.{.+XOX).  , i % X -X-X-X-X-X-X-X-X-X-X-X-X-X-X-X-X-X",
"-X-X-X-X-X-X-X-X-X-X-X-X-X-X-X-XA 3.t.1.A (.+X&XOX_.  < i > : % -X-X-X-X-X-X-X-X-X-X-X-X-X-X-X-X",
"-X-X-X-X-X-X-X-X-X-X-X-X-X-X-XA 2.w.w.-.M (.XX@X}.0.  , : ; y ; X -X-X-X-X-X-X-X-X-X-X-X-X-X-X-X",
"-X-X-X-X-X-X-X-X-X-X-X-X-X-X-.4.w.w.3.Z l 9./.).r.} > g : ; < < ; X -X-X-X-X-X-X-X-X-X-X-X-X-X-X",
"-X-X-X-X-X-X-X-X-X-X-X-X-X' 2.w.w.3.A V l         9 Z z < > < < < ; X -X-X-X-X-X-X-X-X-X-X-X-X-X",
"-X-X-X-X-X-X-X-X-X-X-X-X-X;.q.w.3.A < ; l N C C C l V l y ; < < < < ; -X-X-X-X-X-X-X-X-X-X-X-X-X",
"-X-X-X-X-X-X-X-X-X-X-X-Xl 2.e.4.d     > Z V V Z C B N l k : < < < < ;   -X-X-X-X-X-X-X-X-X-X-X-X",
"-X-X-X-X-X-X-X-X-X-X-X-XV 9.q.b R e.(.w.>.k z B N V V V z < < < < < < X -X-X-X-X-X-X-X-X-X-X-X-X",
"-X-X-X-X-X-X-X-X-X-X-X-X7 ;.8.6 [.%X=X#X1.g > A V l N V l y < < < < > o -X-X-X-X-X-X-X-X-X-X-X-X",
"-X-X-X-X-X-X-X-X-X-X-X-X:.8.w.G..X*X=X{.S b z V V N N V l j ; > < < ; X -X-X-X-X-X-X-X-X-X-X-X-X",
"-X-X-X-X-X-X-X-X-X-X-X(.].r.y.U. X$X].]   Z Z l N N V V l < < : < < ; X -X-X-X-X-X-X-X-X-X-X-X-X",
"-X-X-X-X-X-X-X-X-X-X-XXXoX'.Q 7.F.e.A l S N N N N N V V z < < < < < > X -X-X-X-X-X-X-X-X-X-X-X-X",
"-X-X-X-X-X-X-X-X-X-X-X}.'.].1.' &     z C N N N N N V l j < < < < < ; o -X-X-X-X-X-X-X-X-X-X-X-X",
"-X-X-X-X-X-X-X-X-X-X-X-X  >.q.m & l Z V l V N N c V N l j ; < < < < ; -X-X-X-X-X-X-X-X-X-X-X-X-X",
"-X-X-X-X-X-X-X-X-X-X-X-Xz 2.q.-.N c V V N N N N N V V z y ; : < < ; X -X-X-X-X-X-X-X-X-X-X-X-X-X",
"-X-X-X-X-X-X-X-X-X-X-X-X-X1.q.4.R < l M b N N V V N l j < < < < > X -X-X-X-X-X-X-X-X-X-X-X-X-X-X",
"-X-X-X-X-X-X-X-X-X-X-X-X-X:.4.q.;.j l V b b N c V c j : > < < > X -X-X-X-X-X-X-X-X-X-X-X-X-X-X-X",
"-X-X-X-X-X-X-X-X-X-X-X-X-X-XR 3.5.2.:.A A T C V M z j 5 5 < > X -X-X-X-X-X-X-X-X-X-X-X-X-X-X-X-X",
"-X-X-X-X-X-X-X-X-X-X-X-X-X-X-X;.1.2.' j $ f h g k y - - - ; O -X-X-X-X-X-X-X-X-X-X-X-X-X-X-X-X-X",
"-X-X-X-X-X-X-X-X-X-X-X-X-X-X-X-XS R V c P M q - = = ; : O   -X-X-X-X-X-X-X-X-X-X-X-X-X-X-X-X-X-X",
"-X-X-X-X-X-X-X-X-X-X-X-X-X-X-X-X-X-X-XZ.C.l.L + . . 1 G 4 -X-X-X-X-X-X-X-X-X-X-X-X-X-X-X-X-X-X-X",
"-X-X-X-X-X-X-X-X-X-X-X-X-X-X-X-X-X-X-XY.P.`.M.m.k.h.a.i.Y I -X-X-X-X-X-X-X-X-X-X-X-X-X-X-X-X-X-X",
"-X-X-X-X-X-X-X-X-X-X-X-X-X-X-X-X-X-X-XY.I.`.^.D.n.v.x.k.h.u.F -X-X-X-X-X-X-X-X-X-X-X-X-X-X-X-X-X",
"-X-X-X-X-X-X-X-X-X-X-X-X-X-X-X-X-X-XE 5.B.z.S.A.b.v.c.x.j.i.J -X-X-X-X-X-X-X-X-X-X-X-X-X-X-X-X-X",
"-X-X-X-X-X-X-X-X-X-X-X-X-X-X-X-X-Xk u #.R.&.N.l.f.g.s.a.a.i.u.U -X-X-X-X-X-X-X-X-X-X-X-X-X-X-X-X",
"-X-X-X-X-X-X-X-X-X-X-X-X-X-X-X-Xn R ,.!.Q.%.~ & @ # $ @ H u.h.u.J -X-X-X-X-X-X-X-X-X-X-X-X-X-X-X",
"-X-X-X-X-X-X-X-X-X-X-X-X-X-X-XM B 4.H.J.V.*.[  .P w N g ; F u.a.i.G -X-X-X-X-X-X-X-X-X-X-X-X-X-X",
"-X-X-X-X-X-X-X-X-X-X-X-X-X-X-Xp h 6.K.L.N. .{ ..| P q c f $ I a.d.G -X-X-X-X-X-X-X-X-X-X-X-X-X-X",
"-X-X-X-X-X-X-X-X-X-X-X-X-X-X-X* & Q H.J.N.[ +.*.{ ) 0 c g - 4 u.d.G -X-X-X-X-X-X-X-X-X-X-X-X-X-X",
"-X-X-X-X-X-X-X-X-X-X-X-X-X-X-X-X  g } ~.W.@.@.$.T.&.) q # % F p.a.4 -X-X-X-X-X-X-X-X-X-X-X-X-X-X",
"-X-X-X-X-X-X-X-X-X-X-X-X-X-X-X-X-X-X! #.R.$.T.%.#.@.o.( t * 1 Y i.L -X-X-X-X-X-X-X-X-X-X-X-X-X-X",
"-X-X-X-X-X-X-X-X-X-X-X-X-X-X-X-X-X-Xx | +.$.$.@._ o.o.` s + -XU Y U L -X-X-X-X-X-X-X-X-X-X-X-X-X",
"-X-X-X-X-X-X-X-X-X-X-X-X-X-X-X-X-X>.S 9 a X.X._ a ^ ^ a r   -X2 D D 2 -X-X-X-X-X-X-X-X-X-X-X-X-X",
"-X-X-X-X-X-X-X-X-X-X-X-X-X-X-X-X-X:.V q g ( / a r t p p y % o -X-X-X-X-X-X-X-X-X-X-X-X-X-X-X-X-X",
"-X-X-X-X-X-X-X-X-X-X-X-X-X-X-X-X-X-XC Z V @ -X-X-X-Xq q q 5 X -X-X-X-X-X-X-X-X-X-X-X-X-X-X-X-X-X"
};
