/* XPM */
static char *result[] = {
/* columns rows colors chars-per-pixel */
"48 48 200 2 ",
"   c #010101",
".  c #000E00",
"X  c #0C0C0C",
"o  c #160707",
"O  c #001100",
"+  c #131C01",
"@  c #000F14",
"#  c #07021E",
"$  c #011312",
"%  c #071917",
"&  c #141515",
"*  c #161916",
"=  c #1B161A",
"-  c #1B1B1B",
";  c #1B1615",
":  c #130A13",
">  c #2E0005",
",  c #201A1D",
"<  c #2C191E",
"1  c #3B0713",
"2  c #002100",
"3  c #122A00",
"4  c #1C231D",
"5  c #212B1A",
"6  c #000227",
"7  c #040039",
"8  c #1B1423",
"9  c #221E21",
"0  c #221B2B",
"q  c #2C1C22",
"w  c #28083C",
"e  c #2B1939",
"r  c #311134",
"t  c #321326",
"y  c #192525",
"u  c #15342A",
"i  c #052F26",
"p  c #232323",
"a  c #2C2C2C",
"s  c #292A25",
"d  c #352C2E",
"f  c #3A2724",
"g  c #2A352F",
"h  c #292933",
"j  c #312E31",
"k  c #2F3030",
"l  c #323232",
"z  c #3B3335",
"x  c #3C3C3B",
"c  c #373A36",
"v  c #393025",
"b  c #450112",
"n  c #4D0115",
"m  c #4D0419",
"M  c #5E011B",
"N  c #520417",
"B  c #6C011E",
"V  c #72001D",
"C  c #6A0122",
"Z  c #770426",
"A  c #4B2133",
"S  c #4E2E38",
"D  c #6A2A38",
"F  c #3C453E",
"G  c #2D443C",
"H  c #5D5000",
"J  c #41423F",
"K  c #43523C",
"L  c #000045",
"P  c #1D014C",
"I  c #2F064A",
"U  c #32084C",
"Y  c #240056",
"T  c #3D0757",
"R  c #311446",
"E  c #383645",
"W  c #312D4B",
"Q  c #270869",
"!  c #44194E",
"~  c #503F4D",
"^  c #482751",
"/  c #783A55",
"(  c #440964",
")  c #49096B",
"_  c #4B007C",
"`  c #4E0C75",
"'  c #4F1869",
"]  c #3E4D44",
"[  c #424342",
"{  c #4B4B4B",
"}  c #484746",
"|  c #4A524A",
" . c #42445D",
".. c #514C53",
"X. c #594F57",
"o. c #4F5450",
"O. c #545454",
"+. c #5B5B5B",
"@. c #565856",
"#. c #6F525C",
"$. c #684658",
"%. c #6D7454",
"&. c #544B64",
"*. c #625B61",
"=. c #7C5164",
"-. c #775972",
";. c #636363",
":. c #6B6A6A",
">. c #666A65",
",. c #756577",
"<. c #787878",
"1. c #737764",
"2. c #84022A",
"3. c #9A0023",
"4. c #93032E",
"5. c #940532",
"6. c #AC0125",
"7. c #AA0538",
"8. c #AA1131",
"9. c #BA2036",
"0. c #C8023D",
"q. c #D1003D",
"w. c #E4013F",
"e. c #88314F",
"r. c #902846",
"t. c #AC3E5F",
"y. c #BE365A",
"u. c #8A376D",
"i. c #DA0D43",
"p. c #E40047",
"a. c #FA014D",
"s. c #F7044B",
"d. c #FC154D",
"f. c #FF1455",
"g. c #F5224B",
"h. c #D00064",
"j. c #FD2C64",
"k. c #FB3F71",
"l. c #F93669",
"z. c #83405C",
"x. c #964767",
"c. c #8E5F64",
"v. c #834E7C",
"b. c #A34C6B",
"n. c #967268",
"m. c #D74770",
"M. c #D24B74",
"N. c #DD4D7D",
"B. c #DE507A",
"V. c #D04D71",
"C. c #FF4174",
"Z. c #FF4A7C",
"A. c #F5507E",
"S. c #F1456D",
"D. c #77805A",
"F. c #87A705",
"G. c #A48F75",
"H. c #AFA770",
"J. c #C0BE73",
"K. c #DAA279",
"L. c #E1AC7B",
"P. c #B6CD40",
"I. c #D6C569",
"U. c #60008A",
"Y. c #6C1D8E",
"T. c #620095",
"R. c #703A8D",
"E. c #811E9F",
"W. c #FA3787",
"Q. c #935782",
"!. c #8C7388",
"~. c #887D86",
"^. c #987993",
"/. c #8C6B87",
"(. c #CB5A80",
"). c #D45382",
"_. c #F05B92",
"`. c #EF5884",
"'. c #FF638F",
"]. c #9E909C",
"[. c #8C868E",
"{. c #AD9280",
"}. c #95B08D",
"|. c #A893A5",
" X c #B899B3",
".X c #A6A1AD",
"XX c #DFF09D",
"oX c #D4EBA5",
"OX c #CCB2C8",
"+X c #D0B9CC",
"@X c #D7AAD0",
"#X c #DCB7D6",
"$X c #E5BCDE",
"%X c #C7C4C8",
"&X c #DEE6C4",
"*X c #E4F1D7",
"=X c #FFD2F9",
"-X c #FCFFE6",
";X c #EFEEEF",
":X c None",
/* pixels */
":X:X:X:X:X:X:X:X:X:X:X:X:X:X:X:X:X:X:X:X:X:X:X:X:X:X:X:X:X:X:X:X:X:X:X:X:X:X:X:X:X:X:X:X:X:X:X:X",
":X:X:X:X:X:X:X:X:X:X:X:X:X:X:X:X:X:X:X:X:X:X:X:X:X:X:X:X:X:X:X:X:X:X:X:X:X:X:X:X:X:X:X:X:X:X:X:X",
":X:X:X:X:X:X:X:X:X:X:X:X:X:X:X:X:X:X:X:X:X:X:X:X:X:X:X:X:X:X:X:X:X:X:X:X:X:X:X:X:X:X:X:X:X:X:X:X",
":X:X:X:X:X:X:X:X:X:X:X:X:X:X:X:X:X:X:X:X:X:X:X:X:X:X:X:X:X:X:X:X:X:X:X:X:X:X:X:X:X:X:X:X:X:X:X:X",
":X:X:X:X:X:X:X:X:X:X:X:X:X:X:X:X:X:X:X:X:X:X:X:X:X:X:X:X:X:X:X:X:X:X:X:X:X:X:X:X:X:X:X:X:X:X:X:X",
":X:X:X:X:X:X:X:X:X:X:X:X:X:X:X:X:X:X:X:X:X:X:X:X:X:X:X:X:X:X:X:X:X:X:X:X:X:X:X:X:X:X:X:X:X:X:X:X",
":X:X:X:X:X:X:X:X:X:X:X:X:X:X:X:X:X:X:X:X:X:X:X:X:X:X:X:X:X:X:X:X:X:X:X:X:X:X:X:X:X:X:X:X:X:X:X:X",
":X:X:X:X:X:X:X:X:X:X:X:X:X:X:X:X:X:X:X:X:X:X:X:X:X:X:X:X:X:X:X:X:X:X:X:X:X:X:X:X:X:X:X:X:X:X:X:X",
":X:X:X:X:X:X:X:X:X:X:X:X:X:X:X:X:X:X:X:X:X:X:Xa :X:X:X:X:X:X:X:X:X:X:X:X:X:X:X:X:X:X:X:X:X:X:X:X",
":X:X:X:X:X:X:X:X:X:X:X:X:X:X:X:X:X:X:X:X:X:X{ { j :X:X:X:X:X:X:X:X:X:X:X:X:X:X:X:X:X:X:X:X:X:X:X",
":X:X:X:X:X:X:X:X:X:X:X:X:X:X:X:X:X:X:X:X:X:X[ o.g 4 :X:X:X:X:X:X:X:X:X:X:X:X:X:X:X:X:X:X:X:X:X:X",
":X:X:X:X:X:X:X:X:X:X:X:X:X:X:X:X:X:X:X:X:X  X.,.@.c X s :X:X:X:X:X:X:X:X:X:X:X:X:X:X:X:X:X:X:X:X",
":X:X:X:X:X:X:X:X:X:X:X:X:X:X:X:X:X:XX & :   /. X!.} . +.{ * :X:X:X:X:X:X:X:X:X:X:X:X:X:X:X:X:X:X",
":X:X:X:X:X:X:X:X:X:X:X:X:X:X:X:X:XX & 9 =   ^.@X#X|.@.O.+.@.[ :X:X:X:X:X:X:X:X:X:X:X:X:X:X:X:X:X",
":X:X:X:X:X:X:X:X:X:X:X:X:X:X:X:X: & & 9 9   /.@X=X#X<.c o.<.+.x :X:X:X:X:X:X:X:X:X:X:X:X:X:X:X:X",
":X:X:X:X:X:X:X:X:X:X:X:X:X:X:XX * - & = =   -. X$XOX[.a ~ :.:.@.x :X:X:X:X:X:X:X:X:X:X:X:X:X:X:X",
":X:X:X:X:X:X:X:X:X:X:X:X:X:XX & - - & - 9 * ~ ,.^.!.*.a x +.:.:.O.~ :X:X:X:X:X:X:X:X:X:X:X:X:X:X",
":X:X:X:X:X:X:X:X:X:X:X:X:XX & - - - & - s c y         a j E +.:.:.@.c :X:X:X:X:X:X:X:X:X:X:X:X:X",
":X:X:X:X:X:X:X:X:X:X:X:X:X& - - - - & 4 a k k l z z k a & - x +.:.;.{ :X:X:X:X:X:X:X:X:X:X:X:X:X",
":X:X:X:X:X:X:X:X:X:X:X:XX & - - - - - p k k l z c z l c *     0 @.>.O.h :X:X:X:X:X:X:X:X:X:X:X:X",
":X:X:X:X:X:X:X:X:X:X:X:XX & - - = - - a k k l k l s a } :.~.>.] g >.*.c :X:X:X:X:X:X:X:X:X:X:X:X",
":X:X:X:X:X:X:X:X:X:X:X:XX & - - & - 9 a l k a l c * 4 @.%X-X*X}.2 &...3 :X:X:X:X:X:X:X:X:X:X:X:X",
":X:X:X:X:X:X:X:X:X:X:X:XX & - - & * 9 a l k l l l a h c .X;X-XoXF.:.&.} :X:X:X:X:X:X:X:X:X:X:X:X",
":X:X:X:X:X:X:X:X:X:X:X:XX * - - - - p s l l k k k c l   W [.&XXXP.1.,.[.~.:X:X:X:X:X:X:X:X:X:X:X",
":X:X:X:X:X:X:X:X:X:X:X:XX * - - = - , s l l l k j k j z h x >.D.%.K ].+XOX:X:X:X:X:X:X:X:X:X:X:X",
":X:X:X:X:X:X:X:X:X:X:X:XX & - - - - - p a l a k k k k c s     # E o.[.]. X:X:X:X:X:X:X:X:X:X:X:X",
":X:X:X:X:X:X:X:X:X:X:X:X:X& & - - - & y s l l l k k j a l c s 6 h ;.o.  :X:X:X:X:X:X:X:X:X:X:X:X",
":X:X:X:X:X:X:X:X:X:X:X:X:XX & - - - & 9 s l l a k j j k l c l d [ ;.O.s :X:X:X:X:X:X:X:X:X:X:X:X",
":X:X:X:X:X:X:X:X:X:X:X:X:X:XX & - - - - p a l l k k l l d s - [ +.;.o.:X:X:X:X:X:X:X:X:X:X:X:X:X",
":X:X:X:X:X:X:X:X:X:X:X:X:X:X:X: & - - * - p a l l d l d k a p { ;.@.} :X:X:X:X:X:X:X:X:X:X:X:X:X",
":X:X:X:X:X:X:X:X:X:X:X:X:X:X:X:XX * - , , , d d d z z z F } O.*.+.x :X:X:X:X:X:X:X:X:X:X:X:X:X:X",
":X:X:X:X:X:X:X:X:X:X:X:X:X:X:X:X:XX & % % % - p u u i $ 9 E O.o.{ :X:X:X:X:X:X:X:X:X:X:X:X:X:X:X",
":X:X:X:X:X:X:X:X:X:X:X:X:X:X:X:X:X:X  : , * $ $ y s f f l W [ l :X:X:X:X:X:X:X:X:X:X:X:X:X:X:X:X",
":X:X:X:X:X:X:X:X:X:X:X:X:X:X:X:X:X:X:Xb N 1 @ O > B r.n.n.:X:X:X:X:X:X:X:X:X:X:X:X:X:X:X:X:X:X:X",
":X:X:X:X:X:X:X:X:X:X:X:X:X:X:X:X:X:XM C Z 2.3.6.9.h.N.K.I.:X:X:X:X:X:X:X:X:X:X:X:X:X:X:X:X:X:X:X",
":X:X:X:X:X:X:X:X:X:X:X:X:X:X:X:X:Xn Z 5.7.0.w.g.C.W._.L.I.:X:X:X:X:X:X:X:X:X:X:X:X:X:X:X:X:X:X:X",
":X:X:X:X:X:X:X:X:X:X:X:X:X:X:X:X:XM 7.i.p.a.j.`.'.B.u.Q.*.H :X:X:X:X:X:X:X:X:X:X:X:X:X:X:X:X:X:X",
":X:X:X:X:X:X:X:X:X:X:X:X:X:X:X:XM 2.i.p.a.l.S.M.V.z.Q T.U.7 :X:X:X:X:X:X:X:X:X:X:X:X:X:X:X:X:X:X",
":X:X:X:X:X:X:X:X:X:X:X:X:X:X:Xb 2.i.a.f.j.M.b.$.D h Q Y.R.] :X:X:X:X:X:X:X:X:X:X:X:X:X:X:X:X:X:X",
":X:X:X:X:X:X:X:X:X:X:X:X:X:Xn C 7.p.a.C.`.e.k G | E ' Q.{.H.:X:X:X:X:X:X:X:X:X:X:X:X:X:X:X:X:X:X",
":X:X:X:X:X:X:X:X:X:X:X:X:X:Xn 5.q.s.j.A.V.S . u F W ! c.H.J.:X:X:X:X:X:X:X:X:X:X:X:X:X:X:X:X:X:X",
":X:X:X:X:X:X:X:X:X:X:X:X:X:Xn 7.w.d.C.B.b.t   q S y p =.G.H.:X:X:X:X:X:X:X:X:X:X:X:X:X:X:X:X:X:X",
":X:X:X:X:X:X:X:X:X:X:X:X:X:Xn 7.w.d.k.V.$.e 6 t 3 O w Y.R.&.:X:X:X:X:X:X:X:X:X:X:X:X:X:X:X:X:X:X",
":X:X:X:X:X:X:X:X:X:X:X:X:X:XC 5.q.d.C.m./ R P ! I U ( U._ L :X:X:X:X:X:X:X:X:X:X:X:X:X:X:X:X:X:X",
":X:X:X:X:X:X:X:X:X:X:X:X:XM V Z 6.i.C.M.z.R Y ) ( ) ` ' ^ v :X:X:X:X:X:X:X:X:X:X:X:X:X:X:X:X:X:X",
":X:X:X:X:X:X:X:X:X:X:X:X:Xo m 2.3.8.y.t.e.r 7 T ( T U 0 a F ..:X:X:X:X:X:X:X:X:X:X:X:X:X:X:X:X:X",
":X:X:X:X:X:X:X:X:X:X:X:X:X:X> M V Z D D S t 6 w I w 8 3 5 l } :X:X:X:X:X:X:X:X:X:X:X:X:X:X:X:X:X",
":X:X:X:X:X:X:X:X:X:X:X:X:X:X:X  b N       :X:X:X:X. + h p - :X:X:X:X:X:X:X:X:X:X:X:X:X:X:X:X:X:X"
};
