/* XPM */
static char *result[] = {
/* columns rows colors chars-per-pixel */
"48 48 171 2 ",
"   c #020302",
".  c #010E0C",
"X  c #0C0C0C",
"o  c #040E07",
"O  c #1A0000",
"+  c #170C0E",
"@  c #001103",
"#  c #001800",
"$  c #00150D",
"%  c #18110F",
"&  c #001411",
"*  c #001A16",
"=  c #081E1C",
"-  c #031F1E",
";  c #121312",
":  c #181D16",
">  c #151C1B",
",  c #1B1B1B",
"<  c #1D1617",
"1  c #280000",
"2  c #2A0409",
"3  c #350200",
"4  c #36080B",
"5  c #270B10",
"6  c #2D0B11",
"7  c #3C0713",
"8  c #251315",
"9  c #2E1810",
"0  c #201D1D",
"q  c #381B15",
"w  c #002A11",
"e  c #002329",
"r  c #0A2221",
"t  c #1F2020",
"y  c #1B2A29",
"u  c #003427",
"i  c #242323",
"p  c #2C2C2C",
"a  c #272728",
"s  c #312D2E",
"d  c #2B322D",
"f  c #313131",
"g  c #343C3B",
"h  c #3C3C3C",
"j  c #460002",
"k  c #41000F",
"l  c #50000C",
"z  c #440512",
"x  c #4D0515",
"c  c #590011",
"v  c #550118",
"b  c #5B051C",
"n  c #411815",
"m  c #50181C",
"M  c #710000",
"N  c #73000A",
"B  c #63021D",
"V  c #6B011F",
"C  c #71021F",
"Z  c #7A001E",
"A  c #401C20",
"S  c #6E0121",
"D  c #730123",
"F  c #7D0126",
"G  c #7D0028",
"H  c #730C22",
"J  c #6A1326",
"K  c #7E1224",
"L  c #562B3C",
"P  c #4B393A",
"I  c #723A52",
"U  c #00524B",
"Y  c #005A55",
"T  c #444444",
"R  c #4C4748",
"E  c #4C4C4C",
"W  c #484949",
"Q  c #545454",
"!  c #5C5C5C",
"~  c #636363",
"^  c #6A6A6A",
"/  c #8C0000",
"(  c #910000",
")  c #920012",
"_  c #96001C",
"`  c #A70019",
"'  c #810125",
"]  c #8C0026",
"[  c #85012A",
"{  c #8B002B",
"}  c #910026",
"|  c #93022C",
" . c #8F1B2E",
".. c #940230",
"X. c #9C0132",
"o. c #9F173E",
"O. c #B0002F",
"+. c #A40034",
"@. c #AC0036",
"#. c #AD0E35",
"$. c #B10235",
"%. c #B80637",
"&. c #B40139",
"*. c #BB023C",
"=. c #BE083C",
"-. c #A21F37",
";. c #99313C",
":. c #C4003B",
">. c #CA003D",
",. c #DD0038",
"<. c #E2003B",
"1. c #B11B41",
"2. c #993A44",
"3. c #813651",
"4. c #AB2044",
"5. c #B13D5B",
"6. c #CC0341",
"7. c #CC0B41",
"8. c #D70042",
"9. c #DC0145",
"0. c #D70048",
"q. c #C31B45",
"w. c #E50045",
"e. c #EB0043",
"r. c #E5044A",
"t. c #EA024B",
"y. c #E00E42",
"u. c #F60042",
"i. c #FC0045",
"p. c #F2024E",
"a. c #FB004E",
"s. c #F30A4B",
"d. c #F9114B",
"f. c #F20051",
"g. c #FE0253",
"h. c #FF005B",
"j. c #E71D55",
"k. c #FC1D58",
"l. c #D8224E",
"z. c #DA2856",
"x. c #D8385F",
"c. c #EE2157",
"v. c #FE255D",
"b. c #E1325F",
"n. c #FF1E61",
"m. c #D53C62",
"M. c #EE2F61",
"N. c #FF2061",
"B. c #FF2D65",
"V. c #FF3568",
"C. c #FE3D6D",
"Z. c #F63C69",
"A. c #FF3F70",
"S. c #A5405C",
"D. c #AB4364",
"F. c #B74B6D",
"G. c #C84A6E",
"H. c #D5456E",
"J. c #D44F76",
"K. c #CB5278",
"L. c #DD547E",
"P. c #FF4376",
"I. c #FF4D7E",
"U. c #E0507B",
"Y. c #F6507E",
"T. c #E55B86",
"R. c #FB5685",
"E. c #FF5788",
"W. c #FF5A89",
"Q. c #E96691",
"!. c None",
/* pixels */
"!.!.!.!.!.!.!.!.!.!.!.!.!.!.!.!.!.!.!.!.!.!.!.!.!.!.!.!.!.!.!.!.!.!.!.!.!.!.!.!.!.!.!.!.!.!.!.!.",
"!.!.!.!.!.!.!.!.!.!.!.!.!.!.!.!.!.!.!.!.!.!.!.!.!.!.!.!.!.!.!.!.!.!.!.!.!.!.!.!.!.!.!.!.!.!.!.!.",
"!.!.!.!.!.!.!.!.!.!.!.!.!.!.!.!.!.!.!.!.!.!.!.!.!.!.!.!.!.!.!.!.!.!.!.!.!.!.!.!.!.!.!.!.!.!.!.!.",
"!.!.!.!.!.!.!.!.!.!.!.!.!.!.!.!.!.!.!.!.!.!.!.!.!.!.!.!.!.!.!.!.!.!.!.!.!.!.!.!.!.!.!.!.!.!.!.!.",
"!.!.!.!.!.!.!.!.!.!.!.!.!.!.!.!.!.!.!.!.!.!.!.!.!.!.!.!.!.!.!.!.!.!.!.!.!.!.!.!.!.!.!.!.!.!.!.!.",
"!.!.!.!.!.!.!.!.!.!.!.!.!.!.!.!.!.!.!.!.!.!.!.!.!.!.!.!.!.!.!.!.!.!.!.!.!.!.!.!.!.!.!.!.!.!.!.!.",
"!.!.!.!.!.!.!.!.!.!.!.!.!.!.!.!.!.!.!.!.!.!.!.!.!.!.!.!.!.!.!.!.!.!.!.!.!.!.!.!.!.!.!.!.!.!.!.!.",
"!.!.!.!.!.!.!.!.!.!.!.!.!.!.!.!.!.!.!.!.!.!.!.!.!.!.!.!.!.!.!.!.!.!.!.!.!.!.!.!.!.!.!.!.!.!.!.!.",
"!.!.!.!.!.!.!.!.!.!.!.!.!.!.!.!.!.!.!.!.!.!.!.!.!.!.!.!.!.!.!.!.!.!.!.!.!.!.!.!.!.!.!.!.!.!.!.!.",
"!.!.!.!.!.!.!.!.!.!.f g !.!.!.!.!.!.!.!.!.!.!.!.!.!.!.!.!.!.!.!.!.!.!.!.g f !.!.!.!.!.!.!.!.!.!.",
"!.!.!.!.!.!.!.!.!.i T ! Q h i !.!.!.!.!.!.!.!.!.!.!.!.!.!.!.!.!.!.a h Q ! T s !.!.!.!.!.!.!.!.!.",
"!.!.!.!.!.!.!.!.!., E ! ! Q h i ; !.!.!.f f f p s f f p !.!.!.; i h Q ! ^ ! f !.!.!.!.!.!.!.!.!.",
"!.!.!.!.!.!.!.!.!.X a h R Q ! W i     f E ! ~ ^ ~ ~ ~ Q W i , i g ! Q W Q E T !.!.!.!.!.!.!.!.!.",
"!.!.!.!.!.!.!.!.!.  ; i g T T f p i i f T E ! ! ! ^ ^ ^ ! ! E W P W h f T h f !.!.!.!.!.!.!.!.!.",
"!.!.!.!.!.!.!.!.!.  X 0 i 0 X , p f g s p p f T W Q ! ~ ^ ^ ^ ! E p , i f p > !.!.!.!.!.!.!.!.!.",
"!.!.!.!.!.!.!.!.!.!.; , i i i f f s f s f f s p f g h T Q ! ^ ^ ^ Q h i p t !.!.!.!.!.!.!.!.!.!.",
"!.!.!.!.!.!.!.!.!.!.  ; > a f f f f p f f d p p p p a f h W Q ! ~ ^ E a > X !.!.!.!.!.!.!.!.!.!.",
"!.!.!.!.!.!.!.!.!.!.    ; p f f f f f f f f f f f f f p a a g W ! ~ ! P ;   !.!.!.!.!.!.!.!.!.!.",
"!.!.!.!.!.!.!.!.!.!.!.  , p f f f p f f f f f f f f f f f f p p g R ~ ! i !.!.!.!.!.!.!.!.!.!.!.",
"!.!.!.!.!.!.!.!.!.!.!.; i p f f f f f f f f p f p f f f f f f i p g Q ~ h !.!.!.!.!.!.!.!.!.!.!.",
"!.!.!.!.!.!.!.!.!.!.X < a f f f f f f f f f f f f f p f s f f f f p R ! Q W !.!.!.!.!.!.!.!.!.!.",
"!.!.!.!.!.!.!.!.!.!.X > f f f f f f f p f f f f f f f f f f f f p , W ~ ! E !.!.!.!.!.!.!.!.!.!.",
"!.!.!.!.!.!.!.!.!.!.X , f f f f f f f f p f f p f f f f f f f f s i T Q ! E !.!.!.!.!.!.!.!.!.!.",
"!.!.!.!.!.!.!.!.!.!.X , p f f f p f f f f f f f f p f f p f f f p p g W ! R !.!.!.!.!.!.!.!.!.!.",
"!.!.!.!.!.!.!.!.!.!.; t f f f f f f p f f f f f f f f f f f p f s p f T ! E !.!.!.!.!.!.!.!.!.!.",
"!.!.!.!.!.!.!.!.!.!.X ; p f f f f f f f f f f f f f f p f f f f f p f h W T !.!.!.!.!.!.!.!.!.!.",
"!.!.!.!.!.!.!.!.!.!.!.X t p f f p f f f f f f f f f f f f f f f f f g f p !.!.!.!.!.!.!.!.!.!.!.",
"!.!.!.!.!.!.!.!.!.!.!.X ; t p f f f f f p f f f p f f f f f f p s f s p , !.!.!.!.!.!.!.!.!.!.!.",
"!.!.!.!.!.!.!.!.!.!.!.!.  < i s f f f f f f f f s f f f f f f f f f f , !.!.!.!.!.!.!.!.!.!.!.!.",
"!.!.!.!.!.!.!.!.!.!.!.!.  ; t p p f f f f f f s s f f f p f f f f f i ; !.!.!.!.!.!.!.!.!.!.!.!.",
"!.!.!.!.!.!.!.!.!.!.!.!.!.; < t t i a s f f f f f f f f h f p p p p 0 !.!.!.!.!.!.!.!.!.!.!.!.!.",
"!.!.!.!.!.!.!.!.!.!.!.!.!.!.. & & * > y a s s p s s s p a y r w = > !.!.!.!.!.!.!.!.!.!.!.!.!.!.",
"!.!.!.!.!.!.!.!.!.!.!.!.!.!.!.2 5 8 % > , i i i 0 i i 0 > > 8 2 1 !.!.!.!.!.!.!.!.!.!.!.!.!.!.!.",
"!.!.!.!.!.!.!.!.!.!.!.!.!.!.v S S S x 6 & & & & & $ $ $ 6 x B S S v !.!.!.!.!.!.!.!.!.!.!.!.!.!.",
"!.!.!.!.!.!.!.!.!.!.!.!.!.k B [ { [ [ D b z 7 7 7 7 v B D ' { { { B j !.!.!.!.!.!.!.!.!.!.!.!.!.",
"!.!.!.!.!.!.!.!.!.!.!.!.  4 B { ....+...{ F D G F F ' { X.X...X.| J A !.!.!.!.!.!.!.!.!.!.!.!.!.",
"!.!.!.!.!.!.!.!.!.!.!.!.+ o 4 C ..+.| { X.@.&.&.*.&.X.{ { ..X.| K P g g !.!.!.!.!.!.!.!.!.!.!.!.",
"!.!.!.!.!.!.!.!.!.!.!.!.5 $ 9 ' &.*.[ G @.r.t.r.r.>.+.@.+.{ ..Z m T W T !.!.!.!.!.!.!.!.!.!.!.!.",
"!.!.!.!.!.!.!.!.!.!.!.!.6 $ q | *.>.X.[ @.f.g.g.g.9.&.:.@.{ { c * R E P !.!.!.!.!.!.!.!.!.!.!.!.",
"!.!.!.!.!.!.!.!.!.!.!.!.!.@ @ K X.&.9.*...0.a.g.a.a.t.*.X...G x * R E g !.!.!.!.!.!.!.!.!.!.!.!.",
"!.!.!.!.!.!.!.!.!.!.!.!.!.!.| :.@.X.p.r.:.9.s.g.g.g.r.+.{ { ' z # s f a !.!.!.!.!.!.!.!.!.!.!.!.",
"!.!.!.!.!.!.!.!.!.!.!.!.!.:.9.g.>.X.f.g.s.e.a.g.g.r.=.| [ | } H n : $ O !.!.!.!.!.!.!.!.!.!.!.!.",
"!.!.!.!.!.!.!.!.!.!.!.!.} 0.h.g.9.*.e.v.v.a.i.<.,.` M ] -.4.$.=.1.L e !.!.!.!.!.!.!.!.!.!.!.!.!.",
"!.!.!.!.!.!.!.!.!.!.!.!.{ *.f.g.t.8.<.V.I.P.P.Z.m.D.D.F.H.b.y.e.j.H.D.!.!.!.!.!.!.!.!.!.!.!.!.!.",
"!.!.!.!.!.!.!.!.!.!.!.!.!.' @.p.t.9.u.C.R.R.R.Y.U.L.T.Q.R.V.d.i.N.E.J.I !.!.!.!.!.!.!.!.!.!.!.!.",
"!.!.!.!.!.!.!.!.!.!.!.!.!.!.' 9.p.9.<.w.j.b.b.B.v.P.E.W.C.a.p.<.c.W.K.3.!.!.!.!.!.!.!.!.!.!.!.!.",
"!.!.!.!.!.!.!.!.!.!.!.!.!.!.!.>.%.-.2.2.;. .#.7.8.z.x.x.l.>.$.O.q.G.F.!.!.!.!.!.!.!.!.!.!.!.!.!.",
"!.!.!.!.!.!.!.!.!.!.!.!.!.!.!.!.!.u U U U w 3 N } ) / ( _ [   !.!.!.!.!.!.!.!.!.!.!.!.!.!.!.!.!."
};
