/* XPM */
static char *result[] = {
/* columns rows colors chars-per-pixel */
"48 48 184 2 ",
"   c #020202",
".  c #000E02",
"X  c #010C09",
"o  c #0D0C0C",
"O  c #0B0707",
"+  c #1B0609",
"@  c #001400",
"#  c #001C00",
"$  c #00120E",
"%  c #12100C",
"&  c #001512",
"*  c #0F1717",
"=  c #021916",
"-  c #001C19",
";  c #091F1D",
":  c #131212",
">  c #1B1314",
",  c #1B1B1B",
"<  c #171D1D",
"1  c #2C040B",
"2  c #230205",
"3  c #3A030E",
"4  c #220F10",
"5  c #2B0B10",
"6  c #3C0612",
"7  c #340B11",
"8  c #3E0D16",
"9  c #201012",
"0  c #2C1115",
"q  c #231C1C",
"w  c #281B1C",
"e  c #00220C",
"r  c #00201D",
"t  c #0C211F",
"y  c #21201F",
"u  c #002922",
"i  c #042220",
"p  c #162120",
"a  c #182221",
"s  c #003228",
"d  c #003C34",
"f  c #242424",
"g  c #2D2D2D",
"h  c #272C2C",
"j  c #312D2D",
"k  c #293C3B",
"l  c #313030",
"z  c #3B3B3B",
"x  c #400000",
"c  c #490000",
"v  c #430513",
"b  c #450A17",
"n  c #4E0618",
"m  c #530414",
"M  c #5B041B",
"N  c #5F081C",
"B  c #62021B",
"V  c #68011E",
"C  c #760019",
"Z  c #760F1C",
"A  c #4F1C2C",
"S  c #750124",
"D  c #7B0026",
"F  c #7A0128",
"G  c #761D2E",
"H  c #7C1530",
"J  c #4A242F",
"K  c #55262D",
"L  c #4A3A3C",
"P  c #49313B",
"I  c #602436",
"U  c #702B3F",
"Y  c #6F363D",
"T  c #004739",
"R  c #732D44",
"E  c #7E3851",
"W  c #004A45",
"Q  c #2D4442",
"!  c #374746",
"~  c #444444",
"^  c #4B4B4B",
"/  c #534C4D",
"(  c #535353",
")  c #5C5C5C",
"_  c #646464",
"`  c #6B6B6B",
"'  c #8F001E",
"]  c #97001F",
"[  c #99001E",
"{  c #800027",
"}  c #83012A",
"|  c #8C022B",
" . c #93002D",
".. c #980A2B",
"X. c #871128",
"o. c #950230",
"O. c #9C0132",
"+. c #900F30",
"@. c #981736",
"#. c #A40021",
"$. c #B6002B",
"%. c #A40134",
"&. c #AB0036",
"*. c #AF0038",
"=. c #AF0B39",
"-. c #BA0033",
";. c #B30039",
":. c #BA013A",
">. c #B20832",
",. c #A5163D",
"<. c #B61535",
"1. c #9A2838",
"2. c #8E323B",
"3. c #A4283E",
"4. c #C3002D",
"5. c #C3003E",
"6. c #C8003F",
"7. c #D90038",
"8. c #D40D31",
"9. c #EA003E",
"0. c #972949",
"q. c #85334C",
"w. c #843951",
"e. c #A72F4F",
"r. c #A42F50",
"t. c #C40840",
"y. c #D40043",
"u. c #DB0144",
"i. c #DF0649",
"p. c #E80046",
"a. c #E00F46",
"s. c #E50049",
"d. c #EC044C",
"f. c #E60B4D",
"g. c #E60645",
"h. c #FE0040",
"j. c #F4014E",
"k. c #FC014D",
"l. c #FD0D4E",
"z. c #E01148",
"x. c #E91246",
"c. c #F8164C",
"v. c #FE0253",
"b. c #FF0954",
"n. c #E31B50",
"m. c #F61855",
"M. c #FF1859",
"N. c #D52252",
"B. c #C7365C",
"V. c #E32256",
"C. c #E52A5B",
"Z. c #EA275B",
"A. c #F7255D",
"S. c #FF2F69",
"D. c #FF2863",
"F. c #E83B67",
"G. c #FF386F",
"H. c #FF3565",
"J. c #FD3D70",
"K. c #A64564",
"L. c #B7486A",
"P. c #BC4E71",
"I. c #C4496D",
"U. c #DA4F78",
"Y. c #DA4C75",
"T. c #FE426F",
"R. c #E84F79",
"E. c #E84B76",
"W. c #FF4977",
"Q. c #F84F7E",
"!. c #F74675",
"~. c #EB537F",
"^. c #DB5D86",
"/. c #E45D88",
"(. c #FD5D8C",
"). c #F95785",
"_. c #FF5F90",
"`. c #D9628A",
"'. c #E5648E",
"]. c #EA628E",
"[. c #FE6594",
"{. c #F16C99",
"}. c #FF6B9A",
"|. c None",
/* pixels */
"|.|.|.|.|.|.|.|.|.|.|.|.|.|.|.|.|.|.|.|.|.|.|.|.|.|.|.|.|.|.|.|.|.|.|.|.|.|.|.|.|.|.|.|.|.|.|.|.",
"|.|.|.|.|.|.|.|.|.|.|.|.|.|.|.|.|.|.|.|.|.|.|.|.|.|.|.|.|.|.|.|.|.|.|.|.|.|.|.|.|.|.|.|.|.|.|.|.",
"|.|.|.|.|.|.|.|.|.|.|.|.|.|.|.|.|.|.|.|.|.|.|.|.|.|.|.|.|.|.|.|.|.|.|.|.|.|.|.|.|.|.|.|.|.|.|.|.",
"|.|.|.|.|.|.|.|.|.|.|.|.|.|.|.|.|.|.|.|.|.|.|.|.|.|.|.|.|.|.|.|.|.|.|.|.|.|.|.|.|.|.|.|.|.|.|.|.",
"|.|.|.|.|.|.|.|.|.|.|.|.|.|.|.|.|.|.|.|.|.|.|.|.|.|.|.|.|.|.|.|.|.|.|.|.|.|.|.|.|.|.|.|.|.|.|.|.",
"|.|.|.|.|.|.|.|.|.|.|.|.|.|.|.|.|.|.|.|.|.|.|.|.|.|.|.|.|.|.|.|.|.|.|.|.|.|.|.|.|.|.|.|.|.|.|.|.",
"|.|.|.|.|.|.|.|.|.|.|.|.|.|.|.|.|.|.|.|.|.|.|.|.|.|.|.|.|.|.|.|.|.|.|.|.|.|.|.|.|.|.|.|.|.|.|.|.",
"|.|.|.|.|.|.|.|.|.|.|.|.|.|.|.|.|.|.|.|.|.|.|.|.|.|.|.|.|.|.|.|.|.|.|.|.|.|.|.|.|.|.|.|.|.|.|.|.",
"|.|.|.|.|.|.|.|.|.|.g l |.|.|.|.|.|.|.|.|.|.|.|.|.|.|.|.|.|.|.|.|.|.|.|.g g |.|.|.|.|.|.|.|.|.|.",
"|.|.|.|.|.|.|.|.|.f ( _ ^ f   |.|.|.|.|.|.|.|.|.|.|.|.|.|.|.|.|.|.  f ^ _ ( g |.|.|.|.|.|.|.|.|.",
"|.|.|.|.|.|.|.|.|., ~ ) ( ^ ~ z h |.|.|.~ ^ ^ ^ ^ ^ ~ ~ |.|.|., l ~ ^ ( _ ) z |.|.|.|.|.|.|.|.|.",
"|.|.|.|.|.|.|.|.|.  f z ( ) ) ~ h     l ~ ) _ ) ) ) ) ( ~ f , g ~ ) ) ^ ( ^ z |.|.|.|.|.|.|.|.|.",
"|.|.|.|.|.|.|.|.|.O , f l z z g f f g l z ~ ( ) ) _ ` _ _ _ ( ~ l z l l ~ ~ l |.|.|.|.|.|.|.|.|.",
"|.|.|.|.|.|.|.|.|.  % , f f f f g j l l l z ~ ~ ^ ) ) ) _ ` _ ) ( z f f l l f |.|.|.|.|.|.|.|.|.",
"|.|.|.|.|.|.|.|.|.|.o , h f y g l l l l g g f a g z L ~ ( _ _ ` ` / z f f , |.|.|.|.|.|.|.|.|.|.",
"|.|.|.|.|.|.|.|.|.|.O * > h l l l l l l l j g l l h h l z ~ ( ) _ ` ( a , : |.|.|.|.|.|.|.|.|.|.",
"|.|.|.|.|.|.|.|.|.|.  O > h l l l l l l l l l l l g g h h l z ^ ( _ ) ~ >   |.|.|.|.|.|.|.|.|.|.",
"|.|.|.|.|.|.|.|.|.|.|.O < g l l l l l l g l l l l l l l j g f f z ^ ) ) f |.|.|.|.|.|.|.|.|.|.|.",
"|.|.|.|.|.|.|.|.|.|.|.o f g l l g l l l l l l g l l l l l l l g g z ( _ z |.|.|.|.|.|.|.|.|.|.|.",
"|.|.|.|.|.|.|.|.|.|.O , g l l l l l l l l l l l l l l l l l l l g h ^ _ ( ^ |.|.|.|.|.|.|.|.|.|.",
"|.|.|.|.|.|.|.|.|.|.o a l l l l l l l l g l l l l l l g l l l l l , ~ ) _ ( |.|.|.|.|.|.|.|.|.|.",
"|.|.|.|.|.|.|.|.|.|.o q l l l l l l l l l l l l l l l l l l l l j f ~ ) ) ^ |.|.|.|.|.|.|.|.|.|.",
"|.|.|.|.|.|.|.|.|.|.o , l l l l l g l l l l g l l l l l l l l l l h z ^ ) ~ |.|.|.|.|.|.|.|.|.|.",
"|.|.|.|.|.|.|.|.|.|.o , g l l l l l l l l l l l l g l l l g l l l g l z ( ^ |.|.|.|.|.|.|.|.|.|.",
"|.|.|.|.|.|.|.|.|.|.O , h l l l l l l l l l j l l l l g l l l l l g l ~ ^ ~ |.|.|.|.|.|.|.|.|.|.",
"|.|.|.|.|.|.|.|.|.|.|.: f h l l l l g l l l l l l l l l l l g l l l l l l |.|.|.|.|.|.|.|.|.|.|.",
"|.|.|.|.|.|.|.|.|.|.|.  : f h g l l l l l l l l l l l l g l l l l l j h   |.|.|.|.|.|.|.|.|.|.|.",
"|.|.|.|.|.|.|.|.|.|.|.|.O > f l l l l l l g l l l g l l l l l l l l g , |.|.|.|.|.|.|.|.|.|.|.|.",
"|.|.|.|.|.|.|.|.|.|.|.|.O : , g g h j l l l l l l l l l l l l l l l h % |.|.|.|.|.|.|.|.|.|.|.|.",
"|.|.|.|.|.|.|.|.|.|.|.|.|.o , y f f h j l j l l l l l l l l h l g h f |.|.|.|.|.|.|.|.|.|.|.|.|.",
"|.|.|.|.|.|.|.|.|.|.|.|.|.|.X & & - , f g j j j j j j g l h i - - : |.|.|.|.|.|.|.|.|.|.|.|.|.|.",
"|.|.|.|.|.|.|.|.|.|.|.|.|.|.|.1 7 0 $ & ; a a a a a p t r - 0 7 1 |.|.|.|.|.|.|.|.|.|.|.|.|.|.|.",
"|.|.|.|.|.|.|.|.|.|.|.|.|.|.n B V N v 5 > % : : : : : 4 1 v M V B b |.|.|.|.|.|.|.|.|.|.|.|.|.|.",
"|.|.|.|.|.|.|.|.|.|.|.|.|.n S  . .| | F N v 6 v v 6 v B D | |  .| G K |.|.|.|.|.|.|.|.|.|.|.|.|.",
"|.|.|.|.|.|.|.|.|.|.|.|.X 7 N { o.O.o.o.{ S S S F D { D | o. . .X.R L k |.|.|.|.|.|.|.|.|.|.|.|.",
"|.|.|.|.|.|.|.|.|.|.|.|.> $ % m } o.o.o.O.;.;.;.;.*.%.o.o.o.o. .X.L ! ~ |.|.|.|.|.|.|.|.|.|.|.|.",
"|.|.|.|.|.|.|.|.|.|.|.O > - , n { o.} } &.p.j.j.j.6.O.*.O.| %.%...b Q / l |.|.|.|.|.|.|.|.|.|.|.",
"|.|.|.|.|.|.|.|.|.|.|.O w = . 2 D %.&. .%.j.v.v.k.u.:.t.%.} ;.t.>.3 Q ) l |.|.|.|.|.|.|.|.|.|.|.",
"|.|.|.|.|.|.|.|.|.|.|.O q q 7 3 D ;.y.;.O.s.v.v.v.d.s.t.o.} t.y.-.c Q ) l |.|.|.|.|.|.|.|.|.|.|.",
"|.|.|.|.|.|.|.|.|.|.|.+ . J R H D &.j.s.5.y.d.b.b.b.d.&.F | t.u.6.x d / z |.|.|.|.|.|.|.|.|.|.|.",
"|.|.|.|.|.|.|.|.|.|.|.|.  w.I.N.:.&.j.k.d.d.j.k.j.9.-.' C | *.u.f.0.P s |.|.|.|.|.|.|.|.|.|.|.|.",
"|.|.|.|.|.|.|.|.|.|.|.|.|.I.).S.i.$.d.v.v.b.b.b.x.>.Z @.@.,.>.s.D.U.K.|.|.|.|.|.|.|.|.|.|.|.|.|.",
"|.|.|.|.|.|.|.|.|.|.|.|.5.E._.G.z.4.d.v.k.h.l.A.B.e.r.P.U.F.8.9.G.[.'.P.|.|.|.|.|.|.|.|.|.|.|.|.",
"|.|.|.|.|.|.|.|.|.|.|.V =.R.[._.!.a.j.v.M.H.W.).'.`./.].Q.D.c.G.[.}.].K.I |.|.|.|.|.|.|.|.|.|.|.",
"|.|.|.|.|.|.|.|.|.|.|.m X.L.`.{.~.n.k.k.D.W.).[.[.[.[.[.G.k.m.).{.^.L.q.A |.|.|.|.|.|.|.|.|.|.|.",
"|.|.|.|.|.|.|.|.|.|.|.|.|.|.R E R +.u.g.s.n.C.Z.Z.C.C.V.x.7.+.R E R |.|.|.|.|.|.|.|.|.|.|.|.|.|.",
"|.|.|.|.|.|.|.|.|.|.|.|.|.|.|.|.  b ....@.1.3.<.$.#.[ [ 1.2.q   |.|.|.|.|.|.|.|.|.|.|.|.|.|.|.|.",
"|.|.|.|.|.|.|.|.|.|.|.|.|.|.|.|.|.  @ @ e d T |.|.  @ # d W u |.|.|.|.|.|.|.|.|.|.|.|.|.|.|.|.|."
};
