/* XPM */
static char *_914402b1c704d58e618851c0625b95455S2vmiOTHZn99WE[] = {
/* columns rows colors chars-per-pixel */
"48 48 217 2 ",
"   c #000E1B",
".  c #05171D",
"X  c #1B1C1C",
"o  c #2E0E19",
"O  c #300E19",
"+  c #2A121A",
"@  c #2F181E",
"#  c #34121C",
"$  c #38151E",
"%  c #05251E",
"&  c #042C1F",
"*  c #0D281D",
"=  c #11261D",
"-  c #12291D",
";  c #07311F",
":  c #3B1621",
">  c #331A20",
",  c #3D1B23",
"<  c #052D20",
"1  c #0A2B22",
"2  c #142B22",
"3  c #063521",
"4  c #0A3522",
"5  c #063823",
"6  c #0C3C23",
"7  c #0F3B28",
"8  c #153322",
"9  c #133D24",
"0  c #1A3825",
"q  c #123E2B",
"w  c #352C2A",
"e  c #3E292A",
"r  c #2F3424",
"t  c #36352D",
"y  c #3A3E33",
"u  c #431C25",
"i  c #461F28",
"p  c #4B222B",
"a  c #442A2D",
"s  c #50262D",
"d  c #532C2F",
"f  c #49322D",
"g  c #532730",
"h  c #562A32",
"j  c #5A2D35",
"k  c #483732",
"l  c #5D3136",
"z  c #623439",
"x  c #63393B",
"c  c #693A3D",
"v  c #0E4225",
"b  c #0F4826",
"n  c #124425",
"m  c #1A4627",
"M  c #154A27",
"N  c #1C4C26",
"B  c #14442C",
"V  c #1C4429",
"C  c #154D29",
"Z  c #1A4D29",
"A  c #15502A",
"S  c #1B542A",
"D  c #1E5A2C",
"F  c #184432",
"G  c #1A4A33",
"H  c #1D5333",
"J  c #1F5736",
"K  c #264D28",
"L  c #245429",
"P  c #225D2C",
"I  c #2A5D2C",
"U  c #315A2B",
"Y  c #394537",
"T  c #384A30",
"R  c #275735",
"E  c #235B3B",
"W  c #1F602F",
"Q  c #24632E",
"!  c #2B642D",
"~  c #2E6B2F",
"^  c #36672F",
"/  c #326A2E",
"(  c #3A6B2E",
")  c #3D702E",
"_  c #266630",
"`  c #266931",
"'  c #2A6D32",
"]  c #276239",
"[  c #2C6D3A",
"{  c #396734",
"}  c #316F31",
"|  c #2E7133",
" . c #2F723A",
".. c #337432",
"X. c #3B7331",
"o. c #367A35",
"O. c #3B7C34",
"+. c #32743B",
"@. c #3B7B3B",
"#. c #4C4639",
"$. c #44543B",
"%. c #5B5239",
"&. c #68423F",
"*. c #4E6539",
"=. c #417E33",
"-. c #55753B",
";. c #753E42",
":. c #275E40",
">. c #2B6442",
",. c #2F6A47",
"<. c #366746",
"1. c #346B49",
"2. c #357A44",
"3. c #377846",
"4. c #37754C",
"5. c #3A7C4D",
"6. c #387750",
"7. c #3D7C53",
"8. c #4E5641",
"9. c #6C4241",
"0. c #744343",
"q. c #7B4747",
"w. c #7D4D49",
"e. c #6C5A45",
"r. c #7A584B",
"t. c #476346",
"y. c #5B6E44",
"u. c #437A47",
"i. c #457B52",
"p. c #577350",
"a. c #7C6556",
"s. c #647558",
"d. c #707251",
"f. c #834C4C",
"g. c #84544E",
"h. c #875A4F",
"j. c #845E55",
"k. c #8E5B53",
"l. c #945C55",
"z. c #856154",
"x. c #856C54",
"c. c #816859",
"v. c #946257",
"b. c #99695B",
"n. c #A36D5E",
"m. c #9B7862",
"M. c #A56E60",
"N. c #A87162",
"B. c #3E8236",
"V. c #3D8239",
"C. c #438436",
"Z. c #498535",
"A. c #468837",
"S. c #4C8C36",
"D. c #408539",
"F. c #468A38",
"G. c #4A8E38",
"H. c #508D37",
"J. c #4F9137",
"K. c #4D923A",
"L. c #519137",
"P. c #529539",
"I. c #559B3B",
"U. c #599E3C",
"Y. c #5CA23D",
"T. c #60A73E",
"R. c #63AA3F",
"E. c #3C8244",
"W. c #3D834D",
"Q. c #3F8354",
"!. c #458A45",
"~. c #468848",
"^. c #508C41",
"/. c #4C9349",
"(. c #549845",
"). c #428356",
"_. c #438A55",
"`. c #4B8856",
"'. c #448559",
"]. c #458B5A",
"[. c #498D5E",
"{. c #5D835E",
"}. c #4D9354",
"|. c #4A915D",
" X c #549652",
".X c #559C54",
"XX c #52965C",
"oX c #53995B",
"OX c #5B9D5E",
"+X c #709A4C",
"@X c #62815E",
"#X c #639650",
"$X c #629851",
"%X c #5CA445",
"&X c #5CA34B",
"*X c #5FA84B",
"=X c #5AA350",
"-X c #63AB42",
";X c #65A94A",
":X c #68B143",
">X c #6BA856",
",X c #64A35B",
"<X c #6BA758",
"1X c #72AA55",
"2X c #4E8E60",
"3X c #518E61",
"4X c #479162",
"5X c #4B9261",
"6X c #4C9362",
"7X c #4D9362",
"8X c #4D9462",
"9X c #519561",
"0X c #549860",
"qX c #648C62",
"wX c #7FAA62",
"eX c #B5A446",
"rX c #8CB162",
/* pixels */
"6X6X6X6X6X6X6X6X6X6X6X6X6X6X6X6X6X6X6X6X5XQ.S n 2.5X6X6X6X6X6X6X6X6X6X6X6X6X6X6X6X6X6X6X5X6X6X6X",
"6X6X6X6X6X6X6X6X6X6X6X6X6X6X6X6X6X6X6X[.7...G.Z.(..X6X8X6X6X6X6X5X5X6X6X6X6X6X6X6X6X6X6X6X[.|.6X",
"6X6X6X6X6X6X6X6X6X6X6X6X6X6X6X5XXX&X&X!.[ Q B.R.R.G.,.8X6X6X6XoX&X&X.X5X6X8X6X6X6X6X6X6X[.'.'.|.",
"6X6X6X6X6X6X8X6X6X6X6X6X6X6X6XoX%XI.K.P.~ o.L.R.R.Y.V.2.W.6XoX%XI.K.-X&XoX|.6X6X6X6X6X6X|.'.'.6X",
"6X6X6X6X9XOX,X6X6X6X6X6X8X8XoX%XY.F.K.o.' ..K.R.Y.P.G.P  .!.%X-XY.I.I.K.(.W.6X6XoX&X&X.X6X5X6X6X",
"6X6X6X8X<XOX,X6X6X6X6X6X6X|.).=.Y.F.~ | ' | ..B.} ' I A ' B.R.P.C.R.Y.I.K.H 2.!.&XR.-X%X.X6X6X6X",
"6X6X6X9X1XoX0X8X6X6X6X6X6X6X4.D B.~ D W ` A S A S Q A Q ' O.R.U.A.F.K.R.Y.| D ..K.R.Y.K.&X8X6X6X",
"6X6X8X8X0X6X6X8X6X6X6X6X6X]. ._ ` S b 6 b v 6 5 5 b M P o.I.-XU.B.| o.K.-XB.M o.I.I.F.I.(.W.6X6X",
"6X6X6X6X6X6X6X6X6X6X6X6XQ.2.D ` ..S.C.O.} Q B.B.O...C v P A.R.K.D A Q B.R.I.A.I.Y.Y.I.I.V. .Q.6X",
"6X6X6X6X6X6X6X6X6X6X6X6XW.D W ..I.I.S.R.Y.I.I.K.R.U.F./ D O.I.O.S.~ M ..I.G.L.C.:XR.R.Y.V.` V.;X",
"6X6X6X6X6X6X6X6X6XQ.2.2. .W o.F.K.Y.I.U.S.U.G.I.R.-XR.Y.B.~ =.P.U.O.S S / / Y.L.R.Y.K.R.Y.F.I.=X",
"6X6X8X'.5X6X6X6XQ.E./.G.V.` B.Y.I.-XU...~ P.o.I.R.U.K.Y.B.~ / =...C S D S L C.A.G.V.V.I.Y.Y.K.&X",
"6X6X'.'.).6X6X].E.%XY.R.Y.V...K.-XR.K.` ~ B.' o.I.Y.K.O.D P Q Q Q A S ` ` S D ..' Q ' o.G.G.K./.",
"5X6X6X'.[.6X6X}.Y.Y.Y.K.Y.B.B.K.I.Y.B.' ~ | ' ' O.P.G.S 6 V F.F.F.F.F.| A D M D W Q ' ' O.I.K.E.",
"rX6X6X6XXX}.E.E.P.Y.Y.Y.Y.B.B.B.O.F.| ' [ ` P ` ' P.X.4 8 Z.Y.-XY.K.R.P.~ A M ; C D Q ' B.-X%X_.",
"rX6X6X8X(.G.@._ V.:XR.Y.I.B.W ' Q P ' ` P D P S Q O.Z N =.P.I.J.J.F.Y.A.C.B...M ; b A Q V.-XoX|.",
",X6XoX*XY.Y.F.Q o.L.Y.B.} Z.o.' Q C M n ; A v 6 N P N ! U.I.U.L.P.o.J.J.I.Y.O.C M n ; C ~ K.oX8X",
">XoX;XR.Y.Y.P.' ~ / O.P Q o.O.Q S Q L 8 ) B.P & 5 n 9 K R.T.U.J.B.P | P.P.A.^ * M 6 ; 6 m Q ~.8X",
"$X(.R.Y.Y.Y.F.W ` S b S ` Q ~ S % 0 =.*.K.P.=.L & ; m ( L.R.P.~ S A } U.U.C.=.^ Q ; ; 3 < v ] 6X",
"`.o.J.Y.Y.R.I.} A ; v D S M S Q ^ ( S.I.Y.J.} B.L & P I.L.Y.B.` S S ~ L.R.U.I.T.J.! D ( K < E 6X",
"|...S.R.Y.P.I.F.S A S M v n S O.L.T.Y.P.J.C.B.B.=.; K S.L.Y.B.Q D M ; K Z.L.Y.I.R.I.G.Y.H.L B 6.",
"eXB.I.I.I.| B.V.~ Q N ; ; b / Y.L.L.F.| ' } S.F.X.% . - U Y.K...6 ; * ; 9 ~ Y.I.Y.L.R.Y.I.J.I H ",
"9XF.Y.J.F.` ' | ` C ; ; ; S J.Y.J.C.| ` Q Q ..B.S N L ; K C.B...v & ; b ; ! J.S.C.o.R.Y.I.R.C.m ",
"6XD.I.Y.C.' ' Q m .   . ; ..Y.F.B.C.` D S Q Q b m A.F.D S S Q Q ; ; ; ; ; 6 C S S ~ L.L.L.R.C.n ",
"6X7.@.H.) _ _ V 2 U U m 9 ..A.` ~ ` D n n A D / =.Y.K.o.Q D D D 5 5 N / / S ; ; n M M ! P.Y.O.v ",
"6X[.>.2 2 B N 2 ( P.Y.X.; S ` D S v n ; & n O.J.L.A...B.D Q Q S 3 n X.I.Y.S.P n 6 5 6 L H.A.D n ",
"6X6X1.1 F G R ^ K.I.T.S.L M ` S b b S n 9 ) F.| ..` Q | Q Q P ; 8 X.A.D.U.Y.C.C ; ; 6 n m M v v ",
"6X6X1.F ).i.~.G.D.U.G.O.X.S D n ; M Q S P A.| ' ' ` W Q Q Q S 9 ( C.' ' ..B.C.S 6 ; 4 5 & 5 n Z ",
"5X8X4.] 6X5XoXK.O.G.' D S S n 5 ; 5 n n A ' Q Q Q P M n 6 n S I C.~ D ' ` | Q 9 n G q & & 6 H >.",
"8X5XQ.5.6X8XoXG.` ' D b n n 4 1 C q 4 n v v m M n v 6 5 & & m S N Q Q ' | ` S 5 G Q.1.B q F 5.'.",
"6X6X8X|.0X0X X .C v v v 6 5 5 :.7.>.F ,.7 3 v 6 ; ; & = = 8 H Z 5 n S ` Q D v & H 6X[.7.:.G 6X6X",
"6X6X8X8X<X$X.XW.D & ; B V 1 0 i.].>.:.].>.n 8 - = * X + o t  X3.n ; 6 n n A B 4 :.6X6X6X4.E 6X6X",
"6X6X6X8X<X0XOX[.1.B q E <., e Y <.>.).5X).Y + + + @ o o O t #X[.<.7 < < < 6 q E ).6X6X|.W.2.6X6X",
"6X6X8X8XOX6X6X6X].7.6.).2Xp.;.a y 4.i.i.t.w o # : i : O # > 8.2X].>.q 4 3 q F '.6X6X5X_.W.].6X6X",
"6X6X6X6X4X6X6X6X6X6X6X6X6X2Xs.;.t $.#.f a p , p : i i , i o y 3X5X].6.>.H 7.Q.6X6X6X6X'.W.8X6X7X",
"6X6X6X6X6X6X6X6X6X6X6X6X6X5X2Xp.e.*.h.x l g p i h g j s : # t i.8X6X6X'.2.6X6X6X6X6X6X5X].7X7X,X",
"6X6X6X6X6X6X6X6X6X6X6X6X6X6X6X3Xi.p.m.m.z.l i l j j j j i o , <.6X6X6X|.[.5X6X6X6X6X6X6X8X5X8X5X",
"6X6X6X'.6X6X6X6X6X6X6X6X6X6X6X6X|.`.qXqXqXt.d ;.j j l x s , u y 6X6X6X6X6X6X6X6X6X6X6X6X5X8X5X8X",
"6X6X].).).6X6X6X6X6X6X6X6X6X6X6X6X6X6X6XoX^.8.;.j j 0.g.j p : y 6X6X6X6X6X6X6X6X6X6X6X6X6X6X8X7X",
"4X8X6X).4X6X6X6X6X6X6X6X6X6X6X6X6X6X6X6X}.y.9.u i l q.l.l i o y 6X6X6X6X6X6X6X6X6X6X6X6X6X6X6X7X",
"rX9X6X6X6X6X6X6X6X6X7X7X7X6X6X6X9X6X6X6Xs.r.;.g g j q.M.0.# # Y 6X6X6X6X6X6X6X6X6X6X5X8X5X6X6X6X",
"rX6X6X6X6X6X6X6X6X6X7X6X7X6XoXOX6X9X3Xs.j.w.l l l l w.l.j o t i.8X|.6X6X6X6X6X6X6X6X8X5X8X6X6X6X",
"OX5X9X6X6X6X9X6X6X6X3X3X[.XX=XoX|.p.e.l.;.g z q.g.9.g.x p O y oX*X=X6X6X6X|.6X6X6X6X8X8X6X6X6X6X",
"1X6X,X0X6X9X[.9Xs.c.c.c.d.u.~.3Xx.j.f.c i ;.l.b.k.l x p u u r ^.&XXX6X6X_.W.6X6X6X6X,X0X6X6X6X6X",
"#X#X1XOX&X.X@Xc.z.l.n.k.f.x.r.j.c p p , s n.b.c c j p : # $ r 2.XX|.Q.E.+.2.8X6X6X8X<X0X0X6X6X6X",
"`. X`.}..X/.y.l.k.f.v.w.b.n.n.v.z p s s &.v.c j l l h u o w u.].Q.E._ b ] ].6X6X6X8X<XOX<X7X6X6X",
"2X'.[.9X@Xa.z.N.k.x c z 0.0.g.n.g.z &.l.l.c j %.-.T : $ o y oX/. .P 6 6 Z 1._.W.8X5X0X0X<X6X6X6X",
"eX9X5X{.d.-.#.q.%.*.w a w j z 0.%.-.$.#.c j k { ~ 0 X + w I [ L C M D A 5 C H H +X5X6X8X0X6X6X6X"
};
