/* XPM */
static char *result[] = {
/* columns rows colors chars-per-pixel */
"48 48 209 2 ",
"   c #050505",
".  c #020B06",
"X  c #080A01",
"o  c #060E0D",
"O  c #0D0E0D",
"+  c #150607",
"@  c #041607",
"#  c #0D120E",
"$  c #11160E",
"%  c #06031A",
"&  c #130C17",
"*  c #0F1411",
"=  c #091A15",
"-  c #141414",
";  c #191415",
":  c #111C14",
">  c #191C16",
",  c #1A141A",
"<  c #151A18",
"1  c #1B1B1B",
"2  c #3A040D",
"3  c #271012",
"4  c #3F1C19",
"5  c #102D01",
"6  c #15241B",
"7  c #14271A",
"8  c #1A211A",
"9  c #182A1E",
"0  c #1D381C",
"q  c #2E2D14",
"w  c #24271C",
"e  c #0C0421",
"r  c #1E1A27",
"t  c #120B34",
"y  c #311F29",
"u  c #21063A",
"i  c #072A21",
"p  c #1A2927",
"a  c #1D3425",
"s  c #252524",
"d  c #2A2629",
"f  c #272828",
"g  c #2C2C2C",
"h  c #312C2D",
"j  c #28352A",
"k  c #353A2B",
"l  c #2D2B32",
"z  c #352D30",
"x  c #26383B",
"c  c #333333",
"v  c #323A34",
"b  c #393539",
"n  c #4E000F",
"m  c #450411",
"M  c #5A0818",
"N  c #471C1A",
"B  c #6A081C",
"V  c #78031F",
"C  c #452316",
"Z  c #7D0423",
"A  c #7E0D28",
"S  c #472A25",
"D  c #562B2A",
"F  c #6D2C30",
"G  c #28492E",
"H  c #3D442F",
"J  c #2A4A33",
"K  c #34443A",
"L  c #384A39",
"P  c #2F5933",
"I  c #2D5439",
"U  c #335739",
"Y  c #4B511A",
"T  c #475034",
"R  c #6B4734",
"E  c #0E0D4E",
"W  c #2B0446",
"Q  c #391548",
"!  c #380458",
"~  c #34264E",
"^  c #5F0D5F",
"/  c #621E5D",
"(  c #453C50",
")  c #662D57",
"_  c #430567",
"`  c #47086A",
"'  c #570962",
"]  c #561464",
"[  c #470476",
"{  c #4E047D",
"}  c #51067B",
"|  c #4C1176",
" . c #641A6A",
".. c #682A67",
"X. c #3C4A41",
"o. c #395943",
"O. c #346342",
"+. c #396442",
"@. c #376A46",
"#. c #3A6848",
"$. c #3A6D4A",
"%. c #3D734E",
"&. c #3E7750",
"*. c #3F7A51",
"=. c #474847",
"-. c #455647",
";. c #435549",
":. c #4E514E",
">. c #514853",
",. c #4F5756",
"<. c #535554",
"1. c #595759",
"2. c #5A5C5B",
"3. c #46674B",
"4. c #54644B",
"5. c #417345",
"6. c #427252",
"7. c #427D53",
"8. c #557254",
"9. c #6B7546",
"0. c #6C7359",
"q. c #595066",
"w. c #755072",
"e. c #636364",
"r. c #676867",
"t. c #6A6969",
"y. c #7D6C7A",
"u. c #757674",
"i. c #830224",
"p. c #8B0225",
"a. c #8B062B",
"s. c #94022B",
"d. c #9A022E",
"f. c #8C0E30",
"g. c #AA0032",
"h. c #B60339",
"j. c #C5033B",
"k. c #D8013D",
"l. c #932E4E",
"z. c #8C3570",
"x. c #DF184E",
"c. c #EF0949",
"v. c #CA2646",
"b. c #D70B6B",
"n. c #8C5672",
"m. c #BD4A75",
"M. c #817A7E",
"N. c #A7726B",
"B. c #EE4B71",
"V. c #55894C",
"C. c #438357",
"Z. c #488555",
"A. c #458559",
"S. c #4D8658",
"D. c #47895C",
"F. c #498D5E",
"G. c #528F5E",
"H. c #5E9450",
"J. c #54945E",
"K. c #569A5F",
"L. c #5A9C5E",
"P. c #609650",
"I. c #629952",
"U. c #78A44F",
"Y. c #64A25B",
"T. c #6BA758",
"R. c #6DA958",
"E. c #72A955",
"W. c #4B8F60",
"Q. c #479162",
"!. c #4C9362",
"~. c #519661",
"^. c #549860",
"/. c #6E9B6E",
"(. c #6AA262",
"). c #8CAC09",
"_. c #AEC43F",
"`. c #B5A446",
"'. c #908A6B",
"]. c #A99A70",
"[. c #8CB162",
"{. c #ACAE66",
"}. c #A6BA65",
"|. c #DAA57B",
" X c #590285",
".X c #680D94",
"XX c #6D3786",
"oX c #786B82",
"OX c #F33986",
"+X c #8B6986",
"@X c #877885",
"#X c #957991",
"$X c #E2598E",
"%X c #7F8C83",
"&X c #8A878B",
"*X c #908E91",
"=X c #92B088",
"-X c #9A94A4",
";X c #B796B1",
":X c #B4ADB5",
">X c #D3E395",
",X c #D1D9B9",
"<X c #D6ECA4",
"1X c #CEADC9",
"2X c #DBB8D5",
"3X c #D0CED2",
"4X c #E7F2D9",
"5X c #FBD0F5",
"6X c #F7F9EC",
/* pixels */
"!.!.!.!.!.!.!.!.!.!.!.!.!.!.!.!.!.!.!.!.!.!.!.!.!.!.!.!.!.!.!.!.!.!.!.!.!.!.!.!.!.!.!.!.!.!.!.!.",
"!.!.!.!.!.!.!.!.!.!.!.!.!.!.!.!.!.!.!.!.Q.!.!.!.!.!.!.!.!.!.!.!.!.!.!.!.!.!.!.!.!.!.!.!.!.D.Q.!.",
"!.!.!.!.!.!.!.!.!.!.!.!.!.!.!.!.!.!.Q.A.A.F.!.!.!.!.!.!.!.!.!.!.!.!.!.!.!.!.!.!.!.!.!.!.Q.A.D.!.",
"!.!.!.!.!.!.!.!.!.!.!.!.!.!.!.!.!.!.Q.A.Z.!.!.!.!.!.!.!.!.!.!.!.!.!.!.!.!.!.!.!.!.!.!.!.!.A.A.!.",
"!.!.!.!.^.^.Y.!.!.!.!.!.!.!.!.!.!.!.!.!.!.!.!.!.!.!.!.!.!.!.~.L.Y.!.!.!.!.!.!.!.!.!.!.!.!.!.!.!.",
"!.!.!.!.R.L.T.!.!.!.!.!.!.!.!.!.!.!.!.!.!.!.!.!.!.!.!.!.!.^.R.L.T.!.!.!.!.!.!.!.!.!.!.!.!.!.!.!.",
"!.!.!.^.R.^.^.!.!.!.!.!.!.!.!.!.!.!.!.!.!.!.Q.Q.!.!.!.!.!.!.R.K.^.!.!.!.!.!.!.!.!.!.!.!.!.!.!.!.",
"!.!.!.^.^.!.!.!.!.!.!.!.!.!.!.!.!.!.!.!.!.!.Z.%.D.!.!.!.!.!.L.!.!.!.!.!.!.!.!.!.!.!.!.!.!.!.!.!.",
"!.!.!.!.!.!.!.!.!.!.!.!.!.!.!.!.!.!.!.!.Q.J.8.o.6.D.!.Q.!.!.!.!.!.!.!.!.!.!.!.!.!.!.!.!.!.!.!.^.",
"!.!.!.!.!.!.!.!.!.!.!.!.!.!.!.!.!.!.Q.!.F.H.4.:.X.%.Q.Q.!.!.!.!.!.!.!.!.!.!.!.!.!.!.!.!.!.!.!.Y.",
"!.!.!.!.!.!.!.!.!.!.!.!.!.!.!.!.!.!.Q.Q.F.P :.<.J I o.$.D.!.!.!.!.!.!.!.!.!.!.!.!.!.!.!.!.!.!.!.",
"!.!.!.D.!.!.!.!.!.!.!.!.!.!.!.!.!.D.&.%.O.7 1.@X2.K 6 X.3.%.Z.Q.!.!.!.!.!.!.!.!.!.!.!.!.!.!.!.!.",
"!.!.D.C.C.Q.!.!.!.!.!.!.!.!.!.!.F.@.7 > -   +X;X#X:.$ 2.:.j O.F.!.!.!.!.!.!.!.!.!.!.!.!.!.!.!.!.",
"Q.!.!.A.Q.!.!.!.!.!.!.!.!.!.!.D.U 9 O ; &   #X1X2X;X2.:.1.1.;.$.W.!.!.W.!.!.!.!.!.!.!.!.!.!.!.!.",
"[.!.!.!.!.!.!.!.!.!.!.!.!.!.D.@.9 O # , ;   +X1X5X2X@Xv :.u.2.;.&.A.!.!.!.!.!.~.!.!.!.!.!.!.!.!.",
"[.!.!.!.!.!.!.!.!.!.!.!.!.D.@.: O - O ; O   w.;X2X1X@Xd X.t.t.<.X.&.Q.!.!.!.!.!.!.!.!.!.!.!.!.!.",
"Y.!.!.!.!.!.!.!.!.!.!.!.Q.O.9 # ; - O - 1 : ( w.M.y.<.d b 1.r.t.2.-.%.!.Q.!.!.!.!.!.!.!.!.!.!.!.",
"E.!.Y.L.!.!.!.!.!.!.!.Q.*.a O ; < ; O - s c 8         d g c <.r.t.<.;.C.Q.!.!.!.!.!.Y.K.!.!.!.!.",
"I.I.E.J.!.!.!.!.!.F.!.D.I 7 - - - - O 1 d g g l z c h f O & c 1.r.e.,.P D.!.!.!.!.!.R.K.^.!.!.!.",
"Z.H.V.Q.!.!.!.!.!.!.!.C.7 # - - - - - p g j h c c h h b > O O d :.r.,.K C.!.!.!.!.!.R.L.R.!.!.!.",
"!.A.Q.!.!.!.!.!.!.!.!.6.# # ; - - - > s g g g g g w s =.u.&Xu.X.a e.q.K 7.!.!.!.!.!.^.K.R.!.!.!.",
"`.!.!.!.!.!.!.!.!.!.Q.7.= O - - - O 1 s h g g l c - 8 ,.3X6X4X=X5 q.>.0 W.!.!.!.!.!.!.!.~.!.!.!.",
"J.!.!.!.!.!.!.!.!.!.!.7.: O - - O O 1 d h g g l c f g g -X3X6X<X).t.q.<.8.!.!.!.!.!.!.!.!.!.!.!.",
"!.!.!.!.!.!.!.!.!.!.K.V.: O > - - - 1 d g g g g g c c # ~ &X,X>X_.0.oX*X%X/.(.!.!.!.!.!.!.!.!.!.",
"!.!.!.!.!.!.!.!.!.!.J.V.# O < - - - < s h g g g g g g c f c 2.9.9.T -X1X:X[.(.!.!.!.!.!.!.!.!.!.",
"!.!.!.!.!.!.!.!.!.!.!.Z.a $ - - - ; O 1 g g g g g f g c s     % ~ :.u.*X%X/.!.!.!.!.!.!.!.!.!.!.",
"!.!.!.!.!.!.~.!.!.!.!.D.U 9 * - ; - O 1 f g g g g g g f c c f % l e.:.: %.Q.Q.!.!.!.!.!.!.!.!.!.",
"!.!.!.!.!.!.!.!.!.!.!.F.A.j # - < - O > s g g g g g g g g c f c =.e.:.K A.Q.!.!.!.!.!.!.!.W.F.!.",
"!.!.!.!.!.!.!.!.!.!.!.!.!.@.a # - ; - * 1 s h g g g g g f s ; X.2.e.,.#.!.!.!.!.!.!.!.!.F.C.C.F.",
"!.!.!.!.!.!.!.!.!.!.!.!.!.!.%.p O - - - - 1 d g g g h l g g s :.e.<.6.A.!.!.!.!.!.!.!.!.!.C.A.!.",
"!.!.!.!.~.L.Y.!.!.!.!.!.Q.!.D.&.a * < ; - 1 s g h z c g b =.>.2.2.o.$.!.!.!.!.!.!.!.!.!.!.!.!.!.",
"!.!.!.!.R.L.Y.!.!.!.!.!.Q.!.!.!.$.a * o o = ; 8 p i 7 o r b <.:.4.$.D.!.!.!.!.!.!.!.!.!.!.!.!.!.",
"!.!.!.~.R.K.L.!.!.!.!.!.!.!.!.!.!.%.7 + + #   . = 3 S S z K -.T %.Q.!.!.!.!.!.!.!.!.!.!.!.!.!.!.",
"!.!.!.!.L.!.Q.!.!.!.!.!.!.!.!.!.!.A.J N n 2 + + 3 V l.N.'.G.J.D.Q.!.!.!.!.!.!.!.!.!.!.!.!.!.!.!.",
"!.!.!.!.!.!.!.!.!.!.!.!.!.!.Q.!.A.3.F A p.d.g.j.v.b.B.|.}.(.!.!.!.!.!.!.!.!.!.!.!.!.!.!.!.!.!.^.",
"!.!.!.!.!.!.!.!.!.!.!.!.!.Q.!.!.%.S Z g.h.j.c.c.B.OX$X|.{.U.J.!.J.!.!.!.!.!.!.!.!.!.!.!.!.!.!.(.",
"!.!.!.!.!.!.!.!.!.!.!.!.!.!.!.F.U M a.g.j.k.k.x.B.m.z.+X) Y 5.F.!.!.!.!.!.!.!.!.!.!.!.!.!.!.!.!.",
"!.!.!.C.Q.!.!.!.!.!.!.!.!.!.J.U F p.s.i.i.p.p.f.l...} .X[ E J %.F.!.!.!.!.!.!.!.!.!.!.!.!.!.!.!.",
"!.!.Q.A.C.!.!.!.!.!.!.!.!.!.3.D p.d.Z m X @ X   e E  X.XXX>.X.L 6.W.!.!.!.!.!.!.!.!.!.!.!.!.!.!.",
"Q.!.!.A.F.!.!.!.!.!.!.!.!.#.S a.s.i.2 # 8 g q C ) ] ] +X].].4.x v A.!.!.!.!.!.!.!.!.!.!.!.!.!.!.",
"[.!.!.!.!.!.!.!.!.!.!.F.!.O.N d.p.M   = g 9 4 / ) ^ ) n.{.{.3.t p C.!.!.!.!.!.!.!.!.!.!.!.!.!.!.",
"[.!.!.!.!.!.!.!.!.!.G.!.!.O.S d.i.2 O 8 g < Q ]  .' ] n.].'.L o a D.!.!.!.!.!.!.!.!.!.!.!.!.!.!.",
"Y.!.!.!.!.!.!.!.!.!.!.!.~.#.S p.f.4 O . 1 Q `  X X[ | .XXX~ p J 6.W.!.!.!.!.!.!.!.!.!.!.!.!.!.!.",
"R.!.Y.^.!.!.!.!.!.!.!.F.D.T B p.F H : & u ` [ [ { {  X X[ E o.C.W.!.!.!.!.!.!.!.!.!.Y.K.!.!.!.!.",
"I.P.E.K.!.!.!.!.!.!.!.!.7.D B Z R +.8 u W _ ! ! ` | { ` ~ k S.!.!.!.W.!.!.!.!.!.!.!.R.K.K.!.!.!.",
"D.P.V.F.!.!.!.!.!.!.!.D.7.H 4 C T G $ & E W W t ! _ _ u : v 4.8.!.!.!.!.!.!.!.!.!.!.Y.L.R.!.!.!.",
"Q.A.Q.!.!.!.!.!.!.!.!.W.A.%.O.$.P a $ , , r p X.X.~ y p w c 3.S.!.W.!.!.!.!.!.!.!.!.K.K.R.!.!.!.",
"`.!.!.!.!.!.!.!.!.!.!.!.!.(.}.Q.O.: 1 8 w j I &.&.J = g b v +.F.!.!.!.!.!.!.!.(.}.!.!.!.^.!.!.!."
};
