/* XPM */
static char *result[] = {
/* columns rows colors chars-per-pixel */
"48 48 214 2 ",
"   c #070A07",
".  c #0A0A06",
"X  c #060D09",
"o  c #0C0C0B",
"O  c #170909",
"+  c #07100B",
"@  c #0C120E",
"#  c #11120F",
"$  c #1B0F10",
"%  c #0B1815",
"&  c #141514",
"*  c #141B16",
"=  c #1A1815",
"-  c #171C18",
";  c #1C1C1B",
":  c #25060A",
">  c #2C060A",
",  c #37070C",
"<  c #3B0B12",
"1  c #241C18",
"2  c #331715",
"3  c #0F211E",
"4  c #13231A",
"5  c #1C211F",
"6  c #162B1D",
"7  c #1B281D",
"8  c #15381C",
"9  c #24271E",
"0  c #3A2A1B",
"q  c #1D2423",
"w  c #152A20",
"e  c #1A2E20",
"r  c #01352C",
"t  c #242525",
"y  c #2A2626",
"u  c #242B26",
"i  c #282826",
"p  c #272929",
"a  c #2C2C2C",
"s  c #312C2D",
"d  c #26372B",
"f  c #2E312E",
"g  c #2F3734",
"h  c #333433",
"j  c #363937",
"k  c #363B3A",
"l  c #3A3B3B",
"z  c #42010E",
"x  c #49010F",
"c  c #490D0A",
"v  c #5B0114",
"b  c #51131C",
"n  c #6D021B",
"m  c #650F1F",
"M  c #71011D",
"N  c #7C031B",
"B  c #4B201F",
"V  c #5B1822",
"C  c #6B0C21",
"Z  c #7D0422",
"A  c #760823",
"S  c #4B3429",
"D  c #65232C",
"F  c #73222D",
"G  c #054537",
"H  c #3D412D",
"J  c #2A4532",
"K  c #264B33",
"L  c #2D4A35",
"P  c #374635",
"I  c #39463D",
"U  c #384B3E",
"Y  c #2B5137",
"T  c #2C5339",
"R  c #2E5A3C",
"E  c #30533B",
"W  c #3A5239",
"Q  c #315C3E",
"!  c #3F673E",
"~  c #504B3A",
"^  c #015249",
"/  c #015650",
"(  c #3D4441",
")  c #3B4D40",
"_  c #3B5342",
"`  c #375B42",
"'  c #346343",
"]  c #396648",
"[  c #396C49",
"{  c #3C734D",
"}  c #3F7A52",
"|  c #444443",
" . c #454A47",
".. c #474B48",
"X. c #4B4C4C",
"o. c #4F504F",
"O. c #43594A",
"+. c #4D5751",
"@. c #535454",
"#. c #545A56",
"$. c #575D59",
"%. c #5C5C5C",
"&. c #644B4B",
"*. c #675A4F",
"=. c #794E52",
"-. c #4A6749",
";. c #58694D",
":. c #4E784D",
">. c #466951",
",. c #5E615E",
"<. c #417451",
"1. c #487150",
"2. c #417D53",
"3. c #4B7B54",
"4. c #457C59",
"5. c #636463",
"6. c #696A69",
"7. c #766961",
"8. c #920000",
"9. c #88001D",
"0. c #940414",
"q. c #92001D",
"w. c #840124",
"e. c #8B0126",
"r. c #8D0129",
"t. c #830F2A",
"y. c #95002B",
"u. c #9B002D",
"i. c #961536",
"p. c #A8072D",
"a. c #A50030",
"s. c #AC0033",
"d. c #A60A35",
"f. c #B50035",
"g. c #B80137",
"h. c #BD0039",
"j. c #AA143B",
"k. c #B8153E",
"l. c #912239",
"z. c #88343F",
"x. c #CC0729",
"c. c #C4013B",
"v. c #CC013E",
"b. c #D7023C",
"n. c #F1073F",
"m. c #893B46",
"M. c #983748",
"N. c #B93E60",
"B. c #CF0442",
"V. c #D20141",
"C. c #DC0344",
"Z. c #DB0848",
"A. c #D3174C",
"S. c #E20046",
"D. c #E50249",
"F. c #ED004B",
"G. c #F3014D",
"H. c #FA014E",
"J. c #F0114C",
"K. c #F50253",
"L. c #FD0152",
"P. c #FD0C55",
"I. c #E41652",
"U. c #CE294F",
"Y. c #DA2C59",
"T. c #CE3558",
"R. c #D13558",
"E. c #E42D5E",
"W. c #F92964",
"Q. c #E53969",
"!. c #FA3A70",
"~. c #8D404A",
"^. c #894655",
"/. c #AF4A68",
"(. c #D0466D",
"). c #CA587B",
"_. c #D7547E",
"`. c #E74E7C",
"'. c #F24B7C",
"]. c #F9497C",
"[. c #4F824B",
"{. c #51864D",
"}. c #438357",
"|. c #4B8854",
" X c #458559",
".X c #48875C",
"XX c #47895C",
"oX c #498D5E",
"OX c #53815C",
"+X c #4C915F",
"@X c #5E9450",
"#X c #54955E",
"$X c #569A5F",
"%X c #5B9C5D",
"&X c #768746",
"*X c #609650",
"=X c #629953",
"-X c #65A35B",
";X c #6BA758",
":X c #6DA958",
">X c #72A955",
",X c #4A8F60",
"<X c #479162",
"1X c #4C9362",
"2X c #519661",
"3X c #539860",
"4X c #67A062",
"5X c #7FAA62",
"6X c #B5A446",
"7X c #8BB162",
"8X c #8FB262",
"9X c #A7BE61",
"0X c #E95886",
"qX c #F65484",
/* pixels */
"1X1X1X1X1X1X1X1X1X1X1X1X1X1X1X1X1X1X1X1X<X1X1X1X1X1X1X1X1X1X1X1X1X1X1X1X1X1X1X1X1X1X1X1X1X1X1X1X",
"1X1X1X1X1X1X1X1X1X1X1X1X1X1X1X1X1X1X1X<XoX1X1X1X1X1X1X1X1X1X1X1X1X1X1X1X1X1X1X1X1X1X1X1X<X<X,X1X",
"1X1X1X1X1X1X1X1X1X1X1X1X1X1X1X2X1X1X1X X}.1X1X1X1X1X1X2X1X1X1X1X1X1X1X1X1X1X1X1X1X1X1X1X,X2.,X<X",
"1X1X1X1X1X1X2X1X1X1X1X1X1X1X1X1X1X1X1X X X1X1X1X1X1X1X1X1X1X1X2X2X1X1X1X1X1X1X1X1X1X1X1X<X}. X1X",
"1X1X1X1X2X%X-X1X1X1X1X1X1X1X1X1X1X1X1X1X<X1X1X1X1X1X1X1X1X1X2X$X-X1X1X1X1X1X1X1X1X1X1X1X2X1X1X1X",
"1X1X1X1X:X%X-X1X1X1X1X1X1X1X1X1X1X1X1X1X1X1X1X1X1X1X1X1X1X1X:X%X-X1X1X1X1X1X1X1X1X1X1X1X1X1X1X1X",
"1X1X1X2X:X3X3X2X,X1X1X1X,X1X1X1X1X1X1X1X1X1X1X1X1X1X1X1X1X2X:X$X3X1X1X1X1X1X1X1X1X1X1X1X1X1X1X1X",
"1X1X1X2X3X1X1X1X1X1X1X,X1X1X1X1X1X1X1X1X1X1X1X1X1X1X1X1X1X2X3X1X,X1X1X,X1X1X1X1X2X1X1X1X1X1X1X1X",
"1X1X1X1X1X1X1X1X,X X4.4. XoX<X1X1X1X1X1X1X3X=X2X1X1X1X1X1X1X1X1X<X<X X2.4.}..X,X1X1X1X1X1X1X2X3X",
"1X1X1X1X1X1X1X1X X-.U _ ] { } oX,X1X1X<X1X=X=X%X<X<XoX,X1X1X,X,X}.{ [ ` I _ <.,X1X1X1X1X1X1X1X4X",
"1X1X1X1X1X1X1XoX[ P ..#.+._ K ` } oX,X2.[ ` ! ' ' ` ' { XX,X2.] ) ) +.$.@. .` ,X1X1X1X1X1X1X1X1X",
"1X1X1X<XoX1X1XoX` p X.%.%...j a J ' { ] ) ( U U I I U ` <.[ T d f ( @.,.5.o._ ,X1X1X1X1X1X1X1X1X",
"1X1XXX X}.<X1XoX` * p l ..@.X.l q @ 7 l @.%.5.5.5.5.,.@.( f q a ( $.o...o...O.,X1X1X1X1X1X1X1X1X",
"<X1X<X XoX1X1XoXR + # t j l j a t ; t j | X.#.%.%.6.6.5.%.$.o.| S l g g l g _  X1X1X1X1X1X1X1X1X",
"7X1X1X1X<X1X1XoX' 4 # ; 5 # o ; p h a p i a j | ..@.%.,.6.6.5.%.| t ; t a u T ,X1X1X1X1X1X1X1X1X",
"7X1X1X1X1X1X1X1X} T 4 - 5 t y a a a a a a p p a a j l | @.,.5.6.5.X.j q p K { 1X1X1X1X1X1X1X1X1X",
"-X1X1X1X1X1X1X,XXXR 4 . = p f s a a a a s a a p p y p h l | @.,.5.,.| ; ; J 2.,X1X1X1X1X1X1X1X1X",
">X,X;X$X1X1X1X1XXX' 6   & p f p a a a a a a a a a a p p t y l | %.,.@.a * Y  X,X1X<X-X3X1X1X1X1X",
"*X=X>X#X1X1X1X,XoX}.K 4 5 a h a a a a a a a a a a a a a a a p a l o.,.o.L { 1X1X1X1X:X3X3X1X1X1X",
"|.@X|.<X1X1X1X,XoX2.d - t a a a a a a a a a a a a a a a a p y y a l $.$._ <.,X1X1X1X:X%X:X1X1X1X",
",X X<X1X1X1X1X1XXX] 6 = p a a a a a a a a a a a a a a a a a s a p s @.$.@.>. X+X1X1X3X3X:X1X1X1X",
"6X1X1X1X1X1X,X1X XR 6 ; a f a a a a a a a a a a a a a s a a a a t t X.5.,.>.2.oX1X,X1X2X3X1X1X1X",
"3X1X1X1X1X1X1X,X XR e ; a f a a a a a a a a a a a a a a a a a s i p | $.;.>.2.oX1X1X1X1X1X1X1X1X",
"1X1X1X1X1X1X,X,X XQ e ; a s a a a a a a a a a a a a a a a a a a a p l ..@.-.{.1X1X,X,X1X1X1X1X1X",
"1X1X1X1X1X1X1X1X}.R 6 ; a a a a a a a a a a a a a a a a a a a a p p j | #.;.[.+X1X1X1X1X1X1X1X1X",
"1X1X1X1X1X1X1X1XXX[ e - p f a a a a a a a a a a a a a a a a a a a a h l ..<..X1X1X1X1X1X1X1X1X1X",
"1X1X1X1X1X1X1X1X1X}.J * t p a a a a a a a a a a a a a a a a a a a f f f L <.1X1X1X1X1X1X1X1X1X1X",
"1X1X1X1X1X1X1X1X<X X' e & ; p a s a a a a a a a a a a a a a a a a f a d Q 2.1X<X1X1X1X1X1X1XoX1X",
"1X1X1X1X1X1X1X1X1X,X}.K o & t p a a s a a a a a a a a a a a a a f s u d } ,X1X1X1X1X1X1X,X}.}.,X",
"1X1X1X1X1X1X1X1X1X1X,X[ 3 o q y p a a a a a a a a a a a s a a s f a u Y oX1X1X1X1X1X1X1X,X X X1X",
"1X1X1X1X2X3X-X<X,X<X1X X` q & ; ; ; p a a a a a f a f s f a p p i p E 2.,X1X1X1X1X1X1X1X1X1X1X1X",
"1X1X1X1X:X=X-X1X1X1X1X1X}.` w X X % & q y y y y y p p q q 3 % % 6 Y } ,X,X1X1X1X1X1X1X1X1X1X1X1X",
"1X1X1X3X>X3X%X2X1X1X1X1XoX2.H , > : O & & ; ; = ; ; = & & $ > > 0 -.oX1X1X,X1X1X1X1X1X1X1X1X1X1X",
"1X1X1X1X3X1X1X1X1X1X1X1X3.~ V n n v x : .     X   . o O , v n n m S 1.+X1X1X1X1X1X1X1X1X1X1X1X1X",
"1X1X1X1X<X1X1X1X1X1X<X2.W B n r.y.e.w.M v z z z z x v n Z e.e.r.Z V H { 1X1X1X1X1X1X1X1X1X1X1X3X",
"1X1X1X1X1X1X1X1X1X1X,X' = < C t.y.u.u.y.w.w.w.w.w.w.w.e.u.u.u.r.A b 9 Y  X1X1X1X1X1X1X1X1X1X1X-X",
"1X1X1X1X1X1X1X1X1X1XoXQ @ * s D t.y.r.y.a.g.h.h.c.s.y.r.y.y.e.n < ; 5 J  X1X1X1X1X1X1X1X1X1X1X1X",
"2X1X<X X<X1X1X1X1X1XXXT * e k | F 9.e.u.h.D.F.F.S.h.s.s.y.y.a.w.b 3 3 P  X1X1X1X1X1X1X1X1X1X1X1X",
"1X1X<X X X1X1X1X1X1XoXR & y k ( D q.a.u.h.K.L.L.G.V.c.h.u.u.h.s.C 1 6 W .X1X1X1X1X1X1X1X1X1X1X1X",
"<X2X<X X,X1X1X1X1X1XoXT # % 3 q m f.C.f.f.S.H.H.H.G.C.s.r.u.v.g.Z 2 K 3.+X1X1X1X1X1X1X1X1X1X1X2X",
"5X1X1X1X1X1X1X1X1X1XoX[ 9 @ . : M c.G.S.V.S.H.H.L.G.b.u.N u.b.b.p.S { 1X1X1X1X1X1X1X1X1X1X1X1X1X",
"8X1X1X1X1X1X1X1X1X1XoX2.W V N q.u.v.G.L.G.F.H.H.F.b.a.r.w.u.c.J.U.=.4.<X1X1X1X1X1X1X1X1X1X1X1X1X",
"-X1X1X1X1X1X1X1X1X,X,X<.~ j.C.D.V.v.G.L.H.H.H.n.x.0.N i.j.j.k.Q.'.).7.} 1X1X1X1X1X1X2X1X1X1X1X1X",
">X1X:X3X1X1X1X1X1X1XoX;.F B.L.K.C.C.G.H.L.P.W.Q.(.N.N._.Q.E.Y.`.0X/.5.<X1X1X1X1X1X1X-X3X1X1X1X1X",
"=X=X>X3X1X1X1X1X1X+X#X&.i.S.L.K.S.C.H.L.P.W.].0X`.`.`.'.].!.'.).7.&.3.<X1X1X1X1X1X1X:X$X3X1X1X1X",
"|.@X|.,X1X1X1X1X1X#XoX;.l.C.J.D.C.D.G.P.W.qXqXqX'.W.I.A.Z.Y._./.&..X1X1X1X1X1X1X1X<X:X%X:X1X1X1X",
"1XXXoX1X1X1X1X1X1X1X1XOX*.~.M.m.l.d.v.B.A.R.T.R.U.k.l.z.m.~.^.&.O.,X1X1X1X1X1X1X1X1X$X$X:X1X1X1X",
"6X1X1X1X1X1X1X1X1X1X1X1XoX:.&X] d 2 e.y.0.8.8.8.8.c r ^ / G 8 Q .X2X1X1X1X1X1X4X9X<X1X1X3X1X1X1X"
};
