/* XPM */
static char *result[] = {
/* columns rows colors chars-per-pixel */
"48 48 208 2 ",
"   c #000C07",
".  c #040B09",
"X  c #0C0D0B",
"o  c #160A07",
"O  c #00100D",
"+  c #0C120C",
"@  c #16150A",
"#  c #091A15",
"$  c #131212",
"%  c #121C15",
"&  c #1A1915",
"*  c #141A19",
"=  c #1C1C1B",
"-  c #250707",
";  c #2C0A0A",
":  c #3A010B",
">  c #26150E",
",  c #3D0712",
"<  c #201B1B",
"1  c #0F2418",
"2  c #142517",
"3  c #16221A",
"4  c #1B231C",
"5  c #0C2120",
"6  c #1D2522",
"7  c #1A3221",
"8  c #1F3B28",
"9  c #242424",
"0  c #242A26",
"q  c #292B27",
"w  c #2B2728",
"e  c #252C29",
"r  c #2C2C2C",
"t  c #312E2F",
"y  c #2D322E",
"u  c #233829",
"i  c #353826",
"p  c #2F3230",
"a  c #333434",
"s  c #373838",
"d  c #3C3D3C",
"f  c #47010C",
"g  c #520208",
"h  c #4E0717",
"j  c #570112",
"k  c #5A0915",
"l  c #521D1F",
"z  c #670315",
"x  c #6B011B",
"c  c #73021C",
"v  c #7C011A",
"b  c #56211F",
"n  c #5C1822",
"m  c #7E0022",
"M  c #48292B",
"N  c #70252F",
"B  c #124A36",
"V  c #25422E",
"C  c #294C34",
"Z  c #2C4D36",
"A  c #344439",
"S  c #364939",
"D  c #2B5136",
"F  c #2D5439",
"G  c #2F5A3C",
"H  c #315436",
"J  c #33533C",
"K  c #3D563D",
"L  c #315B3D",
"P  c #3F6A3E",
"I  c #4E4637",
"U  c #524C3C",
"Y  c #634B3F",
"T  c #015750",
"R  c #3E4541",
"E  c #3C4942",
"W  c #285741",
"Q  c #3A5342",
"!  c #3B5D46",
"~  c #336342",
"^  c #366A46",
"/  c #3E634A",
"(  c #396B48",
")  c #3D744E",
"_  c #3E7750",
"`  c #3E7951",
"'  c #434443",
"]  c #474A47",
"[  c #4B4C4B",
"{  c #49584D",
"}  c #4C5950",
"|  c #545454",
" . c #535C54",
".. c #5B5B5B",
"X. c #695648",
"o. c #785F5E",
"O. c #44664F",
"+. c #48694A",
"@. c #46744D",
"#. c #446D51",
"$. c #5A645B",
"%. c #477551",
"&. c #417D53",
"*. c #4B7C54",
"=. c #547A58",
"-. c #646859",
";. c #5F6160",
":. c #636463",
">. c #696969",
",. c #756B62",
"<. c #8F0106",
"1. c #920108",
"2. c #890117",
"3. c #920015",
"4. c #840123",
"5. c #8B0125",
"6. c #8C0028",
"7. c #93002A",
"8. c #9B002D",
"9. c #9A0B2E",
"0. c #8A1C37",
"q. c #991737",
"w. c #A50130",
"e. c #AA0032",
"r. c #AF0E3A",
"t. c #B50135",
"y. c #BA0237",
"u. c #B70639",
"i. c #BC0138",
"p. c #A6163B",
"a. c #9A2638",
"s. c #98343E",
"d. c #C50025",
"f. c #C5013C",
"g. c #CB013E",
"h. c #D1013E",
"j. c #DC013E",
"k. c #E8013C",
"l. c #993643",
"z. c #B22E52",
"x. c #CE0040",
"c. c #D40143",
"v. c #DA0646",
"b. c #D41042",
"n. c #DF1C52",
"m. c #E40243",
"M. c #EB0046",
"N. c #E50149",
"B. c #EC014B",
"V. c #E70D4A",
"C. c #F4014D",
"Z. c #F90648",
"A. c #FA014D",
"S. c #F50551",
"D. c #FD0052",
"F. c #E11B50",
"G. c #FB1956",
"H. c #D82B57",
"J. c #CD395F",
"K. c #E4285B",
"L. c #DB3A67",
"P. c #E02D62",
"I. c #FF2262",
"U. c #FB2B67",
"Y. c #E63B66",
"T. c #F83B6E",
"R. c #FF3A73",
"E. c #9C515B",
"W. c #9F5167",
"Q. c #A34E68",
"!. c #B64868",
"~. c #966368",
"^. c #C9486F",
"/. c #EC4F7D",
"(. c #FD4376",
"). c #FF497D",
"_. c #E5527E",
"`. c #438256",
"'. c #488556",
"]. c #4C8856",
"[. c #45865A",
"{. c #46895B",
"}. c #498D5E",
"|. c #518A5E",
" X c #54965F",
".X c #569A5F",
"XX c #5B9C5E",
"oX c #609650",
"OX c #629952",
"+X c #64A25B",
"@X c #6BA758",
"#X c #6DA958",
"$X c #72A955",
"%X c #4C8E60",
"&X c #479162",
"*X c #4C9362",
"=X c #519661",
"-X c #539860",
";X c #6BA061",
":X c #7FAA62",
">X c #B5A446",
",X c #8BB162",
"<X c #8FB262",
"1X c #A6BD62",
"2X c #E45783",
"3X c #FA5484",
"4X c #F85A8B",
"5X c #E8608C",
/* pixels */
"*X*X*X*X*X*X*X*X*X*X*X*X*X*X*X*X*X*X*X*X*X*X*X*X*X*X*X*X*X*X*X*X*X*X*X*X=X*X*X*X*X*X*X*X*X*X*X*X",
"*X*X*X*X*X*X*X*X*X*X*X*X*X*X*X*X*X*X*X&X}.*X*X*X*X=X*X*X*X*X*X*X*X*X*X*X*X*X*X*X*X*X*X*X&X&X%X*X",
"*X*X*X*X*X*X*X*X*X*X*X*X*X*X*X*X*X*X&X[.`.&X*X*X*X*X*X*X=X*X*X*X*X*X*X*X*X*X*X*X*X*X*X*X&X`.[.*X",
"*X*X*X*X*X*X=X*X*X*X*X*X=X*X*X*X*X*X&X'.[.*X*X*X*X*X*X*X*X*X*X*X*X*X*X*X*X*X*X*X*X*X*X*X*X[.[.*X",
"*X*X*X*X=XXX+X*X*X*X*X*X*X*X*X*X*X*X*X*X*X*X*X*X*X*X*X*X*X*X=X-X+X*X*X*X*X*X*X*X*X*X*X=X*X*X*X*X",
"*X*X*X=X#XXX+X*X*X*X*X*X*X*X*X*X*X*X*X*X*X*X*X*X*X*X*X*X*X*X#X;X+X*X*X*X*X*X*X*X*X*X*X*X*X*X*X*X",
"*X*X*X=X#X-X-X*X*X*X*X*X*X*X&X*X*X*X*X*X*X*X*X*X*X*X*X*X*X*X#X-X.X*X*X*X&X*X*X*X*X*X*X*X*X*X*X*X",
"*X*X=X=X-X*X*X*X*X*X*X*X*X*X*X*X*X*X*X*X*X*X*X*X*X*X*X*X*X*X.X*X*X*X*X*X*X*X*X&X*X*X*X*X*X*X*X*X",
"*X*X*X*X*X*X*X*X*X%X}.[.{.}.%X&X&X*X*X*X*X-X+X=X*X*X*X&X*X*X*X*X*X%X&X%X`.[.%X%X*X*X*X*X*X*X*X*X",
"*X*X*X*X*X*X*X*X*X`.O.E J ( ) [.*X*X*X&X*X+XOXXX*X*X*X&X*X*X*X*X&X`._ ^ Q A ! &.*X*X*X*X*X*X*X;X",
"*X*X*X*X*X*X*X*X}.( s [ | { Q Z ~ `.%X%X`.( ( ~ ^ ~ P ^ ` %X%X`.^ Q Q {  .| E / &X*X*X*X*X*X*X*X",
"*X*X*X&X&X*X*X*X[.F y | ;...' a u Z ) &./ S A s A A a Z ! ) _ F u y R ..:.:.[ ! }.*X*X*X*X*X*X*X",
"*X*X[.[.`.&X*X*X[.Z 3 r d [ | [ s * + 0 R | ;.:.>.:.;.;.[ A 0 6 r ] | [ [ [ ] O.}.*X*X*X*X*X*X*X",
"&X*X&X[.}.*X*X*X[.C X $ q d ' d r 9 = 0 s ' | ..;.;.>.>.:...| ] R I d s s d s ! {.*X*X*X*X*X*X=X",
",X*X*X*X*X*X*X*X{.F % $ < = X . = r a r e e p s R [ ..;.:.>.>.:.| d = = q e e L {.*X*X*X*X*X=X*X",
",X*X*X*X*X*X*X*X%X_ V 2 = 6 9 w y r r r r r r r r a A M ] ..;.>.>...[ r 9 y Z ) &X*X*X*X*X*X*X*X",
"+X*X*X&X*X*X&X%X%X`.D % X = q r r r r r r r r q w w w w p d [ ..:.>...s = 4 Z &.*X&X*X*X*X*X*X*X",
"$X&X@XXX*X*X*X%X&X[.G 1 . * r r r r r r r r r r r r r e w 6 r s [ ..:.[ 9 % G {.&X*X+X-X*X*X*X*X",
"OXOX$X X*X*X*X*X&X*X` V % = r a r r r r r r r r r r r r r r r w r ' | ;.] Z _ %X&X%X#X.X-X*X*X*X",
"'.oX].%X*X*X*X*X*X*X_ u = 9 r r r r r r r r r r r r r r r r r w 9 r ' .. .! &.%X*X*X#XXX#X*X*X*X",
"*X{.}.&X*X*X*X*X%X'.P 2 = w r r r r r r r r r r r r r r r r r r r w a |  .} #.{.%X*X.X.X@X&X*X*X",
">X*X*X*X*X*X*X*X}.`.D 3 6 r r r r r r r r r r r r r r r r r r r r 9 r | :.$.#.` }.*X%X=X X*X*X*X",
".X*X*X*X*X*X*X*X&X&.D 3 < r p r r r r r r r r r r r r r r r r r r 9 r [ .. .O.*.*X*X*X*X*X*X*X*X",
"*X*X*X*X*X*X*X&X*X`.G 3 6 r r r r r r r r r r r r r r r r r r r r q r d [  .@.*.}.*X&X*X*X*X*X*X",
"*X*X*X*X*X*X*X*X}.&.D 4 6 r r r r r r r r r r r r r r r r r r r r q r s [  .+.&.&X*X&X*X*X*X*X*X",
"*X*X*X*X*X*X*X*X*X{.P 3 = q r r r r r r r r r r r r r r r r r r r r r a d { %.{.*X*X*X*X*X*X*X*X",
"*X*X*X*X*X*X*X*X*X*X) 8 * 9 q r r r r r r r r r r r r r r r r r r r t a a S &.*X*X*X*X*X*X*X&X=X",
"*X*X*X*X*X*X*X*X*X*X`.F 3 * 9 w r r r r r r r r r r r r r r r r r r r e u L `.*X*X*X*X*X*X%X%X&X",
"*X*X*X*X*X*X*X*X*X*X}.&.u X * w r r r t r r r r r r r r r r r t r y r 9 V _ %X*X*X*X*X*X%X[.`.%X",
"*X*X*X*X*X*X=X*X*X*X*X}.G # $ < w r r r r r r r r r r r r r r r r a r 6 G }.*X*X*X*X*X*X&X'.[.%X",
"*X*X*X*X*XXX+X*X*X*X*X*X&.F = * = < 9 w r r r r r p r r t t r r e e q F &.*X*X*X*X*X*X*X*X*X&X*X",
"*X*X*X*X#XXX+X*X*X*X*X&X%X&.D * O O O 5 6 w r w w w r r 6 6 5 # # 2 F `.%X%X*X*X*X*X*X*X*X*X*X*X",
"*X*X*X-X#X.X.X*X*X*X&X&X*X*X@.i ; - o X $ = < < = < < & * * $ - - i @.}.*X*X&X*X*X*X*X*X*X=X*X*X",
"*X*X*X=X.X*X*X*X*X*X=X*X*X'.U n x x k : o .           . o : j x x n I %.*X*X*X*X*X*X*X*X*X*X*X*X",
"*X*X*X*X*X*X*X*X*X*X*X&X&.S l c 4.5.4.m x h : : : : f j x v 4.6.5.m l U {.&X*X*X*X*X*X*X*X*X*X=X",
"*X*X*X*X*X*X*X*X*X*X*X}.H > f c 7.8.8.8.7.4.m m m m 4.4.6.8.8.8.9.4.b J _ %X*X*X*X*X*X*X*X*X*X+X",
"*X*X*X*X*X*X*X*X*X*X*X{.H + o g 4.8.8.6.7.w.t.t.y.y.e.7.5.6.8.7.4.N d E O.}.*X*X*X*X=X*X*X*X*X*X",
"*X*X&X[.*X*X*X*X*X*X*X{.S o o k 8.y.w.4.7.f.N.B.B.c.y.e.w.8.7.4.k M E ] O.}.*X*X*X*X*X*X*X*X*X*X",
"*X*X}.[.[.*X*X*X*X*X*X].K % @ z w.f.t.7.8.x.C.D.D.C.g.i.i.w.6.c ; e ] ] O.{.*X*X*X*X*X*X*X*X*X*X",
"&X*X*X`.}.*X*X*X*X*X&X}.`.P 1 , 6.w.f.x.e.t.B.D.A.A.C.c.e.8.6.z ; e ] ' / }.*X*X*X*X*X*X*X*X*X*X",
":X*X*X*X*X*X*X*X*X*X*X*X*X=.N t.y.w.f.B.j.g.M.A.D.D.Z.g.8.5.4.z - 2 r t Q {.*X*X*X*X*X*X*X*X*X*X",
"<X*X*X*X*X*X*X*X*X*X*X*X'.X.z.M.v.u.f.A.A.B.A.A.D.C.h.e.5.6.7.2.k > + $ Z {.*X*X*X*X*X*X*X*X=X*X",
";X*X*X*X*X*X*X*X*X*X*X|.X.r.B.D.B.g.g.S.G.G.A.k.k.d.2.v 9.p.r.y.u.0.s W &.&X*X*X*X*X*X*X*X*X*X*X",
"#X*X;XXX*X*X*X*X*X*X*X|.X.q.c.C.C.v.k.G.(.).R.T.Y.J.z.!.^.L.F.m.V.P.!.o.=.%X*X*X*X*X;X-X*X*X*X*X",
"+XOX$X X*X*X*X*X*X*X*X%X*.Y 0.g.B.N.k.G.(.4X)././._.2X5X5X(.G.Z.G.R./.W.$.=X*X*X*X*X#X.X-X*X*X*X",
"'.oX].}.*X*X*X*X*X*X*X*X%X&.U p.N.N.k.j.V.n.K.U.I.U.3X4X).I.Z.M.V.T.2XQ.-.*X*X*X*X*X#XXX#X*X*X*X",
"&X[.}.=X*X*X*X*X*X*X*X*X=X%X*.X.s.a.s.l.s.a.9.y.h.b.H.P.H.b.y.q.l.E.~.,.|.*X*X&X*X*X.X.X;X*X*X*X",
">X=X*X*X*X*X*X*X*X*X*X%X%X@X1X{.^ B B T B B @ g 2.3.<.<.1.3.l 7 ~ ( ( [.*X*X*X;X1X*X*X*X.X*X*X*X"
};
