/* XPM */
static char *cm93LTEtY29sdW1uLTE_[] = {
/* columns rows colors chars-per-pixel */
"48 48 213 2 ",
"   c #000100",
".  c #0B0B0B",
"X  c #040908",
"o  c #16070A",
"O  c #011301",
"+  c #00110D",
"@  c #061B04",
"#  c #1C1405",
"$  c #000012",
"%  c #00001B",
"&  c #070A12",
"*  c #021613",
"=  c #051817",
"-  c #121513",
";  c #1D1D1D",
":  c #181917",
">  c #14041F",
",  c #270105",
"<  c #350208",
"1  c #390A17",
"2  c #251916",
"3  c #012416",
"4  c #1B221C",
"5  c #12290A",
"6  c #252919",
"7  c #020324",
"8  c #180922",
"9  c #00043A",
"0  c #14003F",
"q  c #230923",
"w  c #3E0126",
"e  c #261B26",
"r  c #250937",
"t  c #2B1237",
"y  c #3B0E34",
"u  c #082E2D",
"i  c #252424",
"p  c #2A2629",
"a  c #2D2C2C",
"s  c #292824",
"d  c #322E2D",
"f  c #332525",
"g  c #2F302F",
"h  c #31312E",
"j  c #2F2F30",
"k  c #322E31",
"l  c #31203E",
"z  c #2D3231",
"x  c #323232",
"c  c #3A3434",
"v  c #3B3B3A",
"b  c #353A36",
"n  c #4E0317",
"m  c #5E0018",
"M  c #54070B",
"N  c #69001C",
"B  c #72011E",
"V  c #6D0C14",
"C  c #4C1625",
"Z  c #540F2E",
"A  c #680524",
"S  c #7C0025",
"D  c #740223",
"F  c #681024",
"G  c #740237",
"H  c #761026",
"J  c #4C243A",
"K  c #55293C",
"L  c #42353F",
"P  c #54222D",
"I  c #006305",
"U  c #39443B",
"Y  c #636209",
"T  c #52563D",
"R  c #71613B",
"E  c #060A46",
"W  c #170444",
"Q  c #360459",
"!  c #311353",
"~  c #312144",
"^  c #181972",
"/  c #361B69",
"(  c #39007C",
")  c #3F3873",
"_  c #470543",
"`  c #4B0052",
"'  c #4E1355",
"]  c #791C5A",
"[  c #522442",
"{  c #413E43",
"}  c #5D285C",
"|  c #622D4C",
" . c #783049",
".. c #480465",
"X. c #561A63",
"o. c #480677",
"O. c #540E78",
"+. c #51127A",
"@. c #4E1770",
"#. c #6B1D7C",
"$. c #5A2375",
"%. c #4D2E71",
"&. c #652B62",
"*. c #732D71",
"=. c #3F4842",
"-. c #434444",
";. c #4B4B4C",
":. c #444746",
">. c #514C4D",
",. c #495649",
"<. c #545454",
"1. c #5C5B5B",
"2. c #585658",
"3. c #554F53",
"4. c #645458",
"5. c #5E655D",
"6. c #6D7053",
"7. c #5C576B",
"8. c #665C66",
"9. c #5F6060",
"0. c #636362",
"q. c #6B6A6A",
"w. c #6E6B69",
"e. c #6D6676",
"r. c #796A75",
"t. c #7F6B72",
"y. c #8C0B0F",
"u. c #8C002B",
"i. c #92012D",
"p. c #9C1327",
"a. c #9D0534",
"s. c #9F1630",
"d. c #A2012F",
"f. c #AA0133",
"g. c #B50136",
"h. c #B10A31",
"j. c #B32539",
"k. c #C3003A",
"l. c #D00138",
"z. c #937A1D",
"x. c #96034B",
"c. c #80357C",
"v. c #863245",
"b. c #CE0141",
"n. c #D70543",
"m. c #D51647",
"M. c #E80148",
"N. c #F5004E",
"B. c #E21547",
"V. c #CF224B",
"C. c #CA3862",
"Z. c #F73568",
"A. c #8B7252",
"S. c #9F5166",
"D. c #A84B67",
"F. c #83737B",
"G. c #CF597C",
"H. c #FC4D7A",
"J. c #EB507C",
"K. c #719C01",
"L. c #938E3B",
"P. c #9EB93B",
"I. c #A1B821",
"U. c #908716",
"Y. c #D5B435",
"T. c #948952",
"R. c #8C9764",
"E. c #929163",
"W. c #949473",
"Q. c #A28F77",
"!. c #ABAD6A",
"~. c #D3C44F",
"^. c #370080",
"/. c #581683",
"(. c #661A87",
"). c #6D2285",
"_. c #883488",
"`. c #857583",
"'. c #866D81",
"]. c #FF5181",
"[. c #EB658C",
"{. c #91808F",
"}. c #9C8599",
"|. c #8F828D",
" X c #A1879D",
".X c #A2928D",
"XX c #99B292",
"oX c #B1A388",
"OX c #B398AF",
"+X c #AF94AA",
"@X c #A4A2A7",
"#X c #BEA8BB",
"$X c #B7B4BD",
"%X c #C1ACBE",
"&X c #A4C38B",
"*X c #CDD18A",
"=X c #D3EC93",
"-X c #C6D1BB",
";X c #C9D8A4",
":X c #DCECAC",
">X c #D6E1BD",
",X c #CAA7C5",
"<X c #D3ABCD",
"1X c #E4BEDE",
"2X c #CEC9D4",
"3X c #E5C0DF",
"4X c #D8E2CA",
"5X c #E9EFD3",
"6X c #EAC5E5",
"7X c #F3CCEF",
"8X c #FBFFE6",
"9X c None",
"0X c black",
/* pixels */
"9X9X9X9X9X9X9X9X9X9X9X9X9X9X9X9X9X9X9X9X9X9X9X9X9X9X9X9X9X9X9X9X9X9X9X9X9X9X9X9X9X9X9X9X9X9X9X9X",
"9X9X9X9X9X9X9X9X9X9X9X9X9X9X9X9X9X9X9X9X9X9X9X9X9X9X9X9X9X9X9X9X9X9X9X9X9X9X9X9X9X9X9X9X9X9X9X9X",
"9X9X9X9X9X9X9X9X9X9X9X9X9X9X9X9X9X9X9X9X9X9X9X9X9X9X9X9X9X9X9X9X9X9X9X9X9X9X9X9X9X9X9X9X9X9X9X9X",
"9X9X9X9X9X9X9X9X9X9X9X9X9X9X9X9X9X9X9X9X9X9X9X9X9X9X9X9X9X9X9X9X9X9X9X9X9X9X9X9X9X9X9X9X9X9X9X9X",
"9X9X9X9X9X9X9X9X9X9X9X9X9X9X9X9X9X9X9X9X9X9X9X9X9X9X9X9X9X9X9X9X9X9X9X9X9X9X9X9X9X9X9X9X9X9X9X9X",
"9X9X9X9X9X9X9X9X9X9X9X9X9X9X9X9X9X9X9X9X9X9X9X9X9X9X9X9X9X9X9X9X9X9X9X9X9X9X9X9X9X9X9X9X9X9X9X9X",
"9X9X9X9X9X9X9X9X9X9X9X9X9X9X9X9X9X9X9X9X9X9X9X9X9X9X9X9X9X9X9X9X9X9X9X9X9X9X9X9X9X9X9X9X9X9X9X9X",
"9X9X9X9X9X9X9X9X9X9X9X9X9X9X9X9X9X9X9X9X9X9X9X9X9X9X9X9X9X9X9X9X9X9X9X9X9X9X9X9X9X9X9X9X9X9X9X9X",
"9X9X9X9X9X9X9X9X9X9X9X9X9X9X9X9X9X9X9X9X9X9X9X9X9X9X9X9X9X9X9X9X9X9X9X9X9X9X9X9X9X9X9X9X9X9X9X9X",
"9X9X9X9X9X9X9X9X9X9Xb x 9X9X9X9X9X9X9X9X9X9X9X9X9X9X9X9X9X9X9X9X9X9X9X9Xa g 9X9X9X9X9X9X9X9X9X9X",
"9X9X9X9X9X9X9X9X9Xp b -.U @   9X9X9X9X9X9X9X9X9X9X9X9X9X9X9X9X9X9X  O v ,.-.b 9X9X9X9X9X9X9X9X9X",
"9X9X9X9X9X9X9X9X9XO 1.F.F.8.p i : 9X9X9Xx x x z a x a p 9X9X9X: e k 8.F.`.q.p 9X9X9X9X9X9X9X9X9X",
"9X9X9X9X9X9X9X9X9X  }.<X,XOXF.4.a     x ;.1.0.0.0.0.0.2.:.s   p 1.{.OX<X<X}.  9X9X9X9X9X9X9X9X9X",
"9X9X9X9X9X9X9X9X9X  `.<X7X1X+X2.- 4 p x =.>.2.0.9.q.q.0.0.2.;.b 8.@X6X6X,X'.  9X9X9X9X9X9X9X9X9X",
"9X9X9X9X9X9X9X9X9X  { }.7X6X}.~   b b k p a b -.:.2.9.9.q.q.q.,.1.+X3X6X`.3.  9X9X9X9X9X9X9X9X9X",
"9X9X9X9X9X9X9X9X9X9X  8.,X Xp j k x k j k k a a x b v =.<.9.0.q.0.=. X,X`.>.9X9X9X9X9X9X9X9X9X9X",
"9X9X9X9X9X9X9X9X9X9X  d r.<.  g x j g x z a a a a p a k v :.<.9.0.=.0.t.2.b 9X9X9X9X9X9X9X9X9X9X",
"9X9X9X9X9X9X9X9X9X9X.     : v b x g x g k k x x z x j a p s b :.2.q.;.  - : 9X9X9X9X9X9X9X9X9X9X",
"9X9X9X9X9X9X9X9X9X9X9X. i c ~ b h c d x b x z j a x c b x h c h b 3.9.9.i 9X9X9X9X9X9X9X9X9X9X9X",
"9X9X9X9X9X9X9X9X9X9X9X- z i     $ e %     s x x b k i     7 q       <.q.=.9X9X9X9X9X9X9X9X9X9X9X",
"9X9X9X9X9X9X9X9X9X9X. : a k { 5.:.3 ,.5.;.s s k x i i ;.<.,.3 =.5.b :.2.<.-.9X9X9X9X9X9X9X9X9X9X",
"9X9X9X9X9X9X9X9X9X9X; ;   8.@X4XXXI &X-X$X;.  ; 4   ;.$X-X&XI XX4X@Xe.T 0.<.9X9X9X9X9X9X9X9X9X9X",
"9X9X9X9X9X9X9X9X9X9Xi ;   e.$X8X;XK.=X5X2X<.  v ~ X <.2X5X:XK.;X8X$Xr.6 1.<.9X9X9X9X9X9X9X9X9X9X",
"9X9X9X9X9X9X9X9X9X9X; ;   7.@X5X;XI.=X>X$X:.{ r.t.L =.$X4X:XP.=X5X@X8.5 2.;.9X9X9X9X9X9X9X9X9X9X",
"9X9X9X9X9X9X9X9X0X0X- ; d k -.8.W.!.R.6.:.  `.#X$X`.  -.w.W.!.R.2.-.x T 1.;.9X9X9X9X9X9X9X9X9X9X",
"9X9X9X9X9X9X9X9X0X0X  : x s     ,.6.v       8.{.{.8.      U 6.T     s ~ :.=.9X9X9X9X9X9X9X9X9X9X",
"9X9X9X9X9X9X9X9X0X0X0X. e g b g & & 7 a v v -     - v b a $ & 7 x v v x a 9X9X9X9X9X9X9X9X9X9X9X",
"9X9X9X9X9X9X9X9X0X0X0XX - i a x x b z j k j x k c x g x z g x x a x x p ; 9X9X9X9X9X9X9X9X9X9X9X",
"9X9X9X9X9X9X9X9X9X9X9X9XX : i d x c x x k a x b c x a d x x c x x b a ; 9X9X9X9X9X9X9X9X9X9X9X9X",
"9X9X9X9X9X9X9X9X9X9X9X9XX - ; p k a g x z d x g z z x z x h g x k c i . 9X9X9X9X9X9X9X9X9X9X9X9X",
"9X9X9X9X9X9X9X9X9X9X9X9X0Xo : f e i a d d x z c x x x g x c d d k d i 9X9X9X9X9X9X9X9X9X9X9X9X9X",
"9X9X9X9X9X9X9X9X9X9X9X9X9X9X+ O * = ; s a a h h h a a a a 4 u * O * 9X9X9X9X9X9X9X9X9X9X9X9X9X9X",
"9X9X9X9X9X9X9X9X9X9X9X9X9X9X9Xn 1 2 + * 4 i 6 s s i 6 e 2 2 P P C 0X0X0X9X9X9X9X9X9X9X9X9X9X9X9X",
"9X9X9X9X9X9X9X9X9X9X9X9X9X9XN d.i.n     + 3 $       3 + o V h.C.D. .0X0X9X9X9X9X9X9X9X9X9X9X9X9X",
"9X9X9X9X9X9X9X9X9X9X9X9X9Xo D l.n.k.g.s.H , Y L.E.6., F g.m.Z.J.J.G.S.0X9X9X9X9X9X9X9X9X9X9X9X9X",
"9X9X9X9X9X9X9X9X9X9X9X9XX + A b.N.N.N.l.s., U.~.!.E., p.n.Z.].].H.[.S.@ 9X9X9X9X9X9X9X9X9X9X9X9X",
"9X9X9X9X9X9X9X9X9X9X9X9X. + 1 D b.n.g.d.y.$ z.Y.~.L.  y.y.j.].Z.m.v.=.z 0X0X9X9X9X9X9X9X9X9X9X9X",
"9X9X9X9X9X9X9X9X9X9X9X9Xo = = o S a.G Z Z W 4.A.T.6.W Z Z ] C.V.y.# u >.x 0X9X9X9X9X9X9X9X9X9X9X",
"9X9X9X9X9X9X9X9X9X9X9X9X. - : o & 7 9 E E / / ^ ^ / ' E / ).x.D @ 3 ;.1.x 9X9X9X9X9X9X9X9X9X9X9X",
"9X9X9X9X9X9X9X9X9X9X9X9Xo X + C C J [ } &...A.Q..XF.` &.*._.$.~ @ f >.1.x 9X9X9X9X9X9X9X9X9X9X9X",
"0X0X0X0X0X0X0X0X9X9X0X0X0X< n F P K | | | _ A.!.Q.F.` &.*.&.! u 6 u -.;.z 9X9X9X9X9X9X9X9X9X9X9X",
"0X0X0X0X0X0X0X0X9X9X0X0X0XN N F P [ J K [ y R T.Q.F...} &.' e i g p a c 9X9X9X9X9X9X9X9X9X9X9X9X",
"0X0X0X0X0X0X0X0X9X9X9X, n B S w 0 W Q o.o.O.%.) %.%./.( +.(.).X.1 F M 0X9X9X9X9X9X9X9X9X9X9X9X9X",
"0X0X0X0X0X0X0X0X9X9X9X< N u.u.w 9 0 W Q o.O.( ^.( /./.(.(.(.).X.G k.h.9X9X9X9X9X9X9X9X9X9X9X9X9X",
"0X0X0X0X0X0X0X0X0X0X0X0XD u.u.A 1 q 8 r Q Q @.$.$.@.+.).#.X.' ' x.M.l.0X9X9X9X9X9X9X9X9X9X9X9X9X",
"0X0X0X0X0X0X0X0X0X0X0X0X, m D u.V < - & e ~ ~ l t r t ' l q 8 A h.l.h.0X9X9X9X9X9X9X9X9X9X9X9X9X",
"0X0X0X0X0X0X0X0X0X0X0X0X0X0Xm S m , 4 - 6 { :.9X9X9XO # O X   M u.d.9X9X9X9X9X9X9X9X9X9X9X9X9X9X",
"0X0X0X0X0X0X0X0X0X0X0X0X0X0X0X0X9X& p ; s >.0.9X9X9X9X9X9X9X9X0X9X9X9X9X9X9X9X9X9X9X9X9X9X9X9X9X"
};
