/* XPM */
static char *result[] = {
/* columns rows colors chars-per-pixel */
"48 48 206 2 ",
"   c #000100",
".  c #00030E",
"X  c #0A0B0B",
"o  c #000B09",
"O  c #120906",
"+  c #00130E",
"@  c #001400",
"#  c #08001C",
"$  c #17061A",
"%  c #001D1D",
"&  c #091614",
"*  c #151515",
"=  c #1D161D",
"-  c #151818",
";  c #1B1A1B",
":  c #191714",
">  c #3E000F",
",  c #3E0611",
"<  c #241215",
"1  c #09200F",
"2  c #002416",
"3  c #19251B",
"4  c #0E2F07",
"5  c #2A3D00",
"6  c #20231E",
"7  c #070029",
"8  c #1D0226",
"9  c #00192E",
"0  c #1B1523",
"q  c #00043C",
"w  c #1C0037",
"e  c #001F36",
"r  c #141433",
"t  c #221C21",
"y  c #28003E",
"u  c #201E33",
"i  c #380B20",
"p  c #1D3222",
"a  c #052D25",
"s  c #222322",
"d  c #2C2C2C",
"f  c #282925",
"g  c #302E2F",
"h  c #2E312C",
"j  c #2E382B",
"k  c #34362B",
"l  c #2F2F31",
"z  c #312E32",
"x  c #2E3131",
"c  c #203331",
"v  c #313131",
"b  c #353B34",
"n  c #3C3C3C",
"m  c #383A3A",
"M  c #490507",
"N  c #450113",
"B  c #4B0016",
"V  c #580415",
"C  c #6D0000",
"Z  c #62001C",
"A  c #7D001A",
"S  c #4A003F",
"D  c #6A0223",
"F  c #730124",
"G  c #7C022A",
"H  c #721637",
"J  c #463A3B",
"K  c #3B473A",
"L  c #6A6000",
"P  c #43423C",
"I  c #000057",
"U  c #250044",
"Y  c #2B0244",
"T  c #2D004B",
"R  c #371844",
"E  c #36025A",
"W  c #26144B",
"Q  c #3C2B55",
"!  c #3A096C",
"~  c #370078",
"^  c #481352",
"/  c #450252",
"(  c #483A43",
")  c #50295B",
"_  c #6B2948",
"`  c #7B3753",
"'  c #712949",
"]  c #46086B",
"[  c #571C64",
"{  c #4E0A77",
"}  c #4E1770",
"|  c #5B167D",
" . c #681C7A",
".. c #592960",
"X. c #68277D",
"o. c #3E4B41",
"O. c #454445",
"+. c #4B4A4B",
"@. c #484A46",
"#. c #504E4F",
"$. c #4F504F",
"%. c #515D40",
"&. c #4F5151",
"*. c #535453",
"=. c #5A545B",
"-. c #5D5C5C",
";. c #595856",
":. c #6B5A4E",
">. c #5E605D",
",. c #69715B",
"<. c #5E5A69",
"1. c #635A64",
"2. c #695966",
"3. c #785472",
"4. c #5F6060",
"5. c #656565",
"6. c gray42",
"7. c #676866",
"8. c #73706F",
"9. c #746A73",
"0. c #7A7479",
"q. c #AF001B",
"w. c #85022B",
"e. c #93012C",
"r. c #980131",
"t. c #A8032A",
"y. c #BC0225",
"u. c #A80234",
"i. c #B50039",
"p. c #CE0035",
"a. c #C4023C",
"s. c #CA003A",
"d. c #8B3B5A",
"f. c #923F72",
"g. c #8F3B69",
"h. c #DE0043",
"j. c #E20247",
"k. c #FC0B4E",
"l. c #F70047",
"z. c #E81F52",
"x. c #FB1956",
"c. c #FF205C",
"v. c #E72457",
"b. c #DC0065",
"n. c #FF3B6C",
"m. c #FA3766",
"M. c #FE3B71",
"N. c #835056",
"B. c #9A6E57",
"V. c #845274",
"C. c #A84761",
"Z. c #81717E",
"A. c #98737F",
"S. c #D7446C",
"D. c #DC4973",
"F. c #D0547B",
"G. c #EF4E7B",
"H. c #F74876",
"J. c #EF466D",
"K. c #93B300",
"L. c #A2BA34",
"P. c #8C9857",
"I. c #8E8D65",
"U. c #A18E77",
"Y. c #B3A96C",
"T. c #D59F7D",
"R. c #C8B970",
"E. c #D4D57B",
"W. c #4C0083",
"Q. c #5B1480",
"!. c #681A88",
"~. c #630094",
"^. c #7C1A9B",
"/. c #752888",
"(. c #7F289A",
"). c #822998",
"_. c #F03D82",
"`. c #8C4A88",
"'. c #8D6E88",
"]. c #887988",
"[. c #95738F",
"{. c #D55686",
"}. c #E85785",
"|. c #F25487",
" X c #FF608C",
".X c #968D96",
"XX c #8A8A88",
"oX c #96A585",
"OX c #9B97A4",
"+X c #A399A2",
"@X c #B699B2",
"#X c #A88DA3",
"$X c #AAA9AA",
"%X c #F5B788",
"&X c #C097B9",
"*X c #CBD895",
"=X c #EACF87",
"-X c #DBE9A6",
";X c #C6B8C4",
":X c #D9B6D3",
">X c #D4AFCF",
",X c #D4D9C7",
"<X c #F0D0EC",
"1X c #FEFDED",
"2X c #EDEBED",
"3X c None",
/* pixels */
"3X3X3X3X3X3X3X3X3X3X3X3X3X3X3X3X3X3X3X3X3X3X3X3X3X3X3X3X3X3X3X3X3X3X3X3X3X3X3X3X3X3X3X3X3X3X3X3X",
"3X3X3X3X3X3X3X3X3X3X3X3X3X3X3X3X3X3X3X3X3X3X3X3X3X3X3X3X3X3X3X3X3X3X3X3X3X3X3X3X3X3X3X3X3X3X3X3X",
"3X3X3X3X3X3X3X3X3X3X3X3X3X3X3X3X3X3X3X3X3X3X3X3X3X3X3X3X3X3X3X3X3X3X3X3X3X3X3X3X3X3X3X3X3X3X3X3X",
"3X3X3X3X3X3X3X3X3X3X3X3X3X3X3X3X3X3X3X3X3X3X3X3X3X3X3X3X3X3X3X3X3X3X3X3X3X3X3X3X3X3X3X3X3X3X3X3X",
"3X3X3X3X3X3X3X3X3X3X3X3X3X3X3X3X3X3X3X3X3X3X3X3X3X3X3X3X3X3X3X3X3X3X3X3X3X3X3X3X3X3X3X3X3X3X3X3X",
"3X3X3X3X3X3X3X3X3X3X3X3X3X3X3X3X3X3X3X3X3X3X3X3X3X3X3X3X3X3X3X3X3X3X3X3X3X3X3X3X3X3X3X3X3X3X3X3X",
"3X3X3X3X3X3X3X3X3X3X3X3X3X3X3X3X3X3X3X3X3X3X3X3X3X3X3X3X3X3X3X3X3X3X3X3X3X3X3X3X3X3X3X3X3X3X3X3X",
"3X3X3X3X3X3X3X3X3X3X3X3X3X3X3X3X3X3X3X3X3X3X3X3XJ 3X3X3X3X3X3X3X3X3X3X3X3X3X3X3X3X3X3X3X3X3X3X3X",
"3X3X3X3X3X3X3X3X3X3X3X3X3X3X3X3X3X3X3X3X3X3X3Xd @.o.3X3X3X3X3X3X3X3X3X3X3X3X3X3X3X3X3X3X3X3X3X3X",
"3X3X3X3X3X3X3X3X3X3X3X3X3X3X3X3X3X3X3X3X3X3X3XK K x 3X3X3X3X3X3X3X3X3X3X3X3X3X3X3X3X3X3X3X3X3X3X",
"3X3X3X3X3X3X3X3X3X3X3X3X3X3X3X3X3X3X3X3XO.@ 3 $.Z.1.  3X3X3X3X3X3X3X3X3X3X3X3X3X3X3X3X3X3X3X3X3X",
"3X3X3X3X3X3X3X3X3X3X3X3X3X3X3X3X3X3Xf O.*.p =.[.@X'.  $ * X 3X3X3X3X3X3X3X3X3X3X3X3X3X3X3X3X3X3X",
"3X3X3X3X3X3X3X3X3X3X3X3X3X3X3X3X3Xn 1.>.*.O.#X:X>X[.  = t * X 3X3X3X3X3X3X3X3X3X3X3X3X3X3X3X3X3X",
"3X3X3X3X3X3X3X3X3X3X3X3X3X3X3X3XO.;.8.*.O.Z.:X<X>X'.  = t * * * 3X3X3X3X3X3X3X3X3X3X3X3X3X3X3X3X",
"3X3X3X3X3X3X3X3X3X3X3X3X3X3X3Xm ;.6.6.o.z .X:X<X&X3.  ; = * ; * X 3X3X3X3X3X3X3X3X3X3X3X3X3X3X3X",
"3X3X3X3X3X3X3X3X3X3X3X3X3X3Xn -.7.7.=.n d +.3.9.2.( f 0 : * ; ; ; X 3X3X3X3X3X3X3X3X3X3X3X3X3X3X",
"3X3X3X3X3X3X3X3X3X3X3X3X3XK &.6.6.4.@.n v ;     1 d g f = * ; ; ; * X 3X3X3X3X3X3X3X3X3X3X3X3X3X",
"3X3X3X3X3X3X3X3X3X3X3X3X3X+.5.6.-.O.v l v d d f f h m d s - ; ; ; ; * 3X3X3X3X3X3X3X3X3X3X3X3X3X",
"3X3X3X3X3X3X3X3X3X3X3X3Xl *.7.=.v       * v m z x v v d s ; ; ; ; ; * X 3X3X3X3X3X3X3X3X3X3X3X3X",
"3X3X3X3X3X3X3X3X3X3X3X3Xn -.1.w ;.XX$X.X+.d f v x x v h f ; ; ; ; : * X 3X3X3X3X3X3X3X3X3X3X3X3X",
"3X3X3X3X3X3X3X3X3X3X3X3Xm =.<.5 oX,X2X$X5.f ; n v d v v d s ; - ; ; * X 3X3X3X3X3X3X3X3X3X3X3X3X",
"3X3X3X3X3X3X3X3X3X3X3X3X  Q 8.K.-X1X2XOX  l v v v v v v d 0 ; : = 3 - X 3X3X3X3X3X3X3X3X3X3X3X3X",
"3X3X3X3X3X3X3X3X3X3X3X@X#XZ.,.L.*X,X$X<.  x v v v v v v d s : ; ; ; : X 3X3X3X3X3X3X3X3X3X3X3X3X",
"3X3X3X3X3X3X3X3X3X3X3X;X,X+XP P.I.,.    h v v v h v h v d ; ; - = ; * X 3X3X3X3X3X3X3X3X3X3X3X3X",
"3X3X3X3X3X3X3X3X3X3X3X].XX0.*.P j h h d d g g v z v v d f - ; ; ; ; *   3X3X3X3X3X3X3X3X3X3X3X3X",
"3X3X3X3X3X3X3X3X3X3X3X3X@.1.4.u . ; k m v h v v x v v d s * ; ; ; ; * 3X3X3X3X3X3X3X3X3X3X3X3X3X",
"3X3X3X3X3X3X3X3X3X3X3X3X  +.7.@.b b v z v v v g v v v d 3 * ; ; ; * X 3X3X3X3X3X3X3X3X3X3X3X3X3X",
"3X3X3X3X3X3X3X3X3X3X3X3X3X*.7.;.J : d v v v v g v g d ; ; ; = ; ; X 3X3X3X3X3X3X3X3X3X3X3X3X3X3X",
"3X3X3X3X3X3X3X3X3X3X3X3X3XO.*.>.*.d v v v v v v v h s ; = ; ; * * 3X3X3X3X3X3X3X3X3X3X3X3X3X3X3X",
"3X3X3X3X3X3X3X3X3X3X3X3X3X3Xn ,.-.+.n v d g g v x d 0 - ; ; : X 3X3X3X3X3X3X3X3X3X3X3X3X3X3X3X3X",
"3X3X3X3X3X3X3X3X3X3X3X3X3X3X3XQ *.4.+.v a c x g f t ; - - : X 3X3X3X3X3X3X3X3X3X3X3X3X3X3X3X3X3X",
"3X3X3X3X3X3X3X3X3X3X3X3X3X3X3X3XO.&.m r 7 2 2 % + + + & + X 3X3X3X3X3X3X3X3X3X3X3X3X3X3X3X3X3X3X",
"3X3X3X3X3X3X3X3X3X3X3X3X3X3X3X3X3X3X3X:.N.' D M M , , N N 3X3X3X3X3X3X3X3X3X3X3X3X3X3X3X3X3X3X3X",
"3X3X3X3X3X3X3X3X3X3X3X3X3X3X3X3X3X3X3X=X%X|.b.y.t.e.G G F Z 3X3X3X3X3X3X3X3X3X3X3X3X3X3X3X3X3X3X",
"3X3X3X3X3X3X3X3X3X3X3X3X3X3X3X3X3X3X3XY.T.{._.J.v.h.s.i.r.F N 3X3X3X3X3X3X3X3X3X3X3X3X3X3X3X3X3X",
"3X3X3X3X3X3X3X3X3X3X3X3X3X3X3X3X3X3XL :.3.C.{. XM.x.x.h.a.u.V 3X3X3X3X3X3X3X3X3X3X3X3X3X3X3X3X3X",
"3X3X3X3X3X3X3X3X3X3X3X3X3X3X3X3X3X3XW !.^.! g.F.F.G.n.k.l.j.e.N 3X3X3X3X3X3X3X3X3X3X3X3X3X3X3X3X",
"3X3X3X3X3X3X3X3X3X3X3X3X3X3X3X3X3X3X) /.^.~ ^ d.N.C.S.H.c.l.a.w.B 3X3X3X3X3X3X3X3X3X3X3X3X3X3X3X",
"3X3X3X3X3X3X3X3X3X3X3X3X3X3X3X3X3X3XI.[.`. .E 9 4 a ` D.n.k.j.i.F N 3X3X3X3X3X3X3X3X3X3X3X3X3X3X",
"3X3X3X3X3X3X3X3X3X3X3X3X3X3X3X3X3X3XE.R.B._ S J =.n i ` S.H.k.p.w.N 3X3X3X3X3X3X3X3X3X3X3X3X3X3X",
"3X3X3X3X3X3X3X3X3X3X3X3X3X3X3X3X3X3XY.U.V.[ / ( ;.J   % d.D.m.z.t.V 3X3X3X3X3X3X3X3X3X3X3X3X3X3X",
"3X3X3X3X3X3X3X3X3X3X3X3X3X3X3X3X3X3XI W.~.W.! Q O.k <   e d.G.m.y.V 3X3X3X3X3X3X3X3X3X3X3X3X3X3X",
"3X3X3X3X3X3X3X3X3X3X3X3X3X3X3X3X3X3X..X.!.{ { } R ; 8 Y q _ }.J.q.V 3X3X3X3X3X3X3X3X3X3X3X3X3X3X",
"3X3X3X3X3X3X3X3X3X3X3X3X3X3X3X3X3X3X../.).Q.{ { U y U T q _ J.m.p.D . 3X3X3X3X3X3X3X3X3X3X3X3X3X",
"3X3X3X3X3X3X3X3X3X3X3X3X3X3X3X3X3X3X^  .).| ] E Y Y T U q H v.c.j.F   3X3X3X3X3X3X3X3X3X3X3X3X3X",
"3X3X3X3X3X3X3X3X3X3X3X3X3X3X3X3X3X3X8 ^ ^ y 7 $ 0 0 $ 8 # 3Xt.a.u.V 3X3X3X3X3X3X3X3X3X3X3X3X3X3X",
"3X3X3X3X3X3X3X3X3X3X3X3X3X3X3X3X3X3X3X3X3X4 f j f 3 : O 3X3XC A w.3X3X3X3X3X3X3X3X3X3X3X3X3X3X3X",
"3X3X3X3X3X3X3X3X3X3X3X3X3X3X3X3X3X3X3X3X3XJ O.O.b h 6 X 3X3X3X3X3X3X3X3X3X3X3X3X3X3X3X3X3X3X3X3X"
};
