/* XPM */
static char *result[] = {
/* columns rows colors chars-per-pixel */
"48 48 203 2 ",
"   c #010101",
".  c #000E00",
"X  c #0C0C0C",
"o  c #140909",
"O  c #001100",
"+  c #131C01",
"@  c #000F14",
"#  c #07021F",
"$  c #011312",
"%  c #071917",
"&  c #141515",
"*  c #161916",
"=  c #1A151A",
"-  c #1B1B1B",
";  c #1B1615",
":  c #130A11",
">  c #2E0005",
",  c #201A1D",
"<  c #2C191E",
"1  c #3B0713",
"2  c #002100",
"3  c #122A00",
"4  c #1B221C",
"5  c #212B1A",
"6  c #000227",
"7  c #030039",
"8  c #1B1423",
"9  c #221E21",
"0  c #221B2B",
"q  c #2C1C22",
"w  c #28083C",
"e  c #2C1939",
"r  c #311134",
"t  c #321326",
"y  c #192525",
"u  c #15342A",
"i  c #052F26",
"p  c #232323",
"a  c #2C2C2C",
"s  c #2A2A26",
"d  c #352C2E",
"f  c #3A2724",
"g  c #2A352F",
"h  c #292933",
"j  c #312E31",
"k  c #2F3030",
"l  c #323232",
"z  c #3B3335",
"x  c #3B3C3B",
"c  c #383835",
"v  c #393025",
"b  c #450112",
"n  c #4D0114",
"m  c #4D0419",
"M  c #5E011A",
"N  c #520417",
"B  c #6C011E",
"V  c #60021E",
"C  c #72001D",
"Z  c #6A0122",
"A  c #770426",
"S  c #4B2133",
"D  c #4E2E38",
"F  c #6A2A38",
"G  c #3C453E",
"H  c #2D443C",
"J  c #5D5000",
"K  c #40413F",
"L  c #43523B",
"P  c #000045",
"I  c #1D004C",
"U  c #2F064A",
"Y  c #32084C",
"T  c #240056",
"R  c #3D0757",
"E  c #311446",
"W  c #383645",
"Q  c #322D4B",
"!  c #25006B",
"~  c #281066",
"^  c #44194E",
"/  c #503F4D",
"(  c #482751",
")  c #793A55",
"_  c #440964",
"`  c #49096B",
"'  c #4B007C",
"]  c #4E0C75",
"[  c #4F1869",
"{  c #3E4D44",
"}  c #424342",
"|  c #4B4B4B",
" . c #484746",
".. c #4A524A",
"X. c #41445D",
"o. c #504B53",
"O. c #594F57",
"+. c #4F5450",
"@. c #545454",
"#. c #5B5B5B",
"$. c #565856",
"%. c #6F525C",
"&. c #694658",
"*. c #6D7454",
"=. c #4F4563",
"-. c #584E65",
";. c #625B61",
":. c #7C5164",
">. c #775A72",
",. c #636363",
"<. c #6B6A6A",
"1. c #666A65",
"2. c #756577",
"3. c #787878",
"4. c #737764",
"5. c #84022A",
"6. c #9A0023",
"7. c #93032E",
"8. c #910632",
"9. c #9A0232",
"0. c #AC0125",
"q. c #AA0538",
"w. c #AA1031",
"e. c #B92036",
"r. c #C8023D",
"t. c #D1003D",
"y. c #E3023F",
"u. c #88304F",
"i. c #902846",
"p. c #AC3E5F",
"a. c #BE365A",
"s. c #8A376D",
"d. c #DA0D43",
"f. c #E60043",
"g. c #E20048",
"h. c #FA014D",
"j. c #F7044B",
"k. c #FC154D",
"l. c #FF1455",
"z. c #F5224B",
"x. c #D00164",
"c. c #FD2C64",
"v. c #FB3F71",
"b. c #F93668",
"n. c #83405C",
"m. c #964767",
"M. c #8E5F64",
"N. c #834E7C",
"B. c #A24C6B",
"V. c #967268",
"C. c #D74770",
"Z. c #D64B77",
"A. c #DE507A",
"S. c #D04D71",
"D. c #FF4174",
"F. c #FF4A7C",
"G. c #F5507E",
"H. c #F1456D",
"J. c #77805A",
"K. c #87A707",
"L. c #A48F75",
"P. c #AFA770",
"I. c #C0BD73",
"U. c #DAA279",
"Y. c #E1AC7B",
"T. c #B6CD40",
"R. c #D6C569",
"E. c #60008A",
"W. c #6C1D8E",
"Q. c #630095",
"!. c #703A8D",
"~. c #811E9F",
"^. c #FA3787",
"/. c #935782",
"(. c #8C7388",
"). c #887D86",
"_. c #987993",
"`. c #8C6B87",
"'. c #D05781",
"]. c #F05B92",
"[. c #EF5884",
"{. c #FF638F",
"}. c #9E909C",
"|. c #8C868E",
" X c #AD9280",
".X c #95B08D",
"XX c #A893A4",
"oX c #B899B3",
"OX c #A6A1AD",
"+X c #DFF09D",
"@X c #D4EBA5",
"#X c #CBB1C7",
"$X c #D7AAD0",
"%X c #DCB7D6",
"&X c #D0B9CC",
"*X c #E5BCDE",
"=X c #C7C4C8",
"-X c #DEE6C4",
";X c #E4F1D7",
":X c #FFD2F9",
">X c #FCFFE6",
",X c #EFEEEF",
"<X c None",
/* pixels */
"<X<X<X<X<X<X<X<X<X<X<X<X<X<X<X<X<X<X<X<X<X<X<X<X<X<X<X<X<X<X<X<X<X<X<X<X<X<X<X<X<X<X<X<X<X<X<X<X",
"<X<X<X<X<X<X<X<X<X<X<X<X<X<X<X<X<X<X<X<X<X<X<X<X<X<X<X<X<X<X<X<X<X<X<X<X<X<X<X<X<X<X<X<X<X<X<X<X",
"<X<X<X<X<X<X<X<X<X<X<X<X<X<X<X<X<X<X<X<X<X<X<X<X<X<X<X<X<X<X<X<X<X<X<X<X<X<X<X<X<X<X<X<X<X<X<X<X",
"<X<X<X<X<X<X<X<X<X<X<X<X<X<X<X<X<X<X<X<X<X<X<X<X<X<X<X<X<X<X<X<X<X<X<X<X<X<X<X<X<X<X<X<X<X<X<X<X",
"<X<X<X<X<X<X<X<X<X<X<X<X<X<X<X<X<X<X<X<X<X<X<X<X<X<X<X<X<X<X<X<X<X<X<X<X<X<X<X<X<X<X<X<X<X<X<X<X",
"<X<X<X<X<X<X<X<X<X<X<X<X<X<X<X<X<X<X<X<X<X<X<X<X<X<X<X<X<X<X<X<X<X<X<X<X<X<X<X<X<X<X<X<X<X<X<X<X",
"<X<X<X<X<X<X<X<X<X<X<X<X<X<X<X<X<X<X<X<X<X<X<X<X<X<X<X<X<X<X<X<X<X<X<X<X<X<X<X<X<X<X<X<X<X<X<X<X",
"<X<X<X<X<X<X<X<X<X<X<X<X<X<X<X<X<X<X<X<X<X<X<X<X<X<X<X<X<X<X<X<X<X<X<X<X<X<X<X<X<X<X<X<X<X<X<X<X",
"<X<X<X<X<X<X<X<X<X<X<X<X<X<X<X<X<X<X<X<X<X<X<X<Xa <X<X<X<X<X<X<X<X<X<X<X<X<X<X<X<X<X<X<X<X<X<X<X",
"<X<X<X<X<X<X<X<X<X<X<X<X<X<X<X<X<X<X<X<X<X<X<Xk | | <X<X<X<X<X<X<X<X<X<X<X<X<X<X<X<X<X<X<X<X<X<X",
"<X<X<X<X<X<X<X<X<X<X<X<X<X<X<X<X<X<X<X<X<X<X4 g +.} <X<X<X<X<X<X<X<X<X<X<X<X<X<X<X<X<X<X<X<X<X<X",
"<X<X<X<X<X<X<X<X<X<X<X<X<X<X<X<X<X<X<X<Xa X c O.2.O.  <X<X<X<X<X<X<X<X<X<X<X<X<X<X<X<X<X<X<X<X<X",
"<X<X<X<X<X<X<X<X<X<X<X<X<X<X<X<X<X<X* | #..  .`.oX`.  : & X <X<X<X<X<X<X<X<X<X<X<X<X<X<X<X<X<X<X",
"<X<X<X<X<X<X<X<X<X<X<X<X<X<X<X<X<X} @.#.@.$.XX%X$X_.  = 9 & X <X<X<X<X<X<X<X<X<X<X<X<X<X<X<X<X<X",
"<X<X<X<X<X<X<X<X<X<X<X<X<X<X<X<XW #.3.+.x ).%X:X$X`.  - 9 * & & <X<X<X<X<X<X<X<X<X<X<X<X<X<X<X<X",
"<X<X<X<X<X<X<X<X<X<X<X<X<X<X<Xx $.<.<.} j ).#X*XoX>.  = = & - & X <X<X<X<X<X<X<X<X<X<X<X<X<X<X<X",
"<X<X<X<X<X<X<X<X<X<X<X<X<X<X{ $.<.<.#.x a ;.(._.2./ * 9 * & - - & X <X<X<X<X<X<X<X<X<X<X<X<X<X<X",
"<X<X<X<X<X<X<X<X<X<X<X<X<Xx @.<.<.$.x l a         4 c a - * - - - & X <X<X<X<X<X<X<X<X<X<X<X<X<X",
"<X<X<X<X<X<X<X<X<X<X<X<X<X| ,.<.#.x - & h k z l l l j a y & - - - * & <X<X<X<X<X<X<X<X<X<X<X<X<X",
"<X<X<X<X<X<X<X<X<X<X<X<Xh @.1.$.0     * c l z x x j k a p = - - - - &   <X<X<X<X<X<X<X<X<X<X<X<X",
"<X<X<X<X<X<X<X<X<X<X<X<Xz %.,.g { 1.|.<.| s s l a l a l a - - - - - - X <X<X<X<X<X<X<X<X<X<X<X<X",
"<X<X<X<X<X<X<X<X<X<X<X<X3 o.-.2 .X;X,X=X@.y * x l k l l s 9 - = - - & X <X<X<X<X<X<X<X<X<X<X<X<X",
"<X<X<X<X<X<X<X<X<X<X<X<XL =.<.K.@X>X,XXXc a a l l l l l a p * & - - & X <X<X<X<X<X<X<X<X<X<X<X<X",
"<X<X<X<X<X<X<X<X<X<X<X).|.2.4.T.+X-X|.Q   c c a a l k l a - - - - - & X <X<X<X<X<X<X<X<X<X<X<X<X",
"<X<X<X<X<X<X<X<X<X<X<X#X&X}.L *.J.1.x h l l a l l l k l a - - - - - - X <X<X<X<X<X<X<X<X<X<X<X<X",
"<X<X<X<X<X<X<X<X<X<X<XoX}.|.+.W #     s c l a k l a k a p * - - - - &   <X<X<X<X<X<X<X<X<X<X<X<X",
"<X<X<X<X<X<X<X<X<X<X<X<X  ..,.h # s x l k k l k l l k a - & - - - - & <X<X<X<X<X<X<X<X<X<X<X<X<X",
"<X<X<X<X<X<X<X<X<X<X<X<Xa @.,.} l k l l a l k j a l l a p & - - - & X <X<X<X<X<X<X<X<X<X<X<X<X<X",
"<X<X<X<X<X<X<X<X<X<X<X<X<X@.,.#.K - a k j l l k l j a p - - - - & X <X<X<X<X<X<X<X<X<X<X<X<X<X<X",
"<X<X<X<X<X<X<X<X<X<X<X<X<X .$.,.| p a k l l j l l s p - & - - & X <X<X<X<X<X<X<X<X<X<X<X<X<X<X<X",
"<X<X<X<X<X<X<X<X<X<X<X<X<X<Xx #.,.+. .D z z z z j s 9 , , 4 * X <X<X<X<X<X<X<X<X<X<X<X<X<X<X<X<X",
"<X<X<X<X<X<X<X<X<X<X<X<X<X<X<X| +.@.W y $ i u y s - % % % & : <X<X<X<X<X<X<X<X<X<X<X<X<X<X<X<X<X",
"<X<X<X<X<X<X<X<X<X<X<X<X<X<X<X<Xc G c d v v s 4 $ $ & ; o   <X<X<X<X<X<X<X<X<X<X<X<X<X<X<X<X<X<X",
"<X<X<X<X<X<X<X<X<X<X<X<X<X<X<X<X<X<X<XV.V.i.C > @ @ 1 N b <X<X<X<X<X<X<X<X<X<X<X<X<X<X<X<X<X<X<X",
"<X<X<X<X<X<X<X<X<X<X<X<X<X<X<X<X<X<X<XR.U.A.x.e.0.6.5.A A M <X<X<X<X<X<X<X<X<X<X<X<X<X<X<X<X<X<X",
"<X<X<X<X<X<X<X<X<X<X<X<X<X<X<X<X<X<X<XR.Y.].^.v.z.y.r.q.9.A b <X<X<X<X<X<X<X<X<X<X<X<X<X<X<X<X<X",
"<X<X<X<X<X<X<X<X<X<X<X<X<X<X<X<X<X<XJ %.N.s.'.{.F.c.h.g.d.9.V <X<X<X<X<X<X<X<X<X<X<X<X<X<X<X<X<X",
"<X<X<X<X<X<X<X<X<X<X<X<X<X<X<X<X<X<X7 E.Q.~ m.S.S.H.b.j.j.d.8.V <X<X<X<X<X<X<X<X<X<X<X<X<X<X<X<X",
"<X<X<X<X<X<X<X<X<X<X<X<X<X<X<X<X<X<X=.!.W.! E D &.B.S.c.l.h.r.A m <X<X<X<X<X<X<X<X<X<X<X<X<X<X<X",
"<X<X<X<X<X<X<X<X<X<X<X<X<X<X<X<X<X<XP. X/.[ { { H h u.[.v.h.g.q.Z b <X<X<X<X<X<X<X<X<X<X<X<X<X<X",
"<X<X<X<X<X<X<X<X<X<X<X<X<X<X<X<X<X<XI.P.M.^ Q G u O S '.G.c.j.t.8.n <X<X<X<X<X<X<X<X<X<X<X<X<X<X",
"<X<X<X<X<X<X<X<X<X<X<X<X<X<X<X<X<X<XP.L.:.q y D f   t m.A.D.k.y.q.n <X<X<X<X<X<X<X<X<X<X<X<X<X<X",
"<X<X<X<X<X<X<X<X<X<X<X<X<X<X<X<X<X<Xo.!.W.w O + < 6 e ) C.v.k.f.q.n <X<X<X<X<X<X<X<X<X<X<X<X<X<X",
"<X<X<X<X<X<X<X<X<X<X<X<X<X<X<X<X<X<XP ' E.` Y U ^ I E ) C.D.k.t.8.Z <X<X<X<X<X<X<X<X<X<X<X<X<X<X",
"<X<X<X<X<X<X<X<X<X<X<X<X<X<X<X<X<X<Xv ( [ ] ` _ ] T E n.C.v.d.0.A A N <X<X<X<X<X<X<X<X<X<X<X<X<X",
"<X<X<X<X<X<X<X<X<X<X<X<X<X<X<X<X<Xo.G a e Y R _ R 7 r u.p.a.w.6.5.m o <X<X<X<X<X<X<X<X<X<X<X<X<X",
"<X<X<X<X<X<X<X<X<X<X<X<X<X<X<X<X<X} k s + 8 w Y w 6 < S F F A A Z > <X<X<X<X<X<X<X<X<X<X<X<X<X<X",
"<X<X<X<X<X<X<X<X<X<X<X<X<X<X<X<X<X<X- p p + . <X<X<X<X      m b   <X<X<X<X<X<X<X<X<X<X<X<X<X<X<X"
};
