/* XPM */
static char *result[] = {
/* columns rows colors chars-per-pixel */
"24 24 11 1 ",
"  c #68052E",
". c #2A2640",
"X c #42195D",
"o c #5B276D",
"O c #961A13",
"+ c #975606",
"@ c #916E0D",
"# c #D37800",
"$ c #D4A429",
"% c #F9CC5E",
"& c None",
/* pixels */
"&&&&&&&&&&&&&&&&&&&&&&&&",
"&&&&&&&&&&&&&&&&&&&&&&&&",
"&&&&&&&&&&&&&&&&&&&&&&&&",
"&&&&&&&&&&&&&&&&&&&&&&&&",
"&&&&oXXXXXXXXXXXXXXo&&&&",
"&&&&XX@@XXXXXXXX@@XX&&&&",
"&&&&X.$$OOOOOOOO$$.X&&&&",
"&&&&X.%%        %%.X&&&&",
"&&&&X.%%O++##++O%%.X&&&&",
"&&&&X.$$OOO++OOO$$.X&&&&",
"&&&&X.$$        $$.X&&&&",
"&&&&X.@@OOOOOOOO@@.X&&&&",
"&&&&X.@@   %%   @@.X&&&&",
"&&&&X.@@%%%$$%%%@@.X&&&&",
"&&&&X.@@@@@$$@@@@@.X&&&&",
"&&&&X......$$......X&&&&",
"&&&&X.     ..     .X&&&&",
"&&&&X. O  OOOO  O .X&&&&",
"&&&&X..............X&&&&",
"&&&&oXXXXXXXXXXXXXXo&&&&",
"&&&&&&&&&&&&&&&&&&&&&&&&",
"&&&&&&&&&&&&&&&&&&&&&&&&",
"&&&&&&&&&&&&&&&&&&&&&&&&",
"&&&&&&&&&&&&&&&&&&&&&&&&"
};
