/* XPM */
static char *result[] = {
/* columns rows colors chars-per-pixel */
"48 48 111 2 ",
"   c #3C1C3D",
".  c #38223E",
"X  c #7F081D",
"o  c #5D012E",
"O  c #5E0A2E",
"+  c #4F0634",
"@  c #4D0D37",
"#  c #550533",
"$  c #590231",
"%  c #530D34",
"&  c #590F34",
"*  c #500F38",
"=  c #4A143A",
"-  c #431B3B",
";  c #4E1A3B",
":  c #541436",
">  c #5F1533",
",  c #5F1A36",
"<  c #6E0327",
"1  c #64022C",
"2  c #69032A",
"3  c #67092A",
"4  c #69082C",
"5  c #730524",
"6  c #7A0721",
"7  c #730925",
"8  c #7D0820",
"9  c #621432",
"0  c #44223E",
"q  c #3D2341",
"w  c #362B41",
"e  c #3E3245",
"r  c #3C3B45",
"t  c #3F3D49",
"y  c #432D42",
"u  c #413848",
"i  c #364147",
"p  c #334649",
"a  c #3D434A",
"s  c #38494A",
"d  c #2E544E",
"f  c #2F5A4F",
"g  c #31554F",
"h  c #3B554F",
"j  c #2F5C51",
"k  c #375E52",
"l  c #3A5F51",
"z  c #37604E",
"x  c #376354",
"c  c #3D6B55",
"v  c #3D7157",
"b  c #377559",
"n  c #3E7659",
"m  c #3F7C5B",
"M  c #434043",
"N  c #484C45",
"B  c #404349",
"V  c #407157",
"C  c #427559",
"Z  c #437E5B",
"A  c #8F0E0D",
"S  c #910F07",
"D  c #930F0C",
"F  c #96130B",
"G  c #99140A",
"H  c #9F190E",
"J  c #8C0D13",
"K  c #840B1B",
"L  c #880B19",
"P  c #8F1012",
"I  c #9F1810",
"U  c #A81D0E",
"Y  c #A61D12",
"T  c #AB1F17",
"R  c #B12216",
"E  c #B3231A",
"W  c #B9261C",
"Q  c #C52D24",
"!  c #D1342A",
"~  c #D8372D",
"^  c #438357",
"/  c #498656",
"(  c #4F8A54",
")  c #44865A",
"_  c #45885B",
"`  c #498D5F",
"'  c #508B53",
"]  c #5E9450",
"[  c #54965E",
"{  c #569A5F",
"}  c #5B9C5E",
"|  c #609651",
" . c #629952",
".. c #64A25B",
"X. c #6BA758",
"o. c #6DA958",
"O. c #72AA55",
"+. c #498E60",
"@. c #479162",
"#. c #4C9362",
"$. c #519660",
"%. c #539860",
"&. c #67A062",
"*. c #6BA162",
"=. c #7FAA62",
"-. c #B1A346",
";. c #B8A445",
":. c #83AD62",
">. c #8FB262",
",. c #93B462",
"<. c #A6BD62",
/* pixels */
"#.#.#.#.#.#.#.#.#.#.#.#.#.#.#.#.#.#.#.#.#.#.#.#.#.#.#.#.#.#.#.#.#.#.#.#.#.#.#.#.#.#.#.#.#.#.#.#.",
"#.#.#.#.#.#.#.#.#.#.#.#.#.#.#.#.#.#.#.#.+.#.#.#.#.#.#.#.#.#.#.#.#.#.#.#.#.#.#.#.#.#.#.#.#.` +.#.",
"#.#.#.#.#.#.#.#.#.#.#.#.#.#.#.#.#.#.` ^ ^ ` #.#.#.#.#.#.#.#.#.#.#.#.#.#.#.#.#.#.#.#.#.#.` ^ ) @.",
"#.#.#.#.#.#.#.#.#.#.#.#.#.#.#.#.#.#.#.^ ) #.#.#.#.#.#.#.#.#.#.#.#.#.#.#.#.#.#.#.#.#.#.#.+.) ) #.",
"#.#.#.#.$.} ..#.#.#.#.#.#.#.#.#.#.#.#.#.#.#.#.#.#.#.#.#.#.#.$.} ..#.$.#.#.#.#.#.#.#.#.#.#.#.#.#.",
"#.#.#.$.o.} ..#.#.#.#.#.#.#.#.#.#.#.#.#.#.#.#.#.#.#.#.#.#.#.o.} ..#.#.#.#.#.#.#.#.#.#.#.#.#.#.#.",
"#.#.#.$.O.%.%.#.#.#.#.#.#.#.#.#.#.#.#.#.#.#.#.#.#.#.#.#.#.#.o.{ %.#.#.#.#.#.#.#.#.#.#.#.#.#.#.#.",
"#.#.#.#.%.#.#.#.#.#.#.#.#.#.#.#.#.#.#.#.#.#.#.#.#.#.#.#.#.#.{ #.#.#.#.#.#.#.#.#.#.#.#.#.#.#.#.#.",
"#.#.#.#.#.#.#.#.#.#.#.#.#.#.#.#.#.#.#.#.#.{ ..$.#.#.#.#.#.#.#.#.#.#.#.#.#.#.#.#.#.#.#.#.#.#.#.$.",
"#.#.#.#.#.#.#.#.#.#.#.#.#.#.#.#.#.#.#.#.#.....} #.#.#.#.#.#.#.#.#.#.#.#.#.#.#.#.#.#.#.#.#.#.#...",
"#.#.#.#.#.#.#.#.#.#.#.#.#.#.#.#.#.#.#.#.#.$.} #.#.#.#.#.#.#.#.#.#.#.#.#.#.#.#.#.#.#.#.#.#.#.#.#.",
"#.#.#._ +.#.#.#.#.#.#.#.#.#.#.#.#.#.#.#.#.#.#.#.#.#.#.#.#._ +.#.#.#.#.#.#.#.#.#.#.#.#.#.#.#.#.#.",
"#.#._ ^ ^ #.#.#.#.#.#.#.#.#.#.#.#.#.#.#.#.#.#.#.#.#.#.#._ ^ ^ #.#.#.#.#.#.#.#.#.#.#.#.#.#.#.#.#.",
"@.#.#.) ` #.#.#.#.#.#.#.#.#.#.#.#.#.#.#.#.#.#.#.#.#.#.#.#.^ ` #.#.#.#.#.#.#.#.#.#.#.#.#.#.#.#.#.",
":.#.#.#.#.#.#.#.#.#.#.#.#.#.#.#.#.#.#.#.#.#.#.#.#.#.#.#.#.#.#.#.#.#.#.#.#.#.$.#.#.#.#.#.#.#.#.#.",
">.#.#.#.#.#.#.#.#.#.#.#.#.#.#.#.#.m f j j n #.#.#.( j j f n #.#.#.#.#.#.#.#.#.#.#.#.#.#.#.#.#.#.",
"..#.#.#.#.#.#.#.#.#.#.#.#.#.#.` v a 0 0 0 M b +.n N 0 0 0 M b #.#.#.#.#.#.#.#.#.#.#.#.#.#.#.#.#.",
"O.#...{ #.#.#.#.#.#.#.#.#.#.+.c M , 7 7 4 : r c t , 7 7 3 : r n +.#.#.#.#.#.#.#.#.#...$.#.#.#.#.",
"| | O.[ #.#.#.#.#.#.#.#.#._ c e 9 K S A 6 1 % y > X F A 8 2 & u c +.#.#.#.#.#.#.#.#.o.%.%.#.#.#.",
"/ ] ( +.#.#.#.#.#.#.#.#.+.c e O K F H I F K 2 3 K F G G F 8 1 % e x #.#.#.#.#.#.#.#.o.} o.#.#.#.",
"#.) +.#.#.#.#.#.#.#.#.#.+.k   2 J R Q Q Y D J J D G F F F K 1 # q g #.#.#.#.#.#.#.#.%.%.o.#.#.#.",
"-.#.#.#.#.#.#.#.#.#.#.#.+.l   1 J W ~ ! T S G F F F G D K < 1 # q g #.#.#.#.#.#.#.#.#.#.$.#.#.#.",
"{ #.#.#.#.#.#.#.#.#.#.$.+.l   2 J U E E Y D G F F G D K 5 1 $ $ q g #.#.#.$.#.#.#.#.#.#.#.#.#.#.",
"#.#.#.#.#.#.#.#.#.#.$...} k   2 8 P G G D F F G F P 8 2 1 $ $ $ q d #.#.{ ....#.#.#.#.#.#.#.#.#.",
"#.#.#.#.#.#.#.#.#.#.$... .C t * 4 6 P G G F F G G L 1 1 o o $ ; a v #.#.$.....#.#.#.#.#.#.#.#.#.",
"#.#.#.#.#.#.#.#.#.#.#.$.#.+.C i * 4 7 L F G F G P 6 1 1 o # = i V +.#.#.#.$.#.#.#.#.#.#.#.#.#.#.",
"#.#.#.#.#.#.#.#.#.#.#.#.#.#.#.m s ; 4 < L F F P 6 1 1 o # - p Z #.#.#.#.#.#.#.#.#.#.#.#.#.#.#.#.",
"#.#.#.#.#.#.#.#.#.#.#.#.#.#.#.+.^ h - o < K J 5 1 1 o #   d ) #.#.#.#.#.#.#.#.#.#.#.#.#.#.` ` #.",
"#.#.#.#.#.#.#.#.#.#.#.#.#.#.#.#.#.) l   % 2 5 2 o $ + . l ) #.#.#.#.#.#.#.#.#.#.#.#.#.#.@.^ ^ ` ",
"#.#.#.#.#.#.#.#.#.#.#.#.#.#.#.#.#.#._ z w * $ o o @ w c +.+.#.#.#.#.#.#.#.#.#.#.#.#.#.#.#.) ) #.",
"#.#.#.#.$.} ..#.#.#.#.#.#.#.#.#.#.#.#.+.V u = $ = r v #.#.#.$.%...#.#.#.#.#.#.#.#.#.#.#.#.#.#.#.",
"#.#.#.#.X.} ..#.#.#.#.#.#.#.#.#.#.#.#.#.+.C B - B n #.#.#.$.*. ...#.#.#.#.#.#.#.#.#.#.#.#.#.#.#.",
"#.#.#.$.o.{ } #.#.#.#.#.#.#.#.#.#.#.#.#.#.#.Z h C +.#.#.#.[ o.%.} #.#.#.#.#.#.#.#.#.#.#.#.#.#.#.",
"#.#.#.#.{ #.#.#.#.#.#.#.#.#.#.#.#.#.#.#.#.#.#._ #.#.#.#.#.#.} #.#.#.#.#.#.#.#.#.#.#.#.#.#.#.#.#.",
"#.#.#.#.#.#.#.#.#.#.#.#.#.#.#.#.#.#.#.#.#.$...$.#.#.#.#.#.#.#.#.#.#.#.#.#.#.#.#.#.#.#.#.#.#.#.#.",
"#.#.#.#.#.#.#.#.#.#.#.#.#.#.#.#.#.#.#.#.#.....} #.#.#.#.#.#.#.#.#.#.#.#.#.#.#.#.#.#.#.#.#.#.#...",
"#.#.#.#.#.#.#.#.#.#.#.#.#.#.#.#.#.#.#.#.#.#...#.#.#.#.#.#.#.#.#.#.#.#.#.#.#.#.#.#.#.#.#.#.#.#.#.",
"#.#.#.) +.#.#.#.#.#.#.#.#.#.#.#.#.#.#.#.#.#.#.#.#.#.#.#.#.) +.#.#.#.#.#.#.#.#.#.#.#.#.#.#.#.#.#.",
"#.#._ ^ ^ #.#.#.#.#.#.#.#.#.#.#.#.#.#.#.#.#.#.#.#.#.#.#._ ) ^ +.#.#.#.#.#.#.#.#.#.#.#.#.#.#.#.#.",
"#.#.#.^ ` #.#.#.#.#.#.#.#.#.#.#.#.#.#.#.#.#.#.#.#.#.#.#.#.^ ` #.#.#.#.#.#.#.#.#.$.#.#.#.#.#.#.#.",
"=.#.#.#.#.#.#.#.#.#.#.#.#.#.#.#.#.#.#.#.#.#.#.#.#.` #.#.#.#.#.#.#.#.#.#.#.#.#.#.#.#.#.#.#.#.#.#.",
",.#.#.#.#.#.#.#.#.#.#.#.#.#.#.#.#.#.#.#.#.#.#.#.#...#.#.#.#.#.#.#.#.#.#.#.#.#.#.#.#.#.#.#.#.#.#.",
"..#.$.#.#.#.#.#.#.#.#.#.#.#.#.#.#.#.#.#.#.#.#.#.#.o.X.#.#.#.#.#.#.#.#.#.#.#.#.#.#.#.#.$.#.#.#.#.",
"o.#...%.#.#.#.#.#.#.#.#.#.#.#.#.X.#.#.#.#.#.#.#.#.o.O.#...} #.#.#.#.#.#.#.#.#.#.#.#...$.#.#.#.#.",
" .| O.{ #.#.#.#.#.#.#.#.#.#.#.#.X.{ { #.#.#.#.#.#.#. . .O.[ #.#.#.#.#.#.#.#.#.#.#.#.o.%.%.#.#.#.",
"/ | ( ` #.#.#.#.#.#.#.#.#.#.#.#.o.} X.#.#.#.#.#.#.#./ | ' +.#.#.#.#.#.#.#.#.#.#.#.#.o.} X.#.#.#.",
"+._ ` #.#.#.#.#.#.#.#.#.#.#.$.#.{ { X.#.#.#.#.#.#.#.#._ +.#.#.#.#.#.#.#.#.#.#.#.$.#.%.%.X.#.#.#.",
";.#.#.#.#.#.#.#.#.#.#.#.#.&.<.@.@.#.{ #.#.#.#.#.#.#.#.#.#.#.#.#.#.#.#.#.#.#.#.&.<.@.#.#.%.#.#.#."
};
