/* XPM */
static char *result[] = {
/* columns rows colors chars-per-pixel */
"18 21 6 1 ",
"  c #590434",
". c #68052E",
"X c #2A2640",
"o c #961A13",
"O c #D2382F",
"+ c None",
/* pixels */
"++++++++++++++++++",
"++++++++++++++++++",
"+++++XXX+++XXX++++",
"++++X...X+X...X+++",
"+++X.oo..X.oo..X++",
"++X.oooo..oooo. X+",
"++X.oOOooooooo. X+",
"++X.oOOoooooo.. X+",
"++X.oooooooo..  X+",
"++X..oooooo..   X+",
"+++X..ooooo..  X++",
"++++X..ooo..  X+++",
"+++++X..o..  X++++",
"++++++X ..  X+++++",
"+++++++X   X++++++",
"++++++++X X+++++++",
"+++++++++X++++++++",
"++++++++++++++++++",
"++++++++++++++++++",
"++++++++++++++++++",
"++++++++++++++++++"
};
