/* XPM */
static char *result[] = {
/* columns rows colors chars-per-pixel */
"85 128 19 1 ",
"  c #522F3B",
". c #6B3F48",
"X c #625F66",
"o c #802C10",
"O c #9C3C16",
"+ c #B84615",
"@ c #C46622",
"# c #DE712D",
"$ c #82565F",
"% c #A6735E",
"& c #827678",
"* c #9E887B",
"= c #CF9363",
"- c #AF9D9D",
"; c #C2B195",
": c #CFB4AB",
"> c #FAC293",
", c #DFD0AF",
"< c None",
/* pixels */
"<<<<<<<<<<<<<<<<<<<<<<<<<<<<<<<<<<<<<<<<<%%<<<<<<<<<<<<<<<<<<<<<<<<<<<<<<<<<<<<<<<<<<",
"<<<<<<<<<<<<<<<<<<<<<<<<<<<<<<<<<<<<<<<<==%$<<<<<<<<<<<<<<<<<<<<<<<<<<<<<<<<<<<<<<<<<",
"<<<<<<<<<<<<<<<<<<<<<<<<<<<<<<<<<<<<<<<%==%$<<<<<<<<<<<<<<<<<<<<<<<<<<<<<<<<<<<<<<<<<",
"<<<<<<<<<<<<<<<<<<<<<<<<<<<<<<<<<<<<<<o%==%$ <<<<<<<<<<<<<<<<<<<<<<<<<<<<<<<<<<<<<<<<",
"<<<<<<<<<<<<<<<<<<<<<<<<<<<<<<<<<<<<<oo%=%%$  <<<<<<<<<<<<<<<<<<<<<<<<<<<<<<<<<<<<<<<",
"<<<<<<<<<<<<<<<<<<<<<<<<<<<<<<<<<<<<ooo%=%%$    <<<<<<<<<<<<<<<<<<<<<<<<<<<<<<<<<<<<<",
"<<<<<<<<<<<<<<<<<<<<<<<<<<<<<<<<<<<oo+o%=%%$ oo  <<<<<<<<<<<<<<<<<<<<<<<<<<<<<<<<<<<<",
"<<<<<<<<<<<<<<<<<<<<<<<<<<<<<<<<<<oOo@o%=%%$  o o <<<<<<<<<<<<<<<<<<<<<<<<<<<<<<<<<<<",
"<<<<<<<<<<<<<<<<<<<<<<<<<<<<<<<<<ooOooo%=%%$    o  <<<<<<<<<<<<<<<<<<<<<<<<<<<<<<<<<<",
"<<<<<<<<<<<<<<<<<<<<<<<<<<<<<<<ooOoOoOo%=%%$  o o o  <<<<<<<<<<<<<<<<<<<<<<<<<<<<<<<<",
"<<<<<<<<<<<<<<<<<<<<<<<<<<<<<<oOo+ooOOo%==%$  oo  o o <<<<<<<<<<<<<<<<<<<<<<<<<<<<<<<",
"<<<<<<<<<<<<<<<<<<<<<<<<<<<<<oOOo+o+O+o%==%$  ooo o oo <<<<<<<<<<<<<<<<<<<<<<<<<<<<<<",
"<<<<<<<<<<<<<<<<<<<<<<<<<<<<<oOOooo++oo%=%%$ o oo   oo <<<<<<<<<<<<<<<<<<<<<<<<<<<<<<",
"<<<<<<<<<<<<<<<<<<<<<<<<<<<<oO+OoOo@o+o%=%%$ oo o o ooo <<<<<<<<<<<<<<<<<<<<<<<<<<<<<",
"<<<<<<<<<<<<<<<<<<<<<<<<<<ooo+@oO+ooo+o%=%%$ oo   oo oo   <<<<<<<<<<<<<<<<<<<<<<<<<<<",
"<<<<<<<<<<<<<<<<<<<<<<<<<oOOo@oO++oOo@o%=%%$  o o ooo o oo <<<<<<<<<<<<<<<<<<<<<<<<<<",
"<<<<<<<<<<<<<<<<<<<<<<<<oOOOooo+@ooOooo%=%%$    o  oo   ooo <<<<<<<<<<<<<<<<<<<<<<<<<",
"<<<<<<<<<<<<<<<<<<<<<<<<oO++oOo@oOoOoOo%==%$  o o o o o ooo <<<<<<<<<<<<<<<<<<<<<<<<<",
"<<<<<<<<<<<<<<<<<<<<<<ooo+@oO+ooo+ooOOo%==%$  oo  o   oo oo   <<<<<<<<<<<<<<<<<<<<<<<",
"<<<<<<<<<<<<<<<<<<<<<oOOo+oO+@oOo+oO+Oo%=%%$  ooo o o ooo o oo <<<<<<<<<<<<<<<<<<<<<<",
"<<<<<<<<<<<<<<<<<<<<oOO+ooo+@oO+ooo+@oo%=%%$ o oo   oo oo   ooo <<<<<<<<<<<<<<<<<<<<<",
"<<<<<<<<<<<<<<<<<<<<oO+@o+o@oO+@o+o@oOo%=%%$ oo o o ooo o o ooo <<<<<<<<<<<<<<<<<<<<<",
"<<<<<<<<<<<<<<<<<<<oo++o++ooo+@o++ooo+o%=%%$ oo   oo oo   oo oo  <<<<<<<<<<<<<<<<<<<<",
"<<<<<<<<<<<<<<<<<<oOo@oO++oOo+oO++oOo@o%=%%$  o o ooo o o ooo o o <<<<<<<<<<<<<<<<<<<",
"<<<<<<<<<<<<<<<<<oOOooo+@oO+ooo+@ooOooo%==%$    o  oo   oo oo   oo <<<<<<<<<<<<<<<<<<",
"<<<<<<<<<<<<<<<<oOOOoOo@oO++oOo@oOoOoOo%=%%$  o o o o o ooo o o ooo <<<<<<<<<<<<<<<<<",
"<<<<<<<<<<<<<<ooo+OoOOooo+@oO+ooo+ooOOo%=%%$  oo  o   oo oo   oo oo   <<<<<<<<<<<<<<<",
"<<<<<<<<<<<<<oOOo+o+O+oOo+oO+@oOo+o+O+o%=%%$  ooo o o ooo o o ooo o oo <<<<<<<<<<<<<<",
"<<<<<<<<<<<<oOOOooo++oOOooo+@oOOooo++oo%==%$ o oo   oo oo   oo oo   ooo <<<<<<<<<<<<<",
"<<<<<<<<<<<<oO+OoOo@o+O+oOo@oO+OoOo@o+o%==%$ oo o o ooo o o ooo o o ooo <<<<<<<<<<<<<",
"<<<<<<<<<<ooo+@oO+ooo++oOOooo+@oO+ooo+o%=%%$ oo   oo oo   oo oo   oo oo   <<<<<<<<<<<",
"<<<<<<<<<oOOo@oO++oOo@oO+OoOo@oO++oOo@o%=%%$  o o ooo o o ooo o o ooo o oo <<<<<<<<<<",
"<<<<<<<<oOOOooo+@oOOooo+@oOOooo+@ooOooo%=%%$    o  oo   oo oo   oo oo   ooo <<<<<<<<<",
"<<<<<<oooO++oOo@oOOOoOo@oO++oOo@oOoOoOo%=%%$  o o o o o ooo o o ooo o o ooo   <<<<<<<",
"<<<<<oOOo+@oO+oooOOoOOooo+@oO+ooo+ooOOo%=%%$  oo  o   oo oo   oo oo   oo oo oo <<<<<<",
"<<<<o+OOo+oO+@oOoOoO+OoOo+oO+@oOo+oO+Oo%=%%$  ooo o o ooo o o ooo o o ooo o ooo <<<<<",
"<<<o+@Oooo++@o++Ooo+@oO+ooo+@oO+ooo+@oo%==%$ o oo   oo oo   oo oo  ooo ooo   ooo <<<<",
"<<o+@+OoO+O@o+@+OOo@oO+@o+o@oO+@o+o@oOo%==%$ oo o o ooo o o ooo o ooooo oooo oooo <<<",
"<<o@OOo+@Ooo+@++Ooooo++o++ooo+@o++ooo+o%=%%$ oo   oo oo   oo oo    ooooo  ooo ooo <<<",
"<<o+OOoO++oOo+oO++oOo@oO++oOo+oO++oOo@o%=%%$  o o ooo o o ooo o o ooo o o ooo oo  <<<",
"<<oOooo+@oO+ooo+@oOOooo+@oO+ooo+@ooOooo%==%$    o  oo   oo oo   oo oo   oo oo     <<<",
"<<oo+Oo@oO@+oOo@oOOOoOo@oO++oOo@oOoOoOo%==%$  o o o o o ooo o o ooo o o ooo o oo  <<<",
"<<o@@Oooo@+o++ooo+OoOOooo+@oO+ooo+ooOOo%==%$  oo  o   oo oo   oo oo   oo oo   ooo <<<",
"<<o@+oOOo+o+@OoOo+o+O+oOo+oO+@oOo+o+O+o%==%$  ooo o o ooo o o ooo o o ooo o oo oo <<<",
"<<o@o++Oooo@OoOOooo++oOOooo+@oOOooo++oo%=%%$ o oo   oo oo   oo oo   oo oo   ooo o <<<",
"<<oo+@+OoOoOoO+OoOo@o+O+oOo@oO+OoOo@o+o%=%%$ oo o o ooo o o ooo o o ooo o o oooo  <<<",
"<<o@@+Oo+Oooo+@oO+ooo++oOOooo+@oO+ooo+o%=%%$ oo   oo oo   oo oo   oo oo   oo ooo  <<<",
"<<o@+OoO+OoOo@oO++oOo@oO+OoOo@oO++oOo@o%=%%$  o o ooo o o ooo o o ooo o o ooo oo  <<<",
"<<ooooo+@oOOooo+@oOOooo+@oOOooo+@ooOooo%==%$    o  oo   oo oo   oo oo   oo oo     <<<",
"<<o+@+o@oO++oOo@oOOOoOo@oO++oOo@oOO+oOo$%%$$ oo ooo o o ooo o o ooo o o ooo o ooo <<<",
"<<o@OOooo+@oO+oooOOoOOooo+@oO+ooo++oO+o===%$ ooo oo   oo oo   oo oo   oo oo   ooo <<<",
"<<oooo+Oo+oO+@oOoOoO+OoOo+oO+@oOo+oO+# =%%%$  ooo o o ooo o o ooo o o ooo o oo    <<<",
"<<oo+@Oooo++@o++Ooo+@oO+ooo+@oO+ooo+#  =%%%$   oo   oo oo   oo oo  ooo ooo   ooo  <<<",
"<<o+@+OoO+O@o+@+OOo@oO+@o+o@oO+@o+o#    $$$     o o ooo o o ooo o ooooo oooo ooo  <<<",
"<<o@OOo+@Ooo+@++Ooooo++o++ooo+@o++#  $$     $$$  ooo oo   oo oo    ooooo  ooo oo  <<<",
"<<o+OOoO++oOo+oO++oOo@oO++oOo+oO++  $$$$$$$$$$$$$ ooo o o ooo o o ooo o o ooo oo  <<<",
"<<oOooo+@oO+ooo+@oOOooo+@oO+ooo+@ $$$$********$$$$ oo   oo oo   oo oo   oo oo     <<<",
"<<oo+Oo@oO@+oOo@oOOOoOo@oO++oOo@ $$***************$ o o ooo o o ooo o o ooo o oo  <<<",
"<<o@@Oooo@+o++ooo+OoOOooo+@oO+o $$*****;;;;;;******$  oo oo   oo oo   oo oo   ooo <<<",
"<<o@+oOOo+o+@OoOo+o+O+oOo+oO+@ $$***;;;;%%%$;;;;****$ ooo o o ooo o o ooo o oo oo <<<",
"<<o@o++Oooo@OoOOooo++oOOooo+@ $$***;;;%%%%%%%$;;;;;**$ oo   oo oo   oo oo   ooo o <<<",
"<<oo+@+OoOoOoO+OoOo@o+O+oOo@ $***;;;;;%  =  %$;;;,;;;*$ o o ooo o o ooo o o oooo  <<<",
"<<o@@+Oo+Oooo+@oO+ooo++oOOo $$*;;;,,;%%  =  %%$*;,,;;;;$  oo oo   oo oo   oo ooo  <<<",
"<<o@+OoO+OoOo@oO++oOo@oO+O $**;;;,,,;%%=====%%$*;,,,;;;*$ ooo o o ooo o o ooo oo  <<<",
"<<ooooo+@oOOooo+@oOOooo+@ $**;;;,,,,;%%  =  %$ ;;,,,;;;;*$ oo   oo oo   oo oo     <<<",
"<<o+@+o@oO++oOo@oOOOoOo@ $$*;;;;,,;,;$%  =  % *;;,,,;,;;;*$ o o ooo o o ooo o ooo <<<",
"<<o@OOooo+@oO+oooOOoOOo $***;;,*,,;,,;%==%==$ *;,,,,*,,;*;*$  oo oo   oo oo   ooo <<<",
"<<oooo+Oo+oO+@oOoOoO+O $**;;;;*****;;;$$%%$$ *;;,,****;*****$ ooo o o ooo o oo    <<<",
"<<oo+@Oooo++@oOOOoo+@ $**;;;,,,,,,*,,,;;$$  *;;,,,,,,,,,*,;;*$ oo  ooo ooo   ooo  <<<",
"<<o+@+OoO+O@oO@+OOo@ $$***;;,,,,,,;,,,;;****;;;;;,,,,,,,;,,;*$$ o ooooo oooo ooo  <<<",
"<<o@OOo+@OooO@++Oo  $$$$***;;;;;;;;;;;;;;;;;;;;;;;;;;;;;;;**$$$$  oooooo  ooo oo  <<<",
"<<ooooo@Ooo+@++Oo  $$%%%%%%%==%%====================%%==%%%%%%$$   oooooo  oo     <<<",
"<<o+++oOoo+@+Ooo    $$%%%%%%%%%%%%%%%%%%%%%%%%%%%%%%%%%%%%%%%$$     oooooo  o ooo <<<",
"<<o+@+oooo@@Oo         $$$$$$$$$$$$$    $$$    $$$$$$$$$$$$$$          oo     ooo <<<",
"<<o++oo++ooo  *****$$$$*;;;;;;;;*;;;$$$$***%$$$*;;;;;;;;;;;;*$$$$****$     oo  oo <<<",
"<<ooo+@+Oo  $*****;;$$%=;,,,,,,,*,,,;$%%%*=%$$;;;;,,,,,,,,,,=%$$;;*****$   oooo   <<<",
"<<o++@+Ooo $***;;;,,;$%%=;,,,,,,;,,,,;$%%=%$$*;;,,,,,,,,,,,=%%$;,,;;;***$   oooo  <<<",
"<<o@@+Ooo $**;;;,,,,,;$%%=;,,,,,,;,,,,;%=%$$*;;,,,,,,,,,,,=%%$;,,,,,;;;**$   ooo  <<<",
"<<o@OOo  $**;;,,,,,,,,;$%%=;,,,,,,,,,,;=%$$$*;,,,,,,,,,,,=%%$;,,,,,,,,;;**$   oo  <<<",
"<<oooo   $**;;;,,,,,,,,;$%%=;,,,,,,,;;=%$$$$$*,,,,,,,,,,=%%$;,,,,,,,,;;;;*$       <<<",
"<<       $***;;;;;;;;;;;;$$%%;;;;;;;;%%$$*$$$$*;;;;;;;;%%$$;;;;;;;;;;;;**$$  $ $$ <<<",
"<<       $$***************$$$$******$$$$***$$$$*******$$$$**************$$$ $$ $$ <<<",
"<< $$ $$   %%%==%%================================================%%==%%%   $$$%$$<<<",
"<<$$$$$$ $$$%%%%%%%%%%%%%%%%%%%%%%%%%%%%%%%%%%%%%%%%%%%%%%%%%%%%%%%%%%%%$$$ $%$%$$<<<",
"<<$%%$%$  $$$$$$$$$$$$$$$$$$$$$$$$$$$$$$$$$$$$$$$$$$$$$$$$$$$$$$$$$$$$$$$$  $%$%$$<<<",
"<<$%%$%$   $$$$$$$$$$$$$$$$$$$$$$$$$$$$$$$$$$$$$$$$$$$$$$$$$$$$$$$$$$$$$$   $%%%$$<<<",
"<<%%%%%$                                                                    $%%=%$<<<",
"<<%%=%%$  $$$$********************************************************$$$$  $%==%$<<<",
"<<%%==%$ $%=$*****;*;;*;;;;;;;;;;;;;;;;;;;;;;;;;;;;;;;;;;;;;*;;;;;*****$=%$ $%==%$<<<",
"<<%%==%$ %=$**;;;;;*;;;;;;;;;;;;;;;;;;;;;;;;;;;;;;;;;;;;;;;;*;;;;;;;;;**$=% $%==%$<<<",
"<<%%==%$ %$**;;;;,,*,,,,,,,,,,,,,,,,,,,,,,,,,,,,,,,,,,,,,,,;*,,,,,,,;;;**$% $%==%$<<<",
"<<%===%$ $**;;;;,,*,,,,,,,,,,,,,,,,,,,,,,,,,,,,,,,,,,,,,,,,*,,,,,,,,;;;;**$ $%==%$<<<",
"<<%===%$ ***;;;,,*,,,,,,,,,,,,,,,,,,,,;;;;;;;;,,,,,,,,,,,,;,,,,,,,,,,,;;;** $%=%%$<<<",
"<<%===%$ **;;;,,;,,,,,;,,,,,,,,,,,,;;;oo   oo;;;;,,,,,,,,,,,,,,,,,,,,,;;;;* $%=%%$<<<",
"<<%===%$ **;;;,,,,,,,,*,,,,,,,,,,,;;ooo+o o+o   ;;,,,,,,,,,,,,,,,,,,,,,;;;* $%=%%$<<<",
"<<%===%$ **;;,,,,,;**;**;;;,,,,,,,;oOo++Oo++O oO ;;,,,,,,,,,,,,,,,,,,,,,;;* $%=%%$<<<",
"<<%=%=%$ *;;;,,,,,,*,,,,,,,,,,,,,;oOOo+@+o+@O o+o ;,,,,,,,,,,,,,,,,,,,,;;;* $%=%%$<<<",
"<<%=%=%$ *;;;;,,,,,;,,,,,,,;,,,;;;O+Oo+@+o+@O o+o ;;,,,,,,,,,,,,,,,,,,,;;;* $%=%%$<<<",
"<<%=%=%$ *;;;;,,,,,;,,,,,,;,,,;;;;O+Oo@@Oo+@O o+o *;;,,,,,,,,,,;,,,,,,;;;;* $%=%%$<<<",
"<<%=%=%$ *;;;;;,,,,,,,,,,*;,,,;;;;+@+o@@@o@@@ oOo *;;;,,,,,,,,,,;,,,,;;;;** $%=%%$<<<",
"<<%%%=%$ **;;;;;;;,,,,,,*;,,,;;;;;ooooooo ooo oo  *;;;;;,,,,,,,,,*,;;;;;;** $%=%%$<<<",
"<<%%$%%$ ****;;;;;;;;;;;*;;;;;;;;;                **;;;;;;;;;;;;;*;;;;;**** $%%%%$<<<",
"<<%%$%%$ *************************    .      .    ************************* $%%%%$<<<",
"<<%%$%%$   $$$%%%%%%%%%%%%%%%%%%%%  .$. . . ..$.  ================%%%$$$$$  $%%$%$<<<",
"<<%%$%%$  $%%=%%==================  .$. ... ..$.  %%%%%%%%%%%%%%%%==%%%%%$$ $%%$%$<<<",
"<<%%$%%$    $%%%%%%%%%%%%%%%%%%%%%  .$. ... ..$.  %%$$%%%%%$$$%%%%%%%%$$$   $%%$%$<<<",
"<<%$$$$$ $$$$$$$$$$$$$$$$$$$$$$$$$  .%$.$$$.$$%.  $$$$$$$$$$$$$$$$$$$$$$$$$ $$$$$$<<<",
"<<$$$$$$ $$$$$$$$$$$$$$$$$$$$$$$$$  .%%%%==%%%%.  $$$$$$$$$$$$$$$$$$$$$$$$$ $$$$$$<<<",
"<<                                  .>=.$$$.$.%.                                  <<<",
"<<:::::::X:::::::::::::::X::::::::  .==.$$$.$.%.  :::::::X:::::::::::::::X::::::::<<<",
"<<-&--&&-X--&&--&X-&--&&-X--&&--&X  ....$$$.$.%.  -&--&&-X--&&--&X-&--&&-X--&&--&X<<<",
"<<&&&&&&&X-&&&&&&X&&&&&&&X-&&&&&&X  .%%=====%%%.  &&&&&&&X-&&&&&&X&&&&&&&X-&&&&&&X<<<",
"<<&XXX&&&X&X&&X&XX&XXX&&&X&X&&X&XX  .$........$.  &XXX&&&X&X&&X&XX&XXX&&&X&X&&X&XX<<<",
"<<XXX XXXXXXXX XXXXXX XXXXXXXX XXX  .$. ...  .$.  XXX XXXXXXXX XXXXXX XXXXXXXX XXX<<<",
"<<&&&X-&-----&X---&&&X-&-----&X---                &&&X-&-----&X---&&&X-&-----&X---<<<",
"<<&&&X&&&&&&&&X&&X&&&X&&&&&&&&X&&X                &&&X&&&&&&&&X&&X&&&X&&&&&&&&X&&X<<<",
"<<XXX XX&&X&XX XXXXXX XX&&X&XX XXX&&&&&&&&&&&&&&&&XXX XX&&X&XX XXXXXX XX&&X&XX XXX<<<",
"<<XXX  XXXXXXX  XXXXX  XXXXXXX  XX;,,,,,,,,,,,,,,;XXX  XXXXXXX  XXXXX  XXXXXXX  XX<<<",
"<<                                ;,,,,,,,,,,,,,,;                                <<<",
"<<<<<<<<<<<<<<<<<<<<<<<<<<<<<<<<,;,,,,,,,,,,,,,,;;X;X<<<<<<<<<<<<<<<<<<<<<<<<<<<<<<<<",
"<<<<<<<<<<<<<<<<<<<<<<<<<<<<<<<<,;,,,,;,,;;;,,,;,;X;X<<<<<<<<<<<<<<<<<<<<<<<<<<<<<<<<",
"<<<<<<<<<<<<<<<<<<<<<<<<<<<<<<<<,;,;;;;;;;;;;,;;;;X;X<<<<<<<<<<<<<<<<<<<<<<<<<<<<<<<<",
"<<<<<<<<<<<<<<<<<<<<<<<<<<<<<<<<,;&&&&&&&&&&&&&&&&X;X<<<<<<<<<<<<<<<<<<<<<<<<<<<<<<<<",
"<<<<<<<<<<<<<<<<<<<<<<<<<<<<<<<<,,,,,;,,,;,;;;;,;;;;X<<<<<<<<<<<<<<<<<<<<<<<<<<<<<<<<",
"<<<<<<<<<<<<<<<<<<<<<<<<<<<<<<<<,,,;;;,,;;;,,;,;;;;;X<<<<<<<<<<<<<<<<<<<<<<<<<<<<<<<<",
"<<<<<<<<<<<<<<<<<<<<<<<<<<<<<<<<&&&&&&&&&&&&&&&&&XXXX<<<<<<<<<<<<<<<<<<<<<<<<<<<<<<<<",
"<<<<<<<<<<<<<<<<<<<<<<<<<<<<<<<<&&&&&&&&&&XXXXXXXXXXX<<<<<<<<<<<<<<<<<<<<<<<<<<<<<<<<",
"<<<<<<<<<<<<<<<<<<<<<<<<<<<<<<<<<<<<<<<<<<<<<<<<<<<<<<<<<<<<<<<<<<<<<<<<<<<<<<<<<<<<<"
};
