/* XPM */
static char *UHVycGxl[] = {
/* columns rows colors chars-per-pixel */
"48 48 5 1 ",
"  c #B5A9C9",
". c #B5AAC9",
"X c #BBB7CF",
"o c #BBB7D0",
"O c #BBB8D0",
/* pixels */
"OOOOOOOOOOOOOOOOOOOOOOOo                        ",
"OOOOOOOOOOOOOOOOOOOOOOOo                        ",
"OOOOOOOOOOOOOOOOOOOOOOOo                        ",
"OOOOOOOOOOOOOOOOOOOOOOOo                        ",
"OOOOOOOOOOOOOOOOOOOOOOOo                        ",
"OOOOOOOOOOOOOOOOOOOOOOOo                        ",
"OOOOOOOOOOOOOOOOOOOOOOOo                        ",
"OOOOOOOOOOOOOOOOOOOOOOOo                        ",
"OOOOOOOOOOOOOOOOOOOOOOOo                        ",
"OOOOOOOOOOOOOOOOOOOOOOOo                        ",
"OOOOOOOOOOOOOOOOOOOOOOOo                        ",
"OOOOOOOOOOOOOOOOOOOOOOOo                        ",
"OOOOOOOOOOOOOOOOOOOOOOOo                        ",
"OOOOOOOOOOOOOOOOOOOOOOOo                        ",
"OOOOOOOOOOOOOOOOOOOOOOOo                        ",
"OOOOOOOOOOOOOOOOOOOOOOOo                        ",
"OOOOOOOOOOOOOOOOOOOOOOOo                        ",
"OOOOOOOOOOOOOOOOOOOOOOOo                        ",
"OOOOOOOOOOOOOOOOOOOOOOOo                        ",
"OOOOOOOOOOOOOOOOOOOOOOOo                        ",
"OOOOOOOOOOOOOOOOOOOOOOOo                        ",
"OOOOOOOOOOOOOOOOOOOOOOOo                        ",
"OOOOOOOOOOOOOOOOOOOOOOOO                        ",
"ooooooooooOOOOOOooooooOX.       .       ..... ..",
"        .... .. ..      OOOOOXoooooooooooooooooo",
"                        OOOOOOOOOOOOOOOOOOOOOOOO",
"                        OOOOOOOOOOOOOOOOOOOOOOOO",
"                        OOOOOOOOOOOOOOOOOOOOOOOO",
"                        oOOOOOOOOOOOOOOOOOOOOOOO",
"                        oOOOOOOOOOOOOOOOOOOOOOOO",
"                        oOOOOOOOOOOOOOOOOOOOOOOO",
"                        oOOOOOOOOOOOOOOOOOOOOOOO",
"                        oOOOOOOOOOOOOOOOOOOOOOOO",
"                        oOOOOOOOOOOOOOOOOOOOOOOO",
"                        oOOOOOOOOOOOOOOOOOOOOOOO",
"                        oOOOOOOOOOOOOOOOOOOOOOOO",
"                        oOOOOOOOOOOOOOOOOOOOOOOO",
"                        oOOOOOOOOOOOOOOOOOOOOOOO",
"                        oOOOOOOOOOOOOOOOOOOOOOOO",
"                        oOOOOOOOOOOOOOOOOOOOOOOO",
"                        OOOOOOOOOOOOOOOOOOOOOOOO",
"                        OOOOOOOOOOOOOOOOOOOOOOOO",
"                        OOOOOOOOOOOOOOOOOOOOOOOO",
"                        oOOOOOOOOOOOOOOOOOOOOOOO",
"                        oOOOOOOOOOOOOOOOOOOOOOOO",
"                        oOOOOOOOOOOOOOOOOOOOOOOO",
"                        oOOOOOOOOOOOOOOOOOOOOOOO",
"                        oOOOOOOOOOOOOOOOOOOOOOOO"
};
