/* XPM */
static char *UGluaw__[] = {
/* columns rows colors chars-per-pixel */
"48 48 5 1 ",
"  c #D0A9BF",
". c #D1A9BF",
"X c #D2AABF",
"o c #D3AABF",
"O c #DCAEC1",
/* pixels */
".......................oOOOOOOOOOOOOOOOOOOOOOOOo",
"......................oOOOOOOOOOOOOOOOOOOOOOOOo ",
".....................oOOOOOOOOOOOOOOOOOOOOOOOo..",
"....................oOOOOOOOOOOOOOOOOOOOOOOOo ..",
"...................oOOOOOOOOOOOOOOOOOOOOOOOo  ..",
"..................oOOOOOOOOOOOOOOOOOOOOOOOo.....",
"..................OOOOOOOOOOOOOOOOOOOOOOOo .....",
".................OOOOOOOOOOOOOOOOOOOOOOOo  .....",
"...............oOOOOOOOOOOOOOOOOOOOOOOOo .......",
"...............OOOOOOOOOOOOOOOOOOOOOOOo.........",
".............oOOOOOOOOOOOOOOOOOOOOOOOo .........",
"............oOOOOOOOOOOOOOOOOOOOOOOOo  .........",
"............OOOOOOOOOOOOOOOOOOOOOOOo ...........",
"......... oOOOOOOOOOOOOOOOOOOOOOOOo ............",
"........ .OOOOOOOOOOOOOOOOOOOOOOOo .............",
".........OOOOOOOOOOOOOOOOOOOOOOOo ..............",
".....  oOOOOOOOOOOOOOOOOOOOOOOOo................",
"..... oOOOOOOOOOOOOOOOOOOOOOOOo ................",
".....oOOOOOOOOOOOOOOOOOOOOOOOo .................",
"..  oOOOOOOOOOOOOOOOOOOOOOOOo...................",
".. oOOOOOOOOOOOOOOOOOOOOOOOo ...................",
"..oOOOOOOOOOOOOOOOOOOOOOOOo  ...................",
" oOOOOOOOOOOOOOOOOOOOOOOOo......................",
"oOOOOOOOOOOOOOOOOOOOOOOOo ..................... ",
"OOOOOOOOOOOOOOOOOOOOOOOo  ...................  o",
"OOOOOOOOOOOOOOOOOOOOOOo ..................... oO",
"OOOOOOOOOOOOOOOOOOOOOo ......................oOO",
"OOOOOOOOOOOOOOOOOOOOo ....................  oOOO",
"OOOOOOOOOOOOOOOOOOOo...................... oOOOO",
"OOOOOOOOOOOOOOOOOOo ......................oOOOOO",
"OOOOOOOOOOOOOOOOOo  .................... oOOOOOO",
"OOOOOOOOOOOOOOOOo.....................  oOOOOOOO",
"OOOOOOOOOOOOOOOo.......................oOOOOOOOO",
"OOOOOOOOOOOOOOo ....................  oOOOOOOOOO",
"OOOOOOOOOOOOOo  .................... oOOOOOOOOOO",
"OOOOOOOOOOOOo...................... oOOOOOOOOOOO",
"OOOOOOOOOOOo ..................... oOOOOOOOOOOOO",
"OOOOOOOOOOo  .................... oOOOOOOOOOOOOO",
"OOOOOOOOOo...................... oOOOOOOOOOOOOOO",
"OOOOOOOOo ..................... oOOOOOOOOOOOOOOO",
"OOOOOOOo  ..................   oOOOOOOOOOOOOOOOO",
"OOOOOOo ..................... oOOOOOOOOOOOOOOOOO",
"OOOOOo ......................oOOOOOOOOOOOOOOOOOO",
"OOOOo ....................  oOOOOOOOOOOOOOOOOOOO",
"OOOo...................... oOOOOOOOOOOOOOOOOOOOO",
"OOo ......................oOOOOOOOOOOOOOOOOOOOOO",
"Oo  .................... oOOOOOOOOOOOOOOOOOOOOOO",
"o.....................  oOOOOOOOOOOOOOOOOOOOOOOO"
};
