/* XPM */
static char *result[] = {
/* columns rows colors chars-per-pixel */
"60 68 12 1 ",
"  c #522F3B",
". c #693A35",
"X c #7D5046",
"o c #802C10",
"O c #9C3C16",
"+ c #B84615",
"@ c #C46622",
"# c #A6735E",
"$ c #8AA140",
"% c #AEBD42",
"& c #CFD150",
"* c None",
/* pixels */
"************************************************************",
"************************************************************",
"*************************OOOO*******************************",
"************************OOOOOOO*****************************",
"*********************OOOOOO++OOOOO**************************",
"********************OOO++++++@OOOOoo************************",
"********************O+++++++@@+OOOOOo***********************",
"******************ooO++++@@+@+++OO++oo**********************",
"*****************ooOO++@++@+@+@++O++Ooo*********************",
"*****************OOOOO+@+@++++@OOOOOOOo*********************",
"**************ooOOOO++++++@+++@O+OOOOOo*********************",
"**************ooOO@@+@@+@+++++@O+OO++OooO*******************",
"**************oO++++++++++@++@+OOOO++Ooooo******************",
"*************OO+@@++@@+@++@+@OOOOOOOOOooooo*****************",
"*************+++@@++@@+++OOOOOOOOOOOOOoooooo****************",
"**********oo++@++++++OOOOOOOOOoooOOOOoooo   o***************",
"*********ooo++++++@@+O++O@@OOoooooooo     ooo***************",
"*********oOOOOO+++++OOOOO@@OOoooOoooo oo  oo  **************",
"******ooOO++++O+++OOOOOOO++OOOooooOOo oo       *************",
"*****ooO@@+@@++@@+oooooooOO++OOoooOOo     oo   o************",
"*****OOOO++@@++@@+oOOoOOoOO++OOOooooo   o   ooo o***********",
"*****OOO@+@++O++++ooOooooOOOOOOOoooOooooooooooo   **********",
"*****ooo++@++O+OooooooOOooOOOOOoooOOOooOoOOooooo   *********",
"*****oooOO+OOOoooooooOOOOOooOOoooooOooOOoOOoOoooo  *********",
"*****oooOOOOOOoooOo+OOOO++OoooooOOoooooooOOoOOoooo *********",
"******oooOOOooooooo+OO+++@@++oooOOOoooOOooooooooo  *********",
"*****ooooooooOooOoOOOOOO+++++oOoOOOooooOoOoOooooo   ********",
"***ooooOOoOoO+OoOoOOO@+O++OOOooooooooooOOOOOoooo     *******",
"***oOOoOOoOooOooooOOO@+O++O++OOooooooooooOooooo      *******",
"***ooOOOooOOoOoOoOOO++OOOOOOOOOoOOOOOoOOOoooooo oo o  ******",
"****O++@@@++oooOOOOOOOO+++OOOOooo++OOooooooooo  oo    ******",
"**ooO++@@@+@+oooooO+++O+++O+OOooo++OOoooOOoo         o******",
"**ooO+++++@@@ooOOoO+++OOOOOOOoooOOOOOoooOoo      oooooo*****",
"***O++@@+@+@+ooOOoOOOOOOooooooooOOOoooooooo   ooooooooo*****",
"**oO++@@++++Oooooooo++OOoOOoooo++OooOoooooooooooooooooo ****",
"**oOO++++@+OoooOoOOoOOOOoOOooo+++OoOoooooooooooOooOoooo ****",
"**oooO+@+++OOooOoooooooooooo++OOOOooooooooOoOOoOOoOoo o ****",
"***ooOO++OOOooooooooo@+++@@++OOooooooooooOOooooOOoo  o  ****",
"***ooOOOOOOoOOooooO++@+++@@++OooOooOOooooooooOoOooo oo  ****",
"***oooO++OOoOOooo+OO++++++++OOoOOooOOooOOoOooooooOo    *****",
"**** oOOOOoooooOO++O++++++OOOOoooooooooOooOoOOOoOOoo   *****",
"**** ooOOooooooOOOOO+O+OOOOOOOOoooo  ooooOOooOooooo   ******",
"***   oooo  ooOoOOOO+++OO++OOOOoooo  oOOooooooooooo   ******",
"***    oo   ooooooOOO++OO++OOOOoo    oOOoOOoooooo     ******",
"****            oOOOOOOOOOOOOOooo oo ooooooo         *******",
"*****    oo oo  OOooOOOOooooOoooo oo    oooo oo oo  ********",
"********     o  OOooooOOoOOooooo     oo oo   oo o   ********",
"**********    oooooooooooooooooo  o  oo oo o        ********",
"***********         oOOoooo   oo ooo     o o oo    *********",
"*************     o oo   oo o o   o          oo   **********",
"**************** ooo o o oo                      ***********",
"*****************                        *******************",
"***************$$$$$                $$$$$*******************",
"**************$$$$$$$      .      $$$$%$$$******************",
"**************$%$$%$$  ..  ..      $$$%$$$$*****************",
"*************$$%$$$$  .XX .XX.   .. $$$$$$$*****************",
"*************$$$%$$  .#X. .X#..   .  $$%$$$*****************",
"*************%$$%$$ .X..  .##..      $$%$$******************",
"*************$$&$$$       .X#.  $$$$$$%$$*$*****************",
"**************$%$$$$$$$$$  .X.  $$$$$$%$*$$*****************",
"***************%$$$&$$$&$$     $$$&$$%$**$******************",
"******************$&$%$%$$$   $$$$&$$%**********************",
"*********************$%$%$$$$$$%$$%$$***********************",
"*********************$*$%$$%$$$%$***************************",
"************************%*$%$$*%****************************",
"************************************************************",
"************************************************************",
"************************************************************"
};
