/* XPM */
static char *_81fed929ed84471fd9c1f708c2ec6946ksYvXa0dU1DNRW0[] = {
/* columns rows colors chars-per-pixel */
"48 48 231 2 ",
"   c #3D071D",
".  c #781107",
"X  c #7A2915",
"o  c #752418",
"O  c #76291C",
"+  c #792A1A",
"@  c #7E3313",
"#  c #4F1732",
"$  c #6B1E24",
"%  c #5F262B",
"&  c #4A2338",
"*  c #4E293A",
"=  c #562A38",
"-  c #6E2924",
";  c #662529",
":  c #642A2D",
">  c #6A2A29",
",  c #722A22",
"<  c #7A2D23",
"1  c #732D2B",
"2  c #77332A",
"3  c #632C32",
"4  c #682C33",
"5  c #663336",
"6  c #77353B",
"7  c #7C431B",
"8  c #5C493E",
"9  c #704F2B",
"0  c #664539",
"q  c #5D623C",
"w  c #67673C",
"e  c #553544",
"r  c #5C3543",
"t  c #642A41",
"y  c #673948",
"u  c #7B3F41",
"i  c #484443",
"p  c #4B4D44",
"a  c #554749",
"s  c #49564D",
"d  c #5D5743",
"f  c #4E5E52",
"g  c #69444C",
"h  c #774747",
"j  c #73464B",
"k  c #6E4651",
"l  c #744B53",
"z  c #784B54",
"x  c #6E5252",
"c  c #78565A",
"v  c #57664C",
"b  c #4F6154",
"n  c #4D6F54",
"m  c #516152",
"M  c #4D7957",
"N  c #567750",
"B  c #77645F",
"V  c #695A61",
"C  c #7B5D61",
"Z  c #5E7D61",
"A  c #696368",
"S  c #6D666B",
"D  c #7E6463",
"F  c #736469",
"G  c #73696D",
"H  c #7A6B69",
"J  c #607F62",
"K  c #767667",
"L  c #756D72",
"P  c #786F74",
"I  c #7B7175",
"U  c #7E7578",
"Y  c #9B0905",
"T  c #852806",
"R  c #8C2C0A",
"E  c #962908",
"W  c #8F3203",
"Q  c #8E340C",
"!  c #983406",
"~  c #94340B",
"^  c #9A360C",
"/  c #973B0D",
"(  c #9A3A0C",
")  c #8A2C10",
"_  c #902B10",
"`  c #8A3313",
"'  c #953611",
"]  c #9B3C12",
"[  c #A63D08",
"{  c #A43D0D",
"}  c #A33E11",
"|  c #853828",
" . c #9E410F",
".. c #88471B",
"X. c #844B1D",
"o. c #8F4B1D",
"O. c #AA4706",
"+. c #A5420E",
"@. c #AB420E",
"#. c #B34405",
"$. c #A54411",
"%. c #AB4511",
"&. c #A54B16",
"*. c #AC4912",
"=. c #B34C12",
"-. c #B64C15",
";. c #B85414",
":. c #814C22",
">. c #9B4A28",
",. c #8C5521",
"<. c #8E4D33",
"1. c #A14727",
"2. c #C55C12",
"3. c #824A46",
"4. c #8A584A",
"5. c #875656",
"6. c #865A5B",
"7. c #8B5C5B",
"8. c #935D54",
"9. c #985F53",
"0. c #915F5B",
"q. c #8D6156",
"w. c #936255",
"e. c #9A6254",
"r. c #956A50",
"t. c #93635C",
"y. c #9B665A",
"u. c #9D6A5C",
"i. c #96785E",
"p. c #AE6B4D",
"a. c #A56B54",
"s. c #A46D59",
"d. c #A9735A",
"f. c #B37A57",
"g. c #B17A59",
"h. c #876465",
"j. c #8B6A6E",
"k. c #976963",
"l. c #85766E",
"z. c #8A766D",
"x. c #9C7765",
"c. c #8C6C70",
"v. c #847A7D",
"b. c #8D7A79",
"n. c #927473",
"m. c #947B73",
"M. c #9B7D73",
"N. c #A57464",
"B. c #A97662",
"V. c #AC7B64",
"C. c #A47B6A",
"Z. c #B37E62",
"A. c #448256",
"S. c #458659",
"D. c #4B8459",
"F. c #4B8D5E",
"G. c #578655",
"H. c #4E905F",
"J. c #569A5F",
"K. c #5B995B",
"L. c #6F875C",
"P. c #629851",
"I. c #63A25B",
"U. c #6CA858",
"Y. c #71AA56",
"T. c #4E8F61",
"R. c #5C8769",
"E. c #479162",
"W. c #4B9261",
"Q. c #4C9261",
"!. c #4C9262",
"~. c #4C9362",
"^. c #529661",
"/. c #7FAA62",
"(. c #BE845F",
"). c #B5A446",
"_. c #928573",
"`. c #9D8579",
"'. c #A08560",
"]. c #BB8462",
"[. c #B98666",
"{. c #A58372",
"}. c #AB8A76",
"|. c #A38B7C",
" X c #B18E76",
".X c #AD907C",
"XX c #B4937A",
"oX c #BA967A",
"OX c #BC997D",
"+X c #8CB162",
"@X c #A4BC61",
"#X c #C38A63",
"$X c #C98F63",
"%X c #CF9869",
"&X c #8B7F80",
"*X c #8D8183",
"=X c #8E8F84",
"-X c #948583",
";X c #998986",
":X c #9D8C8A",
">X c #A48E81",
",X c #AA9483",
"<X c #A69589",
"1X c #B39C87",
"2X c #BC9E82",
"3X c #A59391",
"4X c #B5A28D",
"5X c #BBA58B",
"6X c #BCAC93",
"7X c #B8A894",
"8X c #BFB69B",
"9X c #C3A485",
"0X c #C6A98A",
"qX c #CCAC8B",
"wX c #C0AF94",
"eX c #C3B296",
"rX c #C3B49A",
"tX c #C9B89C",
"yX c #CCBB9E",
"uX c #D2B796",
"iX c #CDBDA1",
"pX c #D0BFA3",
"aX c #CBC3A3",
"sX c #D2C2A4",
"dX c #D5C6A9",
"fX c #D6C8AA",
"gX c #DBCDAD",
"hX c #DFD0AF",
"jX c #DED1B0",
"kX c #E0D1AF",
"lX c #E1D2B1",
/* pixels */
"~.~.~.~.~.~.~.~.~.~.~.~.~.~.~.~.~.~.~.~.~.~.~.^.^.~.~.~.~.~.~.~.~.~.~.~.~.~.~.~.~.~.~.~.W.W.W.W.",
"~.~.~.~.~.~.~.~.~.~.~.~.~.~.~.~.~.~.~.F.F.~.~.L.#XK T.~.~.~.~.~.~.~.~.~.~.~.~.~.~.~.~.~.W.E.W.W.",
"~.~.~.~.~.~.~.~.~.~.~.~.~.~.~.~.~.~.F.A.A.M 9 (.#X7.p M ~.~.T.~.~.~.~.~.~.~.~.~.~.~.~.~.F.A.S.F.",
"~.~.~.~.~.~.~.~.~.~.~.~.~.~.~.~.~.~.F.A.q Q ' g.Z.7.4 4 a D.H.~.H.~.~.~.~.~.~.~.~.~.~.~.W.S.S.F.",
"~.~.~.~.^.K.I.~.~.~.~.~.~.~.~.~.~.H.w 7 ' ^ ` f.].6.* - 1 5 8 G.I.~.~.~.~.~.~.~.~.~.~.~.~.W.~.~.",
"~.~.~.~.U.K.I.~.~.~.~.~.~.~.~.~.^.9 $.~ ( %._ f.#Xq.: X , : < 2 G.F.~.~.~.~.~.~.~.~.~.~.~.~.~.~.",
"~.~.~.^.Y.^.^.^.~.~.~.~.H.~.W.w 7 +.$.+.~ ^ ' g.[.6.> > : - + < 3 0 M ~.~.~.~.~.~.~.~.~.~.~.~.~.",
"~.~.~.^.J.~.~.~.~.~.~.H.H.D.9 *.+.^ / $.R Q R g.(.6.* - > > - 3 - Q 5 n F.~.~.~.~.~.~.~.~.~.~.~.",
"~.~.~.~.~.~.~.~.~.H.~.H.v { { ~ $.*. .~ ^ *.) f.].6.: X - : : + O > 3 @ 0 D.~.H.H.~.~.~.~.~.~.^.",
"~.~.~.~.~.~.~.~.~.~.~.w Q %.*.[ / ^ *.#.~ / ' f.].6.> - : - + O % > O O , 8 D.W.~.~.~.~.~.~.~.I.",
"~.~.~.~.~.~.~.~.F.N 9 [ ^ Q +.+.{ ~ / +.R ~ ) f.].6.* - > > - : - X o : > ` 1 m D.T.~.~.~.~.~.~.",
"~.~.~.S.F.~.~.F.:.{ ~ { { ( R ~ +.*.~ R ^ @._ f.].6.: X - : : O O > : - + , : 1 o n F.H.~.~.~.~.",
"~.~.S.A.A.H.w ` %.%.+.~ / +.{ ~ ~  .$.{ ~ / ' f.#X6.> > : , X O : : O + > ; - + + 3 0 M F.H.H.~.",
"E.~.H.D.w 7 %.{ ~ / +.~ ~ Q +.+.{ ~ / $.R ~ R f.Z.6.* , : > > % - X , : > + + > 4 - ` > 8 M H.~.",
"+X~.G.,.=.~ { *.*.+.R ~ @.( ^ ^ $.=. .~ ^ %.) f.#X6.: X , 3 > O O - % - X - > , o X O : | X d ~.",
"+X~...;.~ %.{ ^ *.=.{ ~ / +.%.{ ~ ( @.@.~ / ' f.].6.; ; : - X , : > O O > : > T O - - @ > X 2 n ",
"I.~.X.+.R $.*.+.E / $.^ ~ ~ +.+.{ ~ / @.R ~ R f.$X6.* - > > - : - X O : : O + > : - X , : > 4 n ",
"Y.~.,.;.+.R ( *.$.~ R ( { ^ R ~ $.*./ R ^ +._ f.#X6.: X - 3 > O X > % - X , : : O X ; 3 + X < n ",
"P.P.o.;.+.{ ~ T  .$.{ ~ / +.{ ~ Q  .$.{ ~ ( ~ g.Z.5.; > 3 , o , : : O X > : , X O : : + + + 5 n ",
"S.P.X.*.~ $.{ { ~ / $.~ ~ ~ +.+.[ / / +.^ ~ ' g.#X6.3 , , , - 3 - X O : : o + > % - + O : > 1 n ",
"~.S.7 *.$.T { *.=.+.R ~ %.( ^ ^ $.*.{ ~ [ -.<.d.s.5.= , o ; > O + > : - X - > , O + X : - X 4 n ",
").~.X.=.^ =.{ / $.=.{ ~ / +.%.{ ~ ] =.#.1.h l k l k z k y o + , : : O O ; : > T O - - X - + = n ",
"J.~.X.*.R +.*.+.~ / +.^ ~ ~  .@.} ! ! 3.h.n.`.,X,X,X>XM.m.6.$ ; , X , : > + + > 3 - + , : > > n ",
"~.E.,.;.{ Q ^ *.+.~ R ^ } ^ Q ^ O.>.z z.>X6X5X{.{.x..X6X7X1Xm.h . > : - X , : ; o X > 3 X X < n ",
"~.~.X.;.+.+.~ T ] $.{ ~ / $.{ T 3.z.4XrXgXyX{.<.f.4.u.`.tXhXtX5Xj.: X o > : - X , : : + , + 3 n ",
"~.~.X.*.Q +.+.{ ^ / $.~ ~ W >.6.`.6X6XsXfXiXs.9.f.r.3._.iXkXtXyX7Xm.6 ; ; O O > : , + , : > 1 n ",
"~.~.7 *.$.T { %.&.$.~ / $.u c.1XeXfXaXiX6XhXrX}.k.t.|.tXhXfXyXfXrXrX4X6.< , > , , + + : - X 4 n ",
"~.~.X.*.^ *.^ &.=.#.R > 5.h.C.C.OXqX0XqX9XqXqX5XoXOX0X9X9XqX0X0X0X2X.Xk.6.= ; T T X > O , , 3 n ",
"~.~...=.' ~ ~ O.| 3.g g y 5.C.}.C.C.x.N.}.8.| 8.C.u.3.8.C.C.C.C.M.C.}.h.y r g j 4 o : : > , < n ",
"~.F...;.-.[ + x b.1X5XyX4X7.[.uXjXjXfXiXgXpX>XN.[.t.n.6XaXgXhXhXjXjXuXs.M.tXrX4X|.j.= : X X 4 n ",
"~.~.:.&.` # 6.>XwXpXjXjXjXiX{.V.0XfXjXgXgXhXuXV.h.z |.fXhXhXhXhXfX%Xs.1XfXjXgXgXyX7X`.r = , t n ",
"~.~.a r e = c M..X2X1X2X2X9X2XC.a. X2X2X5XXXd.N.}.N.u. X5XOX5XOXV.u. X9X9X2X1X2XOX{.h.g k c 6.M ",
"~.~.B k.7.z r 5.t.9.8.9.e.9.e.u.u.e.e.e.e.e.u.u.s.u.u.e.e.e.e.e.y.u.y.e.w.e.8.e.e.7.k r 7.u.k.Z ",
"~.~.i.].B.l r z l C c D D D D D D h.H D D D D c c D C D D h.D H D D D D D h.c D c z j e t.].V.Z ",
"~.W.i.#X].y e.C.>X4XeX6X6XtXtXiXyXyXyXyXtXyXsXsXsXsXiXtXyXyXyXyXyXyX7X5XsXtXrX6X1XM.B.j 0.%XZ.J ",
"~.~.'.%X].j z.,XwXiXdXsXlXjXlXlXlXlXlXkXlXkXsXeXeXeXiXgXkXlXkXkXlXlXsXgXlXlXlXgXiX6X,Xx k.#XB.L.",
"~.~.'.%X].j _.5XpXkXgXdXsXrXyXfXhXhXhXkXrXu.>.E o E <.6.|.sXkXkXkXkXhXjXjXlXjXlXgXiX8Xc 0.].N.J ",
"~.~.'.#X[.y |.eXyXkXlXsXpXgXhXfXfXlXdXyXp.Y [ 2.[ 2.+ E . |.dXkXlXlXlXlXgXhXlXlXkXtX6Xc t.#XN.J ",
"~.~.i.].[.g `.5X6XiXaXfXgXjXsXeXfXsX8XeXa.W >.>.| &.2 < $ z.6XyXdXgXgXgXgXyXaXsXrX6X1XC 0.].N.J ",
"E.~.'.k.N.l D m.|. X XXXXXXX X XoX XXXOXx * r & & & e y # i.OXoXoXoXoXoXOXoX X X{.`.m.l t.B.N.J ",
"/.W.x.t.k.y = j 9.e.a.a.a.a.d.d.a.a.a.d.0 y z j z h z 5.* 8.e.w.9.a.8.8.e.y.s.y.8.5.j # 7.0.0.J ",
"+XW.K c.c.h.C c.j.j.j.j.j.j.j.C j.j.j.j.r h #X5.u.7.q.8.& c j.j.j.C j.c.j.j.j.c.j.j.D j.j.j.n.R.",
"I.W.=X3X>X;X*X3X;X3X-X;X3X:X;Xb.3X;X3X-Xa j s.y.N.y.7.7.= b.3X:X;X&X3X-X<X-X;X3X:X;X*X3X-X3X3XR.",
"Y.W.L A L U U &XG G U L A F v.v.v.G G v.e # t 4 5 3 3 5   V A S I &Xv.L S v.P V F U U v.P F v.R.",
"P.P.K I F &X&X*XP G &XU L F v.&X*XU G L H z.b.l.z.l.l.l.U K A F v.&X&Xv.G &Xv.P F v.-X&XU F *XR.",
"S.P.m f p m f f f p s f f p f f v v v z.tXlXhXlXlXlXlXlXfX_.A i f f f f p s f f p b v v v p s M ",
"H.S.F.F.!.!.T.~.~.~.T.~.~.~.~.~.^.J.U.aXaXiX8XrX8X6XaXtX7X<X`.^.~.~.T.~.!.!.!.!.~.~.^.^.U.~.~.~.",
").~.~.~.!.!.!.~.~.~.~.~.~.I.@X~.~.~.~.8XdX7X8XiX7XrX7X8X7X7X_.T.T.~.~.~.!.!.!.P.@X~.~.~.^.~.~.~."
};
