/* XPM */
static char *_b54816f91144f99ad1dfcf486d5966aWsgDd4Cpu2n3Adp4[] = {
/* columns rows colors chars-per-pixel */
"48 48 124 2 ",
"   c #4D9262",
".  c #4D9362",
"X  c #4A8C5E",
"o  c #4B8E5F",
"O  c #4A8D5F",
"+  c #458258",
"@  c #4B8F60",
"#  c #4B8D5F",
"$  c #4E9262",
"%  c #4E9362",
"&  c #4C9060",
"*  c #468358",
"=  c #47855A",
"-  c #4C9161",
";  c #4C9061",
":  c #468459",
">  c #519561",
",  c #5B9B5E",
"<  c #62A05C",
"1  c #4C9162",
"2  c #5A9A5E",
"3  c #63A15C",
"4  c #4F9461",
"5  c #6CA659",
"6  c #5E9E5D",
"7  c #65A25B",
"8  c #4F9361",
"9  c #6CA759",
"0  c #5E9D5D",
"q  c #67A35B",
"w  c #509461",
"e  c #6EA859",
"r  c #56985F",
"t  c #599A5F",
"y  c #4C9262",
"u  c #58995F",
"i  c #559760",
"p  c #5F9E5D",
"a  c #4C8F60",
"s  c #47865A",
"d  c #458157",
"f  c #4D9162",
"g  c #4D9161",
"h  c #499062",
"j  c #82AB62",
"k  c #8EB162",
"l  c #62A15B",
"z  c #70A958",
"x  c #6AA55A",
"c  c #71A957",
"v  c #4D9060",
"b  c #67A45B",
"n  c #68A45A",
"m  c #539660",
"M  c #73AB57",
"N  c #4D905F",
"B  c #66A35B",
"V  c #5A9B5E",
"C  c #549760",
"Z  c #629752",
"A  c #629853",
"S  c #71A754",
"D  c #54945E",
"F  c #569860",
"G  c #609753",
"H  c #619753",
"J  c #72A754",
"K  c #54955D",
"L  c #6BA659",
"P  c #57995F",
"I  c #4A8556",
"U  c #5E9351",
"Y  c #4F8955",
"T  c #5B9C5E",
"R  c #4A8657",
"E  c #508954",
"W  c #4A8C5F",
"Q  c #4F9060",
"!  c #46855B",
"~  c #57985F",
"^  c #6AA65A",
"/  c #B0A248",
"(  c #4F9362",
")  c #529660",
"_  c #4D9363",
"`  c #57945F",
"'  c #549660",
"]  c #619F5C",
"[  c #64A25B",
"{  c #4B8E60",
"}  c #468359",
"|  c #599A5E",
" . c #519461",
".. c #609F5D",
"X. c #66A25B",
"o. c #609F5C",
"O. c #47875B",
"+. c #4A9062",
"@. c #458257",
"#. c #7EA962",
"$. c #92B362",
"%. c #5D9D5D",
"&. c #61A05B",
"*. c #69A55A",
"=. c #589A5F",
"-. c #5A9B5F",
";. c #639852",
":. c #72A854",
">. c #54955E",
",. c #619854",
"<. c #609653",
"1. c #73A854",
"2. c #55955D",
"3. c #609551",
"4. c #518A54",
"5. c #46855A",
"6. c #B7A347",
"7. c #4B9162",
"8. c #6BA062",
"9. c #A3BB62",
"0. c #4A9162",
"q. c #679F62",
"w. c #A6BD61",
"e. c white",
/* pixels */
"                                                                                                ",
"                                    . X o                                               . O o . ",
"                                    O + + @                                             # + + o ",
"          $ %                       & * = -                   $ %                       ; : : ; ",
"        > , < 1                       ; -                   > 2 3 1                       ; -   ",
"      4 5 6 7 1                                           8 9 0 q 1                             ",
"      w e r t y                                           8 e r 2 y                             ",
"      % u   y                               %             $ u   y                               ",
"        1                                 i 7 w             1                                 > ",
"                                        $ 7 < p 1                                             7 ",
"      .                                   w p                                                   ",
"      = a                                   1             = @                                   ",
"  . s * d f                                           . s * d g                                 ",
"h   ; + O                                               - + X                                   ",
"j $                                               1                                             ",
"k %                                               0 w                                           ",
"l   % $                         %                 z x   % $                         %           ",
"c v b t 1                       n m 1             5 M N B V 1                     y q C 1       ",
"Z A S D y                       5 r F             w G H J K y                     y L P r       ",
"I U Y O                         5 T L             - R U E W                       y L T 9       ",
"Q ! O .                         P ~ ^               ; ! O .                         P r L       ",
"/ (                             1 % )                 _                             1 % m       ",
"`                   1 ' 8                                               1 m 4                   ",
"                  y i 7 ] (                                           y C [ ] 8                 ",
"                  y i 7 ] (                                           y C [ ] 8                 ",
"                    1 ' 8                                               1 m 4                   ",
"                                                                                                ",
"                                    . O {                                               . # o . ",
"                                    # + + a                                             o + + { ",
"          $ %                       a * : ;                     %                       & } : ; ",
"        w V ] 1                       ; -                   w | < 1                       ; ;   ",
"      4 L 6 7 1                                           8 L 0 q 1                             ",
"      w e P 2 y                                           8 e P V y                             ",
"      % t   y                               $             $ t   y                               ",
"        1                                 C 7 w             1                                  .",
"                                        $ 7 < ..1                                             X.",
"      .                                   w o.            .                                     ",
"      s &                                   1             s a                                   ",
"  . s * d f                                           . O.* d g                                 ",
"+.  ; @.X                                               ; + X                                   ",
"#.$   f                                           1       f                                     ",
"$.%                                               %.8                                           ",
"&.  $                           %                 z *.  $                           %           ",
"c v B =.1                       q m 1             9 M v 7 -.1                     y B ' 1       ",
";.H :.>.y                       5 r i              .,.<.1.2.y                     y L ~ i       ",
"I 3.E O                         9 T L             - R 3.4.W                       y L T 5       ",
"v 5.O .                   $ %   u P L               ; 5.W .                     %   u r L       ",
"6.(                     7.8.9.0.1 % C                 _                     1 q.w.7.1 % C       "
};
