/* XPM */
static char *result[] = {
/* columns rows colors chars-per-pixel */
"48 48 235 2 ",
"   c #040504",
".  c #070A07",
"X  c #0C0C0C",
"o  c #170509",
"O  c #0C120D",
"+  c #0A170D",
"@  c #13140F",
"#  c #0B0B15",
"$  c #170E10",
"%  c #0C1412",
"&  c #091514",
"*  c #0C1A12",
"=  c #131413",
"-  c #131B14",
";  c #161C19",
":  c #1B1C1B",
">  c #290709",
",  c #34030B",
"<  c #2C011D",
"1  c #3A071A",
"2  c #231B1B",
"3  c #192E12",
"4  c #17261B",
"5  c #21241E",
"6  c #332E1A",
"7  c #130624",
"8  c #1B1824",
"9  c #090236",
"0  c #160730",
"q  c #22172A",
"w  c #2E0E31",
"e  c #26033D",
"r  c #1C2921",
"t  c #1B3724",
"y  c #242424",
"u  c #292626",
"i  c #252A25",
"p  c #2B2A27",
"a  c #27262A",
"s  c #2C2C2C",
"d  c #312E2E",
"f  c #253729",
"g  c #2D322D",
"h  c #32342A",
"j  c #352E35",
"k  c #2D3931",
"l  c #323332",
"z  c #353A36",
"x  c #383738",
"c  c #3B3B3B",
"v  c #490913",
"b  c #560813",
"n  c #650609",
"m  c #6C031A",
"M  c #75031A",
"N  c #510C2E",
"B  c #6B0F29",
"V  c #760721",
"C  c #522E2B",
"Z  c #632A2D",
"A  c #6C2633",
"S  c #25442D",
"D  c #294B2F",
"F  c #2B4B35",
"G  c #384436",
"H  c #344439",
"J  c #334C3B",
"K  c #2D5439",
"L  c #2E583B",
"P  c #33583D",
"I  c #506A0D",
"U  c #494A3B",
"Y  c #62453C",
"T  c #0D0249",
"R  c #2A0F45",
"E  c #290454",
"W  c #37035A",
"Q  c #362B45",
"!  c #0D036F",
"~  c #3A0668",
"^  c #2A0274",
"/  c #3C0A75",
"(  c #4F0C4B",
")  c #491946",
"_  c #490857",
"`  c #531B56",
"'  c #7C094A",
"]  c #4C3847",
"[  c #703057",
"{  c #460667",
"}  c #540866",
"|  c #4A146B",
" . c #5A1A66",
".. c #490579",
"X. c #540F7D",
"o. c #681775",
"O. c #5B2670",
"+. c #344B44",
"@. c #3B5342",
"#. c #375B43",
"$. c #346443",
"%. c #3B6547",
"&. c #366946",
"*. c #3B6D4B",
"=. c #3C734D",
"-. c #3E7851",
";. c #444544",
":. c #434B45",
">. c #49464A",
",. c #4A4C4B",
"<. c #554C45",
"1. c #46594A",
"2. c #555748",
"3. c #4F4D53",
"4. c #554F54",
"5. c #4D5751",
"6. c #535454",
"7. c #585958",
"8. c #5C5D5D",
"9. c #6D5154",
"0. c #496747",
"q. c #50684E",
"w. c #48784A",
"e. c #4D6354",
"r. c #496B53",
"t. c #596859",
"y. c #417551",
"u. c #427B53",
"i. c #4D7F5B",
"p. c #557756",
"a. c #5B5661",
"s. c #6B536B",
"d. c #5F6160",
"f. c #5C7C66",
"g. c #636463",
"h. c #6C676A",
"j. c #71656E",
"k. c #6C776C",
"l. c #776574",
"z. c #890425",
"x. c #98072A",
"c. c #871A34",
"v. c #A70332",
"b. c #BE0833",
"n. c #BF0139",
"m. c #C7033B",
"M. c #D3083D",
"N. c #90105B",
"B. c #AE1C47",
"V. c #9F2A5C",
"C. c #AB2C4B",
"Z. c #8C2D70",
"A. c #B23764",
"S. c #DD0143",
"D. c #D41548",
"F. c #E90449",
"G. c #F00D52",
"H. c #D72657",
"J. c #ED3B6A",
"K. c #F33266",
"L. c #934256",
"P. c #827E50",
"I. c #9F5C6B",
"U. c #AD4D65",
"Y. c #877074",
"T. c #D4587A",
"R. c #E5476F",
"E. c #F74B7C",
"W. c #7AA51B",
"Q. c #438357",
"!. c #4B8854",
"~. c #458659",
"^. c #4A855A",
"/. c #478A5C",
"(. c #498D5E",
"). c #548856",
"_. c #4C925F",
"`. c #58965A",
"'. c #569A5F",
"]. c #5A9C5E",
"[. c #629851",
"{. c #65A35B",
"}. c #6BA758",
"|. c #6DA958",
" X c #72A955",
".X c #4B8F60",
"XX c #528C63",
"oX c #479162",
"OX c #4C9362",
"+X c #519661",
"@X c #539860",
"#X c #7F8A7B",
"$X c #70A462",
"%X c #8D9916",
"&X c #918335",
"*X c #87925E",
"=X c #B1B152",
"-X c #8F926D",
";X c #8FB06D",
":X c #A4B564",
">X c #D4BC47",
",X c #CDC168",
"<X c #580A83",
"1X c #571781",
"2X c #691A86",
"3X c #6B1194",
"4X c #812E89",
"5X c #887887",
"6X c #957C91",
"7X c #F75583",
"8X c #D76485",
"9X c #918B92",
"0X c #9A8999",
"qX c #ADB08F",
"wX c #9E9EA6",
"eX c #A695A5",
"rX c #B597B0",
"tX c #AFACB2",
"yX c #B7A2B4",
"uX c #C5A0BE",
"iX c #AAC393",
"pX c #BBC796",
"aX c #BDC6B0",
"sX c #C7D693",
"dX c #D7EC9F",
"fX c #C6C7B7",
"gX c #C8D4B6",
"hX c #CBACC6",
"jX c #D3AFCD",
"kX c #E3BDDD",
"lX c #EABCE2",
"zX c #CDCECF",
"xX c #EFF6DB",
"cX c #EFCAE9",
"vX c #F2F2E5",
/* pixels */
"OXOXOXOXOXOXOXOXOXOXOXOXOXOXOXOXOX+XOXOXOXOXOXOXOXOXOXOXOXOXOXOXOXOXOXOXOXOXOXOXOX+XOXOXOXOXOXOX",
"OXOXOXOXOXOXOXOXOXOXOXOXOXOXOXOXOXOXOXoX.XOXOXOXOXOXOXOXOXOX+XOXOXOXOXOXOXOXOXOXOXOXOXOXOXoX(.OX",
"OXOXOXOXOXOXOXOXOXOXOXOXOXOXOXOXOXOXOXQ.Q..XOXOXOXOXOXOXOXOXOXOXOXOXOXOXOXOXOXOXOXOXOXOXoXQ.~.oX",
"OXOXOXOXOXOX+XOXOXOXOXOXOXOXOXOXOXOXOXQ.~.OXOXOXOXOXOXOXOXOXOXOXOXOXOXOXOXOXOXOXOXOXOXOXOX~.Q.OX",
"OXOXOXOX+X].{.OXOXOXOX.XOXOXOXOXOXOXOXOXOXOXOXOXOXOXOXOXOXOX+X@X{.OXOXOXOXOXOXOXOXOX+XOXOXOXOXOX",
"OXOXOX+X|.].{.OXOXOXOXOXOXOXOXOXOXOXOXOXOXOXOXOXOXOXOXOXOX+X|.].{.OXOXOXOXOXOXOXOXOXOXOXOXOXOXOX",
"OXOXOX+X|.@X@XOXOXOX.X.XOXOXOXOXOXOXOXOXoX.X.XOXOXOXOXOXOXOX|.@X'.OXOXOX(..XOXOXOXOXOXOXOXOXOXOX",
"OX+XOX+X@XOXOXOX.X^.*.*.(.OX_.OXOXOXOXOXOXOXOXOXOXOXOXOXOX+X@XOXOX.X.X~.%.=.~.OXOXOXOXOXOXOXOXOX",
"OXOXOXOXOXOXoXOX/.*.J J &.=.-.~.oXOXOX_._.).[.(./././.oX.XOXOX(.Q.=.=.$.J J y._.OXOXOXOXOXOXOX+X",
"OXOXOXOXOXOXOXOXu.H G J 3 - 4 $.u.(.(.Q.u.w.w.w.*.*.*.u./.(./.-.K 4 4 t U :.@.~.OXOXOXOXOXOXOX{.",
"OXOXOXOXOXOXOXOXy.: l.0X5Xs.f :.#.K &.0.1.e.t.5.5.5.5.1.#.$.K @.;.k j.6X0Xk.t Q.OXOXOXOXOXOXOXOX",
"OXOXOXoX_.OXOXOXy.: 6XhXjXeXj.3.y - r z ;.7.8.8.t.g.d.5.:.H i l 7.5XrXhXuXl.4 -.OXOXOXOXOXOXOXOX",
"OXOX/.Q.Q._.OXOXy.: 5XjXcXlXeX]   y g l c >.6.8.t.g.h.g.g.d.5.k j.hXcXcXyXj.4 -.OXOXOXOXOXOXOXOX",
"oXOXoXQ.(.OXOXOXu.f 4.eXcXjXl.d O l l s s l c +.>.6.7.8.g.h.g.7.g.0XjXkX0X,.S Q.OXOXOXOXOXOXOXOX",
";X_._.oXOXOXoXOX/.L r 7.yX5X  * s l s s s y : : a l c ;.6.8.g.g.7.H 0XyXj.S &.(.OXOXOXOXOXOXOXOX",
";X_._._.OXOX_.OX/.&.k j >.l * s s s s s s s s s s p a s l ;.6.d.g.d.a.a.7.@.-.oXOXOXOXOXOXOX+XOX",
"{.OXOXOXOXOXOXOX_.Q.J O   X l l l g l l l s s s s a a s l l z ,.7.8.,.k z %.~.OXOXOXOXOXOXOXOXOX",
" XOX{.'.OXOXOXOXOX(.K * ; a l s s s s s y s s s s s s s s i y y x :.8.6.f $.OXOXOXOX{.'.OXOXOXOX",
"[.[. X`.OXOXOXOXOX/.K ; i : X % # 8 . O $ s d s s g p X X O q # X ; 6.d.:.*.OXOXOXOX}.'.@XOX+XOX",
"!.`.!.oXOXOX.XOXOX=.f ; : j 7.#Xt.t k.k.d.s y x x q l h.k.q.t k.#X6.3.8.7.r.Q._.OXoX}.].}.OXOXOX",
"_.Q.(.OXOXOX(.OX~.$.f = X a.wXgX9XW.iXaXwXx   d a # 7.tXaX;XI iXzX9X8.U d.r.&.(.OXOX'.'.}.OXOXOX",
"=X).OXOXOXOXOXOX/.*.k : % 5XzXvXiXW.dXxXzX2.. @ $ ; k.zXxXdXW.aXvXtXk.4 t.q.-.(.OX_.OXOX_.OXOXOX",
"'.OXOXOXOXOXOXOX(.&.f ; O a.9XfXiX:XsXfX0Xc s.0X6X4.+.eXfXsX:XpXaX5X3.6 7.e.*.(.OXOXOXOXOXOXOXOX",
"OXOXOXOXOXOXOXOX(.&.4 ; s . = h.-X:X X<.7 # 5XyXrXl.. 7 h.;X:X*X5.  # U 6.q.!._.OXOXOXOXOXOXOXOX",
"OXOXOXOXOXOXOXOX(.-.t = p s d p <.2.h 4 : r 4.j.h.>.; 8 p c Y U 5 p g c :.q.)._.OXOXOXOXOXOXOXOX",
"OXOXOXOXOXOXOXOXOX~.K * : s g = 8 8 # 8 y s s a s p s y % # 8 r ; g g l H 0._._.OXOXOXOXOXOXOXOX",
"OXOXOXOXOXOXOXOX_._.=.t O : s z s r l l d s r O + r d j x l r s z l p i S -.OXOXOXOXOXOXOXOXOXOX",
"OXOXOXOXOXOXOXOXOXOX/.$.O = y p s s s d s s s s s s s s s s s s l l y r =.(.OXOXOXOXOXOXOX(._.OX",
"OXOXOXOXOXOXOXOXOXOXOX-.r O : 5 a p p s s s s s s s s s s s d d s l i S (.OXOXOXOXOXOXOX(.Q.Q.OX",
"OXOXOXOXOXOXOXOXOXOXOX/.$.f - : : q u p s s s l l s s s s s p a a g F *.oXOXOXOXOXOXOXOXOXQ.Q.OX",
"OXOXOXOX@X@X{.OXOXOXOX_./.&.t + . O 2 2 y y p p s p y s p r * . = S =.OXOXOXOXOXOXOXOXOXOXOX_.OX",
"OXOXOX+X|.].{.OXOXOXOX_._.u.G , o . . X & ; % # # % ; * % : N A C P ~.OXOXOXOXOXOXOXOXOXOXOXOXOX",
"OXOXOX+X|.'.].OXOXOXOXOX~.#.Z x.z.m b v > O 3 6 6 5 @ , b z.C.A.U.9.p.OX.XOXOXOXOXOXOXOXOXOXOXOX",
"OXOXOXOX'.OXOXOXOXOXOXQ.P 6 z.S.S.S.n.v.M > I &XP.Y > V m.F.K.E.7X8XY.&..XOXOXOXOXOXOXOXOXOXOXOX",
"OXOXOXOXoXOXOXOXOXOXOX-.r X V n.F.F.S.b.z.$ %X>X,Xk.> x.m.K.7X7XR.T.9.D ~.OXOXOXOXOXOXOXOXOXOX+X",
"OXOX+XOXOXOXOXOXOXOX~.P @ . > m n.S.n.v.M 8 &X>X>X&Xo z.x.H.E.K.M.L.,.+.-..XOXOXOXOXOXOXOXOXOX{.",
"OXOXOXOXOXOXOXOXOX(.&.4 = % $ v M z.v , , 9 ] 4.4.] 7 , e ' D.m.M 6 ;.6.@.*.OXOXOXOXOXOXOXOXOXOX",
"OXOXOX~.OXOXOXOX_._.L - = & X o < w T T E ~ { / ~ ~ W E | o.N.' 1 o +.8.H $.OXOXOXOXOXOXOXOX+XOX",
"OX+XoXQ.Q.OXOXOXOX(.P ; = O $ 1 w w ( `  .} L.5X5Xs.} o.4X4XO.O.B 1 ,.5.J %.OXOXOXOXOX+XOXOXOXOX",
"oXOXoXQ.(.OXOXOXOX(.*.t & > b B A C Z Z C N *X=XqXY.N [ [ [ [ V.B.c.] +.#.u.OXOXOXOXOXOXOXOXOXOX",
"$XOXOXOXOXOXOXOXOXOX!.$.f b m b N Q ) ) ` _ 9.P.Y.s.}  . . .o.Z.A.U.9.D -..XOXOXOXOXOXOXOXOXOX+X",
":X+XOXOXOXOXOXOXOXOX_.!.Y c.z.1 T T E ~ / ..^ ! ! / <X..<X<X3X2XZ.T.U.1.^.OXOXOXOXOXOXOXOXOXOXOX",
"{.OXOXOXOXOXOXOXOXOX~.9.B.S.v.1 9 e e W { ..X.1X1X1X<X3X2X2X2X| c.K.R.I.p..XOXOXOXOXOXOXOXOXOXOX",
"|.OX}.@XOXOXOXOXOX(.%.Z x.v.z.V b < # e E W _ | | { } X.} _ ` ( v.G.J.V.<.=.OXOXOXOX{.+XOXOXOXOX",
"[.[. X`.OXOXOXOX_._.0.C A B B V n >     7 a Q Q R 0 e ( j % o n x.b.C.9.:.=.OXOXOXOX|.'.@XOXOXOX",
"!.`.!._.OXOXOXOXOXOX(.!.i.2.C C 6 o   = x 5.t.i.&.t - k :.:.s v C Y p.XX.XoXOXOXOXoX|.].$XOXOXOX",
"OX~._._.OXOXOXOXOXOXOXOXoX(.=.&.D @ . 8 +.g.f.XXy.t 3 G 6.7.G G *.u.!.+XOXOXOX+XOXOX'.'.|.OXOXOX",
"=X+XOXOXOXOXOXOXOXOXOXOXOX}.:X_.$.4 . y >.g.f.XX-.t a >.8.7.J &.OXOXOXOXOXOXOX{.:XOXoXOX@XOXOXOX"
};
