/* XPM */
static char *result[] = {
/* columns rows colors chars-per-pixel */
"48 48 215 2 ",
"   c #010202",
".  c #040906",
"X  c #030B0B",
"o  c #0D0E0D",
"O  c #110C0D",
"+  c #011602",
"@  c #03110D",
"#  c #0C120D",
"$  c #090718",
"%  c #120B19",
"&  c #0E1310",
"*  c #0F1A12",
"=  c #061A18",
"-  c #131414",
";  c #1A1516",
":  c #131C15",
">  c #191F16",
",  c #1A141B",
"<  c #171818",
"1  c #1A1B1A",
"2  c #230105",
"3  c #3C040F",
"4  c #221B1B",
"5  c #3D1817",
"6  c #062515",
"7  c #142618",
"8  c #15251A",
"9  c #1D201E",
"0  c #192C1E",
"q  c #382308",
"w  c #24251D",
"e  c #232C1C",
"r  c #23361E",
"t  c #080122",
"y  c #1D1A28",
"u  c #1F0438",
"i  c #071334",
"p  c #241F29",
"a  c #23023B",
"s  c #1B2A23",
"d  c #162C2C",
"f  c #1C3324",
"g  c #242424",
"h  c #292829",
"j  c #2C2C2C",
"k  c #3B2521",
"l  c #332D2E",
"z  c #28362C",
"x  c #2D2B34",
"c  c #372E31",
"v  c #293535",
"b  c #323232",
"n  c #343E33",
"m  c #383839",
"M  c #3B3C3B",
"N  c #44020D",
"B  c #570918",
"V  c #670D1E",
"C  c #73031C",
"Z  c #462115",
"A  c #531F22",
"S  c #7C0724",
"D  c #4C2C27",
"F  c #512F39",
"G  c #692A31",
"H  c #1C4119",
"J  c #24452E",
"K  c #39422E",
"L  c #2B4934",
"P  c #37483B",
"I  c #2D5738",
"U  c #36563A",
"Y  c #325D3E",
"T  c #3E673D",
"R  c #545D1B",
"E  c #474A35",
"W  c #5D423A",
"Q  c #51793F",
"!  c #0B0D51",
"~  c #2A0544",
"^  c #2E1443",
"/  c #371248",
"(  c #360257",
")  c #383846",
"_  c #392854",
"`  c #3E026C",
"'  c #610E5F",
"]  c #433051",
"[  c #662759",
"{  c #430766",
"}  c #46046C",
"|  c #590A62",
" . c #591A61",
".. c #490575",
"X. c #4D037C",
"o. c #52077B",
"O. c #4E1170",
"+. c #691E6D",
"@. c #6C2B67",
"#. c #3E4C41",
"$. c #395A42",
"%. c #336242",
"&. c #3A6545",
"*. c #376946",
"=. c #3B6549",
"-. c #3B6D49",
";. c #3C734C",
":. c #3E7750",
">. c #3F7A51",
",. c #444543",
"<. c #47484B",
"1. c #4B4D4C",
"2. c #465745",
"3. c #4C524E",
"4. c #42594A",
"5. c #535C49",
"6. c #4B4156",
"7. c #4E5952",
"8. c #525553",
"9. c #585758",
"0. c #5B5C5B",
"q. c #694F54",
"w. c #47674C",
"e. c #447848",
"r. c #496853",
"t. c #5B625A",
"y. c #437453",
"u. c #457D55",
"i. c #527F5B",
"p. c #6B7351",
"a. c #564D62",
"s. c #636464",
"d. c #606960",
"f. c #6A6A6A",
"g. c #72736B",
"h. c #796579",
"j. c #787777",
"k. c #890126",
"l. c #860528",
"z. c #8E0329",
"x. c #93022B",
"c. c #9A0229",
"v. c #9E1239",
"b. c #A60130",
"n. c #B50337",
"m. c #CC013F",
"M. c #963250",
"N. c #923B71",
"B. c #E70242",
"V. c #F11A54",
"C. c #D30C69",
"Z. c #895577",
"A. c #996A69",
"S. c #CE517A",
"D. c #F14A73",
"F. c #55884D",
"G. c #438357",
"H. c #488657",
"J. c #4F8B54",
"K. c #458559",
"L. c #46895C",
"P. c #498E5F",
"I. c #558A5C",
"U. c #5E9450",
"Y. c #53955E",
"T. c #569A5F",
"R. c #5A9C5E",
"E. c #768058",
"W. c #629952",
"Q. c #639956",
"!. c #64A25B",
"~. c #6BA758",
"^. c #6DA958",
"/. c #72A955",
"(. c #78AC57",
"). c #4B8F61",
"_. c #479162",
"`. c #4C9362",
"'. c #519661",
"]. c #549860",
"[. c #6F8E6F",
"{. c #68A163",
"}. c #85A20C",
"|. c #B5A446",
" X c #979664",
".X c #A49076",
"XX c #8BAE69",
"oX c #AEA66C",
"OX c #A6B964",
"+X c #DBAB79",
"@X c #B0C542",
"#X c #560384",
"$X c #56028B",
"%X c #761C96",
"&X c #683684",
"*X c #F73B89",
"=X c #857482",
"-X c #92748E",
";X c #9A7C96",
":X c #EB6490",
">X c #7BA082",
",X c #898287",
"<X c #8D9C90",
"1X c #9B949B",
"2X c #AA93A6",
"3X c #B2ACB3",
"4X c #C098B9",
"5X c #D4E995",
"6X c #CFB3CA",
"7X c #DAAED3",
"8X c #E3BBDC",
"9X c #CDCACD",
"0X c #DEE9C9",
"qX c #FAD0F4",
"wX c #F2F4E9",
/* pixels */
"`.`.`.`.`.`.`.`.`.`.`.'.`.`.`.`.`.`.`.`.`.`.`.`.`.`.`.`.`.`.`.`.`.`.`.`.`.`.`.`.`.`.`.`.`.`.`.`.",
"`.`.`.`.`.`.`.`.`.`.`.`.`.`.`.`.`.`.`._.).`.`.`.`.`.`.`.`.`.`.`.`.`.`.`.`.`.`.`.`.`.`.`.`.P.P.`.",
"`.`.`.`.`.`.`.`.`.`.`.`.`.`.`.`.`.`._.G.G.).`.`.`.`.`.`.`.`.`.`.`.`.`.`.`.`.`.`.`.`.`.`.`.G.L._.",
"`.`.`.`.`.`.`.`.`.`.`.`.`.`.`.`.`.`.).K.K.`.`.`.`.`.`.`.`.`.`.`.`.`.`.`.`.`.`.`.`.`.`.`._.G.L.`.",
"`.`.`.`.].].!.`.`.`.`.`.`.`.`.`.`.`.`.`.`.`.`.`.`.`.`.`.`.`.].R.!.`.`.`.`.`.`.`.`.`.`.`.`.`.`.`.",
"`.`.`.'.^.R.~.`.`.`.`.`.`.`.`.`.`.`.`.`.`.`.`.`.`.`.`.`.`.`.^.R.~.`.`.`.`.`.`.`.`.`.`.`.`.`.`.`.",
"`.`.`.'.^.].].`.`.`.`.`.`.`.`.`.`.`.`.`.`.`.`.`.`.`.`.`.`.`.^.T.].`.`.`.`.`.`.`.'.`.`.`.`.`.`.`.",
"`.`.`.].].`.`.`.`.`.`.`.`.`.`.`.`.`.`.`.`.`.`.).>.G.`.`.`.`.R.`.`.`.`.`.`.`.`.`.`.`.`.`.`.`.`.`.",
"`.`.`.`.`.`.`.`.`.`.`.`.`.`.`.`.`.`.`.`.`.Y.!.K.&.-.).`.`.`.).`.`.`.`.`.`.`.`.`.`.`.`.`.`.`.`.'.",
"`.`.`.`.`.`.`.`.`.`.`.`.`.`.`.`.`.`.`.`.`.!.F.E 3.r.G.).`.`.`.`.`.`.`.`.`.`.`.`.`.`.`.`.`.`.`.!.",
"`.`.`.'.`.`.`.`.`.`.`.`.`.`.`.`.`.`.`.K.;.-.U L 3.2.I P.`.`.`.`.P.`.`.`.`.`.`.`.`.`.`.`.`.`.`.`.",
"`.`.`.L.`.`.`.`.`.`.`.`.`.`.`.).`.).K.y.U 0 v 8.h.9.s %.G.;.K.`.`.`.`.`.`.`.`.`.`.'.`.`.`.`.`.`.",
"`.`.L.G.G.`.`.`.`.`.`.`.`._.`.`.).;.z 1.0.# M =X2X-X- - < 7 Y L.`._.`.`.`.`.`.`.`.`.`.`.`.`.`.`.",
"_.`._.G.P.`.`.`.`.`.`.`.`.`.`.`.;.4.7.9.8.9.2X7X7X;Xo % , o 0 Y ).`.`.`.`.`.`.`.`.`.`.`.`.`.`.`.",
"XX`.`.`.`.`.`.`.`.`.`.`.`.`.L.y.$.8.g.8.P j.6XqX7X-XO % , & o 0 *.L.`.`.`.`.`.`.`.`.`.`.`.`.`.`.",
"XX`.`.`.`.`.`.`.`.`.`.`.`.`.>.U 9.f.f.<.j =X6X8X4XZ.O O - o - o 7 *._.`.`.`.`.`.`.`.`.`.`.`.`.`.",
"!.`.`.'.`.`.`.`.`.`.`.`.'.y.4.8.f.f.0.m h a.=X;XZ.1.: 1 - o - - & 0 Y P.`.`.`.`.`.`.`.`.`.`.`.`.",
"^.).~.].`.`.`.`.`.).`.).G.4.8.s.f.0.) x j .       : b g - o - 1 - o f u.P.`.`.`.`.`.!.T.`.`.`.`.",
"W.Q.^.'.`.`.`.`.`.`.`.).Y 4.s.f.0.M < # 9 j b c l j j h 1 o - - - - 0 I K.`.).`.`.`.~.T.].`.`.`.",
"H.U.J.`.`.`.`.`.`.`.`.G.U 8.d.9.p .   O b b b c b x j j w - - - - - # 7 :.`.`.`.`.`.~.R.^.`.`.`.",
"`.K.P.`.`.`.`.`.`.`.`.u.P 9.s.z P s.j.g.<.h s j j j j j g < - - - < & # -.).`.`.`.`.T.T.^.`.`.`.",
"|.`.`.`.`.`.`.`.`.`.`.K.H <.a.6 <X0XwX9Xs.9 - b b j j j h 1 - - - - O * ;.`.`.`.`.`.`.`.].`.`.`.",
"Y.`.`.`.`.`.`.`.`.`.).i.5.a.s.}.5XwXwX3XM h g b j j j b h 1 & o & < # * ;.Y.`.`.`.`.`.`.`.`.`.`.",
"`.`.`.`.`.`.`.`.`.`.[.[.,Xh.g.@X5X0X<X] . l m h j j j j h 1 - - - & o * ;.!.!.`.`.`.`.`.`.`.`.`.",
"`.`.`.`.`.`.`.`.`.`.>X3X9X1X2.p.E.d.) h b j j j j j j j g ; - - - < - # -.!.!.`.`.`.`.`.`.`.`.`.",
"`.`.`.`.`.`.`.`.`.`.[.<X1X,X7.) $     9 b j h j j j j j s - - - - - # 0 :.'.`.`.`.`.`.`.`.`.`.`.",
"`.`.`.`.`.`.`.`.`.`.).*.: <.s.x $ g b b j j j j j b j h 1 o - - - - 0 I G.`.`.`.`.`.`.`.`.`.`.`.",
"`.`.`.`.`.`.`.`.`.`.`.G.#.7.0.<.b j b j j j j j j j j g 1 o - < - o f >.).`.).`.`.`.`.`.`._.P.`.",
"`.`.`.`.`.`.`.`.`.`.`.).=.7.s.9.#.; g h j j j j j l h ; - - - - o 0 %.P.`.`.`.`.`.`.`.'.).G.G.P.",
"`.`.`.`.`.'.`.`.`.).`.).K.r.8.s.1.p h j b l j j x h 9 - - - - & 7 *._._.`.`.`.`.`.`.`.`.`.G.K.`.",
"`.`.`.`.`.R.{.`.`.`.`.`.`.-.$.0.t.7.,.M b c c l l g 4 ; ; - o f Q G.`.`.`.`.`.`.`.`.`.`.`.`._.`.",
"`.`.`.`.^.R.!.`.`.`.`.`.`.).:.4.8.7.F y X 6 d d 4 : = @ @ & r T !.).`._.`.`.`.`.`.`.`.`.`.`.`._.",
"`.`.`.].^.T.R.`.`.`.`.`.`.`.`.*.$.#.m c k k w * . . @ # . 7 Q Y.R.P.`.`.`.`.`.`.`.`.`.`.`.`.`.`.",
"`.`.`.`.T.`.`.`.`.`.`.`.`.`.`.P.L.).).E.A.M.C O     2 N 5 I J.).P.`.`.`.`.`.`.`.`.`.`.`.`.`.`.`.",
"`.`.`.`.`.`.`.`.`.`.`.`.`.`.`.`.`.`.{.oX+X:XC.m.n.b.c.k.S G w.G.).`.`.`.`.`.`.`.`.`.`.`.`.`.`.].",
"`.`.`.`.`.`.`.`.`.`.`.`.`.`.`.`._.'.(.OX+X:X*XD.V.B.m.n.b.l.D -.`.P.`.`.`.`.`.`.`.`.`.`.`.`.`.!.",
"`.`.`.`.`.`.`.`.`.`.`.`.`.`.`.`.`.u.R q.=XN.S.S.V.B.m.m.n.c.B U P.`.`.`.`.`.`.`.`.`.`.`.`.`.`.`.",
"`.`._.L.`.`.`.`.`.`.`.`.`.`.`.`.e.L i ` $XO.@.M.v.c.c.z.z.x.k.G &.L.`.`.`.`.`.`.`.`.`.`.`.`.`.`.",
"`.`.L.K.G.`.`.`.`.`.`.`.).`.).y.U E a.&X%X$X! t . + + . N l.c.k.A e.I.`.`.`.`.`.`.'.`.`.`.`.`.`.",
"`.`.`.G.P.`.`.`.`.`.`.`.`.`.K.U b 9. XA.-X+.| [ Z q h 4 o N S x.l.D -.P.`.`.`.`.`.`.`.`.`.`.`.`.",
"XX`.`.`.`.`.`.`.`.`.`.`.`.`.G.h i 5.OXoXA.[ ' [ F Z w j =   B z.c.A Y ).`.).`.`.`.`.`.`.`.`.`.`.",
"XX`.`.`.`.`.`.`.`.`.`.`.`.`.G.f @ K  X.XZ. .| +.| / : j s o 3 S x.A Y ).`.`.`.`.`.`.`.`.`.`.`.`.",
"!.`.`.`.`.`.`.`.`.`.`.`.`.`.).y.J d 6.@.%XX...o.#X../ 4 + o Z S x.D &.).).`.`.`.`.`.'.`.`.`.`.`.",
"/.'.{.].`.`.`.`.`.`.`.`.).`.`.).U.*.! ..#XX.X.X.....{ ~ % < K G k.V E H.).`.`.`.`.`.{.].`.`.`.`.",
"W.W./.T.`.`.`.`.`.`.`.`.`.`.`.`.~.I.K /  .o.X...( { } ( a 9 Y W S C D y.P.`.`.`.`.`.^.T.].`.`.`.",
"H.U.J.P.`.`.`.`.`.`.`.`.`.`.).`.Q.t.n > u ` { ( a ~ ~ u t # J K Z 5 D y.).`.`.`.`._.^.R.^.`.`.`.",
"_.K.L.'.`.`.`.`.`.`.`.`.`.`.`.`.I.r.n e 8 ^ _ ) v d y y - & 0 I T Y ;.G._.`.`.`.`.`.T.].^.`.`.`.",
"|.`.`.`.`.`.`.`.`.`.`.`.`.{.OX_.L.-.n n j * L ;.>.I r w w 8 * Y _.`.`.`.`.`.`.{.OX`.`.`.'.`.`.`."
};
