/* XPM */
static char *result[] = {
/* columns rows colors chars-per-pixel */
"48 48 210 2 ",
"   c #020302",
".  c #01090A",
"X  c #0D0D0D",
"o  c #180D0B",
"O  c #061307",
"+  c #0C110E",
"@  c #13170C",
"#  c #080618",
"$  c #140E15",
"%  c #0F1512",
"&  c #0A1813",
"*  c #131413",
"=  c #131A14",
"-  c #191719",
";  c #1B1B1B",
":  c #26080C",
">  c #31030F",
",  c #331B1C",
"<  c #1F3C01",
"1  c #112216",
"2  c #15241A",
"3  c #1B241A",
"4  c #182A1E",
"5  c #0D0C2C",
"6  c #261824",
"7  c #2C0C3D",
"8  c #281333",
"9  c #0D2A21",
"0  c #162924",
"q  c #1C3524",
"w  c #242424",
"e  c #272825",
"r  c #292629",
"t  c #2C2C2C",
"y  c #322D2E",
"u  c #2C362E",
"i  c #233C29",
"p  c #36382C",
"a  c #272836",
"s  c #2B3638",
"d  c #333232",
"f  c #393E37",
"g  c #3B3A3C",
"h  c #4A0513",
"j  c #530310",
"k  c #4D1B1D",
"l  c #6A041A",
"z  c #57182A",
"x  c #6C0C24",
"c  c #780527",
"v  c #4B2925",
"b  c #4B332E",
"n  c #563733",
"m  c #62262D",
"M  c #22412C",
"N  c #294A3A",
"B  c #36483A",
"V  c #2B5337",
"C  c #3C563C",
"Z  c #315A3D",
"A  c #474F32",
"S  c #1A024E",
"D  c #2A0844",
"F  c #35084D",
"G  c #2A1B40",
"H  c #360558",
"J  c #192341",
"K  c #392448",
"L  c #2F314B",
"P  c #270669",
"I  c #440B58",
"U  c #48135E",
"Y  c #423740",
"T  c #782C49",
"R  c #783958",
"E  c #46046A",
"W  c #732B6C",
"Q  c #394742",
"!  c #3D5645",
"~  c #3E445C",
"^  c #336242",
"/  c #3A6946",
"(  c #3B6C4A",
")  c #3C734D",
"_  c #3E7950",
"`  c #464947",
"'  c #4C524C",
"]  c #475A49",
"[  c #564855",
"{  c #4E5952",
"}  c #525453",
"|  c #555A55",
" . c #5C555C",
".. c #5A5B5A",
"X. c #47664A",
"o. c #586F4C",
"O. c #42734C",
"+. c #476651",
"@. c #5A615F",
"#. c #437D54",
"$. c #447B5A",
"%. c #676F50",
"&. c #5C5368",
"*. c #6F4269",
"=. c #625C62",
"-. c #6E586B",
";. c #567C63",
":. c #646464",
">. c #6A6B69",
",. c #776274",
"<. c #797578",
"1. c #92011F",
"2. c #880229",
"3. c #9B032B",
"4. c #960430",
"5. c #A90122",
"6. c #BD0727",
"7. c #A80435",
"8. c #B80238",
"9. c #C90137",
"0. c #D4043C",
"q. c #E4003C",
"w. c #C9233F",
"e. c #903958",
"r. c #A82F51",
"t. c #D70243",
"y. c #E80546",
"u. c #F7094B",
"i. c #F90B53",
"p. c #FC1557",
"a. c #F72656",
"s. c #D90E6C",
"d. c #FC2E68",
"f. c #F4366C",
"g. c #FE3E73",
"h. c #86445D",
"j. c #8F536C",
"k. c #BA4E70",
"l. c #8C7B7D",
"z. c #AD786D",
"x. c #C9426B",
"c. c #CD4974",
"v. c #D94873",
"b. c #F74A79",
"n. c #54874B",
"m. c #438357",
"M. c #498556",
"N. c #4E8857",
"B. c #458659",
"V. c #47895C",
"C. c #498D5E",
"Z. c #50815F",
"A. c #5E9450",
"S. c #54945E",
"D. c #569A5F",
"F. c #5A9C5E",
"G. c #769349",
"H. c #609650",
"J. c #629952",
"K. c #64A25B",
"L. c #6BA758",
"P. c #6DA958",
"I. c #72A955",
"U. c #4B8C61",
"Y. c #479162",
"T. c #4C9362",
"R. c #529461",
"E. c #549860",
"W. c #5A9864",
"Q. c #6C9C6A",
"!. c #6BA462",
"~. c #92B010",
"^. c #B5A446",
"/. c #A7BB40",
"(. c #868D70",
"). c #B29B7A",
"_. c #8EAD69",
"`. c #A6AB69",
"'. c #A8B965",
"]. c #CC997C",
"[. c #DCA67A",
"{. c #580884",
"}. c #690C93",
"|. c #703384",
" X c #7D7583",
".X c #862699",
"XX c #F03C86",
"oX c #8F6E8A",
"OX c #877785",
"+X c #D7548A",
"@X c #E35484",
"#X c #F45F8A",
"$X c #7A8F83",
"%X c #8C8C90",
"&X c #9B8998",
"*X c #A2BD92",
"=X c #AE8AA8",
"-X c #BB9DB6",
";X c #B7A8B5",
":X c #C8D78E",
">X c #C4CBAD",
",X c #D7ECA3",
"<X c #D4ABCD",
"1X c #C2B7C2",
"2X c #D7B3D2",
"3X c #E3BBDD",
"4X c #D2D0D4",
"5X c #F0F7DD",
"6X c #F8CEF2",
"7X c #F4F4F4",
/* pixels */
"T.T.T.T.T.T.T.T.T.T.T.T.T.T.T.T.T.T.T.T.T.T.T.T.T.T.T.T.T.T.T.T.T.T.T.T.T.T.T.T.T.T.T.T.T.T.T.T.",
"T.T.T.T.T.T.T.T.T.T.T.T.T.T.T.E.T.T.T.Y.C.T.T.T.T.T.T.T.T.T.T.T.T.T.T.T.T.T.E.T.T.T.T.T.T.C.Y.T.",
"T.T.T.T.T.T.T.T.T.T.T.T.T.T.T.T.T.T.Y.m.m.Y.T.T.T.T.T.T.E.T.T.T.T.T.T.T.T.T.T.T.T.T.T.T.Y.m.B.T.",
"T.T.T.T.T.T.T.T.T.T.T.T.T.T.T.T.T.T.T.m.M.T.T.T.T.T.T.T.Y.T.T.T.T.T.T.T.T.T.T.T.T.T.T.T.Y.B.V.T.",
"T.T.T.T.E.W.K.T.T.T.T.T.T.T.T.T.T.T.T.T.T.T.T.T.T.T.T.T.T.T.E.F.K.T.T.T.T.T.T.T.T.T.T.T.T.T.T.T.",
"T.T.T.T.P.F.K.T.T.T.T.T.T.T.T.T.T.T.T.T.T.T.T.T.T.T.T.T.T.T.P.F.K.T.T.T.T.T.T.T.T.T.T.T.T.T.T.T.",
"T.T.T.E.P.D.F.T.T.T.T.T.T.T.T.T.T.T.T.T.T.T.C.C.T.T.T.T.T.T.P.D.E.T.T.T.T.T.T.T.T.T.T.T.T.T.T.T.",
"T.T.T.T.D.T.T.T.T.T.T.T.T.T.T.T.T.T.T.T.T.T.m.) V.Y.T.T.T.T.F.T.T.T.T.T.T.T.T.T.T.T.T.T.T.T.T.T.",
"T.T.T.T.T.T.T.T.T.T.T.T.T.T.T.T.T.T.T.T.Y.R.o.! ) M.T.T.T.T.T.T.T.T.T.T.T.T.T.T.T.T.T.T.T.T.T.E.",
"T.T.T.T.T.T.T.T.T.T.T.T.T.T.T.T.T.T.T.T.Y.A.X.' B ) V.V.U.T.T.T.T.T.T.T.T.T.T.T.T.T.T.T.T.T.T.K.",
"T.T.T.T.T.T.T.T.T.T.T.T.T.T.T.T.T.T.C.T.M.V ' | B V Z / B.T.T.T.T.T.T.T.T.T.T.T.T.T.T.T.T.T.T.T.",
"T.T.T.V.Y.T.T.T.T.T.T.T.T.T.T.T.T.B./ / Z 1 -.OX=.B = ! +.( m.T.T.U.T.T.T.T.T.T.T.T.T.T.T.T.T.T.",
"T.T.V.m.m.T.T.T.T.T.T.T.T.T.Y.T.B.^ 2 - -   oX-X&X .= | } i ! C.T.T.T.T.T.T.T.T.T.T.T.T.T.T.T.T.",
"Y.T.T.m.Y.T.T.T.T.T.T.T.T.T.T.V.V 2 X - $   oX2X3X-X@.` | ..] ( V.T.T.T.T.T.T.E.T.T.T.T.T.T.T.T.",
"_.T.T.T.T.T.T.T.T.T.T.T.C.T.M.Z 4 X % - $   oX<X6X2X%Xu ` <.@.' ( V.T.T.T.T.T.T.T.T.T.T.T.T.T.T.",
"_.Y.T.T.T.T.T.T.T.T.T.T.T.V.^ 1 X * X $ o   -.=X2X-Xl.y L >.>.| ` ) Y.T.T.T.T.T.T.T.T.T.T.T.T.T.",
"K.T.T.T.T.T.T.T.T.T.T.T.C.Z 4 + - - X * ; ; L  .,.-.` r d  .:.>...] +.T.T.T.T.T.T.T.T.T.T.T.T.T.",
"I.Y.L.F.T.T.T.T.T.T.T.Y.) q X * = * X * w d 3 X o X X e r d } :.>...! _ C.T.T.T.T.T.K.E.T.T.T.T.",
"H.J.I.S.T.T.T.T.T.T.T.V.V 2 * * * * X ; r t t t y d y e + $ t [ :.:.' Z V.T.T.T.T.T.P.E.E.T.T.T.",
"M.A.N.Y.T.T.T.T.U.T.T.#.2 + * * * % * w t t y d d y t g w ; = a ' :.} B m.T.T.T.T.T.P.F.P.T.T.T.",
"R.B.Y.Y.T.T.T.T.T.T.T._ O + - * * $ ; w t t t t d ; w ` (.&X%XX.0 :. .N B.T.T.T.T.T.E.E.P.T.T.T.",
"^.T.T.T.T.T.T.T.T.T.T.#.= X - * % % ; r t t t t d - 3 ' 1X7X5X*X< &.[ q B.T.T.T.T.T.T.T.E.T.T.T.",
"D.T.T.T.T.T.T.T.T.R.T.#.= X * * o % - r y t t t d t t e %X4X5X,X~.>.&.@.;.R.T.Y.T.T.T.T.T.T.T.T.",
"Y.T.T.T.T.T.T.T.T.Y.S.n.= X * * % $ - e y u t t t d s # K <.>X:X/.%. X&X%XQ.!.T.T.T.T.T.T.T.T.T.",
"R.T.T.T.T.T.T.T.T.T.E.n.& % - * * X - w t t t t t t t d w t ' o.%.A &X1X;X_.F.E.T.T.T.T.T.T.T.T.",
"T.T.T.T.T.T.T.T.T.T.T.M.q @ * * * * % ; t t t t t t t d w X . # d | <. X$XQ.T.T.T.T.T.T.T.T.T.T.",
"T.T.T.T.T.T.T.T.T.T.T.V.^ 4 * * - * X ; e t y t t t t e y d r # a :.' 2 ( Y.Y.T.T.T.T.T.T.T.T.T.",
"T.T.T.T.T.T.T.T.T.T.T.C.B.M % * - * + - w t t t t t t t t y r d ` :.{ B $.Y.Y.T.T.T.T.T.R.Y.C.T.",
"T.T.T.T.T.T.T.T.T.T.T.T.T.) i % % * * * ; w t t t t t t t e - Q ..@.{ / Y.T.T.T.T.T.T.T.Y.B.B.Y.",
"T.T.T.T.T.T.T.T.T.T.T.T.T.T.) q % * * * * ; r t y y y y y y r } :.' +.V.Y.T.T.T.T.T.T.T.T.V.B.Y.",
"T.T.T.T.E.F.K.T.T.T.T.T.C.T.C._ i % - * * ; w r t t t t d Y } ..@.] ) T.T.T.T.T.T.T.T.T.T.T.T.T.",
"T.T.T.T.L.F.K.T.T.T.T.T.T.T.T.T.( i = . . & % ; 0 0 9 % 6 g } ' X.) N.T.T.T.T.T.T.T.T.T.T.T.T.T.",
"T.T.T.E.P.D.F.T.T.T.T.T.T.T.T.Y.T.) 4 : : @ . . % , v b b ! ] / O.T.T.T.T.T.T.T.T.T.T.T.E.T.T.T.",
"T.T.Y.T.D.T.T.T.T.T.T.T.T.T.T.T.C.M.B k j h : : h 2.r.z.(.S.S.V.N.T.T.T.T.T.T.T.T.T.T.T.T.T.T.T.",
"T.T.T.T.T.T.T.T.T.T.T.T.Y.R.T.T.m./ m c 2.3.5.6.w.s.@X[.'.!.T.T.T.T.T.T.T.T.T.T.T.T.T.T.T.T.T.E.",
"T.T.T.T.T.T.T.T.T.T.T.T.T.Y.T.T./ v 2.7.8.0.y.a.b.XX+X].`.G.S.T.S.T.T.T.T.T.T.T.T.T.T.T.T.T.T.K.",
"T.T.T.T.T.T.T.T.T.T.T.T.T.Y.T.M.B x 7.0.y.i.d.b.#Xc.W |.R A M.T.Y.T.T.T.T.T.T.T.T.T.T.T.T.T.T.T.",
"T.T.Y.V.T.T.T.T.T.T.T.T.Y.R.C.C m 3.y.u.i.f.v.k.k.R P }.{.a $.T.T.T.T.T.T.T.T.T.T.T.T.T.T.T.T.T.",
"T.T.C.m.m.T.T.T.T.T.T.T.T.M.X.k 2.t.u.p.f.x.h.[ n 8 P .X|...$.T.T.T.T.T.T.T.T.T.T.T.T.T.T.T.T.T.",
"Y.T.T.m.C.T.T.T.T.T.T.T.T.O.v x 8.y.i.g.@XT 0 s C L U oX*X`.U.T.T.T.T.T.T.T.T.T.T.T.T.T.T.T.T.T.",
"_.T.T.T.T.T.T.T.T.T.C.R.T.^ k 4.0.u.d.b.c.v   0 Q a Y j.).`.W.T.T.T.T.T.T.T.T.T.T.T.T.T.T.T.T.T.",
"_.T.T.T.T.T.T.T.T.T.T.T.U.^ v 7.q.u.b.v.h.8   , y * 8 *.z.(.R.T.T.T.T.T.T.T.T.T.T.T.T.T.T.T.T.T.",
"K.Y.T.T.T.T.T.T.T.T.T.T.T./ v 7.q.u.g.v.R 7 5 6 o # S }.|.~ U.T.T.T.T.T.T.T.T.T.T.T.T.T.T.T.T.T.",
"I.T.L.E.T.T.T.T.T.T.T.C.B.A x 2.9.u.g.v.R G S I F H E {.E J $.R.T.T.T.T.T.T.T.T.T.T.K.E.T.T.T.T.",
"J.J.I.E.T.T.T.T.T.T.T.U.#.b l c 5.0.v.x.e.D S E E E E E K p #.S.T.T.T.T.T.T.T.T.T.T.P.D.E.T.T.T.",
"M.H.n.C.T.T.T.T.T.T.T.T.#.i h c 1.5.r.r.T 8 5 F H F D ; w f +.Z.T.T.T.T.T.T.T.T.T.T.P.F.P.T.T.T.",
"T.B.Y.Y.T.T.T.T.T.T.T.U.U.( p h l l z z y d N Q L 8 $ @ 3 t X.N.T.T.T.T.T.T.T.T.T.T.D.D.P.T.T.T.",
"^.T.T.T.T.T.T.T.T.T.T.T.T.J.G.+ > h     + Z ) ) V 1 O 3 0 ; ^ V.T.T.T.T.T.T.Y.!.'.Y.T.T.E.T.T.T."
};
