/* XPM */
static char *result[] = {
/* columns rows colors chars-per-pixel */
"48 48 241 2 ",
"   c #3F1B3A",
".  c #3A1D3B",
"X  c #33213D",
"o  c #31223E",
"O  c #3F2038",
"+  c #362E3A",
"@  c #383039",
"#  c #7A1D1F",
"$  c #580E33",
"%  c #4C1436",
"&  c #461738",
"*  c #431939",
"=  c #68052E",
"-  c #740A27",
";  c #770C25",
":  c #7B0E23",
">  c #741125",
",  c #741325",
"<  c #741A24",
"1  c #462334",
"2  c #402038",
"3  c #572736",
"4  c #572D37",
"5  c #453933",
"6  c #623C3C",
"7  c #594729",
"8  c #56463A",
"9  c #624D24",
"0  c #604D2C",
"q  c #6C5528",
"w  c #7D5822",
"e  c #735736",
"r  c #775F36",
"t  c #7B643C",
"y  c #371F50",
"u  c #381E51",
"i  c #3A1D53",
"p  c #3C1C55",
"a  c #35204D",
"s  c #42195D",
"d  c #451B5F",
"f  c #5D3642",
"g  c #47205E",
"h  c #45395E",
"j  c #453A5E",
"k  c #493C5D",
"l  c #492060",
"z  c #4D3D63",
"x  c #4F3E65",
"c  c #4B545E",
"v  c #475B5F",
"b  c #485C5F",
"n  c #555A5B",
"m  c #53595C",
"M  c #5A7D5F",
"N  c #465060",
"B  c #475160",
"V  c #4B5362",
"C  c #4A5D61",
"Z  c #515666",
"A  c #526766",
"S  c #516E66",
"D  c #5B6862",
"F  c #497361",
"G  c #4B7460",
"H  c #4C7563",
"J  c #8A151A",
"K  c #81191C",
"L  c #83181C",
"P  c #8A2916",
"I  c #8B2D15",
"U  c #962111",
"Y  c #962211",
"T  c #962910",
"R  c #81381B",
"E  c #801A26",
"W  c #9E420B",
"Q  c #9F470A",
"!  c #9F4D0E",
"~  c #8B4110",
"^  c #844119",
"/  c #954317",
"(  c #974D17",
")  c #A34F0E",
"_  c #A65F04",
"`  c #B75A0C",
"'  c #916E0D",
"]  c #9D7916",
"[  c #A27C14",
"{  c #A07B18",
"}  c #9E5224",
"|  c #9F5028",
" . c #A55E24",
".. c #A85E28",
"X. c #B65D23",
"o. c #A54D37",
"O. c #AF5B3B",
"+. c #AC5D3A",
"@. c #85692E",
"#. c #93732D",
"$. c #806233",
"%. c #876B33",
"&. c #8C703B",
"*. c #BD6B26",
"=. c #B76F3E",
"-. c #BC6839",
";. c #C7793F",
":. c #836D47",
">. c #88714E",
",. c #967B49",
"<. c #438256",
"1. c #438356",
"2. c #438357",
"3. c #448457",
"4. c #488655",
"5. c #488756",
"6. c #4F8A53",
"7. c #4E8A54",
"8. c #448458",
"9. c #448558",
"0. c #44865A",
"q. c #45865A",
"w. c #45875A",
"e. c #44865B",
"r. c #45885B",
"t. c #488D5E",
"y. c #488D5F",
"u. c #488E5F",
"i. c #4A8E5F",
"p. c #4A8F5F",
"a. c #508B53",
"s. c #5E9450",
"d. c #53955E",
"f. c #53965E",
"g. c #54965D",
"h. c #56955F",
"j. c #55995F",
"k. c #56995F",
"l. c #569A5F",
"z. c #579A5F",
"x. c #579B5F",
"c. c #599B5E",
"v. c #589B5F",
"b. c #599C5E",
"n. c #599C5F",
"m. c #5B9C5E",
"M. c #5B9D5E",
"N. c #5D9E5D",
"B. c #5E9E5D",
"V. c #5E9F5D",
"C. c #5F9F5D",
"Z. c #608259",
"A. c #609650",
"S. c #609752",
"D. c #629851",
"F. c #639951",
"G. c #619852",
"H. c #619953",
"J. c #629952",
"K. c #66965D",
"L. c #61A15B",
"P. c #62A25B",
"I. c #64A35B",
"U. c #65A35B",
"Y. c #66A35B",
"T. c #66A45B",
"R. c #67A45B",
"E. c #67A55B",
"W. c #60A05C",
"Q. c #61A05C",
"!. c #60A05D",
"~. c #62A15C",
"^. c #63A25C",
"/. c #6BA758",
"(. c #69A65A",
"). c #6CA758",
"_. c #6CA858",
"`. c #6EA958",
"'. c #71A853",
"]. c #73A953",
"[. c #74A953",
"{. c #71AA56",
"}. c #70AA57",
"|. c #74AD56",
" X c #4E8363",
".X c #4A8F60",
"XX c #479162",
"oX c #4A9060",
"OX c #4B9060",
"+X c #4B9160",
"@X c #4B9161",
"#X c #4B9261",
"$X c #489162",
"%X c #489262",
"&X c #4A9262",
"*X c #4B9262",
"=X c #4B9362",
"-X c #4C9160",
";X c #4E9160",
":X c #4C9261",
">X c #4C9262",
",X c #4C9362",
"<X c #4D9362",
"1X c #4E9461",
"2X c #4E9561",
"3X c #4F9561",
"4X c #4C9462",
"5X c #4D9462",
"6X c #4C9463",
"7X c #4E9462",
"8X c #509561",
"9X c #509661",
"0X c #529760",
"qX c #539760",
"wX c #539860",
"eX c #549860",
"rX c #67A062",
"tX c #6BA162",
"yX c #7FAA62",
"uX c #AC8622",
"iX c #AF812C",
"pX c #BE9425",
"aX c #B58532",
"sX c #C39622",
"dX c #C29726",
"fX c #D4A429",
"gX c #DEAE37",
"hX c #9B8150",
"jX c #B1A346",
"kX c #B8A445",
"lX c #83AD62",
"zX c #8FB262",
"xX c #93B462",
"cX c #A7BE61",
"vX c #A4BC62",
"bX c #DF9E4B",
"nX c #D49952",
"mX c #D9A443",
"MX c #D8A345",
"NX c #EFC250",
"BX c #F9CC5E",
/* pixels */
",X,X,X,X,X,X,X,X,X,X,X,X,X,X,X,X,X,X,X,X,X,X,X,X,X,X,X,X,X,X,X,X,X,X,X,X,X,X,X,X,X,X,X,X,X,X,X,X",
",X,X,X,X,X,X,X,X,X,X,X,X,X,X,X,X,X,X4Xt.p.,X,X,X,X,X,X,X,X,X,X,X,X,X,X,X,X,X,X,X,X,X,X,X4Xu.p.4X",
",X,X,X,X,X,X,X,X,X,X,X,X,X,X,X,X,X,Xu.2.2.oX,X,X,X,X,X,X,X,X,X,X,X,X,X,X,X,X,X,X,X,X,X,Xi.2.2.p.",
",X,X,X,X,X<X5X,X,X,X,X,X,X,X,X,X,X,X+X3.q.#X,X,X,X,X,X,X,X,X,X<X5X,X,X,X,X,X,X,X,X,X,X,X@X9.9.@X",
",X,X,X,X9Xm.~.*X,X,X,X,X,X,X,X,X,X,X,X@X#X,X,X,X,X,X,X,X,X,X9Xc.^.*X,X,X,X,X,X,X,X,X,X,X,X@X#X,X",
",X,X,X2X).V.U.*X,X,X,X,X,X,X,X,X,X,X,X,X,X,X,X,X,X,X,X,X,X1X_.B.R.*X,X,X,X,X,X,X,X,X,X,X,X,X,X,X",
",X,X,X3X`.j.v.=X,X,X,X,X,X,X,X,X,X,X,X,X,X,X,X,X,X,X,X,X,X1X`.j.c.=X,X,X,X,X,X,X,X,X,X,X,X,X,X,X",
",X,X,X5Xz.,X=X,X,X,X,X,X,X,X,X,X,X,X,X,X,X,X5X,X,X,X,X,X,X<Xz.,X=X,X,X,X,X,X,X,X,X,X,X,X,X,X,X,X",
",X,X,X,X*X,X,X,X,X,X,X,X,X,X,X,X,X,X,X,X,XeXU.3X,X,X,X,X,X,X*X,X,X,X,X,X,X,X,X,X,X,X,X,X,X,X,X9X",
",X,X,X,X,X,X,X,X,X,X,X,X,X,X,X,X,X,X,X,X<XU.~.C.*X,X,X,X,X,X,X,X,X,X,X,X,X,X,X,X,X,X,X,X,X,X,XU.",
",X,X,X4X,X,X,X,X,X,X,X,X,X,X,X,X,X,X,X,X,X3XC.,X,X,X,X,X,X,X,X,X,X,X,X,X,X,X,X,X,X,X,X,X,X,X,X,X",
",X,X,Xq.OX,X,X,X,X,X,X,X,X,X,X,X,X,X,X,X,X,X*X,X,X,X,X,X,Xq.oX,X,X,X,X,X,X,X,X,X,X,X,X,X,X,X,X,X",
",X4Xw.3.<.>X,X,X,X,X,X,X,X,X,X,X,X,X,X,X,X,X,X,X,X,X,X4Xw.3.<.:X,X,X,X,X,X,X,X,X,X,X,X,X,X,X,X,X",
"XX,X@X2.u.,X,X,X,X,X,X,X,X,X,X,X,X,X,X,X,X,X,X,X,X,X,X,X#X2.t.,X,X,X,X,X,X,X,X,X,X,X,X,X,X,X,X,X",
"lX<X,X,X,X,X,X,X,X,X,X,X,X,X,X,X,X,X,X,X,X,X,X,X,X*X,X,X,X,X,X,X,X,X,X,X,X,X,X,X,X,X,X,X,X,X,X,X",
"zX5X,X,X,X,X,X,X,X,X,X,X,X,X,X,XA z h h h h h h h k j h h h h x S ,X,X,X,X,X,X,X,X,X,X,X,X,X,X,X",
"P.,X5X<X,X,X,X,X,X,X,X,X,X,X,X,XV d 6 w f s s s s s s s 6 w f d C ,X,X,X,X,X,X,X,X,X5X,X,X,X,X,X",
"{.-XE.v.*X,X,X,X,X,X,X,X,X,X,X,Xm u $.sX} E E E E E E E  .sXe i v ,X,X,X,X,X,X,X,X=XR.wX*X,X,X,X",
"D.J.'.d.=X,X,X,X,X,X,X,X,X,X,X,Xn a ,.NX+.- - - - - - - =.NX:.y v ,X,X,X,X,X,X,X,X=X/.l.j.,X,X,X",
"4.s.7.u.,X,X,X,X,X,X,X,X,X,X,X,Xn a hXBX-.I ~ ) ` ! ~ P ;.BX>.y v ,X,X,X,X,X,X,X,X=X/.M._.,X,X,X",
";Xe.u.4X,X,X,X,X,X,X,X,X,X,X,X,Xc a &.gXX.Y T Q _ W T U *.gXt y v ,X,X,X,X,X,X,X,X,Xl.j./.,X,X,X",
"jX7X,X,X,X,X,X,X,X,X,X,X,X,X,X,XN a %.fX| - - , < > - - ..fXr y v ,X,X,X,X,X,X,X,X,X*X5X0X,X,X,X",
"h.,X,X,X,X,X,X,X,X,X*XqX1X,X,X,XB a q [ / J J J J J J J ( [ 0 y v ,X,X,X*X0X2X,X,X,X,X,X,X,X,X,X",
",X,X,X,X,X,X,X,X,X=XeXU.Q.7X,X,XB a 9 ' R - - O.bXo.- - ^ ' 7 y v ,X,X=XwXI.Q.1X,X,X,X,X,X,X,X,X",
",X,X,X,X,X,X,X,X,X=XeXU.Q.7X,X,XB a 9 ' aXnXnXmXgXMXnXnXiX' 7 y v ,X,X=XwXI.Q.1X,X,X,X,X,X,X,X,X",
",X,X,X,X,X,X,X,X,X,X*XqX1X,X,X,XB a 9 ' { uXuXdXfXpXuXuX] ' 7 y v ,X,X,X*X0X2X,X,X,X,X,X,X,X,X,X",
",X,X,X,X,X,X,X,X,X,X,X,X,X,X,X,XB a @ 5 5 5 5 #.fX@.5 5 5 5 + y v ,X,X,X,X,X,X,X,X,X,X,X,X,X,X,X",
",X,X,X,X,X,X,X,X,X,X,X,X,X,X,X,XB a * $ $ $ $ 4 8 3 $ $ $ $   y v ,X,X,X,X,X,X,X,X,X,X,X4Xi.p.4X",
",X,X,X,X,X,X,X,X,X,X,X,X,X,X,X,XB a % : ; = : K # L ; = : ; & y v ,X,X,X,X,X,X,X,X,X,X,Xp.2.2..X",
",X,X,X,X,X<X5X,X,X,X,X,X,X,X,X,XB a X 2 O . 2 1 1 1 O . 2 O o y b ,X,X,X,X,X,X,X,X,X,X,X+X8.9.@X",
",X,X,X,X3Xb.Q.*X,X,X,X,X,X,X,X,XZ g p p p p p p p p p p p p p l D *X,X,X,X,X,X,X,X,X,X,X,X@X@X,X",
",X,X,X2X/.V.U.*X,X,X,X,X,X,X,X,X XH F F F F F F F F F F F G Z.M K.*X,X,X,X,X,X,X,X,X,X,X,X,X,X,X",
",X,X,X3X`.l.c.=X,X,X,X,X,X,X,X,X,X,X,X,X,X,X,X,X,X,X,X,X,X1X`.l.b.=X,X,X,X,X,X,X,X,X,X,X,X,X,X,X",
",X,X,X5Xv.,X=X,X,X,X,X,X,X,X,X,X,X,X,X,X,X,X<X,X,X,X,X,X,X<Xv.,X=X,X,X,X,X,X,X,X,X,X,X,X,X,X,X,X",
",X,X,X,X*X,X,X,X,X,X,X,X,X,X,X,X,X,X,X,X,XwXU.3X,X,X,X,X,X,X*X,X,X,X,X,X,X,X,X,X,X,X,X,X,X,X,X8X",
",X,X,X,X,X,X,X,X,X,X,X,X,X,X,X,X,X,X,X,X<XU.~.!.*X,X,X,X,X,X,X,X,X,X,X,X,X,X,X,X,X,X,X,X,X,X,XY.",
",X,X,X4X,X,X,X,X,X,X,X,X,X,X,X,X,X,X,X,X,X3XW.,X,X,X,X,X,X4X,X,X,X,X,X,X,X,X,X,X,X,X,X,X,X,X,X,X",
",X,X,Xw.+X,X,X,X,X,X,X,X,X,X,X,X,X,X,X,X,X,X*X,X,X,X,X,X,Xw.OX,X,X,X,X,X,X,X,X,X,X,X,X,X,X,X,X,X",
",X4Xw.3.<.>X,X,X,X,X,X,X,X,X,X,X,X,X,X,X,X,X,X,X,X,X,X4Xr.3.<.:X,X,X,X,X,X,X,X,X,X,X,X,X,X,X,X,X",
"$X,X@X1.t.,X,X,X,X,X,X,X,X,X,X,X,X,X,X,X,X,X,X,X,X,X,X,X@X2.t.,X,X,X,X,X,X,X,X,X,X,X,X,X,X,X,X,X",
"yX<X,X>X,X,X,X,X,X,X,X,X,X,X,X,X,X,X,X,X,X,X,X,X,X*X,X,X,X>X,X,X,X,X,X,X,X,X,X,X,X,X,X,X,X,X,X,X",
"xX5X,X,X,X,X,X,X,X,X,X,X,X,X,X,X,X,X,X,X,X,X,X,X,XN.1X,X,X,X,X,X,X,X,X,X,X,X,X,X,X,X,X,X,X,X,X,X",
"L.,X<X,X,X,X,X,X,X,X,X,X,X,X,X,X5X,X,X,X,X,X,X,X,X}.(.,X<X,X,X,X,X,X,X,X,X,X,X,X,X,X5X,X,X,X,X,X",
"{.-XT.x.*X,X,X,X,X,X,X,X,X,X,X,XR.0X*X,X,X,X,X,X,X_.|.-XU.n.*X,X,X,X,X,X,X,X,X,X,X=XT.qX*X,X,X,X",
"F.G.].f.=X,X,X,X,X,X,X,X,X,X,X,X).j.eX,X,X,X,X,X,X8XH.S.[.g.=X,X,X,X,X,X,X,X,X,X,X=X/.k.eX,X,X,X",
"4.A.6.u.,X,X,X,X,X,X,X,X,X,X,X,X_.M./.,X,X,X,X,X,X#X5.A.a.y.,X,X,X,X,X,X,X,X,X,X,X=X/.M.).,X,X,X",
"-X0.u.4X,X,X,X,X,X,X,X,X,X<X5X,Xz.l./.,X,X,X,X,X,X,X@X0.y.4X,X,X,X,X,X,X,X,X,X,X5X,Xz.j./.,X,X,X",
"kX7X,X,X,X,X,X,X,X,X,X,X&XtXvX%X*X5XwX,X,X,X,X,X,X,X,X6X,X,X,X,X,X,X,X,X,X,X*XrXcX&X*X5XwX,X,X,X"
};
